# Blender v3.0.1 OBJ File: 'procgen_room.blend'
# www.blender.org
mtllib procgen_room.mtl
o Cube
v 0.997959 2.000000 -0.997959
v 1.025039 -0.002080 -1.025039
v 0.997959 2.000000 0.997959
v 1.025039 -0.002080 1.025039
v -0.997959 2.000000 -0.997959
v -1.025039 -0.002080 -1.025039
v -0.997959 2.000000 0.997959
v -1.025039 -0.002080 1.025039
v 1.108843 2.000000 1.108843
v -1.108843 2.000000 1.108843
v 1.108843 2.000000 -1.108843
v -1.108843 2.000000 -1.108843
v 0.900000 0.318102 0.900000
v -0.900000 0.318102 0.900000
v 0.900000 0.318102 -0.900000
v -0.900000 0.318102 -0.900000
v 1.011883 0.218352 -1.011883
v 1.034306 0.168202 -1.034306
v -1.034306 0.168202 1.034306
v -1.011883 0.218352 1.011883
v 1.011883 0.218352 1.011883
v 1.034306 0.168202 1.034306
v -1.034306 0.168202 -1.034306
v -1.011883 0.218352 -1.011883
vt 0.862500 0.737500
vt 0.637500 0.737500
vt 0.637500 0.737500
vt 0.862500 0.737500
vt 0.375000 0.750000
vt 0.395765 0.750000
vt 0.395765 1.000000
vt 0.375000 1.000000
vt 0.125000 0.500000
vt 0.375000 0.500000
vt 0.125000 0.750000
vt 0.402294 0.250000
vt 0.625000 0.250000
vt 0.625000 0.500000
vt 0.402294 0.500000
vt 0.402294 0.000000
vt 0.625000 0.000000
vt 0.875000 0.750000
vt 0.625000 0.750000
vt 0.637500 0.512500
vt 0.862500 0.512500
vt 0.875000 0.500000
vt 0.637500 0.512500
vt 0.862500 0.512500
vt 0.402294 0.750000
vt 0.375000 0.250000
vt 0.395765 0.250000
vt 0.395765 0.500000
vt 0.625000 1.000000
vt 0.402294 1.000000
vt 0.375000 0.000000
vt 0.395765 0.000000
vn 0.0000 0.0581 -0.9983
vn 0.0000 -0.0543 0.9985
vn 0.0000 -1.0000 0.0000
vn 0.0000 -0.0543 -0.9985
vn -0.9985 -0.0543 0.0000
vn 0.0000 1.0000 0.0000
vn 0.0000 0.0581 0.9983
vn -0.9983 0.0581 0.0000
vn 0.9983 0.0581 0.0000
vn 0.9985 -0.0543 0.0000
vn 0.0000 0.4082 -0.9129
vn 0.9129 0.4082 0.0000
vn -0.9129 0.4082 0.0000
vn 0.0000 0.4082 0.9129
usemtl Material
s off
f 7/1/1 3/2/1 13/3/1 14/4/1
f 4/5/2 22/6/2 19/7/2 8/8/2
f 6/9/3 2/10/3 4/5/3 8/11/3
f 24/12/4 12/13/4 11/14/4 17/15/4
f 20/16/5 10/17/5 12/13/5 24/12/5
f 3/2/6 7/1/6 10/18/6 9/19/6
f 1/20/6 3/2/6 9/19/6 11/14/6
f 7/1/6 5/21/6 12/22/6 10/18/6
f 5/21/6 1/20/6 11/14/6 12/22/6
f 15/23/6 16/24/6 14/4/6 13/3/6
f 1/20/7 5/21/7 16/24/7 15/23/7
f 3/2/8 1/20/8 15/23/8 13/3/8
f 5/21/9 7/1/9 14/4/9 16/24/9
f 17/15/10 11/14/10 9/19/10 21/25/10
f 6/26/4 23/27/4 18/28/4 2/10/4
f 21/25/2 9/19/2 10/29/2 20/30/2
f 8/31/5 19/32/5 23/27/5 6/26/5
f 24/12/11 17/15/11 18/28/11 23/27/11
f 17/15/12 21/25/12 22/6/12 18/28/12
f 20/16/13 24/12/13 23/27/13 19/32/13
f 21/25/14 20/30/14 19/7/14 22/6/14
f 2/10/10 18/28/10 22/6/10 4/5/10
