<?xml version="1.0" encoding="UTF-8" standalone="no"?>
<!DOCTYPE svg PUBLIC "-//W3C//DTD SVG 1.1//EN" "http://www.w3.org/Graphics/SVG/1.1/DTD/svg11.dtd">
<!-- Created with Vectornator (http://vectornator.io/) -->
<svg stroke-miterlimit="10" style="fill-rule:nonzero;clip-rule:evenodd;stroke-linecap:round;stroke-linejoin:round;" version="1.1" viewBox="0 0 500 500" xml:space="preserve" xmlns="http://www.w3.org/2000/svg" xmlns:xlink="http://www.w3.org/1999/xlink">
<defs/>
<g id="Layer-1">
<g opacity="1">
<path d="M76.0808 84.525C34.0602 84.525 0 118.585 0 160.606L0 339.394C0 381.415 34.0602 415.475 76.0808 415.475C118.101 415.475 152.162 381.415 152.162 339.394L152.162 160.606C152.162 118.585 118.101 84.525 76.0808 84.525Z" fill="#8eef97" fill-rule="evenodd" opacity="1" stroke="none"/>
<path d="M250.267 84.525C208.246 84.525 174.186 118.585 174.186 160.606L174.186 339.394C174.186 381.415 208.246 415.475 250.267 415.475C292.287 415.475 326.347 381.415 326.347 339.394L326.347 160.606C326.347 118.585 292.287 84.525 250.267 84.525Z" fill="#8eef97" fill-rule="evenodd" opacity="1" stroke="none"/>
<path d="M423.919 84.525C381.899 84.525 347.838 118.585 347.838 160.606L347.838 339.394C347.838 381.415 381.899 415.475 423.919 415.475C465.94 415.475 500 381.415 500 339.394L500 160.606C500 118.585 465.94 84.525 423.919 84.525ZM423.919 135.819C437.611 135.819 448.706 146.914 448.706 160.606L448.706 339.394C448.706 353.086 437.611 364.181 423.919 364.181C410.228 364.181 399.133 353.086 399.133 339.394L399.133 160.606C399.133 146.914 410.228 135.819 423.919 135.819Z" fill="#8eef97" fill-rule="evenodd" opacity="1" stroke="none"/>
</g>
</g>
</svg>
