# Blender v3.2.1 OBJ File: ''
# www.blender.org
mtllib grass_blade_01.mtl
o Plane
v -0.275157 -0.005183 -0.002347
v 0.275157 -0.005183 -0.002347
v 0.000000 1.994817 -0.094438
v 0.408676 0.399909 0.047885
v -0.213634 1.176924 -0.002347
v 0.213634 1.176924 -0.002347
v 0.000000 -0.005183 -0.094438
v -0.408676 0.399909 0.047885
v 0.000000 1.176924 -0.094438
v 0.000000 0.399909 -0.094438
v 0.351531 0.740963 0.047885
v 0.000000 0.740963 -0.094438
v -0.351531 0.740963 0.047885
vt 0.000000 0.000000
vt 0.000000 0.000000
vt 0.000000 0.000000
vt 0.000000 0.000000
vt 0.250000 0.125000
vt 0.000000 0.125000
vt 0.500000 0.250000
vt 1.000000 0.250000
vt 0.500000 0.125000
vt 0.000000 0.000000
vt 0.500000 0.000000
vt 0.000000 0.250000
vt 1.000000 0.000000
vn 0.0000 -0.0040 1.0000
vn 0.0000 0.0000 1.0000
vn 0.3883 -0.0044 0.9215
vn -0.3883 -0.0044 0.9215
vn 0.0000 -0.0198 0.9998
vn 0.3643 -0.0201 0.9311
vn 0.0000 -0.0184 0.9998
vn -0.3383 -0.0181 0.9408
vn -0.3643 -0.0201 0.9311
vn 0.3243 -0.0052 0.9460
vn 0.0000 -0.0055 1.0000
vn 0.3383 -0.0181 0.9408
vn -0.3243 -0.0052 0.9460
usemtl None
s 1
f 9/1/1 3/2/2 5/3/3
f 3/2/2 9/1/1 6/4/4
f 12/5/5 9/1/1 5/3/3 13/6/6
f 12/5/5 10/7/7 4/8/8 11/9/9
f 1/10/10 7/11/11 10/7/7 8/12/12
f 7/11/11 2/13/13 4/8/8 10/7/7
f 9/1/1 12/5/5 11/9/9 6/4/4
f 10/7/7 12/5/5 13/6/6 8/12/12
