# Blender v3.2.1 OBJ File: 'rock_01.blend'
# www.blender.org
mtllib rock_01.mtl
o Cube
v -0.947966 1.415899 -1.365150
v -0.802867 0.000000 -0.618775
v -0.555567 0.000000 0.260562
v -1.032740 1.337103 0.376552
v -0.682420 0.000000 0.907894
v -0.841203 0.851142 1.376808
v 0.982409 0.851142 1.149217
v 0.682420 0.000000 0.907894
v -0.312856 0.021435 1.413124
v -0.338160 0.320851 1.670936
v 0.347172 0.335176 1.929069
v 0.428595 0.009824 1.944122
v 0.555116 0.275682 1.086699
v 0.553576 0.334779 1.160939
v 0.475286 0.009824 1.130235
v 0.432639 0.007513 1.004618
v -0.468115 0.321243 1.323238
v -0.462727 0.262215 1.267998
v -0.412714 0.014819 0.976354
v -0.436282 0.021435 1.103392
v 0.778725 1.415899 -1.549586
v 0.462318 0.000000 -1.130724
v 0.896117 0.000000 -0.326852
v 1.060776 1.337103 -0.114893
v 1.385807 0.589555 -0.946156
v 1.204035 0.024808 -0.997753
v 1.285209 -0.004837 -0.541007
v 1.281364 0.575076 -0.626529
v 0.840752 0.561626 -1.089134
v 0.899196 0.589168 -1.095176
v 0.750799 0.020089 -0.890721
v 0.683725 0.018017 -0.880387
v 0.889836 0.543663 -0.512109
v 0.926919 0.575076 -0.513266
v 0.921186 -0.000314 -0.615070
v 0.867945 0.000348 -0.630068
vt 0.625000 0.625000
vt 0.875000 0.625000
vt 0.875000 0.750000
vt 0.625000 0.750000
vt 0.565619 0.965819
vt 0.563269 0.784564
vt 0.625000 1.000000
vt 0.375000 0.125000
vt 0.625000 0.125000
vt 0.625000 0.250000
vt 0.375000 0.250000
vt 0.125000 0.625000
vt 0.375000 0.625000
vt 0.375000 0.750000
vt 0.125000 0.750000
vt 0.625000 0.500000
vt 0.375000 0.500000
vt 0.125000 0.500000
vt 0.375000 0.000000
vt 0.625000 0.000000
vt 0.875000 0.500000
vt 0.544069 0.795148
vt 0.547639 0.955426
vt 0.547640 0.955469
vt 0.544073 0.795312
vt 0.452260 0.951572
vt 0.456160 0.799199
vt 0.456159 0.799199
vt 0.452260 0.951572
vt 0.547765 0.955474
vt 0.428413 0.966520
vt 0.375000 1.000000
vt 0.437073 0.787629
vt 0.543980 0.795316
vt 0.562662 0.534643
vt 0.560907 0.590443
vt 0.560907 0.590443
vt 0.562656 0.534808
vt 0.433825 0.585757
vt 0.566615 0.593521
vt 0.438980 0.582318
vt 0.437232 0.542773
vt 0.437232 0.542773
vt 0.438980 0.582318
vt 0.432229 0.539334
vt 0.568059 0.531791
vt 0.562631 0.534809
vn 0.0717 0.9179 0.3904
vn 0.1415 -0.1499 0.9785
vn -0.9766 -0.2083 0.0543
vn 0.0000 -1.0000 0.0000
vn 0.9727 -0.2212 0.0707
vn -0.2114 -0.3610 -0.9083
vn -0.9624 -0.2686 -0.0414
vn 0.0087 0.9988 0.0490
vn -0.0163 0.9999 -0.0011
vn -0.0144 -0.9999 0.0010
vn -0.8736 -0.3515 0.3365
vn -0.4452 -0.3894 0.8063
vn -0.4562 -0.5635 0.6887
vn -0.0050 -0.9909 0.1346
vn 0.3639 -0.3827 0.8492
vn -0.9877 -0.0016 -0.1563
vn 0.9480 -0.3014 -0.1024
vn -0.1229 0.7299 -0.6724
vn -0.0119 -0.9993 0.0362
vn 0.9874 0.0010 0.1580
vn -0.0018 0.9995 0.0315
vn 0.9760 -0.0601 -0.2094
vn -0.0025 -0.9977 -0.0673
vn 0.0544 -0.0142 0.9984
vn 0.9880 -0.1530 0.0209
vn 0.0776 -0.9950 -0.0621
vn 0.9837 -0.0714 -0.1653
vn 0.6259 -0.3710 -0.6860
vn -0.0431 -0.3374 -0.9404
vn 0.0149 -0.9965 -0.0822
vn -0.5211 0.8515 0.0581
vn -0.0852 -0.1900 0.9781
vn 0.0449 -0.1463 -0.9882
usemtl Material
s off
f 24/1/1 4/2/1 6/3/1 7/4/1
f 18/5/2 13/6/2 7/4/2 6/7/2
f 3/8/3 4/9/3 1/10/3 2/11/3
f 3/12/4 23/13/4 8/14/4 5/15/4
f 23/13/5 24/1/5 7/4/5 8/14/5
f 2/11/6 1/10/6 21/16/6 22/17/6
f 2/18/4 22/17/4 23/13/4 3/12/4
f 5/19/7 6/20/7 4/9/7 3/8/7
f 21/16/8 1/21/8 4/2/8 24/1/8
f 14/22/9 17/23/9 10/24/9 11/25/9
f 20/26/10 15/27/10 12/28/10 9/29/10
f 17/30/11 20/26/11 9/29/11 10/24/11
f 12/28/12 11/25/12 10/24/12 9/29/12
f 19/31/13 18/5/13 6/7/13 5/32/13
f 16/33/14 19/31/14 5/32/14 8/14/14
f 13/6/15 16/33/15 8/14/15 7/4/15
f 20/26/16 17/30/16 18/5/16 19/31/16
f 14/34/17 15/27/17 16/33/17 13/6/17
f 13/6/18 18/5/18 17/23/18 14/22/18
f 19/31/19 16/33/19 15/27/19 20/26/19
f 15/27/20 14/34/20 11/25/20 12/28/20
f 30/35/21 34/36/21 28/37/21 25/38/21
f 36/39/22 33/40/22 24/1/22 23/13/22
f 35/41/23 31/42/23 26/43/23 27/44/23
f 34/36/24 35/41/24 27/44/24 28/37/24
f 26/43/25 25/38/25 28/37/25 27/44/25
f 32/45/26 36/39/26 23/13/26 22/17/26
f 33/40/27 29/46/27 21/16/27 24/1/27
f 29/46/28 32/45/28 22/17/28 21/16/28
f 30/47/29 31/42/29 32/45/29 29/46/29
f 36/39/30 32/45/30 31/42/30 35/41/30
f 29/46/31 33/40/31 34/36/31 30/35/31
f 33/40/32 36/39/32 35/41/32 34/36/32
f 31/42/33 30/47/33 25/38/33 26/43/33
