<?xml version="1.0" encoding="UTF-8" standalone="no"?>
<!DOCTYPE svg PUBLIC "-//W3C//DTD SVG 1.1//EN" "http://www.w3.org/Graphics/SVG/1.1/DTD/svg11.dtd">
<!-- Created with Vectornator (http://vectornator.io/) -->
<svg stroke-miterlimit="10" style="fill-rule:nonzero;clip-rule:evenodd;stroke-linecap:round;stroke-linejoin:round;" version="1.1" viewBox="0 0 500 500" xml:space="preserve" xmlns="http://www.w3.org/2000/svg" xmlns:xlink="http://www.w3.org/1999/xlink">
<defs/>
<g id="Layer-1">
<path d="M225 75.0118L225 187.512C225 194.412 219.4 200.012 212.5 200.012L87.5 200.012C80.6 200.012 75 194.412 75 187.512L75 75.0118C75 61.2118 63.8 50.0118 50 50.0118L25 50.0118C11.2 50.0118 0 61.2118 0 75.0118L0 425.012C0 438.812 11.2 450.012 25 450.012L50 450.012C63.8 450.012 75 438.812 75 425.012L75 287.512C75 280.612 80.6 275.012 87.5 275.012L212.5 275.012C219.4 275.012 225 280.612 225 287.512L225 425.012C225 438.812 236.2 450.012 250 450.012L275 450.012C288.8 450.012 300 438.812 300 425.012L300 75.0118C300 61.2118 288.8 50.0118 275 50.0118L250 50.0118C236.2 50.0118 225 61.2118 225 75.0118ZM361.375 98.6368C354.525 101.187 350 107.737 350 115.037L350 144.587C350 156.437 361.525 164.862 372.8 161.262L415.225 147.762C420.075 146.212 425 149.812 425 154.887L425 425.012C425 438.812 436.2 450.012 450 450.012L475 450.012C488.8 450.012 500 438.812 500 425.012L500 64.2868C500 54.4368 490.275 47.5368 480.975 50.8118L361.375 98.6368Z" fill="#8eef97" fill-rule="nonzero" opacity="1" stroke="none"/>
</g>
</svg>
