<?xml version="1.0" encoding="UTF-8" standalone="no"?>
<!DOCTYPE svg PUBLIC "-//W3C//DTD SVG 1.1//EN" "http://www.w3.org/Graphics/SVG/1.1/DTD/svg11.dtd">
<!-- Created with Vectornator (http://vectornator.io/) -->
<svg stroke-miterlimit="10" style="fill-rule:nonzero;clip-rule:evenodd;stroke-linecap:round;stroke-linejoin:round;" version="1.1" viewBox="0 0 500 500" xml:space="preserve" xmlns="http://www.w3.org/2000/svg" xmlns:xlink="http://www.w3.org/1999/xlink">
<defs/>
<g id="Layer-1">
<g opacity="1">
<path d="M24.3043 4.17521C10.8814 4.17521 0 15.0566 0 28.4795C0 29.0872 0 339.017 0 339.625C0 353.048 10.8814 363.929 24.3043 363.929L335.45 363.929C348.872 363.929 359.754 353.048 359.754 339.625L359.754 28.4795C359.754 15.0566 348.872 4.17521 335.45 4.17521L24.3043 4.17521ZM48.6085 52.7837L311.145 52.7837L311.145 315.32L48.6085 315.32C48.6085 277.218 48.6085 90.8859 48.6085 52.7837Z" fill="#ffffff" fill-rule="evenodd" opacity="1" stroke="none"/>
<g opacity="1">
<path d="M474.383 380.698C460.236 380.698 448.767 392.167 448.767 406.315L448.767 444.325L411.676 444.325C397.528 444.325 386.059 455.794 386.059 469.941C386.059 484.089 397.528 495.558 411.676 495.558L474.383 495.558C488.531 495.558 500 484.089 500 469.941L500 406.315C500 392.167 488.531 380.698 474.383 380.698Z" fill="#ffffff" fill-rule="evenodd" opacity="1" stroke="none"/>
<path d="M410.608 132.418C396.461 132.418 384.992 143.887 384.992 158.034C384.992 172.182 396.461 183.651 410.608 183.651L448.618 183.651L448.618 220.742C448.618 234.889 460.087 246.358 474.235 246.358C488.383 246.358 499.852 234.89 499.852 220.742L499.852 158.034C499.852 143.887 488.383 132.418 474.235 132.418L410.608 132.418Z" fill="#ffffff" fill-rule="evenodd" opacity="1" stroke="none"/>
<path d="M473.672 274.466C459.524 274.507 448.103 285.994 448.144 300.142L448.203 319.265C448.245 333.413 459.732 344.834 473.879 344.793C488.027 344.752 499.478 333.265 499.437 319.117L499.377 299.993C499.336 285.846 487.819 274.424 473.672 274.466Z" fill="#ffffff" fill-rule="evenodd" opacity="1" stroke="none"/>
<path d="M162.209 380.994C148.062 380.994 136.593 392.463 136.593 406.611L136.593 470.208C136.593 484.356 148.062 495.825 162.209 495.825L224.917 495.825C239.065 495.825 250.534 484.356 250.534 470.208C250.534 456.06 239.065 444.591 224.917 444.591L187.826 444.591L187.826 406.611C187.826 392.463 176.357 380.994 162.209 380.994Z" fill="#ffffff" fill-rule="evenodd" opacity="1" stroke="none"/>
<path d="M162.358 132.714C148.21 132.714 136.741 144.183 136.741 158.331L136.741 221.038C136.741 235.186 148.21 246.655 162.358 246.655C176.505 246.655 187.974 235.186 187.974 221.038L187.974 183.947L225.984 183.947C240.132 183.947 251.601 172.478 251.601 158.331C251.601 144.183 240.132 132.714 225.984 132.714L162.358 132.714Z" fill="#ffffff" fill-rule="evenodd" opacity="1" stroke="none"/>
<path d="M162.921 274.733C148.773 274.691 137.257 286.113 137.215 300.26L137.156 319.384C137.115 333.531 148.566 345.048 162.713 345.089C176.861 345.131 188.348 333.68 188.389 319.532L188.449 300.409C188.49 286.261 177.069 274.774 162.921 274.733Z" fill="#ffffff" fill-rule="evenodd" opacity="1" stroke="none"/>
<path d="M327.502 443.732L308.379 443.791C294.231 443.832 282.81 455.349 282.851 469.497C282.892 483.644 294.379 495.066 308.527 495.024L327.651 494.965C341.798 494.924 353.22 483.437 353.178 469.289C353.137 455.141 341.65 443.69 327.502 443.732Z" fill="#ffffff" fill-rule="evenodd" opacity="1" stroke="none"/>
<path d="M308.26 132.773C294.113 132.732 282.596 144.153 282.555 158.301C282.513 172.449 293.964 183.965 308.112 184.007L327.236 184.066C341.383 184.107 352.87 172.656 352.912 158.509C352.953 144.361 341.531 132.874 327.384 132.833L308.26 132.773Z" fill="#ffffff" fill-rule="evenodd" opacity="1" stroke="none"/>
</g>
</g>
</g>
</svg>
