<?xml version="1.0" encoding="UTF-8" standalone="no"?>
<!DOCTYPE svg PUBLIC "-//W3C//DTD SVG 1.1//EN" "http://www.w3.org/Graphics/SVG/1.1/DTD/svg11.dtd">
<!-- Created with Vectornator (http://vectornator.io/) -->
<svg stroke-miterlimit="10" style="fill-rule:nonzero;clip-rule:evenodd;stroke-linecap:round;stroke-linejoin:round;" version="1.1" viewBox="0 0 512 512" xml:space="preserve" xmlns="http://www.w3.org/2000/svg" xmlns:xlink="http://www.w3.org/1999/xlink">
<defs/>
<g id="Layer-1">
<g opacity="1">
<path d="M247.503 0.682095C241.25 0.682095 235.6 3.22953 231.523 7.34714L4.56029 205.389L4.63825 205.583C1.88996 207.635 7.92986e-06 210.738 0 214.431C-1.34117e-06 220.645 5.01186 225.696 11.2253 225.695L67.5079 225.695L67.5079 405.691C67.5079 418.111 77.5769 428.18 89.9976 428.18L255.571 428.18C240.716 418.675 230.821 402.132 230.821 383.201L157.505 383.201C157.505 371.253 157.505 327.641 157.505 315.693C157.505 265.988 197.798 225.695 247.503 225.695C284.986 225.695 317.106 248.614 330.641 281.199C331.91 252.768 355.192 230.139 383.883 230.139C401.91 230.139 417.805 239.129 427.498 252.823L427.498 225.695L483.781 225.695C489.994 225.695 495.006 220.645 495.006 214.431C495.006 210.738 493.116 207.635 490.368 205.583L490.446 205.389L263.484 7.34714C259.406 3.22952 253.756 0.682073 247.503 0.682095Z" fill="#ffffff" fill-rule="nonzero" opacity="1" stroke="none"/>
<path d="M383.883 255.084C368.132 255.084 355.352 267.825 355.352 283.576L355.352 354.67L284.258 354.67C268.507 354.67 255.766 367.45 255.766 383.201C255.766 398.952 268.507 411.732 284.258 411.732L355.352 411.732L355.352 482.826C355.352 498.577 368.132 511.318 383.883 511.318C399.634 511.318 412.414 498.577 412.414 482.826L412.414 411.732L483.508 411.732C499.259 411.732 512 398.952 512 383.201C512 367.45 499.259 354.67 483.508 354.67L412.414 354.67L412.414 283.576C412.414 267.825 399.634 255.084 383.883 255.084Z" fill="#ffffff" fill-rule="nonzero" opacity="1" stroke="none"/>
</g>
</g>
</svg>
