<?xml version="1.0" encoding="UTF-8" standalone="no"?>
<!DOCTYPE svg PUBLIC "-//W3C//DTD SVG 1.1//EN" "http://www.w3.org/Graphics/SVG/1.1/DTD/svg11.dtd">
<!-- Created with Vectornator (http://vectornator.io/) -->
<svg stroke-miterlimit="10" style="fill-rule:nonzero;clip-rule:evenodd;stroke-linecap:round;stroke-linejoin:round;" version="1.1" viewBox="0 0 512 512" xml:space="preserve" xmlns="http://www.w3.org/2000/svg" xmlns:xlink="http://www.w3.org/1999/xlink">
<defs/>
<g id="Layer-1">
<g opacity="1">
<path d="M256.123 0C212.603 0 177.328 35.2745 177.328 78.7944C177.328 89.6737 186.148 98.4932 197.027 98.493C207.906 98.493 216.726 89.6737 216.725 78.7944C216.725 57.0331 234.361 39.3971 256.123 39.3972C277.884 39.3972 295.52 57.0331 295.52 78.7944C295.52 89.6737 304.339 98.4932 315.218 98.493C326.098 98.493 334.917 89.6737 334.917 78.7944C334.917 35.2746 299.643-0.000388245 256.123 0Z" fill="#ffffff" fill-rule="nonzero" opacity="1" stroke="none"/>
<path d="M393.89 78.6307L118.11 78.6307C74.5955 78.6307 39.3153 113.911 39.3153 157.425L39.3153 196.822C39.3153 207.696 48.1403 216.521 59.014 216.521L78.7126 216.521L78.7126 196.822C78.7126 185.949 87.5375 177.124 98.4112 177.124C109.285 177.124 118.11 185.949 118.11 196.822L118.11 216.521L256 216.521L256 196.822C256 185.949 264.825 177.124 275.699 177.124C286.572 177.124 295.397 185.949 295.397 196.822L295.397 216.521L334.794 216.521C345.668 216.521 354.493 207.696 354.493 196.822L354.493 159.631C354.493 139.992 367.868 121.751 387.232 118.56C411.895 114.522 433.287 133.531 433.287 157.425L433.287 430.999C433.287 450.639 419.912 468.88 400.548 472.071C375.886 476.109 354.493 457.1 354.493 433.206L354.493 275.617C354.493 264.743 345.668 255.918 334.794 255.918L295.397 255.918L295.397 275.617C295.397 286.49 286.572 295.315 275.699 295.315C264.825 295.315 256 286.49 256 275.617L256 255.918L118.11 255.918L118.11 275.617C118.11 286.49 109.285 295.315 98.4112 295.315C87.5375 295.315 78.7126 286.49 78.7126 275.617L78.7126 255.918L59.014 255.918C48.1403 255.918 39.3153 264.743 39.3153 275.617L39.3153 433.206C39.3153 476.72 74.5955 512 118.11 512L393.89 512C437.404 512 472.685 476.72 472.685 433.206L472.685 157.425C472.685 113.911 437.404 78.6307 393.89 78.6307ZM295.397 413.507C295.397 424.381 286.572 433.206 275.699 433.206L98.4112 433.206C87.5375 433.206 78.7126 424.381 78.7126 413.507L78.7126 374.11C78.7126 363.236 87.5375 354.411 98.4112 354.411L275.699 354.411C286.572 354.411 295.397 363.236 295.397 374.11L295.397 413.507Z" fill="#ffffff" fill-rule="nonzero" opacity="1" stroke="none"/>
</g>
</g>
</svg>
