<?xml version="1.0" encoding="UTF-8" standalone="no"?>
<!DOCTYPE svg PUBLIC "-//W3C//DTD SVG 1.1//EN" "http://www.w3.org/Graphics/SVG/1.1/DTD/svg11.dtd">
<!-- Created with Vectornator (http://vectornator.io/) -->
<svg stroke-miterlimit="10" style="fill-rule:nonzero;clip-rule:evenodd;stroke-linecap:round;stroke-linejoin:round;" version="1.1" viewBox="0 0 512 512" xml:space="preserve" xmlns="http://www.w3.org/2000/svg" xmlns:xlink="http://www.w3.org/1999/xlink">
<defs/>
<g id="Layer-1">
<path d="M372.364 488.727L372.364 442.182C372.364 429.335 361.937 418.909 349.091 418.909L162.909 418.909C150.063 418.909 139.636 429.335 139.636 442.182L139.636 488.727C139.636 501.574 150.063 512 162.909 512L349.091 512C361.937 512 372.364 501.574 372.364 488.727ZM232.727 349.091L232.727 302.545C232.727 289.699 222.301 279.273 209.455 279.273L0 279.273L0 372.364L209.455 372.364C222.301 372.364 232.727 361.937 232.727 349.091ZM0 232.727L69.8182 232.727C82.6647 232.727 93.0909 222.301 93.0909 209.455L93.0909 162.909C93.0909 150.063 82.6647 139.636 69.8182 139.636L0 139.636L0 232.727ZM302.545 93.0909L512 93.0909L512 46.5455C512 20.8291 491.171 0 465.455 0L302.545 0C289.699 0 279.273 10.4262 279.273 23.2727L279.273 69.8182C279.273 82.6647 289.699 93.0909 302.545 93.0909ZM162.909 232.727L349.091 232.727C361.937 232.727 372.364 222.301 372.364 209.455L372.364 162.909C372.364 150.063 361.937 139.636 349.091 139.636L162.909 139.636C150.063 139.636 139.636 150.063 139.636 162.909L139.636 209.455C139.636 222.301 150.063 232.727 162.909 232.727ZM418.909 162.909L418.909 209.455C418.909 222.301 429.335 232.727 442.182 232.727L512 232.727L512 139.636L442.182 139.636C429.335 139.636 418.909 150.063 418.909 162.909ZM418.909 442.182L418.909 488.727C418.909 501.574 429.335 512 442.182 512L465.455 512C491.171 512 512 491.171 512 465.455L512 418.909L442.182 418.909C429.335 418.909 418.909 429.335 418.909 442.182ZM69.8182 418.909L0 418.909L0 465.455C0 491.171 20.8291 512 46.5455 512L69.8182 512C82.6647 512 93.0909 501.574 93.0909 488.727L93.0909 442.182C93.0909 429.335 82.6647 418.909 69.8182 418.909ZM512 279.273L302.545 279.273C289.699 279.273 279.273 289.699 279.273 302.545L279.273 349.091C279.273 361.937 289.699 372.364 302.545 372.364L512 372.364L512 279.273ZM232.727 69.8182L232.727 23.2727C232.727 10.4262 222.301 0 209.455 0L46.5455 0C20.8291 0 0 20.8291 0 46.5455L0 93.0909L209.455 93.0909C222.301 93.0909 232.727 82.6647 232.727 69.8182Z" fill="#ffffff" fill-rule="nonzero" opacity="1" stroke="none"/>
</g>
</svg>
