<?xml version="1.0" encoding="UTF-8" standalone="no"?>
<!DOCTYPE svg PUBLIC "-//W3C//DTD SVG 1.1//EN" "http://www.w3.org/Graphics/SVG/1.1/DTD/svg11.dtd">
<!-- Created with Vectornator (http://vectornator.io/) -->
<svg stroke-miterlimit="10" style="fill-rule:nonzero;clip-rule:evenodd;stroke-linecap:round;stroke-linejoin:round;" version="1.1" viewBox="0 0 500 500" xml:space="preserve" xmlns="http://www.w3.org/2000/svg" xmlns:xlink="http://www.w3.org/1999/xlink">
<defs/>
<g id="Layer-1">
<g opacity="1">
<path d="M0 399.955L0 468.3C0 475.944 5.84532 481.79 13.4892 481.79L172.212 481.79C179.856 481.79 185.701 475.944 185.701 468.3L185.701 399.955C185.701 392.311 179.856 386.466 172.212 386.466L13.4892 386.466C6.29496 386.466 0 392.761 0 399.955Z" fill="#ffffff" fill-rule="evenodd" opacity="1" stroke="none"/>
<path d="M206.385 399.955L206.385 468.3C206.385 475.944 212.23 481.79 219.874 481.79L378.597 481.79C386.241 481.79 392.086 475.944 392.086 468.3L392.086 399.955C392.086 392.311 386.241 386.466 378.597 386.466L219.874 386.466C212.68 386.466 206.385 392.761 206.385 399.955Z" fill="#ffffff" fill-rule="evenodd" opacity="1" stroke="none"/>
<path d="M392.086 243.48L392.086 175.135C392.086 167.491 386.241 161.646 378.597 161.646L219.874 161.646C212.23 161.646 206.385 167.491 206.385 175.135L206.385 243.48C206.385 251.124 212.23 256.969 219.874 256.969L378.597 256.969C386.241 256.969 392.086 251.124 392.086 243.48Z" fill="#ffffff" fill-rule="evenodd" opacity="1" stroke="none"/>
<path d="M8.09353 108.138C7.19425 111.736 7.64389 115.333 9.44245 118.48L43.6151 177.383C46.3129 181.879 50.8094 184.128 55.3058 184.128C57.554 184.128 59.8022 183.678 62.0504 182.329L199.64 102.743C202.788 100.944 205.036 97.7968 205.935 94.6493C206.835 91.5018 206.385 87.455 204.586 84.3075L170.414 24.955C168.615 21.8076 165.468 19.5593 162.32 18.6601C158.723 17.7608 155.126 18.2104 151.978 20.009L14.3885 100.045C11.241 101.844 8.99281 104.541 8.09353 108.138Z" fill="#ffffff" fill-rule="evenodd" opacity="1" stroke="none"/>
<path d="M495.504 468.3L495.504 399.955C495.504 392.311 489.658 386.466 482.014 386.466L426.709 386.466C419.065 386.466 413.219 392.311 413.219 399.955L413.219 468.3C413.219 475.944 419.065 481.79 426.709 481.79L482.014 481.79C489.658 481.79 495.504 475.944 495.504 468.3Z" fill="#ffffff" fill-rule="evenodd" opacity="1" stroke="none"/>
<path d="M500 175.135C500 167.491 494.155 161.646 486.511 161.646L426.709 161.646C419.065 161.646 413.219 167.491 413.219 175.135L413.219 243.48C413.219 251.124 419.065 256.969 426.709 256.969L486.511 256.969C494.155 256.969 500 251.124 500 243.48L500 175.135Z" fill="#ffffff" fill-rule="evenodd" opacity="1" stroke="none"/>
<path d="M278.327 274.955L119.604 274.955C111.96 274.955 106.115 280.8 106.115 288.444L106.115 356.79C106.115 364.433 111.96 370.279 119.604 370.279L278.327 370.279C285.971 370.279 291.817 364.433 291.817 356.79L291.817 288.444C291.817 281.25 285.971 274.955 278.327 274.955Z" fill="#ffffff" fill-rule="evenodd" opacity="1" stroke="none"/>
<path d="M497.752 288.444C497.752 280.8 491.906 274.955 484.263 274.955L325.54 274.955C317.896 274.955 312.05 280.8 312.05 288.444L312.05 356.79C312.05 364.433 317.896 370.279 325.54 370.279L484.263 370.279C491.906 370.279 497.752 364.433 497.752 356.79L497.752 288.444Z" fill="#ffffff" fill-rule="evenodd" opacity="1" stroke="none"/>
</g>
</g>
</svg>
