<?xml version="1.0" encoding="UTF-8" standalone="no"?>
<!DOCTYPE svg PUBLIC "-//W3C//DTD SVG 1.1//EN" "http://www.w3.org/Graphics/SVG/1.1/DTD/svg11.dtd">
<!-- Created with Vectornator (http://vectornator.io/) -->
<svg stroke-miterlimit="10" style="fill-rule:nonzero;clip-rule:evenodd;stroke-linecap:round;stroke-linejoin:round;" version="1.1" viewBox="0 0 512 512" xml:space="preserve" xmlns="http://www.w3.org/2000/svg" xmlns:xlink="http://www.w3.org/1999/xlink">
<defs/>
<g id="Layer-1">
<g opacity="1">
<path d="M256 437.333L85.3333 437.333C38.272 437.333 0 399.061 0 352C0 304.939 38.272 266.667 85.3333 266.667L256 266.667C303.061 266.667 341.333 304.939 341.333 352C341.333 399.061 303.061 437.333 256 437.333ZM85.3333 309.333C61.8027 309.333 42.6667 328.469 42.6667 352C42.6667 375.531 61.8027 394.667 85.3333 394.667L256 394.667C279.531 394.667 298.667 375.531 298.667 352C298.667 328.469 279.531 309.333 256 309.333L85.3333 309.333Z" fill="#ffffff" fill-rule="nonzero" opacity="1" stroke="none"/>
<path d="M170.667 330.667C158.885 330.667 149.333 340.218 149.333 352C149.333 363.782 158.885 373.333 170.667 373.333C182.449 373.333 192 363.782 192 352C192 340.218 182.449 330.667 170.667 330.667ZM85.3333 330.667C73.5513 330.667 64 340.218 64 352C64 363.782 73.5513 373.333 85.3333 373.333C97.1154 373.333 106.667 363.782 106.667 352C106.667 340.218 97.1154 330.667 85.3333 330.667ZM256 330.667C244.218 330.667 234.667 340.218 234.667 352C234.667 363.782 244.218 373.333 256 373.333C267.782 373.333 277.333 363.782 277.333 352C277.333 340.218 267.782 330.667 256 330.667Z" fill="#ffffff" fill-rule="nonzero" opacity="1" stroke="none"/>
<path d="M494.763 392.533C467.755 385.045 448 355.328 448 266.667C448 254.891 438.443 245.333 426.667 245.333C414.891 245.333 405.333 254.891 405.333 266.667L405.333 330.667L362.667 330.667L362.667 245.333C362.667 217.6 344.747 194.133 320 185.173L320 160C320 148.224 310.443 138.667 298.667 138.667C286.891 138.667 277.333 148.224 277.333 160L277.333 181.333L234.667 181.333L234.667 117.333C234.667 93.8667 215.467 74.6667 192 74.6667L106.667 74.6667C83.2 74.6667 64 93.8667 64 117.333L64 193.28C38.6133 208 21.3333 235.307 21.3333 266.667L21.3333 309.333L37.76 309.333C38.4 308.48 39.2533 307.627 40.1067 306.773C51.6267 295.253 67.6267 288 85.3333 288L256 288C291.563 288 320.256 316.843 320 352.469C319.915 364.075 329.728 373.333 341.333 373.333L405.333 373.333L405.333 416C405.333 427.776 414.891 437.333 426.667 437.333L489.216 437.333C501.803 437.333 512 427.136 512 414.549C512 404.117 504.811 395.328 494.763 392.533ZM192 181.333L106.667 181.333L106.667 117.333L192 117.333L192 181.333Z" fill="#ffffff" fill-rule="nonzero" opacity="1" stroke="none"/>
</g>
</g>
</svg>
