<?xml version="1.0" encoding="UTF-8" standalone="no"?>
<!DOCTYPE svg PUBLIC "-//W3C//DTD SVG 1.1//EN" "http://www.w3.org/Graphics/SVG/1.1/DTD/svg11.dtd">
<!-- Created with Vectornator (http://vectornator.io/) -->
<svg stroke-miterlimit="10" style="fill-rule:nonzero;clip-rule:evenodd;stroke-linecap:round;stroke-linejoin:round;" version="1.1" viewBox="0 0 512 512" xml:space="preserve" xmlns="http://www.w3.org/2000/svg" xmlns:xlink="http://www.w3.org/1999/xlink">
<defs/>
<g id="Layer-1">
<g opacity="1">
<path d="M28.7899 0.483098C13.1034 0.483098 0.37229 13.2142 0.37229 28.9007L0.37229 369.912L85.6251 369.912C101.312 369.912 114.043 357.181 114.043 341.494L114.043 199.406C114.043 98.1544 73.4055 36.9713 57.2075 16.6243C44.789 0 28.7899 0.483098 28.7899 0.483098Z" fill="#ffffff" fill-rule="nonzero" opacity="1" stroke="none"/>
<path d="M28.5284 312.981C12.8338 312.981 0.110867 325.704 0.110808 341.399L0.110808 483.487C0.110808 499.182 12.8335 511.905 28.5284 511.905C44.223 511.905 56.9463 499.182 56.946 483.487L56.946 341.399C56.946 325.704 44.2231 312.981 28.5284 312.981Z" fill="#ffffff" fill-rule="nonzero" opacity="1" stroke="none"/>
<path d="M455.054 0L227.713 0C196.369 0 170.878 25.4906 170.878 56.8352L170.878 455.165C170.878 486.509 196.369 512 227.713 512L455.054 512C486.399 512 511.889 486.509 511.889 455.165L511.889 56.8352C511.889 25.4906 486.399 0 455.054 0ZM341.384 114.154C325.697 114.154 312.966 101.422 312.966 85.7359C312.966 70.0494 325.697 57.3183 341.384 57.3183C357.07 57.3183 369.801 70.0494 369.801 85.7359C369.801 101.422 357.07 114.154 341.384 114.154Z" fill="#ffffff" fill-rule="nonzero" opacity="1" stroke="none"/>
</g>
</g>
</svg>
