<?xml version="1.0" encoding="UTF-8" standalone="no"?>
<!DOCTYPE svg PUBLIC "-//W3C//DTD SVG 1.1//EN" "http://www.w3.org/Graphics/SVG/1.1/DTD/svg11.dtd">
<!-- Created with Vectornator (http://vectornator.io/) -->
<svg stroke-miterlimit="10" style="fill-rule:nonzero;clip-rule:evenodd;stroke-linecap:round;stroke-linejoin:round;" version="1.1" viewBox="0 0 512 512" xml:space="preserve" xmlns="http://www.w3.org/2000/svg" xmlns:xlink="http://www.w3.org/1999/xlink">
<defs/>
<g id="Layer-1">
<path d="M51.2208 0.0130271C38.2168 0.0130297 24.9914 4.99663 15.0005 14.9875C-5.00926 34.9973-4.99087 67.4368 15.0005 87.4281C57.1402 129.568 134.036 206.464 183.559 255.987C134.036 305.51 57.1402 382.406 15.0005 424.546C-5.00931 444.556-4.99101 476.995 15.0005 496.987C35.0103 516.996 67.4498 516.978 87.4411 496.987C129.581 454.847 206.477 377.951 256 328.428C305.523 377.951 382.419 454.847 424.559 496.987C444.569 516.996 477.008 516.978 497 496.987C517.009 476.977 516.991 444.537 497 424.546C454.86 382.406 377.964 305.51 328.441 255.987C377.964 206.464 454.86 129.568 497 87.4281C517.009 67.4182 516.991 34.9787 497 14.9875C487.011 4.99864 473.789 0.0130271 460.779 0.0130271C447.775 0.0130271 434.55 4.99641 424.559 14.9875C382.419 57.1272 305.523 134.023 256 183.546C206.477 134.023 129.581 57.1272 87.4411 14.9875C77.4522 4.99846 64.2303 0.0130284 51.2208 0.0130271Z" fill="#ffffff" fill-rule="nonzero" opacity="1" stroke="none"/>
</g>
</svg>
