<?xml version="1.0" encoding="UTF-8" standalone="no"?>
<!DOCTYPE svg PUBLIC "-//W3C//DTD SVG 1.1//EN" "http://www.w3.org/Graphics/SVG/1.1/DTD/svg11.dtd">
<!-- Created with Vectornator (http://vectornator.io/) -->
<svg stroke-miterlimit="10" style="fill-rule:nonzero;clip-rule:evenodd;stroke-linecap:round;stroke-linejoin:round;" version="1.1" viewBox="0 0 512 512" xml:space="preserve" xmlns="http://www.w3.org/2000/svg" xmlns:xlink="http://www.w3.org/1999/xlink">
<defs/>
<g id="Layer-1">
<g opacity="1">
<path d="M106.785 384.044C71.4416 384.044 42.8067 412.679 42.8069 448.022C42.8069 483.365 71.4415 512 106.785 512L448 512C459.778 512 469.326 502.452 469.326 490.674C469.326 478.896 459.778 469.348 448 469.348L106.785 469.348C94.9976 469.348 85.4589 459.809 85.4588 448.022C85.4588 436.235 94.9976 426.696 106.785 426.696C118.563 426.696 128.111 417.148 128.111 405.37C128.111 393.592 118.563 384.044 106.785 384.044Z" fill="#ffffff" fill-rule="nonzero" opacity="1" stroke="none"/>
<path d="M426.541 0L106.652 0C71.3149 0 42.6741 28.6407 42.6741 63.9778L42.6741 447.845L85.326 426.519L426.541 426.519C450.106 426.519 469.193 407.432 469.193 383.867L469.193 42.6519C469.193 19.0867 450.106 0 426.541 0ZM356.315 334.967C347.976 343.305 334.477 343.305 326.16 334.967L283.508 292.315L313.663 262.16L356.315 304.812C364.653 313.129 364.653 326.65 356.315 334.967ZM382.205 190.227C361.476 210.956 333.07 217.887 310.72 209.954L185.729 334.945C177.39 343.284 163.891 343.284 155.574 334.945C147.235 326.607 147.235 313.108 155.574 304.79L204.453 255.911L177.113 228.572C145.167 196.625 137.894 147.533 159.22 107.696L255.934 204.431L280.544 179.82C272.611 157.471 279.541 129.065 300.27 108.336C327.418 81.1879 367.746 77.5198 390.372 100.147C412.999 122.773 409.331 163.101 382.205 190.227Z" fill="#ffffff" fill-rule="nonzero" opacity="1" stroke="none"/>
</g>
</g>
</svg>
