<?xml version="1.0" encoding="UTF-8" standalone="no"?>
<!DOCTYPE svg PUBLIC "-//W3C//DTD SVG 1.1//EN" "http://www.w3.org/Graphics/SVG/1.1/DTD/svg11.dtd">
<!-- Created with Vectornator (http://vectornator.io/) -->
<svg stroke-miterlimit="10" style="fill-rule:nonzero;clip-rule:evenodd;stroke-linecap:round;stroke-linejoin:round;" version="1.1" viewBox="0 0 512 512" xml:space="preserve" xmlns="http://www.w3.org/2000/svg" xmlns:xlink="http://www.w3.org/1999/xlink">
<defs/>
<g id="Layer-1">
<path d="M256 0C114.618 0-0.000386556 114.618 0 256C0 397.382 114.618 512 256 512C397.382 512 512 397.382 512 256C512 114.618 397.382-0.000325521 256 0ZM256 42.6562C373.818 42.6562 469.344 138.182 469.344 256C469.344 373.818 373.818 469.344 256 469.344C138.182 469.344 42.6563 373.818 42.6562 256C42.6562 138.182 138.182 42.6563 256 42.6562Z" fill="#ffffff" fill-rule="nonzero" opacity="1" stroke="none"/>
<path d="M255.867 511.823L85.2005 511.823L68.4112 477.433L106.534 426.489L255.867 426.489L255.867 511.823Z" fill="#ffffff" fill-rule="nonzero" opacity="1" stroke="none"/>
<path d="M85.2005 469.156C73.4184 469.156 63.8672 478.707 63.8672 490.489C63.8672 502.271 73.4184 511.823 85.2005 511.823C96.9826 511.823 106.534 502.271 106.534 490.489C106.534 478.707 96.9826 469.156 85.2005 469.156ZM255.867 511.823L426.534 511.823L443.323 477.433L405.201 426.489L255.867 426.489L255.867 511.823Z" fill="#ffffff" fill-rule="nonzero" opacity="1" stroke="none"/>
<path d="M426.534 469.156C414.752 469.156 405.201 478.707 405.201 490.489C405.201 502.271 414.752 511.823 426.534 511.823C438.316 511.823 447.867 502.271 447.867 490.489C447.867 478.707 438.316 469.156 426.534 469.156Z" fill="#ffffff" fill-rule="nonzero" opacity="1" stroke="none"/>
<path d="M346.646 119.167L331.784 163.753L287.198 178.615C275.972 182.357 275.972 198.228 287.198 201.97L331.784 216.832L346.646 261.418C350.388 272.644 366.259 272.644 370.001 261.418L384.863 216.832L429.449 201.97C440.675 198.228 440.675 182.357 429.449 178.615L384.863 163.753L370.001 119.167C366.259 107.941 350.388 107.941 346.646 119.167Z" fill="#ffffff" fill-rule="nonzero" opacity="1" stroke="none"/>
<path d="M271.372 285.158L258.978 322.366L221.77 334.76C212.402 337.891 212.402 351.108 221.77 354.239L258.978 366.633L271.372 403.841C274.504 413.21 287.721 413.21 290.852 403.841L303.246 366.633L340.454 354.239C349.823 351.108 349.823 337.891 340.454 334.76L303.246 322.366L290.852 285.158C287.721 275.816 274.504 275.816 271.372 285.158Z" fill="#ffffff" fill-rule="nonzero" opacity="1" stroke="none"/>
<path d="M195.333 181.667L185.37 211.577L155.461 221.539C147.93 224.057 147.93 234.681 155.461 237.198L185.37 247.161L195.333 277.07C197.85 284.601 208.474 284.601 210.992 277.07L220.954 247.161L250.864 237.198C258.394 234.681 258.394 224.057 250.864 221.539L220.954 211.577L210.992 181.667C208.474 174.158 197.85 174.158 195.333 181.667Z" fill="#ffffff" fill-rule="nonzero" opacity="1" stroke="none"/>
<path d="M29.2969 250.079C29.2969 124.219 131.327 22.1889 257.187 22.1889C383.047 22.1889 485.077 124.219 485.077 250.079C485.077 375.939 383.047 477.969 257.187 477.969C131.327 477.969 29.2969 375.939 29.2969 250.079Z" fill="#ffffff" fill-opacity="0.4" fill-rule="nonzero" opacity="1" stroke="none"/>
</g>
</svg>
