<?xml version="1.0" encoding="UTF-8" standalone="no"?>
<!DOCTYPE svg PUBLIC "-//W3C//DTD SVG 1.1//EN" "http://www.w3.org/Graphics/SVG/1.1/DTD/svg11.dtd">
<!-- Created with Vectornator (http://vectornator.io/) -->
<svg stroke-miterlimit="10" style="fill-rule:nonzero;clip-rule:evenodd;stroke-linecap:round;stroke-linejoin:round;" version="1.1" viewBox="0 0 512 512" xml:space="preserve" xmlns="http://www.w3.org/2000/svg" xmlns:xlink="http://www.w3.org/1999/xlink">
<defs/>
<g id="Layer-1">
<path d="M384 118.446C384 100.164 369.18 85.3438 350.898 85.3438L161.102 85.3438C142.82 85.3438 128 100.164 128 118.446L128 480.022C128 497.683 142.317 512 159.978 512L352.022 512C369.683 512 384 497.683 384 480.022L384 118.446ZM320 256C331.776 256 341.344 265.568 341.344 277.344C341.344 289.12 331.776 298.656 320 298.656C308.224 298.656 298.656 289.12 298.656 277.344C298.656 265.568 308.224 256 320 256Z" fill="#ffffff" fill-rule="nonzero" opacity="1" stroke="none"/>
<path d="M426.667 0L85.3333 0C61.76 0 42.6667 19.0933 42.6667 42.6667L42.6667 491.908C42.6667 503.005 51.6621 512 62.7586 512L65.2414 512C76.3379 512 85.3333 503.005 85.3333 491.908L85.3333 88.2272C85.3333 63.0648 105.731 42.6667 130.894 42.6667L381.106 42.6667C406.269 42.6667 426.667 63.0648 426.667 88.2272L426.667 491.908C426.667 503.005 435.662 512 446.759 512L449.241 512C460.338 512 469.333 503.005 469.333 491.908L469.333 42.6667C469.333 19.0933 450.24 0 426.667 0Z" fill="#ffffff" fill-rule="nonzero" opacity="1" stroke="none"/>
</g>
</svg>
