<?xml version="1.0" encoding="UTF-8" standalone="no"?>
<!DOCTYPE svg PUBLIC "-//W3C//DTD SVG 1.1//EN" "http://www.w3.org/Graphics/SVG/1.1/DTD/svg11.dtd">
<!-- Created with Vectornator (http://vectornator.io/) -->
<svg stroke-miterlimit="10" style="fill-rule:nonzero;clip-rule:evenodd;stroke-linecap:round;stroke-linejoin:round;" version="1.1" viewBox="0 0 512 512" xml:space="preserve" xmlns="http://www.w3.org/2000/svg" xmlns:xlink="http://www.w3.org/1999/xlink">
<defs/>
<g id="Layer-1">
<g opacity="1">
<path d="M256 51.2C142.899 51.2 51.2 142.899 51.2 256C51.2 369.101 142.899 460.8 256 460.8C369.101 460.8 460.8 369.101 460.8 256C460.8 142.899 369.101 51.2 256 51.2ZM256 358.4C199.45 358.4 153.6 312.55 153.6 256C153.6 199.45 199.45 153.6 256 153.6C312.55 153.6 358.4 199.45 358.4 256C358.4 312.55 312.55 358.4 256 358.4Z" fill="#ffffff" fill-rule="nonzero" opacity="1" stroke="none"/>
<path d="M330.675 76.8L319.77 20.7104C317.414 8.6784 306.893 0 294.63 0L217.37 0C205.107 0 194.586 8.6784 192.23 20.7104L181.325 76.8L330.675 76.8ZM181.325 435.2L192.23 491.29C194.586 503.322 205.107 512 217.37 512L294.63 512C306.893 512 317.414 503.322 319.77 491.29L330.675 435.2L181.325 435.2ZM138.138 101.734L84.1216 83.1488C72.5248 79.1552 59.7504 83.9424 53.6064 94.5408L14.976 161.459C8.8576 172.083 11.1104 185.549 20.352 193.587L63.4624 231.066L138.138 101.734ZM373.862 410.266L427.878 428.851C439.475 432.845 452.25 428.058 458.394 417.434L497.024 350.515C503.142 339.891 500.89 326.426 491.648 318.387L448.538 280.909L373.862 410.266ZM63.4624 280.934L20.352 318.413C11.1104 326.451 8.8576 339.917 14.976 350.541L53.6064 417.459C59.7248 428.083 72.5248 432.845 84.1216 428.877L138.138 410.291L63.4624 280.934ZM448.538 231.066L491.648 193.587C500.89 185.549 503.142 172.083 497.024 161.459L458.394 94.5408C452.275 83.9168 439.475 79.1552 427.878 83.1232L373.862 101.709L448.538 231.066Z" fill="#ffffff" fill-rule="nonzero" opacity="1" stroke="none"/>
</g>
</g>
</svg>
