<?xml version="1.0" encoding="UTF-8" standalone="no"?>
<!DOCTYPE svg PUBLIC "-//W3C//DTD SVG 1.1//EN" "http://www.w3.org/Graphics/SVG/1.1/DTD/svg11.dtd">
<!-- Created with Vectornator (http://vectornator.io/) -->
<svg stroke-miterlimit="10" style="fill-rule:nonzero;clip-rule:evenodd;stroke-linecap:round;stroke-linejoin:round;" version="1.1" viewBox="0 0 512 512" xml:space="preserve" xmlns="http://www.w3.org/2000/svg" xmlns:xlink="http://www.w3.org/1999/xlink">
<defs/>
<clipPath id="ArtboardFrame">
<rect height="512" width="512" x="0" y="0"/>
</clipPath>
<g clip-path="url(#ArtboardFrame)" id="Layer-1">
<g opacity="1">
<path d="M102.986 422.494L102.986 448.147C102.986 462.273 114.436 473.724 128.562 473.724L128.613 473.724C142.739 473.724 154.19 462.273 154.19 448.147L154.19 422.494C154.19 408.369 142.739 396.918 128.613 396.918L128.562 396.918C114.436 396.918 102.986 408.369 102.986 422.494Z" fill="#ffffff" fill-rule="nonzero" opacity="1" stroke="none"/>
<path d="M358.585 422.494L358.585 448.147C358.585 462.273 370.036 473.724 384.161 473.724L384.213 473.724C398.338 473.724 409.789 462.273 409.789 448.147L409.789 422.494C409.789 408.369 398.338 396.918 384.213 396.918L384.161 396.918C370.036 396.918 358.585 408.369 358.585 422.494Z" fill="#ffffff" fill-rule="nonzero" opacity="1" stroke="none"/>
<path d="M461.525 191.889L461.525 191.889C440.557 191.889 421.688 204.664 413.905 224.147L375.604 319.899L136.251 319.899L99.3328 227.552C91.857 208.863 75.3181 194.039 55.2973 192.145C45.0565 191.172 35.0973 193.169 26.0342 198.059C2.55713 210.655-5.81474 240.507 4.09326 265.238L47.6167 374.047C59.2912 403.182 87.5303 422.307 118.918 422.307L392.911 422.307C424.325 422.307 452.564 403.182 464.213 374.021L507.967 264.65C517.44 240.942 509.99 212.524 488.1 199.364C479.907 194.423 470.87 191.889 461.525 191.889L461.525 191.889Z" fill="#ffffff" fill-rule="nonzero" opacity="1" stroke="none"/>
<path d="M146.927 208.53L170.993 268.695L340.99 268.695L366.413 205.125C375.092 183.465 390.53 166.261 409.63 155.022L409.63 115.082C409.63 72.7366 375.169 38.2763 332.823 38.2763L179.211 38.2763C136.865 38.2763 102.405 72.7366 102.405 115.082L102.405 155.354C121.914 167.208 137.761 185.59 146.927 208.53Z" fill="#ffffff" fill-rule="nonzero" opacity="1" stroke="none"/>
</g>
</g>
</svg>
