<?xml version="1.0" encoding="UTF-8" standalone="no"?>
<!DOCTYPE svg PUBLIC "-//W3C//DTD SVG 1.1//EN" "http://www.w3.org/Graphics/SVG/1.1/DTD/svg11.dtd">
<!-- Created with Vectornator (http://vectornator.io/) -->
<svg stroke-miterlimit="10" style="fill-rule:nonzero;clip-rule:evenodd;stroke-linecap:round;stroke-linejoin:round;" version="1.1" viewBox="0 0 512 512" xml:space="preserve" xmlns="http://www.w3.org/2000/svg" xmlns:xlink="http://www.w3.org/1999/xlink">
<defs/>
<g id="Layer-1">
<g opacity="1">
<path d="M197.046 187.135C186.17 187.135 177.353 195.951 177.353 206.827C177.353 217.703 186.17 226.52 197.046 226.519L315.2 226.519C326.075 226.519 334.892 217.703 334.892 206.827C334.892 195.951 326.075 187.135 315.2 187.135L197.046 187.135ZM197.046 265.904C186.17 265.904 177.353 274.72 177.353 285.596C177.353 296.472 186.17 305.289 197.046 305.289L295.507 305.289C306.383 305.289 315.2 296.472 315.2 285.596C315.2 274.721 306.383 265.904 295.507 265.904L197.046 265.904Z" fill="#ffffff" fill-rule="nonzero" opacity="1" stroke="none"/>
<path d="M350.149 348.35L298.594 388.857C286.05 398.703 271.025 403.626 256 403.626C240.975 403.626 225.95 398.703 213.425 388.857L161.851 348.33L8.15262 502.048L503.847 502.048L350.149 348.35ZM0 221.177L0 454.511L130.658 323.833L0 221.177ZM118.154 263.929L118.154 186.971C118.154 165.211 135.778 147.586 157.538 147.586L354.462 147.586C376.222 147.586 393.846 165.211 393.846 186.971L393.846 263.929L501.248 179.527L302.159 25.7108C274.983 4.69908 237.036 4.69908 209.861 25.7108L10.752 179.527L118.154 263.929ZM381.342 323.852L512 454.511L512 221.177L381.342 323.852Z" fill="#ffffff" fill-rule="nonzero" opacity="1" stroke="none"/>
</g>
</g>
</svg>
