<?xml version="1.0" encoding="UTF-8" standalone="no"?>
<!DOCTYPE svg PUBLIC "-//W3C//DTD SVG 1.1//EN" "http://www.w3.org/Graphics/SVG/1.1/DTD/svg11.dtd">
<!-- Created with Vectornator (http://vectornator.io/) -->
<svg stroke-miterlimit="10" style="fill-rule:nonzero;clip-rule:evenodd;stroke-linecap:round;stroke-linejoin:round;" version="1.1" viewBox="0 0 500 500" xml:space="preserve" xmlns="http://www.w3.org/2000/svg" xmlns:xlink="http://www.w3.org/1999/xlink">
<defs/>
<g id="Layer-1">
<path d="M487.798 140.782L359.228 12.2123C342.959-4.05689 316.587-4.05689 300.317 12.2123L221.826 90.7042C214.389 98.1409 214.389 110.202 221.826 117.639L221.826 117.639C229.262 125.076 241.324 125.076 248.76 117.639L276.966 89.4335C285.111 81.2885 298.276 81.2885 306.421 89.4335C314.566 97.5785 314.566 110.744 306.421 118.889L296.901 128.429C290.652 134.679 290.652 144.803 296.901 151.052L296.901 151.052C303.15 157.301 313.274 157.301 319.524 151.052L318.628 151.948C326.773 143.803 339.938 143.803 348.083 151.948C356.228 160.093 356.228 173.258 348.083 181.403L348.979 180.507C342.73 186.757 342.73 196.881 348.979 203.13L348.979 203.13C355.228 209.379 365.352 209.379 371.602 203.13L401.849 172.883C409.994 164.738 423.159 164.738 431.304 172.883C439.449 181.028 439.449 194.194 431.304 202.339L382.371 251.271C374.935 258.708 374.935 270.769 382.371 278.206L382.371 278.206C389.808 285.642 401.869 285.642 409.306 278.206L487.798 199.714C504.067 183.445 504.067 157.052 487.798 140.782ZM351.645 306.39L193.62 148.365C185.475 140.22 172.289 140.22 164.165 148.365L116.399 196.131C100.13 212.4 100.13 238.772 116.399 255.062L138.48 277.143C150.27 288.934 150.27 308.057 138.48 319.868L135.251 323.097C114.42 343.928 60.0089 367.78 36.6779 391.111C1.7857 426.003-10.3381 470.436 9.59739 490.392C29.5328 510.328 73.9658 498.204 108.879 463.312C132.231 439.96 156.291 385.403 177.122 364.572L180.163 361.53C191.954 349.74 211.077 349.74 222.888 361.53L244.99 383.632C261.259 399.902 287.631 399.902 303.9 383.632L351.666 335.866C359.79 327.721 359.79 314.514 351.645 306.39ZM62.5503 458.312C51.0514 458.312 41.6982 448.98 41.7191 437.481C41.7191 425.961 51.0514 416.65 62.5503 416.65C74.0699 416.65 83.4023 425.982 83.3815 437.481C83.4023 448.98 74.0699 458.312 62.5503 458.312Z" fill="#ffffff" fill-rule="evenodd" opacity="1" stroke="none"/>
</g>
</svg>
