<?xml version="1.0" encoding="UTF-8" standalone="no"?>
<!DOCTYPE svg PUBLIC "-//W3C//DTD SVG 1.1//EN" "http://www.w3.org/Graphics/SVG/1.1/DTD/svg11.dtd">
<!-- Created with Vectornator (http://vectornator.io/) -->
<svg stroke-miterlimit="10" style="fill-rule:nonzero;clip-rule:evenodd;stroke-linecap:round;stroke-linejoin:round;" version="1.1" viewBox="0 0 512 512" xml:space="preserve" xmlns="http://www.w3.org/2000/svg" xmlns:xlink="http://www.w3.org/1999/xlink">
<defs/>
<g id="Layer-1">
<g opacity="1">
<path d="M342.102 393.561C313.98 441.537 261.414 473.812 201.662 473.812C154.786 473.812 112.46 454.185 83.0298 422.347C55.1163 393.125 38.1065 353.644 38.1065 310.257C38.1065 259.663 61.2224 214.304 97.4227 184.418C87.3913 198.394 81.7213 215.612 81.7213 233.931C81.7213 257.919 91.5252 279.726 107.454 295.428C123.155 311.337 144.963 322.108 168.951 322.108L256.181 322.108C280.169 322.108 301.976 330.983 317.677 346.893C330.326 359.314 339.049 375.451 342.102 393.561Z" fill="#ffffff" fill-rule="nonzero" opacity="1" stroke="none"/>
<path d="M468.699 145.886C476.113 138.471 476.113 126.468 468.699 119.072C465.001 115.374 396.544 46.9179 392.847 43.2202C385.432 35.8056 373.429 35.8056 366.033 43.2202C362.468 46.7852 334.308 74.9452 328.866 80.3686L310.68 62.1831C303.266 54.7686 291.281 54.7686 283.867 62.1831L217.42 128.629C211.845 128.098 206.573 127.738 201.662 127.738C101.007 127.738 19.1436 209.62 19.1436 310.257C19.1436 410.893 101.007 492.775 201.662 492.775C302.317 492.775 384.181 410.893 384.181 310.257C384.181 305.307 383.82 300.036 383.289 294.498L449.736 228.071C453.301 224.506 455.292 219.689 455.292 214.645C455.292 209.601 453.301 204.785 449.736 201.239L431.531 183.034C436.973 177.611 465.133 149.451 468.699 145.886ZM201.662 454.849C121.942 454.849 57.0695 389.996 57.0695 310.257C57.0695 230.517 121.942 165.664 201.662 165.664C205.587 165.664 209.74 165.892 214.424 166.347L345.572 297.513C346.027 302.159 346.255 306.312 346.255 310.257C346.255 389.996 281.382 454.849 201.662 454.849ZM362.923 261.237L250.681 148.977L297.273 102.404L409.515 214.645L362.923 261.237Z" fill="#ffffff" fill-rule="nonzero" opacity="1" stroke="none"/>
<path d="M455.111 379.259C444.638 379.259 436.148 387.749 436.148 398.222L436.148 474.074C436.148 484.547 444.638 493.037 455.111 493.037C465.584 493.037 474.074 484.547 474.074 474.074L474.074 398.222C474.074 387.749 465.584 379.259 455.111 379.259ZM417.185 417.185C406.712 417.185 398.222 425.675 398.222 436.148C398.222 446.621 406.712 455.111 417.185 455.111L493.037 455.111C503.51 455.111 512 446.621 512 436.148C512 425.675 503.51 417.185 493.037 417.185L417.185 417.185ZM56.8889 18.963C46.4159 18.963 37.9258 27.4529 37.9259 37.9259L37.9259 113.778C37.9259 124.251 46.4159 132.741 56.8889 132.741C67.3618 132.741 75.852 124.251 75.8519 113.778L75.8519 37.9259C75.8519 27.453 67.3619 18.9628 56.8889 18.963ZM18.963 56.8889C8.49001 56.8889-0.000153718 65.3789 0 75.8519C0 86.3248 8.48997 94.815 18.963 94.8148L94.8148 94.8148C105.288 94.8148 113.778 86.3248 113.778 75.8519C113.778 65.3789 105.288 56.8887 94.8148 56.8889L18.963 56.8889Z" fill="#ffffff" fill-rule="nonzero" opacity="1" stroke="none"/>
</g>
</g>
</svg>
