<?xml version="1.0" encoding="UTF-8" standalone="no"?>
<!DOCTYPE svg PUBLIC "-//W3C//DTD SVG 1.1//EN" "http://www.w3.org/Graphics/SVG/1.1/DTD/svg11.dtd">
<!-- Created with Vectornator (http://vectornator.io/) -->
<svg stroke-miterlimit="10" style="fill-rule:nonzero;clip-rule:evenodd;stroke-linecap:round;stroke-linejoin:round;" version="1.1" viewBox="0 0 512 512" xml:space="preserve" xmlns="http://www.w3.org/2000/svg" xmlns:xlink="http://www.w3.org/1999/xlink">
<defs/>
<g id="Layer-1">
<g opacity="1">
<path d="M256 6.99605C249.532 6.99605 243.689 9.63094 239.471 13.8899L4.71685 218.73L4.79748 218.932C1.95484 221.053 8.2021e-06 224.263 5.68434e-14 228.083C-1.38721e-06 234.51 5.18392 239.734 11.6107 239.734L69.8255 239.734L69.8255 425.909C69.8255 438.756 80.2402 449.171 93.0872 449.171L261.644 449.171C264.12 444.623 267.024 440.243 270.876 436.391C279.314 427.953 292.378 414.929 304.66 402.647L162.913 402.647C162.913 390.289 162.913 345.18 162.913 332.822C162.913 281.41 204.589 239.734 256 239.734C287.389 239.734 315.092 255.321 331.953 279.122C338.173 281.809 344.038 285.563 349.128 290.652C357.566 299.09 370.589 312.154 382.871 324.436C395.153 312.154 408.177 299.09 416.615 290.652C423.935 283.332 432.828 278.735 442.174 276.381L442.174 239.734L500.389 239.734C506.816 239.734 512 234.51 512 228.083C512 224.263 510.045 221.053 507.203 218.932L507.283 218.73L272.529 13.8899C268.311 9.63093 262.468 6.99603 256 6.99605Z" fill="#ffffff" fill-rule="nonzero" opacity="1" stroke="none"/>
<path d="M289.169 308.945C277.649 320.465 277.62 339.13 289.14 350.65L341.137 402.647L289.14 454.644C277.62 466.164 277.649 484.829 289.169 496.35C300.689 507.87 319.354 507.898 330.874 496.378L382.871 444.381L434.868 496.378C446.388 507.898 465.053 507.87 476.574 496.35C488.094 484.829 488.122 466.164 476.602 454.644L424.605 402.647L476.602 350.65C488.122 339.13 488.094 320.465 476.574 308.945C465.053 297.424 446.388 297.396 434.868 308.916L382.871 360.913L330.874 308.916C319.354 297.396 300.689 297.424 289.169 308.945Z" fill="#ffffff" fill-rule="nonzero" opacity="1" stroke="none"/>
</g>
</g>
</svg>
