<?xml version="1.0" encoding="UTF-8" standalone="no"?>
<!DOCTYPE svg PUBLIC "-//W3C//DTD SVG 1.1//EN" "http://www.w3.org/Graphics/SVG/1.1/DTD/svg11.dtd">
<!-- Created with Vectornator (http://vectornator.io/) -->
<svg stroke-miterlimit="10" style="fill-rule:nonzero;clip-rule:evenodd;stroke-linecap:round;stroke-linejoin:round;" version="1.1" viewBox="0 0 512 512" xml:space="preserve" xmlns="http://www.w3.org/2000/svg" xmlns:xlink="http://www.w3.org/1999/xlink">
<defs/>
<clipPath id="ArtboardFrame">
<rect height="512" width="512" x="0" y="0"/>
</clipPath>
<g clip-path="url(#ArtboardFrame)" id="Layer-1">
<g opacity="1">
<path d="M498.433 13.6006C488.03 3.19802 473.605-1.56768 459.128 0.45646C390.641 10.0647 230.298 32.5608 80.4351 268.078L243.929 431.547C479.344 281.709 501.917 121.341 511.551 52.8535C513.575 38.3002 508.81 23.9775 498.433 13.6006ZM268.578 281.837C247.363 281.837 230.145 264.619 230.145 243.404C230.145 222.189 247.363 204.971 268.578 204.971C289.793 204.971 307.011 222.189 307.011 243.404C307.011 264.619 289.793 281.837 268.578 281.837ZM371.066 179.349C349.851 179.349 332.633 162.131 332.633 140.916C332.633 119.701 349.851 102.483 371.066 102.483C392.281 102.483 409.499 119.701 409.499 140.916C409.499 162.131 392.281 179.349 371.066 179.349Z" fill="#ffffff" fill-rule="nonzero" opacity="1" stroke="none"/>
<path d="M117.008 286.442L98.5917 304.057C97.4412 305.208 96.4611 306.771 95.389 308.061C85.1744 320.353 76.3604 341.185 67.3649 369.714C63.1696 383.018 59.7293 397.213 56.1553 411.35C54.0112 419.83 52.2127 425.881 51.3511 429.765C47.2971 448.061 63.481 464.246 81.7773 460.191C85.6613 459.331 92.5133 458.332 100.994 456.188C115.132 452.614 129.325 448.372 142.63 444.178C171.157 435.182 191.991 426.369 204.283 416.154C205.572 415.082 206.335 414.101 207.485 412.951L225.901 394.535L189.87 358.504C189.87 358.504 171.572 376.824 171.454 376.92C166.037 381.422 149.593 388.342 127.417 395.336C122.692 396.826 117.164 397.913 112.203 399.339C113.595 394.509 114.755 389.532 116.207 384.927C123.2 362.751 130.121 346.306 134.623 340.889C134.72 340.772 153.038 322.472 153.039 322.473L117.008 286.442Z" fill="#ffffff" fill-rule="nonzero" opacity="1" stroke="none"/>
<path d="M111.643 307.459L33.2649 307.459C19.7621 307.459 7.69417 299.414 2.54415 286.936C-2.6315 274.458 0.212542 260.238 9.74393 250.707L68.6489 189.393C74.8239 182.988 83.356 179.349 92.2468 179.349L153.278 179.349L111.643 307.459ZM238.01 512C233.68 512 229.273 511.18 225.046 509.412C212.568 504.288 204.522 492.22 204.522 478.717L204.522 395.01L332.633 358.703L332.633 422.835C332.633 432.034 328.764 440.822 321.948 447.023L260.404 503.058C254.665 508.823 246.491 512 238.01 512Z" fill="#ffffff" fill-rule="nonzero" opacity="1" stroke="none"/>
</g>
</g>
</svg>
