<?xml version="1.0" encoding="UTF-8" standalone="no"?>
<!DOCTYPE svg PUBLIC "-//W3C//DTD SVG 1.1//EN" "http://www.w3.org/Graphics/SVG/1.1/DTD/svg11.dtd">
<!-- Created with Vectornator (http://vectornator.io/) -->
<svg stroke-miterlimit="10" style="fill-rule:nonzero;clip-rule:evenodd;stroke-linecap:round;stroke-linejoin:round;" version="1.1" viewBox="0 0 512 512" xml:space="preserve" xmlns="http://www.w3.org/2000/svg" xmlns:xlink="http://www.w3.org/1999/xlink">
<defs/>
<clipPath id="ArtboardFrame">
<rect height="512" width="512" x="0" y="0"/>
</clipPath>
<g clip-path="url(#ArtboardFrame)" id="Layer-1">
<path d="M458.972 122.264C349.949 97.3772 312.264 0 179.207 0C77.3188 0 51.7444 18.5344 22.458 48.8704C7.40518 64.4864-0.377223 83.1744 0.00677698 102.886L0.00677698 409.6L0.057977 409.523C0.0579794 409.728 0.00677698 409.907 0.00677698 410.086C0.902779 474.803 40.5828 512 153.607 512C233.504 512 255.392 486.579 255.392 444.006C254.752 383.411 190.317 383.898 127.776 384C127.776 384 98.7074 383.47 100.708 408.846C102.971 437.533 128.007 435.2 128.007 435.2C154.247 435.123 195.924 434.842 204.628 444.979C202.119 448.256 205.805 460.8 153.607 460.8C132.359 460.8 53.1524 458.291 51.2068 409.267C50.1316 381.875 77.882 358.938 179.642 358.4C287.702 357.842 330.128 419.887 402.914 459.331C442.749 480.919 487.524 480.325 487.524 480.325C501.046 483.68 512.007 475.106 512.007 461.175L512.007 153.225C512.007 139.294 500.779 126.786 486.928 125.288L458.972 122.264Z" fill="#ffffff" fill-rule="nonzero" opacity="1" stroke="none"/>
</g>
</svg>
