<?xml version="1.0" encoding="UTF-8" standalone="no"?>
<!DOCTYPE svg PUBLIC "-//W3C//DTD SVG 1.1//EN" "http://www.w3.org/Graphics/SVG/1.1/DTD/svg11.dtd">
<!-- Created with Vectornator (http://vectornator.io/) -->
<svg stroke-miterlimit="10" style="fill-rule:nonzero;clip-rule:evenodd;stroke-linecap:round;stroke-linejoin:round;" version="1.1" viewBox="0 0 500 500" xml:space="preserve" xmlns="http://www.w3.org/2000/svg" xmlns:xlink="http://www.w3.org/1999/xlink">
<defs/>
<g id="Layer-1">
<path d="M22.7351 90.906C10.1898 90.906-9.79675e-06 101.096 0 113.641L0 136.376L431.623 136.376C444.259 136.376 454.412 146.807 454.048 159.421C454.048 159.625 454.014 159.835 454.014 160.04C453.673 172.153 443.725 181.812 431.588 181.812L1.16943 181.812C10.2911 273.319 74.0049 348.872 159.111 375.731L159.111 386.359C159.111 398.904 169.301 409.094 181.846 409.094L318.188 409.094C330.733 409.094 340.923 398.904 340.923 386.359L340.923 375.937C433.132 346.979 500 260.879 500 159.111L500 113.641C500 101.096 489.845 90.9059 477.299 90.906L22.7351 90.906Z" fill="#fc7e9e" fill-rule="evenodd" opacity="1" stroke="none"/>
</g>
</svg>
