<?xml version="1.0" encoding="UTF-8" standalone="no"?>
<!DOCTYPE svg PUBLIC "-//W3C//DTD SVG 1.1//EN" "http://www.w3.org/Graphics/SVG/1.1/DTD/svg11.dtd">
<!-- Created with Vectornator (http://vectornator.io/) -->
<svg stroke-miterlimit="10" style="fill-rule:nonzero;clip-rule:evenodd;stroke-linecap:round;stroke-linejoin:round;" version="1.1" viewBox="0 0 500 500" xml:space="preserve" xmlns="http://www.w3.org/2000/svg" xmlns:xlink="http://www.w3.org/1999/xlink">
<defs/>
<clipPath id="ArtboardFrame">
<rect height="500" width="500" x="0" y="0"/>
</clipPath>
<g clip-path="url(#ArtboardFrame)" id="Layer-1">
<path d="M134.281-0.09375C120.066-0.0875794 106.039 5.49841 95.2188 16.375L16.2812 95.3125C-5.42211 116.96-5.44774 151.734 16.2812 173.406L69.2188 225.438C101.4 257.619 154.239 257.841 186.719 225.844L452.625 491.781C463.474 502.614 480.855 502.629 491.688 491.781C502.521 480.933 502.536 463.583 491.688 452.75L225.781 186.844L226.219 186.406C258.657 153.968 258.658 100.876 226.219 68.4375L173.312 16.375C162.461 5.5233 148.496-0.0999196 134.281-0.09375ZM134.281 55.4375L182.938 103.281L182.875 103.875C188.76 109.76 188.76 117.615 182.875 123.5C176.99 129.385 169.135 129.385 163.25 123.5L162.844 123.906L114.438 75.5L134.281 55.4375ZM75.625 114.75L125.938 165.031L125.969 165.094C129.785 170.609 129.131 177.244 124 182.375C118.115 188.26 110.26 188.26 104.375 182.375L104.219 182.406L56.1875 134.375L75.625 114.75ZM461.938 6.375C457.817 6.10337 452.162 8.21317 444.688 15.6875C424.756 35.6191 304.906 155.5 304.906 155.5L304.719 155.312L288.844 171.156L368.125 250.375C428.725 188.998 480.38 103.099 471.469 13.9062C471.469 13.9062 468.804 6.82772 461.938 6.375ZM171.094 288.906L8.6875 452.344C-2.13883 463.17-2.13883 480.767 8.6875 491.594C19.5138 502.42 37.1112 502.42 47.9375 491.594L210.344 328.156L171.094 288.906Z" fill="#fc7f7e" fill-rule="evenodd" opacity="1" stroke="none"/>
</g>
</svg>
