# Blender v3.2.1 OBJ File: 'plants.blend'
# www.blender.org
mtllib plant_2.mtl
o Plane.002_Plane.046
v 0.363123 2.671854 0.203113
v 0.172684 -0.206005 -0.071404
v 0.234470 2.389658 1.432456
v -0.030534 -0.206005 0.183333
v 0.365542 2.354284 0.189831
v 0.374668 1.352110 0.052937
v 0.300517 0.523411 -0.091786
v -0.086389 0.522746 0.158714
v -0.181177 1.350030 0.032596
v -0.197865 2.352587 -0.099762
v 1.355311 0.411563 -0.648583
v 0.244390 -0.206005 0.029725
v 1.039007 0.571687 -1.059017
v 0.065176 -0.206005 -0.147459
v 1.231267 0.728973 -0.574986
v 0.875792 0.880897 -0.359913
v 0.527310 0.697377 -0.157843
v 0.353508 0.697377 -0.383368
v 0.637694 0.880897 -0.668868
v 0.936235 0.728973 -0.957817
v -0.175242 3.039948 -0.152132
v -0.055869 3.103329 -0.087247
v 0.153698 -0.206005 0.035494
v 0.049973 -0.206005 0.135621
v 0.260136 2.103625 1.296226
v 0.389985 1.235967 0.792752
v 0.442564 0.543151 0.312724
v -0.017106 0.510972 0.323427
v -0.079931 1.329759 0.510327
v -0.081499 2.298850 0.799771
v -0.072362 2.943628 1.044510
v -0.005102 2.958620 1.177658
v -0.733108 2.148991 0.104028
v 0.018685 -0.206005 0.189145
v -0.157806 -0.206005 0.039456
v -0.671821 1.897533 0.133700
v -0.402116 1.119396 0.228926
v -0.152050 0.474113 0.241215
v -0.345156 0.400557 -0.075025
v -0.373798 1.073984 -0.223798
v -0.427022 1.895098 -0.324158
v -0.495067 2.454768 -0.365355
v -0.559823 2.505083 -0.273846
v 0.070097 1.725066 -0.356630
v 0.046506 -0.206005 0.085960
v -0.083513 -0.206005 -0.006891
v 0.050264 1.525654 -0.293800
v 0.049831 0.887697 -0.094604
v 0.067823 0.341593 0.018481
v -0.106795 0.290859 -0.225811
v 0.047519 0.778293 -0.445440
v 0.223859 1.389683 -0.649556
v 0.320608 1.818978 -0.767964
v 0.287194 1.887536 -0.704752
v 1.177001 0.400083 -0.838265
v 0.192703 -0.206005 -0.079709
v 1.068680 0.708542 -0.754787
v 0.757607 0.852999 -0.515056
v 0.456389 0.678078 -0.282921
v -0.957409 0.297350 0.593405
v -0.147787 -0.206005 0.059899
v -0.711392 0.416628 0.890836
v -0.035520 -0.206005 0.195628
v -0.866953 0.533791 0.535429
v -0.607837 0.646960 0.366186
v -0.353594 0.510255 0.206803
v -0.218413 0.510255 0.370235
v -0.422647 0.646960 0.590077
v -0.637480 0.533791 0.812857
v -0.819793 0.288798 0.730038
v -0.106497 -0.206005 0.140042
v -0.741295 0.518572 0.665109
v -0.515868 0.626179 0.478649
v -0.297584 0.495880 0.298097
v -0.517981 0.154201 -0.927978
v 0.058239 -0.206005 -0.138911
v -0.811986 0.222284 -0.677877
v -0.107511 -0.206005 -0.011670
v -0.458761 0.289160 -0.838331
v -0.285956 0.353756 -0.581578
v -0.123077 0.275726 -0.329560
v -0.284626 0.275726 -0.192134
v -0.507268 0.353756 -0.393313
v -0.732994 0.289160 -0.605049
v -0.652700 0.149320 -0.788488
v -0.052910 -0.206005 -0.083408
v -0.586693 0.280473 -0.710894
v -0.397138 0.341894 -0.488064
v -0.213589 0.267520 -0.272294
v 1.051517 0.154201 0.540462
v 0.127847 -0.206005 0.171942
v 1.147332 0.222284 0.166551
v 0.211074 -0.206005 0.032554
v 0.951423 0.289160 0.501414
v 0.662137 0.353756 0.391423
v 0.383691 0.275726 0.279573
v 0.436340 0.275726 0.074117
v 0.734262 0.353756 0.109962
v 1.040794 0.289160 0.152649
v 1.081060 0.149320 0.348801
v 0.203944 -0.206005 0.118549
v 0.982378 0.280473 0.323513
v 0.698987 0.341894 0.250894
v 0.424574 0.267520 0.180575
v -0.037832 0.086902 0.780934
v -0.029175 -0.206005 0.195199
v 0.210565 0.130917 0.757103
v 0.121539 -0.206005 0.169791
v -0.036065 0.174151 0.711497
v -0.032696 0.215911 0.511445
v -0.025817 0.165466 0.317575
v 0.110672 0.165466 0.304480
v 0.154285 0.215911 0.493506
v 0.195628 0.174151 0.689269
v 0.085196 0.083746 0.756818
v 0.025276 -0.206005 0.207467
v 0.078906 0.168535 0.691262
v 0.060845 0.208243 0.502998
v 0.043355 0.160161 0.320699
v 0.902018 1.636388 -0.133565
v 0.045724 -0.188843 0.081205
v 0.072286 -0.189633 -0.134733
v 0.815399 1.181055 -0.017753
v 0.593048 0.757145 0.195113
v 0.301353 0.252712 0.218418
v 0.413905 0.250175 -0.032539
v 0.920370 0.756741 -0.009156
v 1.339726 1.420277 -0.164203
v 1.203620 1.915762 -0.083036
v 1.120690 1.956829 -0.081850
vt 0.474165 0.117516
vt 0.474299 0.120420
vt 0.535307 0.117620
vt 0.535306 0.117561
vt 0.258220 0.128752
vt 0.263599 0.131199
vt 0.321164 0.129357
vt 0.294093 0.117933
vt 0.320695 0.117332
vt 0.405087 0.125247
vt 0.404677 0.116547
vt 0.461207 0.117772
vt 0.459666 0.120579
vt 0.535364 0.119694
vt 0.535300 0.117355
vt 0.484374 0.112785
vt 0.470129 0.117906
vt 0.456965 0.118623
vt 0.458555 0.114141
vt 0.444270 0.120071
vt 0.446507 0.116349
vt 0.472322 0.110579
vt 0.475204 0.117376
vt 0.535290 0.116963
vt 0.535246 0.115361
vt 0.269911 0.112580
vt 0.271237 0.115156
vt 0.325326 0.116745
vt 0.317385 0.104603
vt 0.341376 0.105185
vt 0.406589 0.117967
vt 0.414159 0.107235
vt 0.478373 0.120327
vt 0.484716 0.126867
vt 0.535407 0.121272
vt 0.535285 0.116802
vt 0.308597 0.137288
vt 0.312814 0.137278
vt 0.359650 0.134479
vt 0.338372 0.134615
vt 0.359399 0.132757
vt 0.428371 0.130607
vt 0.424433 0.125747
vt 0.489454 0.119332
vt 0.493855 0.124785
vt 0.535391 0.120693
vt 0.535307 0.117607
vt 0.360111 0.128123
vt 0.365860 0.128211
vt 0.401819 0.127298
vt 0.373697 0.126911
vt 0.390387 0.126011
vt 0.453035 0.126161
vt 0.443757 0.122194
vt 0.444071 0.112765
vt 0.459521 0.115245
vt 0.456719 0.109570
vt 0.483277 0.107837
vt 0.535244 0.115265
vt 0.476592 0.121914
vt 0.475332 0.119882
vt 0.535306 0.117550
vt 0.535353 0.119292
vt 0.494013 0.124248
vt 0.483209 0.120972
vt 0.473390 0.121042
vt 0.474756 0.124348
vt 0.463895 0.120683
vt 0.465710 0.123382
vt 0.464044 0.126170
vt 0.475440 0.123887
vt 0.473575 0.127841
vt 0.493398 0.127990
vt 0.535396 0.120876
vt 0.495869 0.126912
vt 0.495185 0.127057
vt 0.535402 0.121115
vt 0.535403 0.121139
vt 0.506117 0.139479
vt 0.500036 0.140752
vt 0.494378 0.138834
vt 0.495080 0.137848
vt 0.488806 0.133021
vt 0.489785 0.132446
vt 0.488776 0.131895
vt 0.495162 0.126235
vt 0.494340 0.137438
vt 0.505698 0.139101
vt 0.535384 0.120433
vt 0.495459 0.111801
vt 0.494801 0.112908
vt 0.535267 0.116140
vt 0.535197 0.113558
vt 0.505033 0.099533
vt 0.498953 0.100861
vt 0.493400 0.102801
vt 0.494097 0.101635
vt 0.488130 0.108123
vt 0.489093 0.106954
vt 0.488069 0.105868
vt 0.494756 0.111262
vt 0.493325 0.100006
vt 0.504575 0.097710
vt 0.535230 0.114772
vt 0.504563 0.115691
vt 0.504096 0.114871
vt 0.535273 0.116361
vt 0.535277 0.116483
vt 0.510805 0.109684
vt 0.506802 0.107879
vt 0.503209 0.109013
vt 0.503727 0.110754
vt 0.499792 0.112070
vt 0.500470 0.113362
vt 0.499863 0.114703
vt 0.504148 0.116793
vt 0.503298 0.112276
vt 0.510584 0.111277
vt 0.535317 0.117957
vt 0.474165 0.117516
vt 0.474299 0.120420
vt 0.535307 0.117620
vt 0.535306 0.117561
vt 0.258220 0.128752
vt 0.263599 0.131199
vt 0.321164 0.129357
vt 0.294093 0.117933
vt 0.350372 0.117055
vt 0.405087 0.125247
vt 0.404677 0.116546
vn 0.4692 -0.0130 0.8830
vn 0.4882 -0.0050 0.8727
vn 0.6503 -0.0087 0.7596
vn -0.5092 0.0820 0.8567
vn -0.4130 0.0139 0.9106
vn -0.4944 0.0508 0.8677
vn -0.4392 -0.0058 0.8984
vn 0.0090 -0.0018 1.0000
vn 0.0163 -0.0103 0.9998
vn -0.4770 0.6714 0.5672
vn -0.5054 0.5463 0.6679
vn -0.5321 0.3533 0.7694
vn -0.7016 0.3609 0.6145
vn 0.7440 0.4377 -0.5048
vn 0.8184 0.4900 -0.3002
vn 0.6064 0.7791 -0.1591
vn 0.5187 0.7580 -0.3955
vn 0.1071 0.9900 0.0915
vn 0.0132 0.9977 0.0665
vn -0.0493 -0.3961 0.9169
vn 0.0289 -0.3779 0.9254
vn 0.2004 -0.3236 0.9247
vn -0.8733 -0.1620 0.4594
vn -0.8135 -0.2596 0.5203
vn -0.8644 -0.1970 0.4626
vn -0.8290 -0.2689 0.4903
vn -0.4929 -0.3741 0.7856
vn -0.4860 -0.3829 0.7856
vn -0.8729 -0.1759 0.4550
vn -0.8740 -0.1671 0.4563
vn -0.7566 -0.1801 0.6286
vn -0.8430 -0.1407 -0.5192
vn -0.8851 -0.2078 -0.4165
vn -0.8481 -0.1718 -0.5012
vn -0.8685 -0.2273 -0.4404
vn -0.9804 -0.1971 0.0043
vn -0.9788 -0.2046 0.0125
vn -0.8575 0.2042 0.4722
vn -0.8657 0.2119 0.4536
vn -0.7434 0.1756 0.6453
vn -0.8582 0.0526 -0.5107
vn -0.9168 0.0236 -0.3987
vn -0.8727 0.0289 -0.4874
vn -0.9084 -0.0044 -0.4180
vn -0.9896 0.1434 0.0095
vn -0.9903 0.1375 0.0190
vn -0.0612 0.9900 -0.1268
vn -0.7649 0.5483 0.3380
vn 0.4405 0.7438 -0.5027
vn 0.6548 0.4035 -0.6390
vn -0.8424 0.3476 0.4118
vn 0.4712 0.6713 -0.5721
vn 0.5107 0.5219 -0.6832
vn 0.5934 0.3288 -0.7346
vn 0.7261 0.3348 -0.6006
vn -0.7262 0.4377 0.5301
vn -0.8076 0.4900 0.3283
vn -0.6006 0.7791 0.1799
vn -0.5047 0.7580 0.4132
vn -0.1101 0.9900 -0.0877
vn -0.0154 0.9977 -0.0660
vn 0.0655 0.9900 0.1246
vn 0.7672 0.5219 -0.3729
vn -0.4229 0.7438 0.5176
vn -0.6324 0.4035 0.6612
vn 0.8329 0.3288 -0.4451
vn 0.4706 0.8030 0.3656
vn 0.5637 0.7066 0.4278
vn 0.6965 0.4594 0.5512
vn 0.5573 0.4678 0.6860
vn -0.4472 0.6604 -0.6032
vn -0.2774 0.7016 -0.6563
vn -0.0825 0.8983 -0.4315
vn -0.3566 0.8730 -0.3328
vn 0.0507 0.9967 -0.0628
vn 0.0385 0.9992 -0.0080
vn -0.0701 0.9967 0.0400
vn 0.3522 0.6775 0.6457
vn -0.3682 0.8965 -0.2464
vn -0.5794 0.6114 -0.5390
vn 0.4188 0.4608 0.7825
vn -0.5833 0.8050 -0.1081
vn -0.7163 0.6970 -0.0327
vn -0.9010 0.4282 -0.0702
vn -0.8272 0.4536 -0.3316
vn 0.7133 0.6604 0.2346
vn 0.6053 0.7016 0.3760
vn 0.3164 0.8983 0.3048
vn 0.4833 0.8730 0.0660
vn -0.0052 0.9967 0.0806
vn -0.0269 0.9992 0.0287
vn 0.0342 0.9967 -0.0731
vn -0.5785 0.7170 -0.3890
vn 0.4429 0.8965 -0.0112
vn 0.7842 0.6114 0.1059
vn -0.6976 0.4474 -0.5596
vn -0.2794 0.7153 -0.6406
vn -0.2344 0.5040 -0.8313
vn -0.3069 0.3059 -0.9013
vn -0.1180 0.3085 -0.9439
vn 0.0216 0.6604 0.7506
vn -0.1481 0.7016 0.6970
vn -0.1793 0.8983 0.4011
vn 0.1021 0.8730 0.4770
vn -0.0775 0.9967 0.0225
vn -0.0362 0.9992 -0.0155
vn 0.0804 0.9967 0.0074
vn 0.1043 0.5886 -0.8017
vn 0.1610 0.8965 0.4128
vn 0.1667 0.6114 0.7736
vn 0.1305 0.2982 -0.9455
vn -0.7399 0.5563 -0.3783
vn -0.7123 0.5501 -0.4358
vn -0.7739 0.5882 -0.2348
vn 0.0182 0.1589 -0.9871
vn -0.0879 -0.0871 -0.9923
vn -0.0780 -0.0296 -0.9965
vn -0.3232 -0.1301 -0.9373
vn -0.3632 0.0500 -0.9304
vn -0.6789 0.3352 -0.6533
usemtl None
s 1
f 7/1/1 8/2/2 4/3/3 2/4/3
f 22/5/4 21/6/4 10/7/5 1/8/6
f 5/9/7 10/7/5 9/10/8 6/11/9
f 6/11/9 9/10/8 8/2/2 7/1/1
f 59/12/10 18/13/11 14/14/12 56/15/13
f 55/16/14 13/17/15 20/18/16 57/19/17
f 57/19/17 20/18/16 19/20/18 58/21/19
f 58/21/19 19/20/18 18/13/11 59/12/10
f 1/8/6 10/7/5 5/9/7
f 27/22/20 28/23/21 24/24/22 23/25/22
f 32/26/23 31/27/23 30/28/24 3/29/25
f 25/30/26 30/28/24 29/31/27 26/32/28
f 26/32/28 29/31/27 28/23/21 27/22/20
f 3/29/25 30/28/24 25/30/26
f 38/33/29 39/34/30 35/35/31 34/36/31
f 43/37/32 42/38/32 41/39/33 33/40/34
f 36/41/35 41/39/33 40/42/36 37/43/37
f 37/43/37 40/42/36 39/34/30 38/33/29
f 33/40/34 41/39/33 36/41/35
f 49/44/38 50/45/39 46/46/40 45/47/40
f 54/48/41 53/49/41 52/50/42 44/51/43
f 47/52/44 52/50/42 51/53/45 48/54/46
f 48/54/46 51/53/45 50/45/39 49/44/38
f 44/51/43 52/50/42 47/52/44
f 16/55/47 58/21/19 59/12/10 17/56/48
f 15/57/49 57/19/17 58/21/19 16/55/47
f 11/58/50 55/16/14 57/19/17 15/57/49
f 17/56/48 59/12/10 56/15/13 12/59/51
f 74/60/52 67/61/53 63/62/54 71/63/55
f 70/64/56 62/65/57 69/66/58 72/67/59
f 72/67/59 69/66/58 68/68/60 73/69/61
f 73/69/61 68/68/60 67/61/53 74/60/52
f 65/70/62 73/69/61 74/60/52 66/71/63
f 64/72/64 72/67/59 73/69/61 65/70/62
f 60/73/65 70/64/56 72/67/59 64/72/64
f 66/71/63 74/60/52 71/63/55 61/74/66
f 89/75/67 82/76/68 78/77/69 86/78/70
f 85/79/71 77/80/72 84/81/73 87/82/74
f 87/82/74 84/81/73 83/83/75 88/84/76
f 88/84/76 83/83/75 82/76/68 89/75/67
f 80/85/77 88/84/76 89/75/67 81/86/78
f 79/87/79 87/82/74 88/84/76 80/85/77
f 75/88/80 85/79/71 87/82/74 79/87/79
f 81/86/78 89/75/67 86/78/70 76/89/81
f 104/90/82 97/91/83 93/92/84 101/93/85
f 100/94/86 92/95/87 99/96/88 102/97/89
f 102/97/89 99/96/88 98/98/90 103/99/91
f 103/99/91 98/98/90 97/91/83 104/90/82
f 95/100/92 103/99/91 104/90/82 96/101/93
f 94/102/94 102/97/89 103/99/91 95/100/92
f 90/103/95 100/94/86 102/97/89 94/102/94
f 96/101/93 104/90/82 101/93/85 91/104/96
f 119/105/97 112/106/98 108/107/99 116/108/100
f 115/109/101 107/110/102 114/111/103 117/112/104
f 117/112/104 114/111/103 113/113/105 118/114/106
f 118/114/106 113/113/105 112/106/98 119/105/97
f 110/115/107 118/114/106 119/105/97 111/116/108
f 109/117/109 117/112/104 118/114/106 110/115/107
f 105/118/110 115/109/101 117/112/104 109/117/109
f 111/116/108 119/105/97 116/108/100 106/119/111
f 125/120/112 126/121/113 122/122/114 121/123/114
f 130/124/115 129/125/115 128/126/116 120/127/117
f 123/128/118 128/126/116 127/129/119 124/130/120
f 124/130/120 127/129/119 126/121/113 125/120/112
f 120/127/117 128/126/116 123/128/118
