# Blender v3.2.1 OBJ File: 'knife.blend'
# www.blender.org
mtllib knife.mtl
o Plane
v -1.462748 0.259902 -0.084261
v 1.000000 -0.451097 -0.045026
v -0.795228 -0.279682 -0.045026
v 1.000000 0.259902 -0.084261
v 1.132006 -0.000723 -0.084261
v 1.132006 0.259902 -0.084261
v 1.226661 -0.062423 -0.097349
v 1.226661 0.264495 -0.097349
v 1.132006 -0.000723 0.018650
v 1.132006 0.259902 0.018650
v -0.795228 -0.279682 -0.020586
v 1.000000 -0.451097 -0.020586
v 1.000000 0.259902 0.018650
v -1.462748 0.259902 0.018650
v 1.226661 -0.062423 0.031738
v 1.226661 0.264495 0.031738
v 0.003036 -0.413118 -0.045026
v 0.000000 0.259902 -0.084261
v 0.003036 -0.413118 -0.020586
v 0.000000 0.259902 0.018650
v 1.304583 -0.070658 -0.111654
v 1.304583 0.272730 -0.111654
v 1.304583 -0.070658 0.046042
v 1.304583 0.272730 0.046042
v 2.651321 -0.104257 -0.149652
v 2.651321 0.286378 -0.149652
v 2.651321 -0.104257 0.084040
v 2.651321 0.286378 0.084040
v 2.332095 -0.070658 0.062610
v 2.332095 0.272730 0.062610
v 2.332095 0.272730 -0.128222
v 2.332095 -0.070658 -0.128222
v 1.132006 0.129590 -0.097787
v 1.000000 -0.095597 -0.080805
v -1.250208 -0.029030 -0.080805
v 1.226661 0.101036 -0.114315
v 1.132006 0.129590 0.032175
v 1.000000 -0.095597 0.015193
v -1.250208 -0.029030 0.015193
v 1.226661 0.101036 0.048704
v 0.001518 -0.076608 0.015193
v 0.001518 -0.076608 -0.080805
v 1.304583 0.101036 -0.132380
v 1.304583 0.101036 0.066768
v 2.651321 0.091060 -0.180366
v 2.651321 0.091060 0.114754
v 2.332095 0.101036 -0.153302
v 2.332095 0.101036 0.087691
vt 0.993961 0.103192
vt 0.967470 0.090670
vt 0.974405 0.043587
vt 0.999899 0.065078
vt 0.988564 0.213343
vt 0.987665 0.253991
vt 0.958168 0.265544
vt 0.960038 0.221878
vt 0.959908 0.137473
vt 0.987819 0.141803
vt 0.986327 0.173048
vt 0.958290 0.174737
vt 0.999899 0.282800
vt 0.969825 0.299896
vt 0.935876 0.175815
vt 0.938179 0.134015
vt 0.937764 0.267715
vt 0.937766 0.222166
vt 0.947861 0.310436
vt 0.945208 0.087256
vt 0.656099 0.068400
vt 0.660992 0.019195
vt 0.951626 0.038602
vt 0.650360 0.226034
vt 0.651512 0.276814
vt 0.558991 0.285222
vt 0.558321 0.230423
vt 0.506257 0.099480
vt 0.560080 0.110320
vt 0.557304 0.175154
vt 0.502752 0.181356
vt 0.651449 0.118503
vt 0.649610 0.175248
vt 0.565834 0.055362
vt 0.657727 0.331322
vt 0.568712 0.350678
vt 0.572468 0.000101
vt 0.451705 0.105681
vt 0.448929 0.170515
vt 0.123468 0.374045
vt 0.092637 0.653385
vt 0.006850 0.629309
vt 0.024840 0.368227
vt 0.150638 0.713245
vt 0.109235 0.702292
vt 0.352269 0.388696
vt 0.448727 0.392077
vt 0.448727 0.696256
vt 0.339833 0.690853
vt 0.308276 0.729993
vt 0.267476 0.727646
vt 0.338785 0.053883
vt 0.407024 0.172706
vt 0.166940 0.043118
vt 0.085675 0.144643
vt 0.090999 0.723749
vt 0.000101 0.632405
vt 0.223736 0.379612
vt 0.238497 0.033977
vt 0.263105 0.000101
vt 0.259120 0.381612
vt 0.193346 0.720220
vt 0.199430 0.679302
vt 0.230592 0.682948
vt 0.226099 0.724138
vt 0.079360 0.141762
vt 0.152159 0.018884
vt 0.017317 0.367045
vn -0.1138 0.0096 -0.9935
vn -0.1934 -0.0091 -0.9811
vn -0.3447 -0.7328 -0.5867
vn 0.0391 -0.4289 -0.9025
vn -0.1138 0.0096 0.9935
vn 0.0391 -0.4289 0.9025
vn -0.3447 -0.7328 0.5867
vn -0.1934 -0.0091 0.9811
vn -0.1707 0.7363 -0.6548
vn -0.0930 0.7380 -0.6683
vn -0.0930 0.7380 0.6683
vn -0.1707 0.7363 0.6548
vn -0.1071 0.7393 0.6648
vn -0.1071 0.7393 -0.6648
vn -0.1071 -0.7393 0.6648
vn -0.1133 -0.0000 0.9936
vn -0.1071 -0.7393 -0.6648
vn -0.1133 -0.0000 -0.9936
vn -0.0499 0.0015 -0.9988
vn -0.0703 -0.7493 -0.6584
vn -0.0499 0.0015 0.9988
vn -0.0703 -0.7493 0.6584
vn 0.5398 -0.6421 0.5443
vn 0.6432 -0.0023 0.7657
vn 0.6432 -0.0023 -0.7657
vn 0.5573 0.6247 -0.5469
vn 0.5573 0.6247 0.5469
vn -0.0457 0.7564 -0.6525
vn -0.0457 0.7564 0.6525
vn 0.5398 -0.6421 -0.5443
vn -0.0029 -0.1029 -0.9947
vn 0.0465 -0.1009 -0.9938
vn -0.0029 -0.1029 0.9947
vn 0.0465 -0.1009 0.9938
vn -0.0115 -0.1297 0.9915
vn -0.0115 -0.1297 -0.9915
vn 0.4727 -0.6835 -0.5562
vn 0.4727 -0.6835 0.5562
vn -0.0001 0.7034 -0.7108
vn -0.7434 0.3755 -0.5535
vn -0.7434 0.3755 0.5535
vn -0.0001 0.7034 0.7108
vn -0.0289 0.7093 -0.7043
vn -0.0289 0.7093 0.7043
vn -0.4886 -0.5701 -0.6605
vn -0.2415 -0.7473 -0.6190
vn -0.2415 -0.7473 0.6190
vn -0.4886 -0.5701 0.6605
vn -0.0739 -0.7547 -0.6519
vn -0.0739 -0.7547 0.6519
vn -0.0037 -0.0640 -0.9979
vn -0.0037 -0.0640 0.9979
vn 0.0116 -0.0688 0.9976
vn 0.0116 -0.0688 -0.9976
usemtl Handle
s 1
f 33/1/1 36/2/2 7/3/3 5/4/4
f 37/5/5 9/6/6 15/7/7 40/8/8
f 8/9/9 6/10/10 10/11/11 16/12/12
f 5/13/4 7/14/3 15/7/7 9/6/6
f 8/9/9 16/12/12 24/15/13 22/16/14
f 40/8/8 15/7/7 23/17/15 44/18/16
f 15/7/7 7/14/3 21/19/17 23/17/15
f 36/2/2 8/9/9 22/16/14 43/20/18
f 43/20/18 47/21/19 32/22/20 21/23/17
f 48/24/21 29/25/22 27/26/23 46/27/24
f 45/28/25 26/29/26 28/30/27 46/31/24
f 31/32/28 30/33/29 28/30/27 26/29/26
f 47/21/19 31/32/28 26/29/26 45/34/25
f 29/25/22 32/35/20 25/36/30 27/26/23
f 44/18/16 48/24/21 30/33/29 24/15/13
f 23/17/15 21/19/17 32/35/20 29/25/22
f 24/15/13 30/33/29 31/32/28 22/16/14
f 23/17/15 29/25/22 48/24/21 44/18/16
f 32/22/20 47/21/19 45/34/25 25/37/30
f 25/38/30 45/28/25 46/31/24 27/39/23
f 30/33/29 48/24/21 46/27/24 28/30/27
f 22/16/14 31/32/28 47/21/19 43/20/18
f 7/3/3 36/2/2 43/20/18 21/23/17
f 16/12/12 40/8/8 44/18/16 24/15/13
f 10/11/11 37/5/5 40/8/8 16/12/12
f 6/10/10 8/9/9 36/2/2 33/1/1
usemtl Blade
s off
f 42/40/31 34/41/31 2/42/31 17/43/31
f 34/41/32 33/44/32 5/45/32 2/42/32
f 41/46/33 19/47/33 12/48/33 38/49/33
f 38/49/34 12/48/34 9/50/34 37/51/34
f 39/52/35 11/53/35 19/47/35 41/46/35
f 35/54/36 42/40/36 17/43/36 3/55/36
s 1
f 2/42/37 5/45/4 9/56/6 12/57/38
f 18/58/39 1/59/40 14/60/41 20/61/42
f 6/62/10 4/63/43 13/64/44 10/65/11
f 35/54/45 3/55/46 11/66/47 39/67/48
f 17/43/49 2/42/37 12/57/38 19/68/50
f 3/55/46 17/43/49 19/68/50 11/66/47
f 4/63/43 18/58/39 20/61/42 13/64/44
f 1/59/40 18/58/39 42/40/51 35/54/45
f 14/60/41 39/52/48 41/46/52 20/61/42
f 1/59/40 35/54/45 39/67/48 14/60/41
f 13/64/44 38/49/53 37/51/5 10/65/11
f 20/61/42 41/46/52 38/49/53 13/64/44
f 4/63/43 6/62/10 33/44/1 34/41/54
f 18/58/39 4/63/43 34/41/54 42/40/51
