# Blender v3.0.1 OBJ File: 'base_building_tile_set.blend'
# www.blender.org
mtllib base_building_bottom_right_inner_corner_tile.mtl
o bottom_right_inner_corner_Cube.011
v 0.676000 -0.000001 1.000708
v -1.000000 0.113320 -1.000027
v 1.000000 0.103320 -1.000027
v 1.000000 -0.000009 -1.000027
v -1.000000 -0.000009 -1.000027
v 0.810000 0.112999 1.000708
v -1.000000 -0.000009 0.999973
v -1.000000 0.113320 0.999973
v 1.000000 0.000000 0.685072
v 0.810000 0.112999 0.808708
v 1.000000 0.113000 0.810072
v 0.676000 -0.000001 0.683708
v 0.968000 1.933999 0.967708
v 1.000000 1.933999 0.967708
v 0.968000 1.933999 1.000708
v 0.920000 2.063999 0.919708
v 1.000000 2.064999 0.919708
v 0.920000 2.064999 1.000708
v 0.968000 3.999999 0.967708
v 0.861000 2.082999 0.860708
v 0.861000 2.082999 1.000708
v 1.000000 2.082999 0.860708
v 0.968000 3.999999 1.000708
v 1.000000 3.999999 0.967708
v 0.852000 3.999999 1.000708
v 1.000000 3.999999 0.851708
v 0.676000 0.103999 1.000708
v 1.000000 0.103000 0.675072
v 0.911530 3.999999 0.851708
v 0.852000 3.999999 0.911232
v 0.894049 3.999999 0.893756
v 0.672151 0.117047 0.738134
v 0.730663 0.116928 0.678084
v 0.629326 0.119831 0.636605
vt 0.014363 0.563640
vt 0.015125 0.546220
vt 0.773375 0.545651
vt 0.773640 0.596888
vt 0.773379 0.529315
vt 0.015093 0.529815
vt 0.014280 0.512590
vt 0.773640 0.476754
vt 0.813942 0.036364
vt 0.424192 0.036344
vt 0.424093 0.016208
vt 0.813833 0.014280
vt 0.340892 0.426233
vt 0.014280 0.426070
vt 0.014304 0.036318
vt 0.340896 0.364458
vt 0.404056 0.036342
vt 0.404035 0.364728
vt 0.836027 0.426109
vt 0.813943 0.426109
vt 0.836027 0.036364
vt 0.487326 0.426327
vt 0.488066 0.375094
vt 0.496420 0.355304
vt 0.476665 0.363391
vt 0.424108 0.362780
vt 0.813834 0.448194
vt 0.487227 0.446593
vt 0.040243 0.676557
vt 0.428750 0.677294
vt 0.427651 0.699164
vt 0.042228 0.683390
vt 0.042319 0.669644
vt 0.427747 0.655264
vt 0.023980 0.695188
vt 0.014280 0.683971
vt 0.017519 0.676526
vt 0.825920 0.730543
vt 0.042574 0.706693
vt 0.042749 0.646345
vt 0.825920 0.625447
vt 0.014346 0.669059
vt 0.024236 0.657810
vt 0.879278 0.446384
vt 0.891698 0.424241
vt 0.924339 0.438244
vt 0.922484 0.477007
vt 0.959176 0.429636
vt 0.968398 0.454396
vt 0.948438 0.062598
vt 0.954985 0.062409
vt 0.961614 0.063691
vt 0.957585 0.030380
vt 0.970938 0.038818
vt 0.943226 0.036494
vt 0.958867 0.014280
vt 0.976949 0.030990
vt 0.938537 0.027808
vt 0.865157 0.445085
vt 0.864587 0.424367
vt 0.929125 0.031344
vt 0.940664 0.035759
vt 0.983782 0.454658
vt 0.985720 0.433927
vt 0.973624 0.038472
vt 0.985720 0.035983
vn -0.9989 0.0454 0.0126
vn -0.0066 0.0451 -0.9990
vn -0.7101 0.0643 -0.7011
vn 0.0000 0.0000 -1.0000
vn 0.0000 -1.0000 0.0000
vn -1.0000 0.0000 0.0000
vn -0.0026 1.0000 0.0069
vn 0.0116 0.9999 -0.0076
vn 1.0000 0.0000 0.0000
vn -0.0004 0.0000 1.0000
vn 0.0211 0.9996 0.0185
vn 0.0000 -0.0557 0.9984
vn 0.9984 -0.0557 0.0000
vn -0.0000 1.0000 0.0000
vn 0.0000 0.0000 1.0000
vn -0.0036 -0.7409 0.6716
vn 0.6447 -0.7645 0.0000
vn -0.0061 -0.0863 0.9962
vn 0.9963 -0.0864 0.0000
vn 0.9387 0.3447 -0.0030
vn -0.0031 0.3447 0.9387
vn 0.3012 0.9536 -0.0043
vn -0.0044 0.9536 0.3012
usemtl InnerWall
s off
f 25/1/1 30/2/1 32/3/1 27/4/1
f 33/5/2 29/6/2 26/7/2 28/8/2
f 32/3/3 30/2/3 29/6/3 33/5/3
usemtl Floor
f 2/9/4 3/10/4 4/11/4 5/12/4
f 1/13/5 7/14/5 5/15/5 12/16/5
f 12/16/5 5/15/5 4/17/5 9/18/5
f 7/19/6 8/20/6 2/9/6 5/21/6
f 2/9/7 8/20/7 27/22/7 32/23/7 34/24/7
f 3/10/8 2/9/8 34/24/8 33/25/8 28/26/8
f 28/26/9 9/18/9 4/17/9 3/10/9
f 8/20/10 7/27/10 1/28/10 27/22/10
f 32/23/11 33/25/11 34/24/11
usemtl OuterWall
f 19/29/12 20/30/12 22/31/12 24/32/12
f 19/29/13 23/33/13 21/34/13 20/30/13
f 24/32/14 26/35/14 29/36/14 31/37/14 19/29/14
f 24/32/9 22/31/9 28/38/9 26/39/9
f 23/33/15 25/40/15 27/41/15 21/34/15
f 29/36/14 30/42/14 31/37/14
f 23/33/14 19/29/14 31/37/14 30/42/14 25/43/14
usemtl OuterWallBase
f 9/44/16 11/45/16 10/46/16 12/47/16
f 12/47/17 10/46/17 6/48/17 1/49/17
f 14/50/18 13/51/18 10/46/18 11/45/18
f 6/48/19 10/46/19 13/51/19 15/52/19
f 15/52/20 13/51/20 16/53/20 18/54/20
f 14/50/21 17/55/21 16/53/21 13/51/21
f 18/54/22 16/53/22 20/56/22 21/57/22
f 17/55/23 22/58/23 20/56/23 16/53/23
f 9/59/9 28/60/9 22/61/9 11/45/9
f 11/45/9 22/61/9 17/62/9 14/50/9
f 1/63/15 6/48/15 15/52/15 27/64/15
f 15/52/15 18/65/15 21/66/15 27/64/15
l 32 12
