# Blender v3.0.1 OBJ File: 'base_building_tile_set.blend'
# www.blender.org
mtllib base_building_top_left_corner_tile.mtl
o top_left_corner_tile_Cube.002
v 1.000000 4.000000 -0.967495
v -0.967495 4.000000 1.000000
v 1.000000 0.000000 1.000000
v 1.000000 4.000000 -0.851544
v -0.851544 4.000000 1.000000
v -0.967495 4.000000 -0.870154
v -0.870154 4.000000 -0.967495
v -0.967815 1.933413 1.000000
v -0.919707 2.065080 1.000000
v 1.000000 2.065080 -0.919707
v 1.000000 1.933413 -0.967815
v -0.854920 1.933413 -0.967815
v -0.816340 2.065079 -0.919707
v -0.919706 2.065079 -0.816340
v -0.967815 1.933413 -0.854920
v -0.861212 2.082863 -0.768686
v -0.861213 2.082864 1.000000
v 1.000000 2.082864 -0.861213
v -0.768686 2.082863 -0.861213
v 1.000000 0.103320 -0.675619
v -0.675619 0.103320 1.000000
v 1.000000 0.103320 1.000000
v -0.775375 4.000000 -0.851544
v -0.851544 4.000000 -0.775375
v -0.675619 0.103320 -0.599450
v -0.599450 0.103320 -0.675619
v 1.000000 0.114735 -0.809959
v 1.000000 0.000000 -0.684719
v -0.684719 0.000000 1.000000
v -0.809959 0.114735 1.000000
v -0.654909 0.000000 -0.684719
v -0.711695 0.114730 -0.809958
v -0.809958 0.114730 -0.711695
v -0.684719 -0.000000 -0.654909
vt 0.039062 0.000000
vt 0.476562 0.000000
vt 0.476562 1.000000
vt 0.039062 1.000000
vt 0.476562 0.000000
vt 0.503906 0.000000
vt 0.503906 1.000000
vt 0.937500 0.000000
vt 0.937500 1.000000
vt 0.503906 1.000000
vt 0.277344 0.007812
vt 0.714844 0.007812
vt 0.742188 0.023438
vt 0.742188 0.488281
vt 0.277344 0.488281
vt 0.277344 1.000000
vt 0.277344 0.511719
vt 0.742188 0.511719
vt 0.742188 0.992188
vt 0.742188 1.000000
vt 0.277344 0.488281
vt 0.242188 0.488281
vt 0.242188 0.007812
vt 0.277344 0.007812
vt 0.742188 0.488281
vt 0.742188 0.511719
vt 0.277344 0.511719
vt 0.277344 0.488281
vt 0.511719 0.128906
vt 0.488281 0.128906
vt 0.488281 0.085938
vt 0.511719 0.085938
vt 0.027344 0.097656
vt 0.460938 0.097656
vt 0.488281 0.128906
vt 0.027344 0.128906
vt 0.488281 0.640625
vt 0.488281 0.128906
vt 0.511719 0.640625
vt 0.027344 0.640625
vt 0.027344 0.128906
vt 0.488281 0.640625
vt 0.511719 0.640625
vt 0.511719 0.128906
vt 0.972656 0.128906
vt 0.972656 0.640625
vt 0.972656 0.097656
vt 0.972656 0.128906
vt 0.535156 0.097656
vt 0.972656 0.128906
vt 1.000000 0.128906
vt 1.000000 0.960938
vt 0.972656 0.640625
vt 0.027344 0.128906
vt 0.027344 0.640625
vt 0.000000 0.960938
vt 0.000000 0.128906
vt 0.031250 0.761719
vt 0.031250 0.332031
vt 0.484375 0.332031
vt 0.484375 0.761719
vt 0.523438 0.761719
vt 0.523438 0.332031
vt 0.968750 0.332031
vt 0.968750 0.761719
vt 0.484375 0.761719
vt 0.484375 0.332031
vt 0.523438 0.332031
vt 0.523438 0.761719
vt 0.484375 0.292969
vt 0.523438 0.292969
vt 0.484375 0.332031
vt 0.542969 0.292969
vt 0.976562 0.292969
vt 0.523438 0.332031
vt 0.023438 0.292969
vt 0.460938 0.292969
vt 0.031250 0.332031
vt 0.542969 0.277344
vt 0.976562 0.277344
vt 0.976562 0.292969
vt 0.023438 0.277344
vt 0.460938 0.277344
vt 0.460938 0.292969
vt 0.484375 0.277344
vt 0.523438 0.277344
vt 0.523438 0.292969
vt 0.515625 0.808594
vt 0.492188 0.808594
vt 0.523438 0.761719
vt 0.968750 0.808594
vt 0.531250 0.808594
vt 0.968750 0.761719
vt 0.476562 0.808594
vt 0.031250 0.808594
vt 0.484375 0.761719
vt 0.984375 0.308594
vt 1.000000 0.285156
vt 0.968750 0.761719
vt 0.031250 0.332031
vt 0.031250 0.761719
vt 0.000000 0.285156
vt 0.015625 0.308594
vt 0.968750 0.761719
vt 1.000000 0.285156
vt 1.000000 0.777344
vt 1.000000 0.792969
vt 0.031250 0.761719
vt 0.000000 0.792969
vt 0.000000 0.746094
vt 0.000000 0.285156
vn 0.9990 0.0451 -0.0000
vn 0.7057 0.0637 0.7057
vn 0.0000 0.0451 0.9990
vn 0.0000 1.0000 0.0000
vn 0.0000 -1.0000 -0.0000
vn 0.0000 0.0000 1.0000
vn 1.0000 0.0000 0.0000
vn -0.7050 -0.0764 -0.7050
vn 0.0000 -0.0554 -0.9985
vn -0.9985 -0.0554 -0.0000
vn -0.0000 -0.0865 -0.9963
vn -0.9963 -0.0865 -0.0000
vn -0.7023 -0.1163 -0.7023
vn -0.6410 0.4221 -0.6410
vn -0.9393 0.3432 -0.0000
vn -0.0000 0.3432 -0.9393
vn -0.2909 0.9568 -0.0000
vn -0.0000 0.9568 -0.2909
vn -0.1630 0.9731 -0.1630
vn -0.4705 -0.7465 -0.4705
vn -0.6755 -0.7374 0.0000
vn 0.0000 -0.7374 -0.6755
usemtl InnerWall
s off
f 5/1/1 21/2/1 25/3/1 24/4/1
f 25/3/2 26/5/2 23/6/2 24/7/2
f 23/6/3 26/8/3 20/9/3 4/10/3
usemtl Floor
f 21/11/4 22/12/4 20/13/4 26/14/4 25/15/4
f 29/16/5 34/17/5 31/18/5 28/19/5 3/20/5
f 22/21/6 21/22/6 29/23/6 3/24/6
f 20/25/7 22/26/7 3/27/7 28/28/7
usemtl OuterWall
f 6/29/4 24/30/4 23/31/4 7/32/4
f 4/33/4 1/34/4 7/35/4 23/36/4
f 19/37/8 16/38/8 6/29/8 7/39/8
f 18/40/9 19/41/9 7/35/9 1/42/9
f 16/43/10 17/44/10 2/45/10 6/46/10
f 5/47/4 24/48/4 6/29/4 2/49/4
f 1/50/7 4/51/7 20/52/7 18/53/7
f 2/54/6 17/55/6 21/56/6 5/57/6
usemtl OuterWallBase
f 27/58/11 32/59/11 12/60/11 11/61/11
f 33/62/12 30/63/12 8/64/12 15/65/12
f 32/66/13 33/67/13 15/68/13 12/69/13
f 13/70/14 12/71/14 15/68/14 14/72/14
f 14/73/15 15/74/15 8/64/15 9/75/15
f 10/76/16 11/77/16 12/60/16 13/78/16
f 14/73/17 9/79/17 17/80/17 16/81/17
f 10/76/18 13/82/18 19/83/18 18/84/18
f 13/70/19 14/85/19 16/86/19 19/87/19
f 34/88/20 33/89/20 32/66/20 31/90/20
f 29/91/21 30/92/21 33/62/21 34/93/21
f 31/94/22 32/95/22 27/58/22 28/96/22
f 8/64/6 30/97/6 17/98/6 9/99/6
f 11/100/7 10/101/7 18/102/7 27/103/7
f 27/104/7 18/105/7 20/106/7 28/107/7
f 30/108/6 29/109/6 21/110/6 17/111/6
