# Blender v3.0.1 OBJ File: 'base_building_tile_set.blend'
# www.blender.org
mtllib base_building_top_right_corner_tile.mtl
o top_right_corner_tile_Cube.003
v -1.000000 4.000000 -0.967495
v 0.967495 4.000000 1.000000
v -1.000000 0.000000 1.000000
v -1.000000 4.000000 -0.851544
v 0.851544 4.000000 1.000000
v 0.967495 4.000000 -0.870154
v 0.870154 4.000000 -0.967495
v 0.967815 1.933413 1.000000
v 0.919707 2.065080 1.000000
v -1.000000 2.065080 -0.919707
v -1.000000 1.933413 -0.967815
v 0.854920 1.933413 -0.967815
v 0.816340 2.065079 -0.919707
v 0.919706 2.065079 -0.816340
v 0.967815 1.933413 -0.854920
v 0.861212 2.082863 -0.768686
v 0.861213 2.082864 1.000000
v -1.000000 2.082864 -0.861213
v 0.768686 2.082863 -0.861213
v -1.000000 0.103320 -0.675619
v 0.675619 0.103320 1.000000
v -1.000000 0.103320 1.000000
v 0.775375 4.000000 -0.851544
v 0.851544 4.000000 -0.775375
v 0.675619 0.103320 -0.599450
v 0.599450 0.103320 -0.675619
v -1.000000 0.114735 -0.809959
v -1.000000 0.000000 -0.684719
v 0.684719 0.000000 1.000000
v 0.809959 0.114735 1.000000
v 0.654909 0.000000 -0.684719
v 0.711695 0.114730 -0.809958
v 0.809958 0.114730 -0.711695
v 0.684719 -0.000000 -0.654909
vt 0.000000 0.960938
vt 0.000000 0.523438
vt 1.000000 0.523438
vt 1.000000 0.960938
vt 0.000000 0.496094
vt 1.000000 0.496094
vt 0.000000 0.062500
vt 1.000000 0.062500
vt 0.007812 0.722656
vt 0.007812 0.285156
vt 0.023438 0.257812
vt 0.488281 0.257812
vt 0.488281 0.722656
vt 1.000000 0.722656
vt 0.511719 0.722656
vt 0.511719 0.257812
vt 0.992188 0.257812
vt 1.000000 0.257812
vt 0.488281 0.757812
vt 0.007812 0.757812
vt 0.128906 0.488281
vt 0.128906 0.511719
vt 0.085938 0.511719
vt 0.085938 0.488281
vt 0.097656 0.972656
vt 0.097656 0.539062
vt 0.128906 0.972656
vt 0.640625 0.511719
vt 0.640625 0.488281
vt 0.640625 0.972656
vt 0.128906 0.027344
vt 0.640625 0.027344
vt 0.097656 0.027344
vt 0.097656 0.464844
vt 0.128906 0.027344
vt 0.128906 0.000000
vt 0.960938 0.000000
vt 0.640625 0.027344
vt 0.128906 0.972656
vt 0.640625 0.972656
vt 0.960938 1.000000
vt 0.128906 1.000000
vt 0.761719 0.968750
vt 0.332031 0.968750
vt 0.332031 0.515625
vt 0.761719 0.515625
vt 0.761719 0.476562
vt 0.332031 0.476562
vt 0.332031 0.031250
vt 0.761719 0.031250
vt 0.292969 0.515625
vt 0.292969 0.476562
vt 0.292969 0.457031
vt 0.292969 0.023438
vt 0.292969 0.976562
vt 0.292969 0.539062
vt 0.277344 0.457031
vt 0.277344 0.023438
vt 0.277344 0.976562
vt 0.277344 0.539062
vt 0.277344 0.515625
vt 0.277344 0.476562
vt 0.808594 0.484375
vt 0.808594 0.507812
vt 0.808594 0.031250
vt 0.808594 0.468750
vt 0.808594 0.523438
vt 0.808594 0.968750
vt 0.308594 0.015625
vt 0.285156 0.000000
vt 0.285156 1.000000
vt 0.308594 0.984375
vt 0.761719 0.031250
vt 0.285156 0.000000
vt 0.777344 0.000000
vt 0.792969 0.000000
vt 0.761719 0.968750
vt 0.792969 1.000000
vt 0.746094 1.000000
vt 0.285156 1.000000
vn -0.9990 0.0451 -0.0000
vn -0.7057 0.0637 0.7057
vn 0.0000 0.0451 0.9990
vn 0.0000 1.0000 0.0000
vn -0.0000 -1.0000 -0.0000
vn 0.0000 0.0000 1.0000
vn -1.0000 0.0000 0.0000
vn 0.7050 -0.0764 -0.7050
vn -0.0000 -0.0554 -0.9985
vn 0.9985 -0.0554 -0.0000
vn 0.0000 -0.0865 -0.9963
vn 0.9963 -0.0865 -0.0000
vn 0.7023 -0.1163 -0.7023
vn 0.6410 0.4221 -0.6410
vn 0.9393 0.3432 -0.0000
vn 0.0000 0.3432 -0.9393
vn 0.2909 0.9568 -0.0000
vn 0.0000 0.9568 -0.2909
vn 0.1630 0.9731 -0.1630
vn 0.4705 -0.7465 -0.4705
vn 0.6755 -0.7374 0.0000
vn -0.0000 -0.7374 -0.6755
usemtl InnerWall
s off
f 5/1/1 24/2/1 25/3/1 21/4/1
f 25/3/2 24/2/2 23/5/2 26/6/2
f 23/5/3 4/7/3 20/8/3 26/6/3
usemtl Floor
f 21/9/4 25/10/4 26/11/4 20/12/4 22/13/4
f 29/14/5 3/15/5 28/16/5 31/17/5 34/18/5
f 22/13/6 3/19/6 29/20/6 21/9/6
f 20/12/7 28/16/7 3/15/7 22/13/7
usemtl OuterWall
f 6/21/4 7/22/4 23/23/4 24/24/4
f 4/25/4 23/26/4 7/22/4 1/27/4
f 19/28/8 7/22/8 6/21/8 16/29/8
f 18/30/9 1/27/9 7/22/9 19/28/9
f 16/29/10 6/21/10 2/31/10 17/32/10
f 5/33/4 2/31/4 6/21/4 24/34/4
f 1/35/7 18/36/7 20/37/7 4/38/7
f 2/39/6 5/40/6 21/41/6 17/42/6
usemtl OuterWallBase
f 27/43/11 11/44/11 12/45/11 32/46/11
f 33/47/12 15/48/12 8/49/12 30/50/12
f 32/46/13 12/45/13 15/48/13 33/47/13
f 13/51/14 14/52/14 15/48/14 12/45/14
f 14/53/15 9/54/15 8/49/15 15/48/15
f 10/55/16 13/56/16 12/45/16 11/44/16
f 14/53/17 16/57/17 17/58/17 9/54/17
f 10/55/18 18/59/18 19/60/18 13/56/18
f 13/51/19 19/61/19 16/62/19 14/52/19
f 34/63/20 31/64/20 32/46/20 33/47/20
f 29/65/21 34/66/21 33/47/21 30/50/21
f 31/67/22 28/68/22 27/43/22 32/46/22
f 8/49/6 9/69/6 17/70/6 30/50/6
f 11/44/7 27/43/7 18/71/7 10/72/7
f 27/73/7 28/74/7 20/75/7 18/76/7
f 30/77/6 17/78/6 21/79/6 29/80/6
