<?xml version="1.0" encoding="UTF-8" standalone="no"?>
<!DOCTYPE svg PUBLIC "-//W3C//DTD SVG 1.1//EN" "http://www.w3.org/Graphics/SVG/1.1/DTD/svg11.dtd">
<!-- Created with Vectornator (http://vectornator.io/) -->
<svg stroke-miterlimit="10" style="fill-rule:nonzero;clip-rule:evenodd;stroke-linecap:round;stroke-linejoin:round;" version="1.1" viewBox="0 0 500 500" xml:space="preserve" xmlns="http://www.w3.org/2000/svg" xmlns:xlink="http://www.w3.org/1999/xlink">
<defs/>
<g id="Layer-1">
<path d="M240.906 407.219C247.822 408.945 254.871 409.937 262.031 409.938C265.245 409.937 268.409 409.589 271.562 409.25C261.2 409.157 250.988 408.412 240.906 407.219Z" fill="#fc7e9e" fill-rule="evenodd" opacity="1" stroke="none"/>
<g opacity="1">
<path d="M297.061 83.0873C322.825 88.6427 345.922 105.584 363.195 131.044C383.241 160.591 394.466 199.756 394.466 241.237C394.466 282.717 383.242 321.888 363.195 351.43C343.921 379.832 317.422 397.719 288.018 400.878C288.845 400.885 289.655 400.969 290.484 400.969C350.411 400.969 404.828 382.405 443.366 351.278C479.658 321.964 500 283.097 500 241.937C500 200.778 479.655 161.885 443.366 132.566C406.255 102.584 354.364 84.4045 297.061 83.0873Z" fill="#fc7f7e" fill-rule="evenodd" opacity="1" stroke="none"/>
<path d="M290.484 82.8438C277.152 82.8438 264.021 83.8494 251.175 85.7059C245.742 87.5438 240.386 89.7371 235.19 92.6177C191.189 117.008 162.966 175.771 162.966 241.237C162.966 306.698 191.186 365.464 235.19 389.856C242.597 393.962 250.281 396.936 258.148 398.899C267.971 400.062 277.921 400.788 288.018 400.878C317.422 397.719 343.921 379.832 363.195 351.43C383.242 321.888 394.466 282.717 394.466 241.237C394.466 199.756 383.241 160.591 363.195 131.044C345.922 105.584 322.825 88.6427 297.061 83.0873C294.857 83.0367 292.704 82.8437 290.484 82.8438ZM245.664 137.803C247.303 139.198 248.88 140.698 250.444 142.279C252.005 143.857 253.561 145.519 255.042 147.273C255.069 147.305 255.076 147.362 255.103 147.395C255.164 147.467 255.225 147.535 255.286 147.608C256.668 149.26 258.029 150.986 259.335 152.784C259.392 152.862 259.431 152.949 259.487 153.027C259.586 153.164 259.663 153.316 259.762 153.454C260.639 154.682 261.479 155.968 262.319 157.26C264.278 160.269 266.179 163.398 267.922 166.729C268.319 167.489 268.662 168.298 269.048 169.074C270.812 172.621 272.479 176.242 273.981 180.096C274.036 180.238 274.109 180.38 274.164 180.522C275.703 184.511 277.068 188.699 278.305 192.976C278.492 193.623 278.703 194.241 278.883 194.894C280.052 199.14 281.019 203.536 281.867 208.017C282.003 208.734 282.166 209.457 282.293 210.179C283.09 214.704 283.734 219.315 284.181 224.033C284.255 224.812 284.3 225.625 284.364 226.408C284.762 231.287 285.003 236.2 285.003 241.237C285.003 246.274 284.762 251.217 284.364 256.096C284.3 256.878 284.255 257.662 284.181 258.44C283.736 263.133 283.084 267.732 282.293 272.233C282.161 272.986 282.009 273.74 281.867 274.486C281.025 278.926 280.04 283.28 278.883 287.488C278.686 288.204 278.48 288.911 278.274 289.619C277.044 293.858 275.692 297.996 274.164 301.951C274.106 302.101 274.039 302.258 273.981 302.408C272.51 306.176 270.891 309.743 269.17 313.217C268.727 314.111 268.289 315.024 267.83 315.896C266.08 319.229 264.195 322.387 262.228 325.396C261.586 326.377 260.942 327.375 260.279 328.319C259.822 328.971 259.376 329.604 258.909 330.238C257.917 331.584 256.9 332.872 255.864 334.135C255.507 334.57 255.16 335.019 254.798 335.444C253.503 336.966 252.166 338.441 250.81 339.829C250.692 339.949 250.562 340.075 250.444 340.194C250.42 340.219 250.408 340.261 250.383 340.286C248.839 341.842 247.281 343.295 245.664 344.67C222.341 324.847 206.233 285.734 206.233 241.237C206.233 196.743 222.35 157.633 245.664 137.803Z" fill="#fc7f7e" fill-rule="evenodd" opacity="1" stroke="none"/>
<path d="M130.821 120.013C119.124 122.216 107.769 125.269 96.8053 129.021C92.3423 131.532 88.0056 134.342 83.9223 137.728C49.3483 166.401 34.2982 222.623 45.1191 280.062C55.9392 337.498 90.413 384.393 133.053 398.521C140.231 400.9 147.464 402.238 154.691 402.661C163.501 402.057 172.352 401.05 181.225 399.46C206.502 391.828 226.796 371.754 239.012 343.649C251.718 314.415 255.091 278.192 248.234 241.798C241.378 205.404 225.056 172.896 202.584 150.284C183.221 130.801 160.155 119.755 136.632 119.139C134.69 119.459 132.769 119.646 130.821 120.013ZM100.581 175.642C102.25 176.595 103.881 177.65 105.515 178.779C107.146 179.905 108.785 181.106 110.374 182.4C110.404 182.424 110.419 182.473 110.448 182.497C110.513 182.55 110.578 182.6 110.644 182.654C112.13 183.875 113.609 185.164 115.052 186.526C115.115 186.585 115.163 186.655 115.226 186.715C115.335 186.818 115.428 186.939 115.537 187.043C116.51 187.976 117.459 188.966 118.41 189.96C120.626 192.277 122.811 194.708 124.891 197.342C125.365 197.943 125.8 198.597 126.267 199.213C128.401 202.034 130.462 204.935 132.417 208.069C132.489 208.184 132.576 208.297 132.647 208.413C134.658 211.658 136.548 215.107 138.339 218.655C138.61 219.191 138.898 219.699 139.164 220.242C140.891 223.774 142.466 227.471 143.951 231.263C144.189 231.87 144.451 232.477 144.682 233.089C146.129 236.928 147.456 240.867 148.629 244.933C148.822 245.603 148.996 246.31 149.181 246.986C150.337 251.201 151.361 255.472 152.193 259.891C153.026 264.311 153.631 268.687 154.088 273.034C154.162 273.731 154.252 274.426 154.316 275.121C154.701 279.312 154.889 283.455 154.939 287.535C154.947 288.217 154.939 288.904 154.938 289.582C154.933 293.617 154.788 297.599 154.469 301.483C154.414 302.144 154.35 302.798 154.287 303.454C153.908 307.376 153.406 311.229 152.718 314.953C152.692 315.094 152.66 315.243 152.633 315.384C151.966 318.933 151.135 322.33 150.199 325.663C149.958 326.52 149.725 327.393 149.467 328.235C148.482 331.448 147.35 334.53 146.121 337.496C145.721 338.463 145.32 339.445 144.895 340.383C144.601 341.03 144.315 341.659 144.009 342.292C143.361 343.637 142.682 344.936 141.982 346.215C141.741 346.656 141.511 347.108 141.264 347.54C140.379 349.089 139.449 350.604 138.489 352.046C138.405 352.172 138.312 352.303 138.228 352.427C138.211 352.453 138.207 352.492 138.19 352.518C137.092 354.139 135.966 355.671 134.774 357.145C111.034 343.607 90.4363 311.952 83.0813 272.911C75.727 233.872 83.4037 196.894 100.581 175.642Z" fill="#fc7f7e" fill-rule="evenodd" opacity="1" stroke="none"/>
<path d="M8.28814 348.243C-8.10937 308.284 0.577928 266.872 27.6918 255.745C54.8056 244.619 90.0785 267.992 106.476 307.95C122.873 347.909 114.186 389.322 87.0724 400.448C59.9585 411.575 24.6856 388.201 8.28814 348.243Z" fill="#fc7f7e" fill-rule="evenodd" opacity="1" stroke="none"/>
</g>
</g>
</svg>
