<?xml version="1.0" encoding="UTF-8" standalone="no"?>
<!DOCTYPE svg PUBLIC "-//W3C//DTD SVG 1.1//EN" "http://www.w3.org/Graphics/SVG/1.1/DTD/svg11.dtd">
<!-- Created with Vectornator (http://vectornator.io/) -->
<svg stroke-miterlimit="10" style="fill-rule:nonzero;clip-rule:evenodd;stroke-linecap:round;stroke-linejoin:round;" version="1.1" viewBox="0 0 500 500" xml:space="preserve" xmlns="http://www.w3.org/2000/svg" xmlns:xlink="http://www.w3.org/1999/xlink">
<defs/>
<g id="Layer-1">
<g opacity="1">
<path d="M321.37 0.312361C298.03 0.312365 275.39 6.59326 254.161 18.3609C186.244 56.0091 142.701 146.723 142.701 247.774C142.701 348.818 186.24 439.498 254.161 477.149C275.39 488.917 298.03 495.197 321.37 495.197C372.466 495.197 418.87 466.284 451.729 417.863C482.673 372.264 500 311.802 500 247.774C500 183.747 482.671 123.255 451.729 77.6466C418.87 29.2127 372.467 0.312355 321.37 0.312361ZM270.316 88.1202C272.846 90.2737 275.322 92.5586 277.736 94.9995C280.146 97.4352 282.524 100.022 284.809 102.729C284.851 102.779 284.883 102.834 284.925 102.884C285.019 102.995 285.102 103.119 285.196 103.231C287.33 105.782 289.401 108.456 291.418 111.232C291.505 111.352 291.601 111.458 291.688 111.579C291.841 111.79 291.962 112.024 292.113 112.236C293.468 114.132 294.758 116.118 296.056 118.111C299.079 122.756 301.984 127.617 304.674 132.758C305.288 133.931 305.856 135.156 306.452 136.353C309.174 141.828 311.747 147.446 314.065 153.396C314.151 153.615 314.251 153.834 314.336 154.053C316.713 160.21 318.805 166.66 320.713 173.261C321.002 174.26 321.324 175.229 321.602 176.237C323.406 182.791 324.931 189.571 326.239 196.489C326.449 197.595 326.661 198.697 326.858 199.812C328.087 206.797 329.105 213.94 329.795 221.223C329.909 222.425 329.967 223.647 330.066 224.856C330.68 232.387 331.07 239.999 331.07 247.774C331.07 255.55 330.68 263.162 330.066 270.692C329.967 271.901 329.909 273.124 329.795 274.325C329.108 281.569 328.079 288.672 326.858 295.62C326.653 296.782 326.458 297.946 326.239 299.099C324.94 305.951 323.387 312.661 321.602 319.157C321.298 320.262 320.992 321.348 320.674 322.442C318.776 328.985 316.695 335.351 314.336 341.457C314.247 341.688 314.155 341.922 314.065 342.152C311.795 347.968 309.263 353.485 306.606 358.848C305.923 360.227 305.266 361.636 304.558 362.983C301.856 368.128 298.937 373.024 295.901 377.669C294.911 379.184 293.91 380.695 292.886 382.153C292.181 383.158 291.482 384.151 290.761 385.129C289.229 387.206 287.683 389.208 286.084 391.158C285.534 391.829 284.981 392.511 284.423 393.167C282.423 395.516 280.372 397.788 278.278 399.931C278.096 400.117 277.919 400.326 277.736 400.51C277.699 400.549 277.659 400.588 277.621 400.626C275.236 403.029 272.813 405.305 270.316 407.428C234.316 376.83 209.485 316.458 209.484 247.774C209.484 179.095 234.331 118.728 270.316 88.1202Z" fill="#fc7f7e" fill-rule="evenodd" opacity="1" stroke="none"/>
<path d="M7.12058 346.647C-16.1452 247.603 19.4755 154.514 86.6816 138.727C153.888 122.94 227.23 190.433 250.496 289.477C273.761 388.521 238.141 481.61 170.935 497.397C103.728 513.184 30.3864 445.691 7.12058 346.647Z" fill="#fc7f7e" fill-rule="evenodd" opacity="1" stroke="none"/>
</g>
</g>
</svg>
