{
    "asset" : {
        "generator" : "Khronos glTF Blender I/O v3.2.43",
        "version" : "2.0"
    },
    "scene" : 0,
    "scenes" : [
        {
            "name" : "Scene",
            "nodes" : [
                0
            ]
        }
    ],
    "nodes" : [
        {
            "mesh" : 0,
            "name" : "Cube",
            "translation" : [
                0,
                0.5,
                0
            ]
        }
    ],
    "materials" : [
        {
            "doubleSided" : true,
            "name" : "Material",
            "pbrMetallicRoughness" : {
                "metallicFactor" : 0,
                "roughnessFactor" : 0.6000000238418579
            }
        }
    ],
    "meshes" : [
        {
            "extras" : {
                "targetNames" : [
                    "Key 1"
                ]
            },
            "name" : "Cube",
            "primitives" : [
                {
                    "attributes" : {
                        "POSITION" : 0,
                        "NORMAL" : 1,
                        "TEXCOORD_0" : 2
                    },
                    "indices" : 3,
                    "material" : 0,
                    "targets" : [
                        {
                            "POSITION" : 4,
                            "NORMAL" : 5
                        }
                    ]
                }
            ],
            "weights" : [
                0
            ]
        }
    ],
    "accessors" : [
        {
            "bufferView" : 0,
            "componentType" : 5126,
            "count" : 814,
            "max" : [
                0.5983613729476929,
                0.35869771242141724,
                1.3952603340148926
            ],
            "min" : [
                -0.5983613729476929,
                -0.5,
                -1.0285876989364624
            ],
            "type" : "VEC3"
        },
        {
            "bufferView" : 1,
            "componentType" : 5126,
            "count" : 814,
            "type" : "VEC3"
        },
        {
            "bufferView" : 2,
            "componentType" : 5126,
            "count" : 814,
            "type" : "VEC2"
        },
        {
            "bufferView" : 3,
            "componentType" : 5123,
            "count" : 3468,
            "type" : "SCALAR"
        },
        {
            "bufferView" : 4,
            "componentType" : 5126,
            "count" : 814,
            "max" : [
                0.6256482005119324,
                2.9802322387695312e-08,
                0.14686143398284912
            ],
            "min" : [
                -0.024767696857452393,
                -2.9802322387695312e-08,
                -0.17912864685058594
            ],
            "type" : "VEC3"
        },
        {
            "bufferView" : 5,
            "componentType" : 5126,
            "count" : 814,
            "type" : "VEC3"
        }
    ],
    "bufferViews" : [
        {
            "buffer" : 0,
            "byteLength" : 9768,
            "byteOffset" : 0
        },
        {
            "buffer" : 0,
            "byteLength" : 9768,
            "byteOffset" : 9768
        },
        {
            "buffer" : 0,
            "byteLength" : 6512,
            "byteOffset" : 19536
        },
        {
            "buffer" : 0,
            "byteLength" : 6936,
            "byteOffset" : 26048
        },
        {
            "buffer" : 0,
            "byteLength" : 9768,
            "byteOffset" : 32984
        },
        {
            "buffer" : 0,
            "byteLength" : 9768,
            "byteOffset" : 42752
        }
    ],
    "buffers" : [
        {
            "byteLength" : 52520,
            "uri" : "tentacle.bin"
        }
    ]
}
