<?xml version="1.0" encoding="UTF-8" standalone="no"?>
<!DOCTYPE svg PUBLIC "-//W3C//DTD SVG 1.1//EN" "http://www.w3.org/Graphics/SVG/1.1/DTD/svg11.dtd">
<!-- Created with Vectornator (http://vectornator.io/) -->
<svg stroke-miterlimit="10" style="fill-rule:nonzero;clip-rule:evenodd;stroke-linecap:round;stroke-linejoin:round;" version="1.1" viewBox="0 0 512 512" xml:space="preserve" xmlns="http://www.w3.org/2000/svg" xmlns:xlink="http://www.w3.org/1999/xlink">
<defs/>
<g id="Layer-1">
<g opacity="1">
<path d="M256 397.261L320 461.261L278.63 502.63C266.138 515.123 245.862 515.123 233.37 502.63L192 461.261L256 397.261Z" fill="#ffffff" fill-rule="nonzero" opacity="1" stroke="none"/>
<path d="M486.4 409.6L486.4 51.2C486.4 22.912 463.488 3.41061e-13 435.2 3.41061e-13L76.8 3.41061e-13C48.512 3.41061e-13 25.6 22.912 25.6 51.2L25.6 409.6C25.6 437.888 48.512 460.8 76.8 460.8L435.2 460.8C463.488 460.8 486.4 437.888 486.4 409.6ZM230.4 140.8L230.4 115.2C230.4 108.134 236.134 102.4 243.2 102.4L268.8 102.4C275.866 102.4 281.6 108.134 281.6 115.2L281.6 140.8C281.6 147.866 275.866 153.6 268.8 153.6L243.2 153.6C236.134 153.6 230.4 147.866 230.4 140.8ZM230.4 332.8L230.4 230.4C230.4 216.269 241.869 204.8 256 204.8L256 204.8C270.131 204.8 281.6 216.269 281.6 230.4L281.6 332.8C281.6 346.931 270.131 358.4 256 358.4L256 358.4C241.869 358.4 230.4 346.931 230.4 332.8Z" fill="#ffffff" fill-rule="nonzero" opacity="1" stroke="none"/>
</g>
</g>
</svg>
