# Blender v3.0.1 OBJ File: 'building_01_tile_set.blend'
# www.blender.org
mtllib building_01_edge_tile.mtl
o edge_Cube.010
v -1.000000 4.000000 0.967495
v -1.000000 4.000000 0.851544
v -1.000000 1.933413 0.967815
v -1.000000 2.065080 0.919707
v -1.000000 2.082864 0.861213
v -1.000000 0.103320 0.675619
v -1.000000 0.000000 0.684719
v -1.000000 0.114735 0.809959
v 1.000000 4.000000 0.967495
v 1.000000 4.000000 0.851544
v 1.000000 1.933413 0.967815
v 1.000000 2.065080 0.919707
v 1.000000 2.082864 0.861213
v 1.000000 0.103320 0.675619
v 1.000000 0.000000 0.684719
v 1.000000 0.114735 0.809959
v -1.000000 0.103320 -1.000027
v 1.000000 0.103320 -1.000027
v 1.000000 -0.000009 -1.000027
v -1.000000 -0.000009 -1.000027
v 0.000000 4.000000 0.851544
v 0.000000 4.000000 0.967495
v 0.000000 2.082864 0.861213
v 0.000000 2.065080 0.919707
v 0.000000 1.933413 0.967815
v 0.000000 0.114735 0.809959
v 0.000000 0.000000 0.684719
v -0.000000 0.103320 0.675619
v 0.000000 0.103320 -1.000027
vt 0.750000 0.995989
vt 0.502000 1.000000
vt 0.502000 0.004011
vt 0.750000 0.000000
vt 0.998667 0.995989
vt 0.998667 0.000000
vt 0.065333 0.163102
vt 0.000000 0.163102
vt 0.000000 0.998663
vt 0.066667 1.000000
vt 0.498667 0.163102
vt 1.000000 0.163102
vt 1.000000 0.998663
vt 0.502000 0.998663
vt 1.000000 0.924465
vt 0.000000 0.924465
vt 1.000000 0.163102
vt 0.000000 0.163102
vt 0.000000 0.998663
vt 1.000000 0.998663
vt 0.943333 0.163102
vt 0.947333 1.000000
vt 0.005333 1.001337
vt 0.056000 1.001337
vt 0.001333 -0.001337
vt 0.001333 0.498663
vt 0.930000 1.001337
vt 0.930000 0.502005
vt 0.998667 -0.001337
vt 0.998667 1.001337
vt 0.498000 1.000000
vt 0.000000 1.000000
vt 0.002667 0.903743
vt 0.500667 0.903743
vt 0.498047 -0.000000
vt 0.001953 -0.000000
vt 0.001953 1.000000
vt 0.500000 1.000000
vt 0.998047 -0.000000
vt 0.998047 1.000000
vt 0.997333 1.000000
vt 1.000000 0.903743
vt 0.500667 0.847594
vt 0.000000 0.846257
vt 0.000000 0.906417
vt 0.500667 0.906417
vt 0.500667 1.000000
vt -0.000000 1.000000
vt 0.000000 0.906417
vt 0.500667 0.906417
vt 0.498047 -0.001953
vt 0.001953 -0.001953
vt 0.001953 1.001953
vt 0.500000 1.000000
vt 0.500000 0.103516
vt 0.001953 0.103516
vt 0.001953 0.001953
vt 0.500000 0.000000
vt 0.998047 0.103516
vt 0.998047 0.001953
vt 0.998047 -0.001953
vt 0.998047 1.001953
vt 1.000000 1.000000
vt 1.000000 0.907086
vt 1.000000 0.848262
vt 1.000000 0.907086
vt 0.934000 1.000000
vt 0.897333 1.000000
vt 0.906000 0.000000
vt 0.966000 0.000000
vt 1.000000 0.000000
vt 1.000000 1.000000
vt 0.066406 1.000000
vt 0.078125 0.074219
vt 0.080078 0.001953
vt 0.000000 0.000000
vt 0.000000 0.998047
vt 0.066406 0.998047
vn 0.0000 0.0451 -0.9990
vn -1.0000 0.0000 -0.0000
vn 0.0000 1.0000 0.0000
vn 0.0000 0.0000 -1.0000
vn -0.0000 -1.0000 0.0000
vn 1.0000 0.0000 0.0000
vn 0.0000 -0.0554 0.9985
vn 0.0000 0.9568 0.2909
vn 0.0000 0.3432 0.9393
vn 0.0000 -0.0865 0.9963
vn 0.0000 -0.7374 0.6755
usemtl InnerWall
s off
f 21/1/1 10/2/1 14/3/1 28/4/1
f 2/5/1 21/1/1 28/4/1 6/6/1
usemtl Floor
f 7/7/2 6/8/2 17/9/2 20/10/2
f 28/11/3 14/12/3 18/13/3 29/14/3
f 17/9/4 29/14/4 18/13/4 19/15/4 20/16/4
f 15/17/5 7/18/5 20/19/5 19/20/5
f 14/12/6 15/21/6 19/22/6 18/13/6
f 6/8/3 28/11/3 29/14/3 17/9/3
usemtl OuterWall
f 1/23/2 2/24/2 6/25/2 5/26/2
f 9/27/6 13/28/6 14/29/6 10/30/6
f 22/31/3 9/32/3 10/33/3 21/34/3
f 23/35/7 13/36/7 9/37/7 22/38/7
f 5/39/7 23/35/7 22/38/7 1/40/7
f 1/41/3 22/31/3 21/34/3 2/42/3
usemtl OuterWallBase
f 24/43/8 12/44/8 13/45/8 23/46/8
f 25/47/9 11/48/9 12/49/9 24/50/9
f 26/51/10 16/52/10 11/53/10 25/54/10
f 27/55/11 15/56/11 16/57/11 26/58/11
f 7/59/11 27/55/11 26/58/11 8/60/11
f 8/61/10 26/51/10 25/54/10 3/62/10
f 3/63/9 25/47/9 24/50/9 4/64/9
f 4/65/8 24/43/8 23/46/8 5/66/8
f 12/67/6 11/68/6 16/69/6 15/70/6 14/71/6 13/72/6
f 5/73/2 6/74/2 7/75/2 8/76/2 3/77/2 4/78/2
f 27/55/3 7/59/3 15/17/3
