<?xml version="1.0" encoding="UTF-8" standalone="no"?>
<!DOCTYPE svg PUBLIC "-//W3C//DTD SVG 1.1//EN" "http://www.w3.org/Graphics/SVG/1.1/DTD/svg11.dtd">
<!-- Created with Vectornator (http://vectornator.io/) -->
<svg stroke-miterlimit="10" style="fill-rule:nonzero;clip-rule:evenodd;stroke-linecap:round;stroke-linejoin:round;" version="1.1" viewBox="0 0 500 500" xml:space="preserve" xmlns="http://www.w3.org/2000/svg" xmlns:xlink="http://www.w3.org/1999/xlink">
<defs/>
<clipPath id="ArtboardFrame">
<rect height="500" width="500" x="0" y="0"/>
</clipPath>
<g clip-path="url(#ArtboardFrame)" id="Layer-1">
<path d="M323.043 365.217C323.043 480 290.341 500.87 250 500.87C209.659 500.87 176.957 480 176.957 365.217C176.957 313.384 209.659 229.565 250 229.565C290.341 229.565 323.043 313.043 323.043 365.217Z" fill="#ffffff" fill-rule="evenodd" opacity="1" stroke="none"/>
<path d="M176.957 135.652C176.957 20.8695 209.659-2.47088e-05 250 0C290.341 2.47088e-05 323.044 20.8696 323.043 135.652C323.043 187.485 290.341 271.304 250 271.304C209.659 271.304 176.956 187.826 176.957 135.652Z" fill="#ffffff" fill-rule="evenodd" opacity="1" stroke="none"/>
<path d="M325.803 120.563C425.208 63.1715 459.633 81.0581 479.803 115.994C499.974 150.93 498.251 189.687 398.847 247.078C353.958 272.994 265.017 286.583 244.847 251.646C224.676 216.71 280.619 146.65 325.803 120.563Z" fill="#ffffff" fill-rule="evenodd" opacity="1" stroke="none"/>
<path d="M174.197 120.563C74.7921 63.1715 40.3672 81.0581 20.1968 115.994C0.0263907 150.93 1.74863 189.687 101.153 247.078C146.042 272.994 234.983 286.583 255.153 251.646C275.324 216.71 219.381 146.65 174.197 120.563Z" fill="#ffffff" fill-rule="evenodd" opacity="1" stroke="none"/>
<path d="M325.803 381.678C425.208 439.069 459.633 421.183 479.803 386.247C499.974 351.31 498.251 312.554 398.847 255.163C353.958 229.246 265.017 215.658 244.847 250.595C224.676 285.531 280.619 355.591 325.803 381.678Z" fill="#ffffff" fill-rule="evenodd" opacity="1" stroke="none"/>
<path d="M174.197 381.678C74.7921 439.069 40.3672 421.183 20.1968 386.247C0.0263907 351.31 1.74863 312.554 101.153 255.163C146.042 229.246 234.983 215.658 255.153 250.595C275.324 285.531 219.381 355.591 174.197 381.678Z" fill="#ffffff" fill-rule="evenodd" opacity="1" stroke="none"/>
</g>
</svg>
