<?xml version="1.0" encoding="UTF-8" standalone="no"?>
<!DOCTYPE svg PUBLIC "-//W3C//DTD SVG 1.1//EN" "http://www.w3.org/Graphics/SVG/1.1/DTD/svg11.dtd">
<!-- Created with Vectornator (http://vectornator.io/) -->
<svg stroke-miterlimit="10" style="fill-rule:nonzero;clip-rule:evenodd;stroke-linecap:round;stroke-linejoin:round;" version="1.1" viewBox="0 0 500 500" xml:space="preserve" xmlns="http://www.w3.org/2000/svg" xmlns:xlink="http://www.w3.org/1999/xlink">
<defs/>
<clipPath id="ArtboardFrame">
<rect height="500" width="500" x="0" y="0"/>
</clipPath>
<g clip-path="url(#ArtboardFrame)" id="Layer-1">
<g opacity="1">
<path d="M168.415 28.5548C136.364 28.5548 110.14 54.7786 110.14 86.8298C110.14 118.881 136.364 145.105 168.415 145.105C200.466 145.105 226.69 118.881 226.69 86.8298C226.69 54.7786 200.466 28.5548 168.415 28.5548ZM58.2751 170.163C26.2238 170.163-2.84217e-14 196.387-2.84217e-14 228.438C-2.84217e-14 260.49 26.2238 286.713 58.2751 286.713C90.3263 286.713 116.55 260.49 116.55 228.438C116.55 196.387 90.9091 170.163 58.2751 170.163ZM441.725 170.163C409.674 170.163 383.45 196.387 383.45 228.438C383.45 260.49 409.674 286.713 441.725 286.713C473.776 286.713 500 260.49 500 228.438C500 196.387 473.776 170.163 441.725 170.163ZM331.585 28.5548C299.534 28.5548 273.31 54.7786 273.31 86.8298C273.31 118.881 299.534 145.105 331.585 145.105C363.636 145.105 389.86 118.881 389.86 86.8298C389.86 54.7786 363.636 28.5548 331.585 28.5548Z" fill="#ffffff" fill-rule="evenodd" opacity="1" stroke="none"/>
<path d="M352.564 319.93L352.564 319.93C337.413 319.93 325.758 307.692 325.758 293.124L325.758 293.124C325.758 252.331 294.289 217.366 254.079 215.035C210.373 212.704 174.242 250 174.242 293.124L174.242 293.124C174.242 308.275 162.005 319.93 147.436 319.93L147.436 319.93C106.643 319.93 71.6783 351.399 69.3473 391.608C67.0163 435.315 101.981 471.445 145.105 471.445L354.895 471.445C398.019 471.445 432.984 435.315 430.653 391.608C428.322 351.399 393.357 319.93 352.564 319.93Z" fill="#ffffff" fill-rule="evenodd" opacity="1" stroke="none"/>
</g>
</g>
</svg>
