<svg id="Layer_1" data-name="Layer 1" xmlns="http://www.w3.org/2000/svg" viewBox="0 0 1125 2436"><defs><style>.cls-1{fill:#333;}.cls-2{fill:#a7a7a7;}.cls-3{fill:#7f7f7f;}.cls-4{fill:#202020;}.cls-5{fill:#848484;}.cls-6{fill:#858585;}.cls-7{fill:#9f9f9f;}.cls-8{opacity:0.5;}.cls-9{fill:none;stroke:#333;stroke-linecap:round;stroke-linejoin:round;stroke-dasharray:11.88 11.88;}</style></defs><path class="cls-1" d="M1180,1959.59c0-254,0-634.41,0-896.9.22-25.16.43-60.29.43-64.56q.06-419.61,0-839.24c0-14.1-.12-28.22-.82-42.3C1175.25,29.44,1130.53-34.47,1054-56c-31.21-8.77-64.84-12.28-97.39-12.42-249.78-1.09-499.57-.9-749.36-.7-32.27,0-64.6,1.45-96.79,3.78C26.34-59.26-38.54-2.55-53.35,79.74-58.41,107.84-59,137-59,165.7q-.43,1038.48-.19,2077c0,16.45,0,32.92.84,49.35,4.25,87.14,48.93,151.08,125.5,172.69,31.19,8.8,64.82,12.33,97.37,12.47,249.78,1.1,499.57.9,749.36.71,32.27,0,64.68-.85,96.78-3.92,61.38-5.86,111.07-32.72,143.3-87,19.45-32.79,25.72-69.26,25.94-106.68.58-101.08.48-202.16.6-303.24C1180.47,1970.16,1180.33,1964.47,1180,1959.59ZM682-.06c5.95-1,13.52,7.73,20.37,12.17.07,2.69.13,5.38.2,8.06-6.6,4.85-13.63,14-19.69,13.37-6.48-.65-16.6-10.37-16.72-16.32S675.5,1,682-.06ZM516.46,9.32c16.25-1.54,32.74-.54,49.14-.54s32.86-.86,49.14.5c5.6.47,10.72,6.53,16.06,10-5.24,4.32-10.37,12.22-15.75,12.4-33.33,1.09-66.73,1-100.06-.12-5.2-.17-10.17-7.28-15.25-11.18C505.3,16.54,510.59,9.88,516.46,9.32Zm612.43,2269.07c-.46,26.86-5.87,55.62-16.92,79.9-20.72,45.51-64,58.36-110.09,59.16-72.87,1.27-145.78.35-218.68.35q-326.25,0-652.52-.22c-35.94-.08-70-7.9-96.6-35.25-23-23.68-32.91-52.12-32-84.72C1.68,2285.86,1,2274.12,1,2262.38Q.91,1211.44,1,160.49c0-14.1.71-28.19,1.09-42.29C-1.61,45.39,46-4.36,124.94-8.35c34.59-1.75,69.33-.88,104-.49,19.74.22,28.14,9.15,29.92,29.34,3.33,37.75,25.36,58.72,63.33,58.76q242.4.3,484.81,0c37.8,0,58.66-19.69,62.65-57.24,2.52-23.68,10-31.25,33.78-30.88,41.65.65,83.57-.31,124.87,4.09C1088,1.57,1129,52.43,1126.18,111.15c.38,10.55,1.1,21.1,1.1,31.65q.09,407.91,0,815.82h0v37.43c-.08,16.41-.62,84.64-.92,92.25h.92c0,251.07,0,602.21.07,846.15l-4,.11C1123.07,2051.52,1130.89,2161.45,1128.89,2278.39Z"/><path class="cls-2" d="M1180.46,1977c-.12,101.08,0,202.16-.6,303.24-.22,37.42-6.49,73.89-25.94,106.68-32.23,54.32-81.92,81.18-143.3,87-32.1,3.07-64.51,3.89-96.78,3.92-249.79.19-499.58.39-749.36-.71-32.55-.14-66.18-3.67-97.37-12.47C-9.46,2443.08-54.14,2379.14-58.39,2292c-.81-16.43-.84-32.9-.84-49.35q-.06-1038.48.19-2077c0-28.69.63-57.86,5.69-86,14.81-82.29,79.69-139,163.76-145.07,32.19-2.33,64.52-3.75,96.79-3.78,249.79-.2,499.58-.39,749.36.7,32.55.14,66.18,3.65,97.39,12.42,76.58,21.52,121.3,85.43,125.66,172.58.7,14.08.82,28.2.82,42.3q.08,419.63,0,839.24c0,4.15-.2,37.39-.41,62.35l0,.07v2.2c-.11,12.85-.23,23.1-.31,25.28h.31c0,268.52,0,607.59,0,876.12,0,8.8-.39,17.6-.6,26.4,23.77.22,24.48-.39,24.48-24.8,0-282.6,0-635.74,0-918.33,0-2.94-.2-5.89,0-8.82.27-4.89-.77-8.36-3.09-10.59,0-44,0-96.17.3-119.42.11-7.21,3.16-14.38,4.87-21.57l1,.17,1-.13c1.18-6.19,3.36-12.37,3.38-18.55q.33-138.33,0-276.66c0-6.18-2.18-12.35-3.35-18.53a8.74,8.74,0,0,0-2.54-.39c-1.49-6.72-4.28-13.44-4.29-20.15q-.3-205.32,0-410.62c-1.16-18-1.31-36.22-3.68-54.1-8.6-64.79-39.86-114.75-97.31-147.82-46.57-26.8-98.31-26.94-149.4-31q-259.73.22-519.47.43c-86.87,0-173.74-.28-260.61-.43-17.49,1.22-35,3.7-52.46,3.37C88-88,59.76-80.09,33.5-67.24-48.76-27-80.89,42.89-80,131.19c-.88,4.57-2.53,9.13-2.54,13.7q-.26,87-.11,173.91c-2.47,4.95-6.92,9.85-7.07,14.88q-1.11,36.45,0,72.95c.16,5.08,4.61,10,7.09,15L-82.81,527l-3.84,3.63c-1.15,3.8-3.28,7.6-3.3,11.41-.24,51.32-.37,102.65.11,154,0,4.92,4.36,9.8,6.7,14.7Q-85,734.92-87,759.17c-1.05,4.47-3,8.92-3,13.39q-.32,82.4,0,164.8c0,4.4,2.17,8.79,3.33,13.19l3.85,3.62c-.09,2.35-.27,4.69-.27,7q0,635.44.11,1270.9c0,15.16,2,30.32,3,45.47,1.15,16.86,1,33.94,3.68,50.53,12.83,77.73,55.76,132.71,131.24,155.68,36.72,11.17,76.94,10.88,115.57,15.77q227.16-.22,454.32-.43,162.89,0,325.76.43c22.23-1.32,44.63-1.34,66.66-4.19,78.65-10.15,140.19-47.3,167.48-123.87,13.09-36.72,17.18-78,18.16-117.43,2.56-102.74,1.14-205.58,1.31-308.38,0-2.94,1-6.65-.37-8.66-3.16-4.55-7.63-11.87-11.4-11.77"/><path class="cls-3" d="M1127.36,2301c-2.35,19.85-7.39,39.76-15.39,57.33-20.72,45.51-64,58.36-110.09,59.16-72.87,1.27-145.78.35-218.68.35q-326.25,0-652.52-.22c-35.94-.08-70-7.9-96.6-35.25-23-23.68-32.91-52.12-32-84.72q3.21.13,6.42.3c7.44,1.13,14.89,3.25,22.33,3.25Zm-566.79,74.41v-.08c53.44,0,106.9.34,160.33-.49,5.55-.09,11-7.08,16.49-10.86-5.47-3.22-10.82-6.69-16.49-9.51-1.89-.94-4.62-.21-7-.21q-153.3,0-306.59,0c-5.25,0-11-.49-15.6,1.46-3.43,1.45-6.91,6.29-7.37,10-.31,2.51,4.1,7.24,7.24,8.18,5.47,1.63,11.58,1.42,17.43,1.43Q484.81,2375.44,560.57,2375.37Z"/><path class="cls-4" d="M1120.26,111.12c-3.71,3.45-6.9,8.29-11.28,9.95-4.65,1.74-10.44.48-15.73.48q-529.83,0-1059.67-.13c-8.52,0-17-2.12-25.57-3.25,1.07-7.55,2-15.13,3.24-22.66C19.41,44.27,47,11.73,98,4.79,141.9-1.2,186.9.34,231.46-.7,243.29-1,248,7,249.61,18.78c6.71,47.8,29.42,69.65,76.88,69.87q238.86,1.14,477.74,0C849,88.5,874.35,64.62,879,20.44c1.69-16,9.08-21.71,23.62-21.69,25.85,0,51.72-.42,77.56.24C996-.6,1012,.36,1027.55,3,1083.33,12.61,1110.49,44.73,1120.26,111.12Z"/><path class="cls-3" d="M1120.26,111.12c-9.77-66.39-36.93-98.51-92.71-108.09C1012,.36,996-.6,980.2-1c-25.84-.66-51.71-.22-77.56-.24-14.54,0-21.93,5.72-23.62,21.69C874.35,64.62,849,88.5,804.23,88.69q-238.87,1-477.74,0c-47.46-.22-70.17-22.07-76.88-69.87C248,7,243.29-1,231.46-.7,186.9.34,141.9-1.2,98,4.79,47,11.73,19.41,44.27,11.25,95.51,10.05,103,9.08,110.62,8,118.17l-5.94,0C-1.61,45.39,46-4.36,124.94-8.35c34.59-1.75,69.33-.88,104-.49,19.74.22,28.14,9.15,29.92,29.34,3.33,37.75,25.36,58.72,63.33,58.76q242.4.3,484.81,0c37.8,0,58.66-19.69,62.65-57.24,2.52-23.68,10-31.25,33.78-30.88,41.65.65,83.57-.31,124.87,4.09C1088,1.57,1129,52.43,1126.18,111.15Z"/><path class="cls-5" d="M565.6,8.79c16.39,0,32.86-.87,49.14.49,5.6.47,10.72,6.53,16.06,10-5.24,4.32-10.37,12.22-15.75,12.4-33.33,1.09-66.73,1-100.06-.12-5.2-.17-10.17-7.28-15.25-11.18,5.56-3.88,10.85-10.54,16.72-11.1C532.71,7.78,549.2,8.78,565.6,8.79Z"/><path class="cls-6" d="M702.55,20.17c-6.6,4.85-13.63,14-19.69,13.37-6.48-.65-16.6-10.37-16.72-16.32S675.5,1,682-.06c5.95-1,13.52,7.73,20.37,12.17C702.42,14.8,702.48,17.49,702.55,20.17Z"/><path class="cls-7" d="M560.57,2375.37q-75.77,0-151.53,0c-5.85,0-12,.2-17.43-1.43-3.14-.94-7.55-5.67-7.24-8.18.46-3.7,3.94-8.54,7.37-10,4.58-1.95,10.35-1.45,15.6-1.46q153.3-.09,306.59,0c2.35,0,5.08-.73,7,.21,5.67,2.82,11,6.29,16.49,9.51-5.5,3.78-10.94,10.77-16.49,10.86-53.43.83-106.89.49-160.33.49Z"/><g class="cls-8"><line class="cls-9" x1="-2.67" y1="1433.63" x2="1131.78" y2="1433.63"/></g></svg>