# Blender v3.0.1 OBJ File: 'simple_box.blend'
# www.blender.org
mtllib simple_box.mtl
o Cube
v -0.877322 2.000000 0.708038
v -0.779640 2.000000 0.805720
v -0.620460 0.209995 0.928398
v -1.000000 -0.000000 0.758853
v -0.779641 2.000000 -0.948925
v -0.877323 2.000000 -0.851243
v -1.000000 -0.000000 -0.902058
v -0.830455 -0.000000 -1.071602
v 0.779640 2.000000 0.805720
v 0.877323 2.000000 0.708038
v 1.000000 -0.000000 0.758853
v 0.620460 0.209995 0.928398
v 0.877322 2.000000 -0.851243
v 0.779640 2.000000 -0.948925
v 0.830455 -0.000000 -1.071602
v 1.000000 -0.000000 -0.902058
v -0.620460 1.790005 0.928398
v -1.000000 2.000000 0.758853
v 0.830455 2.000000 -1.071602
v 1.000000 2.000000 -0.902058
v -1.000000 2.000000 -0.902058
v -0.830455 2.000000 -1.071602
v 1.000000 2.000000 0.758853
v 0.620460 1.790005 0.928398
v -0.779640 0.156793 0.805720
v -0.877322 0.156793 0.708038
v 0.779640 0.156793 -0.948925
v 0.877322 0.156793 -0.851243
v -0.877323 0.156793 -0.851243
v -0.779641 0.156793 -0.948925
v 0.877323 0.156793 0.708038
v 0.779640 0.156793 0.805720
v -0.830455 -0.000000 0.928398
v -0.830455 2.000000 0.928398
v 0.830455 2.000000 0.928398
v 0.830455 -0.000000 0.928398
v -0.620460 0.209995 1.040991
v -0.620460 1.790005 1.040991
v 0.620460 1.790005 1.040991
v 0.620460 0.209995 1.040991
vt 0.125000 0.521193
vt 0.146193 0.500000
vt 0.353807 0.500000
vt 0.375000 0.521193
vt 0.375000 0.728807
vt 0.353807 0.750000
vt 0.146193 0.750000
vt 0.125000 0.728807
vt 0.375000 0.021193
vt 0.625000 0.021193
vt 0.625000 0.228807
vt 0.375000 0.228807
vt 0.375000 0.771193
vt 0.625000 0.771193
vt 0.625000 0.978807
vt 0.375000 0.978807
vt 0.847455 0.734665
vt 0.652545 0.734665
vt 0.652545 0.734665
vt 0.847455 0.734665
vt 0.625000 0.521193
vt 0.625000 0.728807
vt 0.375000 0.478807
vt 0.625000 0.478807
vt 0.375000 0.000000
vt 0.625000 0.000000
vt 0.625000 0.271193
vt 0.375000 0.271193
vt 0.401249 0.452558
vt 0.401249 0.297442
vt 0.401249 0.297442
vt 0.401249 0.452558
vt 0.652545 0.515335
vt 0.640335 0.527545
vt 0.646193 0.500000
vt 0.859665 0.722455
vt 0.875000 0.728807
vt 0.853807 0.750000
vt 0.640335 0.722455
vt 0.646193 0.750000
vt 0.859665 0.527545
vt 0.847455 0.515335
vt 0.853807 0.500000
vt 0.875000 0.521193
vt 0.640335 0.527545
vt 0.652545 0.515335
vt 0.847455 0.515335
vt 0.859665 0.527545
vt 0.859665 0.722455
vt 0.640335 0.722455
vt 0.598751 0.452558
vt 0.598751 0.297442
vt 0.598751 0.297442
vt 0.598751 0.452558
vn 0.0000 -1.0000 0.0000
vn 1.0000 0.0000 -0.0000
vn 0.0000 0.0000 -1.0000
vn 0.0000 0.0000 1.0000
vn -1.0000 0.0000 0.0000
vn -0.7071 0.0000 0.7071
vn 0.7071 0.0000 -0.7071
vn -0.7071 0.0000 -0.7071
vn 0.7071 0.0000 0.7071
vn 0.0000 1.0000 0.0000
usemtl Material
s off
f 11/1/1 36/2/1 33/3/1 4/4/1 7/5/1 8/6/1 15/7/1 16/8/1
f 16/9/2 20/10/2 23/11/2 11/12/2
f 8/13/3 22/14/3 19/15/3 15/16/3
f 14/17/4 5/18/4 30/19/4 27/20/4
f 4/4/5 18/21/5 21/22/5 7/5/5
f 18/21/6 4/4/6 33/23/6 34/24/6
f 15/25/7 19/26/7 20/10/7 16/9/7
f 22/14/8 8/13/8 7/5/8 21/22/8
f 35/27/9 36/28/9 11/12/9 23/11/9
f 3/29/1 12/30/1 40/31/1 37/32/1
f 2/33/10 1/34/10 18/21/10 34/35/10
f 14/17/10 13/36/10 20/37/10 19/38/10
f 6/39/10 5/18/10 22/40/10 21/22/10
f 10/41/10 9/42/10 35/43/10 23/44/10
f 9/42/10 2/33/10 34/35/10 35/43/10
f 1/34/10 6/39/10 21/22/10 18/21/10
f 13/36/10 10/41/10 23/44/10 20/37/10
f 5/18/10 14/17/10 19/38/10 22/40/10
f 26/45/10 25/46/10 32/47/10 31/48/10 28/49/10 27/20/10 30/19/10 29/50/10
f 6/39/2 1/34/2 26/45/2 29/50/2
f 9/42/8 10/41/8 31/48/8 32/47/8
f 13/36/6 14/17/6 27/20/6 28/49/6
f 10/41/5 13/36/5 28/49/5 31/48/5
f 2/33/3 9/42/3 32/47/3 25/46/3
f 5/18/9 6/39/9 29/50/9 30/19/9
f 1/34/7 2/33/7 25/46/7 26/45/7
f 3/29/4 17/51/4 34/24/4 33/23/4
f 24/52/4 12/30/4 36/28/4 35/27/4
f 12/30/4 3/29/4 33/23/4 36/28/4
f 17/51/4 24/52/4 35/27/4 34/24/4
f 40/31/4 39/53/4 38/54/4 37/32/4
f 17/51/5 3/29/5 37/32/5 38/54/5
f 24/52/10 17/51/10 38/54/10 39/53/10
f 12/30/2 24/52/2 39/53/2 40/31/2
