<?xml version="1.0" encoding="UTF-8" standalone="no"?>
<!DOCTYPE svg PUBLIC "-//W3C//DTD SVG 1.1//EN" "http://www.w3.org/Graphics/SVG/1.1/DTD/svg11.dtd">
<!-- Created with Vectornator (http://vectornator.io/) -->
<svg stroke-miterlimit="10" style="fill-rule:nonzero;clip-rule:evenodd;stroke-linecap:round;stroke-linejoin:round;" version="1.1" viewBox="0 0 512 512" xml:space="preserve" xmlns="http://www.w3.org/2000/svg" xmlns:xlink="http://www.w3.org/1999/xlink">
<defs/>
<g id="Layer-1">
<g opacity="1">
<path d="M44.2559 74.8346C32.8374 74.9321 21.4476 79.3908 12.8103 88.175C-4.46309 105.746-4.24482 133.962 13.325 151.237L119.842 255.994L13.325 360.71C-4.24482 377.984-4.46309 406.243 12.8103 423.813C30.085 441.384 58.3006 441.645 75.8718 424.372L183.504 318.541L291.136 424.372C308.707 441.645 336.967 441.384 354.24 423.813C371.513 406.243 371.254 377.984 353.683 360.71L247.165 255.994L353.683 151.237C371.253 133.962 371.513 105.746 354.24 88.175C345.603 79.3908 334.213 74.9321 322.796 74.8346C311.379 74.7371 299.922 78.9803 291.136 87.6177L183.504 193.406L75.8718 87.6177C67.0862 78.9803 55.6731 74.7371 44.2559 74.8346Z" fill="#ffffff" fill-rule="nonzero" opacity="1" stroke="none"/>
<path d="M189.225 74.84C177.807 74.9375 166.418 79.3972 157.781 88.1815C149.798 96.302 145.694 106.687 145.169 117.224C158.984 130.796 171.123 142.704 183.52 154.889C200.629 138.073 218.077 120.922 236.414 102.896L220.842 87.6238C212.056 78.9864 200.643 74.7426 189.225 74.84ZM467.766 74.84C456.349 74.7425 444.892 78.9865 436.107 87.6238L393.508 129.493C391.369 144.635 384.667 159.251 372.917 170.804C351.267 192.096 314.537 228.192 286.305 255.958C314.539 283.714 351.263 319.823 372.917 341.111C384.671 352.666 391.37 367.297 393.508 382.465L436.107 424.377C453.678 441.651 481.937 441.391 499.21 423.82C516.484 406.25 516.224 377.989 498.653 360.716L392.136 256.001L498.653 151.242C516.223 133.968 516.484 105.753 499.21 88.1815C490.573 79.3972 479.183 74.9374 467.766 74.84ZM183.52 357.027C171.126 369.214 158.981 381.115 145.169 394.692C145.681 405.257 149.784 415.686 157.781 423.82C175.056 441.391 203.27 441.651 220.842 424.377L236.414 409.063C218.075 391.025 200.632 373.852 183.52 357.027Z" fill="#ffffff" fill-rule="nonzero" opacity="1" stroke="none"/>
</g>
</g>
</svg>
