<?xml version="1.0" encoding="UTF-8" standalone="no"?>
<!DOCTYPE svg PUBLIC "-//W3C//DTD SVG 1.1//EN" "http://www.w3.org/Graphics/SVG/1.1/DTD/svg11.dtd">
<!-- Created with Vectornator (http://vectornator.io/) -->
<svg stroke-miterlimit="10" style="fill-rule:nonzero;clip-rule:evenodd;stroke-linecap:round;stroke-linejoin:round;" version="1.1" viewBox="0 0 512 512" xml:space="preserve" xmlns="http://www.w3.org/2000/svg" xmlns:xlink="http://www.w3.org/1999/xlink">
<defs/>
<clipPath id="ArtboardFrame">
<rect height="512" width="512" x="0" y="0"/>
</clipPath>
<g clip-path="url(#ArtboardFrame)" id="Layer-1">
<g opacity="1">
<path d="M337.808 113.346L306.731 92.2419C298.161 86.4592 286.423 88.6928 280.641 97.2104L128.512 321.567L58.5864 251.641C51.2805 244.369 39.3695 244.369 32.046 251.641L5.50558 278.233C-1.83519 285.557-1.83519 297.45 5.50558 304.792L113 412.338C119.043 418.346 128.496 422.986 137.013 422.986C145.531 422.986 154.118 417.619 159.641 409.586L342.811 139.402C348.611 130.884 346.377 119.163 337.808 113.346Z" fill="#ffffff" fill-rule="nonzero" opacity="1" stroke="none"/>
<path d="M462.175 89.0145C456.135 89.0056 450.22 91.872 446.607 97.1955L294.481 321.569L265.589 292.676C249.495 316.413 237.346 334.34 222.647 356.019L278.948 412.354C284.99 418.362 294.455 422.986 302.973 422.986C311.491 422.986 320.06 417.626 325.583 409.592L508.775 139.412C514.575 130.895 512.339 119.167 503.77 113.35L472.668 92.2247C469.455 90.0562 465.798 89.0197 462.175 89.0145Z" fill="#ffffff" fill-rule="nonzero" opacity="1" stroke="none"/>
</g>
</g>
</svg>
