<?xml version="1.0" encoding="UTF-8" standalone="no"?>
<!DOCTYPE svg PUBLIC "-//W3C//DTD SVG 1.1//EN" "http://www.w3.org/Graphics/SVG/1.1/DTD/svg11.dtd">
<!-- Created with Vectornator (http://vectornator.io/) -->
<svg stroke-miterlimit="10" style="fill-rule:nonzero;clip-rule:evenodd;stroke-linecap:round;stroke-linejoin:round;" version="1.1" viewBox="0 0 512 512" xml:space="preserve" xmlns="http://www.w3.org/2000/svg" xmlns:xlink="http://www.w3.org/1999/xlink">
<defs/>
<g id="Layer-1">
<g opacity="1">
<path d="M355.123 384.248L156.902 384.248C106.207 384.248 62.5565 349.769 53.104 302.275C47.0585 271.817 54.7947 240.693 74.3401 216.895C79.6428 210.44 85.6114 204.728 92.1437 199.835C79.4635 183.005 74.2377 161.692 77.7728 140.686C83.9207 104.285 117.837 76.8497 156.672 76.8497L156.8 76.8497C168.174 32.7123 208.366 0 256.013 0C303.66 0 343.852 32.7123 355.226 76.8497L355.354 76.8497C394.189 76.8497 428.105 104.285 434.253 140.686C437.788 161.692 432.562 183.005 419.856 199.835C426.389 204.728 432.357 210.44 437.66 216.895C457.205 240.693 464.942 271.817 458.896 302.25C449.469 349.769 405.818 384.248 355.123 384.248Z" fill="#ffffff" fill-rule="nonzero" opacity="1" stroke="none"/>
<path d="M255.741 332.684C241.593 332.684 230.124 344.153 230.124 358.301L230.124 486.383C230.124 500.531 241.593 512 255.741 512C269.889 512 281.358 500.531 281.358 486.383L281.358 358.301C281.358 344.153 269.889 332.684 255.741 332.684ZM178.891 460.767C164.744 460.767 153.275 472.236 153.275 486.383C153.275 500.531 164.744 512 178.891 512L332.591 512C346.738 512 358.207 500.531 358.207 486.383C358.207 472.236 346.738 460.767 332.591 460.767L178.891 460.767Z" fill="#ffffff" fill-rule="nonzero" opacity="1" stroke="none"/>
</g>
</g>
</svg>
