<?xml version="1.0" encoding="UTF-8" standalone="no"?>
<!DOCTYPE svg PUBLIC "-//W3C//DTD SVG 1.1//EN" "http://www.w3.org/Graphics/SVG/1.1/DTD/svg11.dtd">
<!-- Created with Vectornator (http://vectornator.io/) -->
<svg stroke-miterlimit="10" style="fill-rule:nonzero;clip-rule:evenodd;stroke-linecap:round;stroke-linejoin:round;" version="1.1" viewBox="0 0 512 512" xml:space="preserve" xmlns="http://www.w3.org/2000/svg" xmlns:xlink="http://www.w3.org/1999/xlink">
<defs/>
<g id="Layer-1">
<path d="M482.688 140.56L304.64 215.994C288.085 223.013 277.333 239.248 277.333 257.232L277.333 482.704C277.333 504.272 299.84 518.394 319.211 508.922C377.6 480.293 476.395 431.674 476.395 431.674C498.347 420.794 512 398.8 512 374.309L512 159.973C512 144.869 496.597 134.672 482.688 140.56ZM362.667 433.594C350.891 437.285 341.333 425.957 341.333 408.293C341.333 390.629 350.891 373.306 362.667 369.594C374.443 365.882 384 377.232 384 394.896C384 412.56 374.443 429.904 362.667 433.594ZM362.667 305.594C350.891 309.285 341.333 297.957 341.333 280.293C341.333 262.629 350.891 245.306 362.667 241.594C374.443 237.882 384 249.232 384 266.896C384 284.56 374.443 301.904 362.667 305.594ZM448 390.928C436.224 394.618 426.667 383.29 426.667 365.626C426.667 347.962 436.224 330.64 448 326.928C459.776 323.216 469.333 334.565 469.333 352.229C469.333 369.893 459.776 387.237 448 390.928ZM448 270.608C436.224 274.298 426.667 262.97 426.667 245.306C426.667 227.642 436.224 210.32 448 206.608C459.776 202.896 469.333 214.245 469.333 231.909C469.333 249.573 459.776 266.917 448 270.608ZM234.667 257.232C234.667 239.248 223.915 223.013 207.36 215.994L29.312 140.56C15.4027 134.672 5.68434e-14 144.869 5.68434e-14 159.973L5.68434e-14 374.309C5.68434e-14 398.8 13.6533 420.794 35.6053 431.653C35.6053 431.653 134.4 480.272 192.789 508.901C212.16 518.394 234.667 504.25 234.667 482.704L234.667 257.232ZM64 262.928C52.224 259.237 42.6667 241.914 42.6667 224.229C42.6667 206.544 52.224 195.216 64 198.928C75.776 202.618 85.3333 219.941 85.3333 237.626C85.3333 255.312 75.776 266.64 64 262.928ZM149.333 433.594C137.557 429.904 128 412.581 128 394.896C128 377.21 137.557 365.882 149.333 369.594C161.109 373.285 170.667 390.608 170.667 408.293C170.667 425.978 161.109 437.306 149.333 433.594ZM459.221 75.2796L279.552 4.58092C271.936 1.57292 263.979 0.0795876 256 0.0795876C248.021 0.0795876 240.064 1.59425 232.448 4.60225L52.7787 75.2796C39.8507 80.3569 39.616 98.5756 52.416 103.994L243.413 184.933C247.445 186.64 251.712 187.493 256 187.493C260.288 187.493 264.576 186.64 268.587 184.933L459.584 103.994C472.384 98.5756 472.149 80.3569 459.221 75.2796ZM256 106.768C232.427 106.768 213.333 97.2103 213.333 85.4343C213.333 73.6583 232.427 64.1009 256 64.1009C279.573 64.1009 298.667 73.6583 298.667 85.4343C298.667 97.2103 279.573 106.768 256 106.768Z" fill="#ffffff" fill-rule="nonzero" opacity="1" stroke="none"/>
</g>
</svg>
