<?xml version="1.0" encoding="UTF-8" standalone="no"?>
<!DOCTYPE svg PUBLIC "-//W3C//DTD SVG 1.1//EN" "http://www.w3.org/Graphics/SVG/1.1/DTD/svg11.dtd">
<!-- Created with Vectornator (http://vectornator.io/) -->
<svg stroke-miterlimit="10" style="fill-rule:nonzero;clip-rule:evenodd;stroke-linecap:round;stroke-linejoin:round;" version="1.1" viewBox="0 0 512 512" xml:space="preserve" xmlns="http://www.w3.org/2000/svg" xmlns:xlink="http://www.w3.org/1999/xlink">
<defs/>
<g id="Layer-1">
<path d="M318.281 0C315.78 0 313.273 0.576596 310.969 1.71875L226.844 84.1562C221.842 88.8824 217.906 92.4035 217.906 98.4688C217.906 104.514 221.251 107.788 226.844 112.75L276.906 161.812C292.593 146.392 309.508 129.774 320.375 119.094C330.699 108.944 344.258 103.917 357.625 104.031C371.019 104.145 384.487 109.407 394.625 119.719C402.899 128.135 407.57 138.647 409.031 149.5C423.673 160.245 433.219 177.525 433.219 197.094L433.219 315.25C433.219 334.83 423.657 352.122 409 362.875C407.475 373.591 402.802 383.963 394.625 392.281C378.967 408.208 355.635 411.991 336.281 403.594C335.414 406.843 334.781 410.195 334.781 413.719C334.781 435.47 352.405 453.094 374.156 453.094C450.298 453.094 512 391.392 512 315.25L512 197.094C512 120.952 450.298 59.2502 374.156 59.25L334.562 59.25L334.562 16C334.562 10.4665 331.626 5.28133 326.781 2.40625C324.202 0.830865 321.255 4.76837e-07 318.281 0ZM137.844 59.25C61.7021 59.25 0.000203451 120.953 0 197.094L0 315.25C0 391.392 61.7025 453.094 137.844 453.094L177.562 453.094L177.562 495.969C177.562 501.502 180.468 506.687 185.312 509.562C187.892 511.158 190.87 512 193.844 512C196.345 512 198.821 511.423 201.125 510.281L285.281 427.844C290.283 423.118 294.187 419.597 294.188 413.531C294.207 407.505 290.874 404.212 285.281 399.25L235.125 350.125C219.426 365.566 202.501 382.212 191.625 392.906C170.942 413.24 137.73 412.954 117.406 392.281C109.235 383.97 104.532 373.599 103 362.875C88.3434 352.122 78.7813 334.83 78.7812 315.25L78.7812 197.094C78.7812 177.525 88.3271 160.245 102.969 149.5C104.437 138.645 109.134 128.133 117.406 119.719C127.545 109.405 141.016 104.145 154.406 104.031C161.689 103.969 168.986 105.487 175.812 108.469C176.631 105.304 177.219 102.044 177.219 98.625C177.219 76.8735 159.595 59.2497 137.844 59.25Z" fill="#ffffff" fill-rule="nonzero" opacity="1" stroke="none"/>
<path d="M154.555 124.03C146.237 124.101 137.94 127.349 131.648 133.748C119.065 146.548 119.224 167.102 132.023 179.686L209.617 255.998L132.023 332.28C119.224 344.863 119.065 365.449 131.648 378.248C144.232 391.048 164.786 391.238 177.586 378.655L255.992 301.561L334.398 378.655C347.198 391.238 367.784 391.048 380.367 378.248C392.95 365.449 392.761 344.863 379.961 332.28L302.367 255.998L379.961 179.686C392.76 167.102 392.95 146.548 380.367 133.748C374.075 127.349 365.778 124.101 357.461 124.03C349.144 123.959 340.798 127.05 334.398 133.342L255.992 210.405L177.586 133.342C171.186 127.05 162.872 123.959 154.555 124.03Z" fill="#ffffff" fill-rule="nonzero" opacity="1" stroke="none"/>
</g>
</svg>
