<?xml version="1.0" encoding="UTF-8" standalone="no"?>
<!DOCTYPE svg PUBLIC "-//W3C//DTD SVG 1.1//EN" "http://www.w3.org/Graphics/SVG/1.1/DTD/svg11.dtd">
<!-- Created with Vectornator (http://vectornator.io/) -->
<svg stroke-miterlimit="10" style="fill-rule:nonzero;clip-rule:evenodd;stroke-linecap:round;stroke-linejoin:round;" version="1.1" viewBox="0 0 512 512" xml:space="preserve" xmlns="http://www.w3.org/2000/svg" xmlns:xlink="http://www.w3.org/1999/xlink">
<defs/>
<g id="Layer-1">
<path d="M318.281 0C315.78 0 313.273 0.576596 310.969 1.71875L226.844 84.1562C221.842 88.8824 217.906 92.4035 217.906 98.4688C217.906 104.514 221.251 107.788 226.844 112.75L288.156 172.875C305.443 147.38 324.695 118.994 336.875 101.031C336.877 101.028 336.873 101.003 336.875 101C344.051 90.4297 355.727 84.784 367.594 84.8125C374.714 84.8296 381.922 86.8864 388.25 91.1562C388.267 91.1674 388.265 91.1763 388.281 91.1875C395.315 95.9639 409.373 105.536 416.406 110.312C433.281 121.767 437.766 144.747 426.281 161.656C426.274 161.667 426.258 161.676 426.25 161.688C425.647 162.577 424.464 164.335 423.844 165.25C429.744 174.443 433.219 185.35 433.219 197.094L433.219 315.25C433.219 347.889 406.795 374.344 374.156 374.344C352.405 374.344 334.781 391.967 334.781 413.719C334.781 435.47 352.405 453.094 374.156 453.094C450.298 453.094 512 391.392 512 315.25L512 197.094C512 120.952 450.298 59.2502 374.156 59.25L334.562 59.25L334.562 16C334.562 10.4665 331.626 5.28133 326.781 2.40625C324.202 0.830865 321.255 4.76837e-07 318.281 0ZM137.844 59.25C61.7021 59.25 0.000203451 120.953 0 197.094L0 315.25C0 391.392 61.7025 453.094 137.844 453.094L177.562 453.094L177.562 495.969C177.562 501.502 180.468 506.687 185.312 509.562C187.892 511.158 190.87 512 193.844 512C196.345 512 198.821 511.423 201.125 510.281L285.281 427.844C290.283 423.118 294.187 419.597 294.188 413.531C294.207 407.505 290.874 404.212 285.281 399.25L273.219 387.406C269.57 392.788 263.632 401.538 260.438 406.25C260.413 406.286 260.4 406.339 260.375 406.375C252.552 417.754 239.522 427.156 223.406 427.156C208.942 427.156 196.364 420.47 187.562 411.719C187.548 411.704 187.546 411.671 187.531 411.656C178.204 402.325 163.955 388.084 150.219 374.344L137.844 374.344C105.205 374.344 78.7813 347.889 78.7812 315.25L78.7812 197.094C78.7812 164.455 105.205 138.031 137.844 138.031C159.595 138.031 177.219 120.377 177.219 98.625C177.219 76.8735 159.595 59.2497 137.844 59.25Z" fill="#ffffff" fill-rule="nonzero" opacity="1" stroke="none"/>
<path d="M405.184 126.85L377.05 107.744C369.292 102.509 358.665 104.531 353.431 112.242L215.709 315.352L152.405 252.048C145.791 245.465 135.008 245.465 128.378 252.048L104.351 276.122C97.7054 282.752 97.7054 293.519 104.351 300.165L201.666 397.527C207.136 402.966 215.694 407.166 223.405 407.166C231.116 407.166 238.89 402.308 243.89 395.035L409.713 150.438C414.964 142.727 412.942 132.116 405.184 126.85Z" fill="#ffffff" fill-rule="nonzero" opacity="1" stroke="none"/>
</g>
</svg>
