<?xml version="1.0" encoding="UTF-8" standalone="no"?>
<!DOCTYPE svg PUBLIC "-//W3C//DTD SVG 1.1//EN" "http://www.w3.org/Graphics/SVG/1.1/DTD/svg11.dtd">
<!-- Created with Vectornator (http://vectornator.io/) -->
<svg stroke-miterlimit="10" style="fill-rule:nonzero;clip-rule:evenodd;stroke-linecap:round;stroke-linejoin:round;" version="1.1" viewBox="0 0 512 512" xml:space="preserve" xmlns="http://www.w3.org/2000/svg" xmlns:xlink="http://www.w3.org/1999/xlink">
<defs/>
<clipPath id="ArtboardFrame">
<rect height="512" width="512" x="0" y="0"/>
</clipPath>
<g clip-path="url(#ArtboardFrame)" id="Layer-1">
<g opacity="1">
<path d="M455.16 370.342C456.146 363.13 453.689 356.153 448.938 349.898L278.271 125.009C266.845 109.965 244.272 109.894 232.938 125.009L62.271 352.564C52.8453 365.132 55.9268 383.139 68.4932 392.564C81.0608 401.99 99.0662 399.799 108.493 387.231L256.049 189.898L403.604 384.564C413.106 397.075 431.095 399.4 443.604 389.898C449.859 385.147 454.174 377.555 455.16 370.342Z" fill="#ffffff" fill-rule="nonzero" opacity="1" stroke="none"/>
<path d="M341.333 455.111L341.333 398.222C341.333 366.791 366.791 341.333 398.222 341.333L455.111 341.333C486.542 341.333 512 366.791 512 398.222L512 455.111C512 486.542 486.542 512 455.111 512L398.222 512C366.791 512 341.333 486.542 341.333 455.111ZM0 455.111L0 398.222C0 366.791 25.4578 341.333 56.8889 341.333L113.778 341.333C145.209 341.333 170.667 366.791 170.667 398.222L170.667 455.111C170.667 486.542 145.209 512 113.778 512L56.8889 512C25.4578 512 5.68434e-14 486.542 0 455.111ZM170.667 113.778L170.667 56.8889C170.667 25.4578 196.124-1.05445e-14 227.556-1.24691e-14L284.444-1.59526e-14C315.876-1.78772e-14 341.333 25.4578 341.333 56.8889L341.333 113.778C341.333 145.209 315.876 170.667 284.444 170.667L227.556 170.667C196.124 170.667 170.667 145.209 170.667 113.778Z" fill="#ffffff" fill-rule="nonzero" opacity="1" stroke="none"/>
</g>
</g>
</svg>
