<?xml version="1.0" encoding="UTF-8" standalone="no"?>
<!DOCTYPE svg PUBLIC "-//W3C//DTD SVG 1.1//EN" "http://www.w3.org/Graphics/SVG/1.1/DTD/svg11.dtd">
<!-- Created with Vectornator (http://vectornator.io/) -->
<svg stroke-miterlimit="10" style="fill-rule:nonzero;clip-rule:evenodd;stroke-linecap:round;stroke-linejoin:round;" version="1.1" viewBox="0 0 512 512" xml:space="preserve" xmlns="http://www.w3.org/2000/svg" xmlns:xlink="http://www.w3.org/1999/xlink">
<defs/>
<g id="Layer-1">
<g opacity="1">
<path d="M33.2026 66.8961L320.958 66.8961C339.295 66.8961 354.161 81.7614 354.161 100.099L354.161 100.099C354.161 118.436 339.295 133.301 320.958 133.301L33.2026 133.301C14.8653 133.301 3.19744e-14 118.436 3.19744e-14 100.099L3.19744e-14 100.099C3.19744e-14 81.7614 14.8653 66.8961 33.2026 66.8961Z" fill="#ffffff" fill-rule="nonzero" opacity="1" stroke="none"/>
<path d="M441.112 55.8285L441.112 343.584C441.112 361.921 426.246 376.787 407.909 376.787L407.909 376.787C389.572 376.787 374.707 361.921 374.707 343.584L374.707 55.8285C374.707 37.4913 389.572 22.626 407.909 22.626L407.909 22.626C426.246 22.626 441.112 37.4913 441.112 55.8285Z" fill="#ffffff" fill-rule="nonzero" opacity="1" stroke="none"/>
<path d="M33.2026 199.706L320.958 199.706C339.295 199.706 354.161 214.572 354.161 232.909L354.161 232.909C354.161 251.246 339.295 266.111 320.958 266.111L33.2026 266.111C14.8653 266.111 3.90799e-14 251.246 3.90799e-14 232.909L3.90799e-14 232.909C3.90799e-14 214.572 14.8653 199.706 33.2026 199.706Z" fill="#ffffff" fill-rule="nonzero" opacity="1" stroke="none"/>
<path d="M33.2043 332.517C14.867 332.517 0.00173163 347.382 0.00173163 365.719C0.00173163 384.056 14.867 398.922 33.2043 398.922L295.712 398.922C294.102 396.673 291.563 393.121 290.144 391.14C290.22 391.247 290.066 391.063 289.452 390.206C279.895 376.864 272.419 356.987 282.396 337.566C283.344 335.722 284.454 334.117 285.578 332.517L33.2043 332.517Z" fill="#ffffff" fill-rule="nonzero" opacity="1" stroke="none"/>
<path d="M505.462 374.077L432.893 475.386C419.534 494.037 397.874 494.037 384.514 475.386L311.945 374.077C298.586 355.427 306.353 340.308 329.295 340.308L488.112 340.308C511.054 340.308 518.822 355.427 505.462 374.077Z" fill="#ffffff" fill-rule="nonzero" opacity="1" stroke="none"/>
</g>
</g>
</svg>
