<?xml version="1.0" encoding="UTF-8" standalone="no"?>
<!DOCTYPE svg PUBLIC "-//W3C//DTD SVG 1.1//EN" "http://www.w3.org/Graphics/SVG/1.1/DTD/svg11.dtd">
<!-- Created with Vectornator (http://vectornator.io/) -->
<svg stroke-miterlimit="10" style="fill-rule:nonzero;clip-rule:evenodd;stroke-linecap:round;stroke-linejoin:round;" version="1.1" viewBox="0 0 512 512" xml:space="preserve" xmlns="http://www.w3.org/2000/svg" xmlns:xlink="http://www.w3.org/1999/xlink">
<defs/>
<g id="Layer-1">
<path d="M435.2 51.2L328.09 51.2C317.517 21.4272 289.382 0 256 0C222.618 0 194.483 21.4272 183.91 51.2L76.8 51.2C48.512 51.2 25.6 74.112 25.6 102.4L25.6 460.8C25.6 489.088 48.512 512 76.8 512L435.2 512C463.488 512 486.4 489.088 486.4 460.8L486.4 102.4C486.4 74.112 463.488 51.2 435.2 51.2ZM128 192L128 166.4C128 159.334 133.734 153.6 140.8 153.6L371.2 153.6C378.266 153.6 384 159.334 384 166.4L384 192C384 199.066 378.266 204.8 371.2 204.8L140.8 204.8C133.734 204.8 128 199.066 128 192ZM332.8 268.8L332.8 294.4C332.8 301.466 327.066 307.2 320 307.2L140.8 307.2C133.734 307.2 128 301.466 128 294.4L128 268.8C128 261.734 133.734 256 140.8 256L320 256C327.066 256 332.8 261.734 332.8 268.8ZM140.8 358.4L371.2 358.4C378.266 358.4 384 364.134 384 371.2L384 396.8C384 403.866 378.266 409.6 371.2 409.6L140.8 409.6C133.734 409.6 128 403.866 128 396.8L128 371.2C128 364.134 133.734 358.4 140.8 358.4ZM256 51.2C270.131 51.2 281.6 62.6688 281.6 76.8C281.6 90.9312 270.131 102.4 256 102.4C241.869 102.4 230.4 90.9312 230.4 76.8C230.4 62.6688 241.869 51.2 256 51.2Z" fill="#ffffff" fill-rule="nonzero" opacity="1" stroke="none"/>
</g>
</svg>
