<?xml version="1.0" encoding="UTF-8" standalone="no"?>
<!DOCTYPE svg PUBLIC "-//W3C//DTD SVG 1.1//EN" "http://www.w3.org/Graphics/SVG/1.1/DTD/svg11.dtd">
<!-- Created with Vectornator (http://vectornator.io/) -->
<svg stroke-miterlimit="10" style="fill-rule:nonzero;clip-rule:evenodd;stroke-linecap:round;stroke-linejoin:round;" version="1.1" viewBox="0 0 512 512" xml:space="preserve" xmlns="http://www.w3.org/2000/svg" xmlns:xlink="http://www.w3.org/1999/xlink">
<defs/>
<g id="Layer-1">
<g opacity="1">
<path d="M137.846 364.308C213.977 364.308 275.692 302.592 275.692 226.462C275.692 150.331 213.977 88.6154 137.846 88.6154C61.7157 88.6154 0 150.331 0 226.462C0 302.592 61.7157 364.308 137.846 364.308Z" fill="#a5ed9f" fill-rule="nonzero" opacity="1" stroke="none"/>
<path d="M196.923 246.154C262.183 246.154 315.077 193.26 315.077 128C315.077 62.7397 262.183 9.84615 196.923 9.84615C131.663 9.84615 78.7692 62.7397 78.7692 128C78.7692 193.26 131.663 246.154 196.923 246.154Z" fill="#a5ed9f" fill-rule="nonzero" opacity="1" stroke="none"/>
<path d="M315.077 265.846C380.337 265.846 433.231 212.953 433.231 147.692C433.231 82.432 380.337 29.5385 315.077 29.5385C249.817 29.5385 196.923 82.432 196.923 147.692C196.923 212.953 249.817 265.846 315.077 265.846Z" fill="#a5ed9f" fill-rule="nonzero" opacity="1" stroke="none"/>
<path d="M413.538 324.923C467.909 324.923 512 280.832 512 226.462C512 172.091 467.909 128 413.538 128C359.168 128 315.077 172.091 315.077 226.462C315.077 280.832 359.168 324.923 413.538 324.923Z" fill="#a5ed9f" fill-rule="nonzero" opacity="1" stroke="none"/>
<path d="M275.692 384C340.953 384 393.846 331.106 393.846 265.846C393.846 200.586 340.953 147.692 275.692 147.692C210.432 147.692 157.538 200.586 157.538 265.846C157.538 331.106 210.432 384 275.692 384ZM196.923 482.462C218.683 482.462 236.308 464.837 236.308 443.077C236.308 421.317 218.683 403.692 196.923 403.692C175.163 403.692 157.538 421.317 157.538 443.077C157.538 464.837 175.163 482.462 196.923 482.462ZM98.4615 502.154C109.332 502.154 118.154 493.332 118.154 482.462C118.154 471.591 109.332 462.769 98.4615 462.769C87.5914 462.769 78.7692 471.591 78.7692 482.462C78.7692 493.332 87.5914 502.154 98.4615 502.154Z" fill="#a5ed9f" fill-rule="nonzero" opacity="1" stroke="none"/>
</g>
</g>
</svg>
