<?xml version="1.0" encoding="UTF-8" standalone="no"?>
<!DOCTYPE svg PUBLIC "-//W3C//DTD SVG 1.1//EN" "http://www.w3.org/Graphics/SVG/1.1/DTD/svg11.dtd">
<!-- Created with Vectornator (http://vectornator.io/) -->
<svg stroke-miterlimit="10" style="fill-rule:nonzero;clip-rule:evenodd;stroke-linecap:round;stroke-linejoin:round;" version="1.1" viewBox="0 0 500 500" xml:space="preserve" xmlns="http://www.w3.org/2000/svg" xmlns:xlink="http://www.w3.org/1999/xlink">
<defs/>
<g id="Layer-1">
<g opacity="1">
<path d="M27.9875 0.471776C12.6686 0.471776 0.235888 12.9045 0.235888 28.2233L0.235888 361.242L83.4906 361.242C98.8095 361.242 111.242 348.809 111.242 333.491L111.242 194.733C111.242 95.8539 71.5574 36.1048 55.739 16.2347C43.6116 0 27.9875 0.471776 27.9875 0.471776Z" fill="#fc7f7e" fill-rule="nonzero" opacity="1" stroke="none"/>
<path d="M28.0448 305.553C12.718 305.553 0.292978 317.977 0.293203 333.304L0.293203 472.062C0.293203 487.389 12.7179 499.814 28.0448 499.814C43.3715 499.814 55.7966 487.389 55.7963 472.062L55.7963 333.304C55.7963 317.978 43.3716 305.553 28.0448 305.553Z" fill="#fc7f7e" fill-rule="nonzero" opacity="1" stroke="none"/>
<path d="M444.261 0L222.248 0C191.638 0 166.745 24.8932 166.745 55.5031L166.745 444.497C166.745 475.107 191.638 500 222.248 500L444.261 500C474.871 500 499.764 475.107 499.764 444.497L499.764 55.5031C499.764 24.8932 474.871 0 444.261 0ZM333.255 111.478C317.936 111.478 305.503 99.0453 305.503 83.7265C305.503 68.4076 317.936 55.9749 333.255 55.9749C348.574 55.9749 361.006 68.4076 361.006 83.7265C361.006 99.0453 348.574 111.478 333.255 111.478Z" fill="#fc7f7e" fill-rule="nonzero" opacity="1" stroke="none"/>
</g>
</g>
</svg>
