<?xml version="1.0" encoding="UTF-8" standalone="no"?>
<!DOCTYPE svg PUBLIC "-//W3C//DTD SVG 1.1//EN" "http://www.w3.org/Graphics/SVG/1.1/DTD/svg11.dtd">
<!-- Created with Vectornator (http://vectornator.io/) -->
<svg stroke-miterlimit="10" style="fill-rule:nonzero;clip-rule:evenodd;stroke-linecap:round;stroke-linejoin:round;" version="1.1" viewBox="0 0 500 500" xml:space="preserve" xmlns="http://www.w3.org/2000/svg" xmlns:xlink="http://www.w3.org/1999/xlink">
<defs/>
<g id="Layer-1">
<g opacity="1">
<path d="M340.734 391.892C338.803 388.031 334.942 386.1 331.081 386.1L288.61 386.1L288.61 115.83L331.081 115.83C334.942 115.83 338.803 113.9 340.734 110.039C342.664 106.178 342.664 102.317 340.734 98.4556C309.846 52.1235 259.653 5.7915 257.722 3.861C255.792 1.9305 251.931 0 250 0C248.069 0 244.208 0 242.278 1.9305C240.347 3.861 190.154 50.193 159.266 96.5251C157.336 100.386 157.336 104.247 159.266 108.108C161.197 113.9 165.058 115.83 168.919 115.83L211.39 115.83L211.39 386.1L168.919 386.1C165.058 386.1 161.197 388.031 159.266 391.892C157.336 395.753 157.336 399.614 159.266 403.475C190.154 449.807 240.347 496.139 242.278 498.069C244.208 500 246.139 500 250 500C253.861 500 255.792 500 257.722 498.069C259.653 496.139 309.846 451.737 340.734 403.475C342.664 401.544 342.664 395.753 340.734 391.892Z" fill="#ffffff" fill-rule="evenodd" opacity="1" stroke="none"/>
<path d="M110.039 341.699C113.9 339.768 115.83 335.907 115.83 332.046L115.83 289.575L386.1 289.575L386.1 332.046C386.1 335.907 388.031 339.768 391.892 341.699C395.753 343.629 399.614 343.629 403.475 341.699C449.807 310.811 496.139 260.618 498.069 258.687C500 256.757 500 254.826 500 250.965C500 247.104 500 245.174 498.069 243.243C496.139 241.313 451.737 191.12 403.475 160.232C399.614 158.301 395.753 158.301 391.892 160.232C388.031 162.162 386.1 166.023 386.1 169.884L386.1 212.355L115.83 212.355L115.83 169.884C115.83 166.023 113.9 162.162 110.039 160.232C106.178 158.301 100.386 158.301 96.5251 160.232C50.193 191.12 3.861 241.313 1.9305 243.243C1.9305 245.174 0 249.035 0 250.965C0 252.896 0 256.757 1.9305 258.687C3.861 260.618 48.2625 310.811 96.5251 341.699C100.386 343.629 106.178 343.629 110.039 341.699Z" fill="#ffffff" fill-rule="evenodd" opacity="1" stroke="none"/>
</g>
</g>
</svg>
