<?xml version="1.0" encoding="UTF-8" standalone="no"?>
<!DOCTYPE svg PUBLIC "-//W3C//DTD SVG 1.1//EN" "http://www.w3.org/Graphics/SVG/1.1/DTD/svg11.dtd">
<!-- Created with Vectornator (http://vectornator.io/) -->
<svg stroke-miterlimit="10" style="fill-rule:nonzero;clip-rule:evenodd;stroke-linecap:round;stroke-linejoin:round;" version="1.1" viewBox="0 0 500 500" xml:space="preserve" xmlns="http://www.w3.org/2000/svg" xmlns:xlink="http://www.w3.org/1999/xlink">
<defs>
<linearGradient gradientTransform="matrix(1 0 0 1 0 0)" gradientUnits="userSpaceOnUse" id="LinearGradient" x1="48.0319" x2="457.518" y1="246.905" y2="246.905">
<stop offset="0" stop-color="#8eef97"/>
<stop offset="1" stop-color="#8eef97" stop-opacity="0"/>
</linearGradient>
</defs>
<clipPath id="ArtboardFrame">
<rect height="500" width="500" x="0" y="0"/>
</clipPath>
<g clip-path="url(#ArtboardFrame)" id="Layer-1">
<path d="M500 405.376L500 94.6235C500 42.3644 457.636 2.84217e-14 405.377 2.84217e-14L94.6235 2.84217e-14C42.3644 2.84217e-14 0 42.3644 0 94.6235L0 405.376C0 457.636 42.3644 500 94.6235 500L405.377 500C457.636 500 500 457.636 500 405.376ZM75 393.804L75 106.196C75 88.9668 88.9668 75 106.196 75L393.804 75C411.033 75 425 88.9668 425 106.196L425 393.804C425 411.033 411.033 425 393.804 425L106.196 425C88.9668 425 75 411.033 75 393.804Z" fill="#8eef97" fill-rule="evenodd" opacity="1" stroke="none"/>
<path d="M48.0319 50.21L457.518 50.21L457.518 443.6L48.0319 443.6L48.0319 50.21Z" fill="url(#LinearGradient)" fill-rule="evenodd" opacity="1" stroke="none"/>
</g>
</svg>
