<?xml version="1.0" encoding="UTF-8" standalone="no"?>
<!DOCTYPE svg PUBLIC "-//W3C//DTD SVG 1.1//EN" "http://www.w3.org/Graphics/SVG/1.1/DTD/svg11.dtd">
<!-- Created with Vectornator (http://vectornator.io/) -->
<svg stroke-miterlimit="10" style="fill-rule:nonzero;clip-rule:evenodd;stroke-linecap:round;stroke-linejoin:round;" version="1.1" viewBox="0 0 500 500" xml:space="preserve" xmlns="http://www.w3.org/2000/svg" xmlns:xlink="http://www.w3.org/1999/xlink">
<defs/>
<g id="Layer-1">
<path d="M270.833 312.5L229.167 312.5C206.25 312.5 187.5 293.75 187.5 270.833L187.5 229.167C187.5 206.25 206.25 187.5 229.167 187.5L270.833 187.5C293.75 187.5 312.5 206.25 312.5 229.167L312.5 270.833C312.5 293.75 293.75 312.5 270.833 312.5ZM458.333 312.5L416.667 312.5C393.75 312.5 375 293.75 375 270.833L375 229.167C375 206.25 393.75 187.5 416.667 187.5L458.333 187.5C481.25 187.5 500 206.25 500 229.167L500 270.833C500 293.75 481.25 312.5 458.333 312.5ZM458.333 500L416.667 500C393.75 500 375 481.25 375 458.333L375 416.667C375 393.75 393.75 375 416.667 375L458.333 375C481.25 375 500 393.75 500 416.667L500 458.333C500 481.25 481.25 500 458.333 500ZM83.3333 312.5L41.6667 312.5C18.75 312.5 0 293.75 0 270.833L0 229.167C0 206.25 18.75 187.5 41.6667 187.5L83.3333 187.5C106.25 187.5 125 206.25 125 229.167L125 270.833C125 293.75 106.25 312.5 83.3333 312.5ZM270.833 125L229.167 125C206.25 125 187.5 106.25 187.5 83.3333L187.5 41.6667C187.5 18.75 206.25 0 229.167 0L270.833 0C293.75 0 312.5 18.75 312.5 41.6667L312.5 83.3333C312.5 106.25 293.75 125 270.833 125ZM458.333 125L416.667 125C393.75 125 375 106.25 375 83.3333L375 41.6667C375 18.75 393.75 0 416.667 0L458.333 0C481.25 0 500 18.75 500 41.6667L500 83.3333C500 106.25 481.25 125 458.333 125ZM83.3333 125L41.6667 125C18.75 125 0 106.25 0 83.3333L0 41.6667C0 18.75 18.75 0 41.6667 0L83.3333 0C106.25 0 125 18.75 125 41.6667L125 83.3333C125 106.25 106.25 125 83.3333 125ZM270.833 500L229.167 500C206.25 500 187.5 481.25 187.5 458.333L187.5 416.667C187.5 393.75 206.25 375 229.167 375L270.833 375C293.75 375 312.5 393.75 312.5 416.667L312.5 458.333C312.5 481.25 293.75 500 270.833 500ZM83.3333 500L41.6667 500C18.75 500 0 481.25 0 458.333L0 416.667C0 393.75 18.75 375 41.6667 375L83.3333 375C106.25 375 125 393.75 125 416.667L125 458.333C125 481.25 106.25 500 83.3333 500Z" fill="#fc7e9e" fill-rule="evenodd" opacity="1" stroke="none"/>
</g>
</svg>
