<?xml version="1.0" encoding="UTF-8" standalone="no"?>
<!DOCTYPE svg PUBLIC "-//W3C//DTD SVG 1.1//EN" "http://www.w3.org/Graphics/SVG/1.1/DTD/svg11.dtd">
<!-- Created with Vectornator (http://vectornator.io/) -->
<svg stroke-miterlimit="10" style="fill-rule:nonzero;clip-rule:evenodd;stroke-linecap:round;stroke-linejoin:round;" version="1.1" viewBox="0 0 500 500" xml:space="preserve" xmlns="http://www.w3.org/2000/svg" xmlns:xlink="http://www.w3.org/1999/xlink">
<defs/>
<g id="Layer-1">
<g opacity="1">
<path d="M288.437 68.181L278.756 18.3862C276.665 7.70446 267.324 0 256.438 0L187.848 0C176.961 0 167.621 7.70446 165.53 18.3862L155.848 68.181L288.437 68.181ZM117.507 90.3172L69.5535 73.8173C59.2581 70.2719 47.9173 74.5219 42.4629 83.9309L8.16779 143.339C2.73604 152.771 4.73601 164.725 12.9405 171.862L51.2128 205.134L117.507 90.3172Z" fill="#ffffff" fill-rule="evenodd" opacity="1" stroke="none"/>
<path d="M199.416 363.632C199.416 347.269 201.893 331.474 206.506 316.61C157.552 308.087 121.962 260.679 133.394 207.179C140.644 173.316 168.211 145.748 202.075 138.521C255.551 127.089 302.96 162.68 311.483 211.634C326.346 207.02 342.141 204.543 358.505 204.543C373.982 204.543 388.913 206.861 403.072 210.998C402.641 206.589 402.072 202.225 401.391 197.907L431.368 171.862C439.572 164.725 441.572 152.771 436.14 143.339L401.845 83.9309C396.413 74.4992 385.05 70.2719 374.755 73.7946L337.414 86.6581C306.005 60.9311 265.892 45.454 222.143 45.454C121.735 45.454 40.3265 126.862 40.3265 227.27C40.3265 237.293 41.3492 247.065 42.9174 256.633L12.9405 282.679C4.73601 289.815 2.73604 301.769 8.16779 311.201L42.4629 370.609C47.8946 380.041 59.2581 384.268 69.5535 380.746L106.894 367.882C122.03 380.314 139.303 390.177 157.962 397.223L165.53 436.154C167.621 446.836 176.961 454.54 187.848 454.54L228.052 454.54C210.052 428.768 199.416 397.45 199.416 363.632Z" fill="#ffffff" fill-rule="evenodd" opacity="1" stroke="none"/>
<path d="M488.276 461.586L453.958 427.268C465.322 409.086 472.14 386.359 472.14 363.632C472.14 299.997 422.14 249.997 358.527 249.997C296.937 249.997 244.87 302.065 244.87 363.655C244.87 427.268 294.869 477.267 358.505 477.267C381.232 477.267 403.959 470.449 422.14 459.086L456.458 493.403C465.254 502.199 479.481 502.199 488.276 493.403C497.071 484.608 497.071 470.381 488.276 461.586ZM358.505 431.813C319.869 431.813 290.324 402.268 290.324 363.632C290.324 324.996 319.869 295.451 358.505 295.451C397.141 295.451 426.686 324.996 426.686 363.632C426.686 402.268 397.141 431.813 358.505 431.813Z" fill="#ffffff" fill-rule="evenodd" opacity="1" stroke="none"/>
</g>
</g>
</svg>
