<?xml version="1.0" encoding="UTF-8" standalone="no"?>
<!DOCTYPE svg PUBLIC "-//W3C//DTD SVG 1.1//EN" "http://www.w3.org/Graphics/SVG/1.1/DTD/svg11.dtd">
<!-- Created with Vectornator (http://vectornator.io/) -->
<svg stroke-miterlimit="10" style="fill-rule:nonzero;clip-rule:evenodd;stroke-linecap:round;stroke-linejoin:round;" version="1.1" viewBox="0 0 500 500" xml:space="preserve" xmlns="http://www.w3.org/2000/svg" xmlns:xlink="http://www.w3.org/1999/xlink">
<defs/>
<clipPath id="ArtboardFrame">
<rect height="500" width="500" x="0" y="0"/>
</clipPath>
<g clip-path="url(#ArtboardFrame)" id="Layer-1">
<path d="M447.262 86.2815C435.223 86.4638 423.422 91.7942 415.352 101.894C359.367 172.226 203.958 374.073 203.968 374.059C201.817 376.853 197.566 376.75 195.542 373.863C195.568 373.9 112.531 255.505 78.0593 210.623C71.9386 202.638 61.7893 198.658 50.4606 198.505C39.169 198.353 27.2255 202.121 18.6486 208.696C10.1946 215.176 3.70664 225.988 1.17483 237.34C-1.36308 248.718 0.150789 260.048 6.30264 268.074C6.30831 268.081 6.297 268.099 6.30264 268.106C47.9856 322.59 168.422 469.193 169.772 470.639C173.482 474.611 177.847 477.817 182.477 479.947C184.577 480.913 186.363 481.657 187.605 482.037C189.484 482.612 191.557 483.071 193.582 483.376C195.816 483.714 197.938 483.876 199.984 483.866C202.094 483.856 204.278 483.663 206.451 483.311C208.452 482.987 210.512 482.52 212.526 481.874C217.123 480.398 221.663 477.843 225.786 474.493C226.738 473.719 276.688 416.947 333.797 350.641C391.065 284.15 456.433 207.323 490.864 164.407C490.874 164.395 490.887 164.386 490.897 164.374C505.237 146.395 502.32 120.194 484.365 105.846C481.783 103.782 476.572 99.5033 471.3 95.5572C466.06 91.6347 460.431 88.1582 459.216 87.8165C455.311 86.7189 451.283 86.2206 447.262 86.2815Z" fill="#ffffff" fill-rule="evenodd" opacity="1" stroke="none"/>
</g>
</svg>
