<?xml version="1.0" encoding="UTF-8" standalone="no"?>
<!DOCTYPE svg PUBLIC "-//W3C//DTD SVG 1.1//EN" "http://www.w3.org/Graphics/SVG/1.1/DTD/svg11.dtd">
<!-- Created with Vectornator (http://vectornator.io/) -->
<svg stroke-miterlimit="10" style="fill-rule:nonzero;clip-rule:evenodd;stroke-linecap:round;stroke-linejoin:round;" version="1.1" viewBox="0 0 500 500" xml:space="preserve" xmlns="http://www.w3.org/2000/svg" xmlns:xlink="http://www.w3.org/1999/xlink">
<defs/>
<g id="Layer-1">
<path d="M175.594 240C165.582 240 160.573 252.104 167.656 259.188L191.937 283.469L95.2296 380.177C88.2683 387.138 88.2683 398.425 95.2296 405.386L96.5829 406.739C103.544 413.701 114.831 413.701 121.792 406.739L218.5 310.032L242.718 334.25C249.802 341.333 261.906 336.325 261.906 326.313L261.906 251.219C261.906 245.023 256.87 240 250.656 240L175.594 240Z" fill="#ffffff" fill-rule="evenodd" opacity="1" stroke="none"/>
<path d="M129.656 95C110.509 95 95 110.509 95 129.656L95 144.031L95 338C112.58 320.411 131.202 301.767 149.5 283.469C148.566 282.534 147.203 281.172 146.438 280.406C120.576 254.541 138.666 210 175.594 210L230 210C230 190.646 230 167.766 230 153.688C230 117.048 274.335 98.4635 300.406 124.531C301.172 125.297 302.534 126.659 303.469 127.594C314.252 116.81 324.308 106.749 336.062 95L142.438 95L129.656 95ZM405 164.062C393.273 175.795 383.232 185.831 372.469 196.594C373.382 197.506 374.719 198.844 375.469 199.594C401.329 225.458 383.242 270 346.312 270L291.906 270C291.906 289.359 291.906 312.234 291.906 326.312C291.906 362.953 247.57 381.535 221.5 355.469C220.75 354.719 219.413 353.382 218.5 352.469C200.862 370.106 183.148 387.799 165.938 405L356.688 405L370.344 405C389.491 405 405 389.491 405 370.344L405 356.844L405 164.062Z" fill="#ffffff" fill-opacity="0.7" fill-rule="evenodd" opacity="1" stroke="none"/>
<path d="M303.469 170.031L279.188 145.75C272.104 138.667 260 143.675 260 153.688L260 228.75C260 234.964 265.023 240 271.219 240L346.312 240C356.325 240 361.333 227.896 354.25 220.812L330.031 196.594L434.677 91.9483C441.638 84.987 441.638 73.7005 434.677 66.7392L433.323 65.3858C426.362 58.4245 415.075 58.4245 408.114 65.3858L303.469 170.031Z" fill="#ffffff" fill-rule="evenodd" opacity="1" stroke="none"/>
</g>
</svg>
