<?xml version="1.0" encoding="UTF-8" standalone="no"?>
<!DOCTYPE svg PUBLIC "-//W3C//DTD SVG 1.1//EN" "http://www.w3.org/Graphics/SVG/1.1/DTD/svg11.dtd">
<!-- Created with Vectornator (http://vectornator.io/) -->
<svg stroke-miterlimit="10" style="fill-rule:nonzero;clip-rule:evenodd;stroke-linecap:round;stroke-linejoin:round;" version="1.1" viewBox="0 0 500 500" xml:space="preserve" xmlns="http://www.w3.org/2000/svg" xmlns:xlink="http://www.w3.org/1999/xlink">
<defs/>
<g id="Layer-1">
<path d="M274.796 363.453L320.236 363.453C333.493 363.452 340.132 347.44 330.763 338.071L260.527 267.835C254.712 262.02 245.3 262.007 239.502 267.805L169.237 338.07C159.867 347.439 166.508 363.452 179.764 363.453L225.087 363.452L225.087 476.412C225.087 489.439 235.648 500 248.675 500L251.208 500C264.236 500 274.797 489.439 274.796 476.412L274.796 363.453Z" fill="#ffffff" fill-rule="evenodd" opacity="1" stroke="none"/>
<path d="M465.281 82.8437C465.281 56.2506 443.749 34.7187 417.156 34.7187L397.188 34.7187L328.781 34.7187C328.781 48.8918 328.781 65.0317 328.781 83.1875C365.914 87.5909 390.061 120.007 389.281 153.5C388.9 169.872 382.571 186.491 368.938 200.125C356.466 212.597 336.425 232.638 319.062 250C334.966 265.904 352.139 283.076 364.844 295.781C365.298 296.236 367.119 298.057 368.938 299.875C382.456 313.393 388.788 329.946 389.219 346.312C390.101 379.816 366.208 412.389 328.781 416.781C328.781 434.948 328.781 451.1 328.781 465.281L399.406 465.281L417.156 465.281C443.749 465.281 465.281 443.749 465.281 417.156L465.281 397.188L465.281 291.375L465.281 208.125L465.281 100.594L465.281 82.8437ZM180.938 250C169.189 238.251 157.153 226.215 145.375 214.438C143.784 212.847 137.426 206.489 131.062 200.125C89.9002 158.963 115.469 89.8429 171.094 83.2188C171.094 65.0515 171.094 48.9001 171.094 34.7188L101.812 34.7188L82.8438 34.7188C56.2508 34.7188 34.7189 56.2508 34.7188 82.8438L34.7188 101.594L34.7188 208.562L34.7188 291.938L34.7188 398.188L34.7188 417.156C34.7188 443.749 56.2507 465.281 82.8438 465.281L101.594 465.281L171.094 465.281C171.094 451.108 171.094 434.968 171.094 416.812C115.894 410.17 89.5659 341.372 131.062 299.875C143.534 287.404 163.334 267.603 180.938 250Z" fill="#ffffff" fill-opacity="0.7" fill-rule="evenodd" opacity="1" stroke="none"/>
<path d="M274.796 136.547L320.236 136.547C333.493 136.548 340.132 152.56 330.763 161.929L260.527 232.165C254.712 237.98 245.3 237.993 239.502 232.195L169.237 161.93C159.867 152.561 166.508 136.548 179.764 136.547L225.087 136.548L225.087 23.5885C225.087 10.5608 235.648-0.000110593 248.675 8.11177e-17L251.208 5.32736e-05C264.236 0.000120709 274.797 10.5615 274.796 23.5884L274.796 136.547Z" fill="#ffffff" fill-rule="evenodd" opacity="1" stroke="none"/>
</g>
</svg>
