<?xml version="1.0" encoding="UTF-8" standalone="no"?>
<!DOCTYPE svg PUBLIC "-//W3C//DTD SVG 1.1//EN" "http://www.w3.org/Graphics/SVG/1.1/DTD/svg11.dtd">
<!-- Created with Vectornator (http://vectornator.io/) -->
<svg stroke-miterlimit="10" style="fill-rule:nonzero;clip-rule:evenodd;stroke-linecap:round;stroke-linejoin:round;" version="1.1" viewBox="0 0 500 500" xml:space="preserve" xmlns="http://www.w3.org/2000/svg" xmlns:xlink="http://www.w3.org/1999/xlink">
<defs/>
<clipPath id="ArtboardFrame">
<rect height="500" width="500" x="0" y="0"/>
</clipPath>
<g clip-path="url(#ArtboardFrame)" id="Layer-1">
<path d="M113.257 272.442C100.008 272.442 93.3792 288.459 102.752 297.833L134.884 329.965L6.90912 457.94C-2.30289 467.152-2.30289 482.088 6.90912 491.3L8.69997 493.09C17.9117 502.303 32.848 502.303 42.0596 493.09L170.035 365.116L202.083 397.164C211.458 406.537 227.475 399.91 227.475 386.661L227.475 287.288C227.475 279.089 220.811 272.442 212.588 272.442L113.257 272.442Z" fill="#ffffff" fill-rule="evenodd" opacity="1" stroke="none"/>
<path d="M319.464 145.386L287.333 113.255C277.959 103.882 261.942 110.509 261.942 123.759L261.942 223.088C261.942 231.311 268.588 237.976 276.788 237.976L376.158 237.976C389.408 237.976 396.035 221.958 386.662 212.584L354.613 180.536L493.091 42.059C502.303 32.8471 502.303 17.9117 493.091 8.69985L491.3 6.90891C482.088-2.30297 467.152-2.30297 457.941 6.90891L319.464 145.386Z" fill="#ffffff" fill-rule="evenodd" opacity="1" stroke="none"/>
<path d="M82.8438 34.7188C56.2506 34.7188 34.7187 56.2507 34.7188 82.8438L34.7188 102.812L34.7188 208.562L34.7188 291.875L34.7188 353.75C43.5212 344.948 50.3854 338.083 58.9688 329.5C24.5069 285.769 54.5291 218.438 113.25 218.438L207.938 218.438C207.938 192.653 207.938 147.418 207.938 123.75C207.938 65.5091 274.984 34.7313 319 69.4688C331.132 57.3368 341.215 47.2535 353.75 34.7188L291.375 34.7188L208.125 34.7188L100.594 34.7188L82.8438 34.7188ZM465.281 146.219C452.733 158.762 442.641 168.859 430.5 181C464.851 224.729 434.847 291.969 376.156 291.969L281.469 291.969C281.469 317.768 281.469 362.985 281.469 386.656C281.469 444.869 214.515 475.667 170.5 441.031C161.917 449.615 155.052 456.479 146.25 465.281L208.562 465.281L291.938 465.281L398.188 465.281L417.156 465.281C443.749 465.281 465.281 443.749 465.281 417.156L465.281 398.406L465.281 291.375L465.281 208.062L465.281 146.219Z" fill="#ffffff" fill-opacity="0.7" fill-rule="evenodd" opacity="1" stroke="none"/>
</g>
</svg>
