<?xml version="1.0" encoding="UTF-8" standalone="no"?>
<!DOCTYPE svg PUBLIC "-//W3C//DTD SVG 1.1//EN" "http://www.w3.org/Graphics/SVG/1.1/DTD/svg11.dtd">
<!-- Created with Vectornator (http://vectornator.io/) -->
<svg stroke-miterlimit="10" style="fill-rule:nonzero;clip-rule:evenodd;stroke-linecap:round;stroke-linejoin:round;" version="1.1" viewBox="0 0 500 500" xml:space="preserve" xmlns="http://www.w3.org/2000/svg" xmlns:xlink="http://www.w3.org/1999/xlink">
<defs/>
<g id="Layer-1">
<path d="M363.453 225.204L363.453 179.764C363.452 166.507 347.44 159.868 338.071 169.237L267.835 239.473C262.02 245.288 262.007 254.7 267.805 260.498L338.07 330.763C347.439 340.133 363.452 333.492 363.453 320.236L363.452 274.913L476.412 274.913C489.439 274.913 500 264.352 500 251.325L500 248.792C500 235.764 489.439 225.203 476.412 225.204L363.453 225.204Z" fill="#ffffff" fill-rule="evenodd" opacity="1" stroke="none"/>
<path d="M82.8438 34.7188C56.2506 34.7188 34.7187 56.2507 34.7188 82.8438L34.7188 102.812L34.7188 171.219C48.8918 171.219 65.0317 171.219 83.1875 171.219C87.5909 134.086 120.007 109.939 153.5 110.719C169.872 111.1 186.491 117.429 200.125 131.062C212.597 143.534 232.638 163.575 250 180.938C265.904 165.034 283.076 147.861 295.781 135.156C296.236 134.702 298.057 132.881 299.875 131.062C313.393 117.544 329.946 111.212 346.312 110.781C379.816 109.899 412.389 133.792 416.781 171.219C434.948 171.219 451.1 171.219 465.281 171.219L465.281 100.594L465.281 82.8438C465.281 56.2506 443.749 34.7187 417.156 34.7188L397.188 34.7188L291.375 34.7188L208.125 34.7188L100.594 34.7188L82.8438 34.7188ZM250 319.062C238.251 330.811 226.215 342.847 214.438 354.625C212.847 356.216 206.489 362.574 200.125 368.938C158.963 410.1 89.8429 384.531 83.2188 328.906C65.0515 328.906 48.9001 328.906 34.7188 328.906L34.7188 398.188L34.7188 417.156C34.7188 443.749 56.2508 465.281 82.8438 465.281L101.594 465.281L208.562 465.281L291.938 465.281L398.188 465.281L417.156 465.281C443.749 465.281 465.281 443.749 465.281 417.156L465.281 398.406L465.281 328.906C451.108 328.906 434.968 328.906 416.812 328.906C410.17 384.106 341.372 410.434 299.875 368.938C287.404 356.466 267.603 336.666 250 319.062Z" fill="#ffffff" fill-opacity="0.7" fill-rule="evenodd" opacity="1" stroke="none"/>
<path d="M136.547 225.204L136.547 179.764C136.548 166.507 152.56 159.868 161.929 169.237L232.165 239.473C237.98 245.288 237.993 254.7 232.195 260.498L161.93 330.763C152.561 340.133 136.548 333.492 136.547 320.236L136.548 274.913L23.5885 274.913C10.5608 274.913-0.000110593 264.352 0 251.325L5.32736e-05 248.792C0.000120709 235.764 10.5615 225.203 23.5884 225.204L136.547 225.204Z" fill="#ffffff" fill-rule="evenodd" opacity="1" stroke="none"/>
</g>
</svg>
