<?xml version="1.0" encoding="UTF-8" standalone="no"?>
<!DOCTYPE svg PUBLIC "-//W3C//DTD SVG 1.1//EN" "http://www.w3.org/Graphics/SVG/1.1/DTD/svg11.dtd">
<!-- Created with Vectornator (http://vectornator.io/) -->
<svg stroke-miterlimit="10" style="fill-rule:nonzero;clip-rule:evenodd;stroke-linecap:round;stroke-linejoin:round;" version="1.1" viewBox="0 0 500 500" xml:space="preserve" xmlns="http://www.w3.org/2000/svg" xmlns:xlink="http://www.w3.org/1999/xlink">
<defs/>
<clipPath id="ArtboardFrame">
<rect height="500" width="500" x="0" y="0"/>
</clipPath>
<g clip-path="url(#ArtboardFrame)" id="Layer-1">
<path d="M450 100L270.7 100C257.45 100 244.725 94.725 235.35 85.35L214.65 64.65C205.275 55.275 192.55 50 179.3 50L50 50C22.5 50-5.68434e-14 72.5-5.68434e-14 100L-5.68434e-14 400C-5.68434e-14 427.5 22.5 450 50 450L450 450C477.5 450 500 427.5 500 400L500 150C500 122.5 477.5 100 450 100ZM324.15 309.15L264.15 369.15C256.325 376.975 243.675 376.975 235.875 369.15L175.875 309.15C172.025 305.3 170 300.2 170 295C170 292.425 170.5 289.825 171.525 287.35C174.625 279.875 181.925 275 190 275L225 275L225 225C225 211.2 236.2 200 250 200C263.8 200 275 211.2 275 225L275 275L310 275C318.075 275 325.375 279.875 328.475 287.35C331.575 294.85 329.875 303.425 324.15 309.15Z" fill="#ffffff" fill-rule="evenodd" opacity="1" stroke="none"/>
</g>
</svg>
