<?xml version="1.0" encoding="UTF-8" standalone="no"?>
<!DOCTYPE svg PUBLIC "-//W3C//DTD SVG 1.1//EN" "http://www.w3.org/Graphics/SVG/1.1/DTD/svg11.dtd">
<!-- Created with Vectornator (http://vectornator.io/) -->
<svg stroke-miterlimit="10" style="fill-rule:nonzero;clip-rule:evenodd;stroke-linecap:round;stroke-linejoin:round;" version="1.1" viewBox="0 0 500 500" xml:space="preserve" xmlns="http://www.w3.org/2000/svg" xmlns:xlink="http://www.w3.org/1999/xlink">
<defs/>
<g id="Layer-1">
<g opacity="1">
<path d="M316.406 0.000234635C303.84 7.82116e-05 291.614 4.48087 282.031 14.0635L14.8438 281.25C5.26305 290.831-0.000156423 303.839 0 316.406C0.000324879 328.972 5.26226 341.2 14.8438 350.781L149.219 485.938C158.8 495.519 171.026 500 183.594 500C196.161 500 209.168 495.521 218.75 485.938C227.098 477.587 477.591 227.099 485.937 218.75C495.518 209.169 500 196.161 500 183.594C500 171.028 495.519 158.8 485.937 149.219L350.781 14.0635C341.2 4.48087 328.973 0.000234635 316.406 0.000234635ZM316.406 50.7807L450 183.594C440.28 193.314 193.39 440.985 184.375 450L50.781 316.406L316.406 50.7807Z" fill="#ffffff" fill-rule="evenodd" opacity="1" stroke="none"/>
<path d="M291.727 31.3773L161.328 161.778L336.327 336.778L466.727 206.377C483.978 189.127 483.978 161.128 466.727 143.877L354.227 31.3773C336.978 14.1266 309.003 14.1266 291.727 31.3773Z" fill="#ffffff" fill-rule="evenodd" opacity="1" stroke="none"/>
<path d="M188.282 450C174.474 450 163.281 461.193 163.281 475.001C163.281 488.807 174.474 500 188.282 500L474.999 500C488.807 500 500 488.807 500 475.001C500 461.193 488.807 450 474.999 450L188.282 450Z" fill="#ffffff" fill-rule="evenodd" opacity="1" stroke="none"/>
</g>
</g>
</svg>
