<?xml version="1.0" encoding="UTF-8" standalone="no"?>
<!DOCTYPE svg PUBLIC "-//W3C//DTD SVG 1.1//EN" "http://www.w3.org/Graphics/SVG/1.1/DTD/svg11.dtd">
<!-- Created with Vectornator (http://vectornator.io/) -->
<svg stroke-miterlimit="10" style="fill-rule:nonzero;clip-rule:evenodd;stroke-linecap:round;stroke-linejoin:round;" version="1.1" viewBox="0 0 500 500" xml:space="preserve" xmlns="http://www.w3.org/2000/svg" xmlns:xlink="http://www.w3.org/1999/xlink">
<defs/>
<g id="Layer-1">
<g opacity="1">
<path d="M284.796 500C275.986 500 268.759 497.866 263.115 493.599C257.471 489.331 254.649 483.068 254.649 474.809C254.649 468.201 256.232 462.351 259.398 457.257C262.564 452.164 268.002 446.038 275.71 438.88L364.087 357.111C378.128 344.171 389.003 332.539 396.712 322.215C404.421 311.89 408.275 300.809 408.275 288.97C408.275 279.059 404.765 271.35 397.744 265.844C390.724 260.337 381.156 257.584 369.043 257.584C361.884 257.584 353.969 258.823 345.297 261.301C336.624 263.779 327.332 267.771 317.421 273.277C311.364 276.581 305.858 277.751 300.902 276.787C295.946 275.824 291.816 273.415 288.513 269.56C285.209 265.706 283.075 261.163 282.112 255.932C281.148 250.701 281.699 245.539 283.763 240.446C285.828 235.352 289.614 231.154 295.12 227.85C308.06 220.416 321.895 214.635 336.624 210.505C351.354 206.375 366.702 204.31 382.671 204.31C400.566 204.31 416.19 207.545 429.543 214.015C442.896 220.485 453.22 229.227 460.516 240.239C467.812 251.252 471.46 264.054 471.46 278.646C471.46 294.614 468.569 308.999 462.788 321.802C457.006 334.604 449.091 346.718 439.042 358.143C428.993 369.569 417.361 380.926 404.145 392.214L342.938 446.55L341.83 447.534L342.075 447.552L429.75 447.552C438.835 447.552 445.787 449.411 450.605 453.127C455.423 456.844 457.832 462.282 457.832 469.44C457.832 478.525 455.079 485.89 449.573 491.534C444.066 497.178 436.22 500 426.033 500L284.796 500Z" fill="#ffffff" fill-rule="evenodd" opacity="1" stroke="none"/>
<path d="M400.518 5.68434e-14C393.471 5.68434e-14 386.407 2.66864 381.03 8.04446L36.5843 352.491C31.2083 357.867 28.5398 364.933 28.5398 371.978C28.5398 379.023 31.2083 386.089 36.5843 391.465C41.9601 396.84 49.0255 399.51 56.0714 399.51C63.1168 399.51 70.1828 396.84 75.5583 391.465L420.005 47.0189C425.381 41.6431 428.05 34.5776 428.05 27.5316C428.05 20.4857 425.381 13.4203 420.005 8.04446C414.629 2.66864 407.563 5.68434e-14 400.518 5.68434e-14Z" fill="#ffffff" fill-rule="evenodd" opacity="1" stroke="none"/>
</g>
</g>
</svg>
