<?xml version="1.0" encoding="UTF-8" standalone="no"?>
<!DOCTYPE svg PUBLIC "-//W3C//DTD SVG 1.1//EN" "http://www.w3.org/Graphics/SVG/1.1/DTD/svg11.dtd">
<!-- Created with Vectornator (http://vectornator.io/) -->
<svg stroke-miterlimit="10" style="fill-rule:nonzero;clip-rule:evenodd;stroke-linecap:round;stroke-linejoin:round;" version="1.1" viewBox="0 0 500 500" xml:space="preserve" xmlns="http://www.w3.org/2000/svg" xmlns:xlink="http://www.w3.org/1999/xlink">
<defs/>
<g id="Layer-1">
<path d="M266.154 413C259.754 413 254.504 411.45 250.404 408.35C246.304 405.25 244.254 400.7 244.254 394.7C244.254 389.9 245.404 385.65 247.704 381.95C250.004 378.25 253.954 373.8 259.554 368.6L323.754 309.2C333.954 299.8 341.854 291.35 347.454 283.85C353.054 276.35 355.854 268.3 355.854 259.7C355.854 252.5 353.304 246.9 348.204 242.9C343.104 238.9 336.154 236.9 327.354 236.9C322.154 236.9 316.404 237.8 310.104 239.6C303.804 241.4 297.054 244.3 289.854 248.3C285.454 250.7 281.454 251.55 277.854 250.85C274.254 250.15 271.254 248.4 268.854 245.6C266.454 242.8 264.904 239.5 264.204 235.7C263.504 231.9 263.904 228.15 265.404 224.45C266.904 220.75 269.654 217.7 273.654 215.3C283.054 209.9 293.104 205.7 303.804 202.7C314.504 199.7 325.654 198.2 337.254 198.2C350.254 198.2 361.604 200.55 371.304 205.25C381.004 209.95 388.504 216.3 393.804 224.3C399.104 232.3 401.754 241.6 401.754 252.2C401.754 263.8 399.654 274.25 395.454 283.55C391.254 292.85 385.504 301.65 378.204 309.95C370.904 318.25 362.454 326.5 352.854 334.7L308.391 374.172L307.586 374.887L307.764 374.9L371.454 374.9C378.054 374.9 383.104 376.25 386.604 378.95C390.104 381.65 391.854 385.6 391.854 390.8C391.854 397.4 389.854 402.75 385.854 406.85C381.854 410.95 376.154 413 368.754 413L266.154 413Z" fill="#ffffff" fill-rule="evenodd" opacity="1" stroke="none"/>
<path d="M350.219 49.7812C345.1 49.7812 339.968 51.7198 336.062 55.625L85.8438 305.844C81.9385 309.749 80 314.882 80 320C80 325.118 81.9385 330.251 85.8438 334.156C89.749 338.061 94.8816 340 100 340C105.118 340 110.251 338.061 114.156 334.156L364.375 83.9375C368.28 80.0323 370.219 74.8997 370.219 69.7812C370.219 64.6628 368.28 59.5302 364.375 55.625C360.47 51.7198 355.337 49.7812 350.219 49.7812Z" fill="#ffffff" fill-rule="evenodd" opacity="1" stroke="none"/>
</g>
</svg>
