<?xml version="1.0" encoding="UTF-8" standalone="no"?>
<!DOCTYPE svg PUBLIC "-//W3C//DTD SVG 1.1//EN" "http://www.w3.org/Graphics/SVG/1.1/DTD/svg11.dtd">
<!-- Created with Vectornator (http://vectornator.io/) -->
<svg stroke-miterlimit="10" style="fill-rule:nonzero;clip-rule:evenodd;stroke-linecap:round;stroke-linejoin:round;" version="1.1" viewBox="0 0 500 500" xml:space="preserve" xmlns="http://www.w3.org/2000/svg" xmlns:xlink="http://www.w3.org/1999/xlink">
<defs/>
<clipPath id="ArtboardFrame">
<rect height="500" width="500" x="0" y="0"/>
</clipPath>
<g clip-path="url(#ArtboardFrame)" id="Layer-1">
<g opacity="1">
<path d="M274.388 111.203C267.995 111.086 261.399 113.441 256.432 118.229C255.119 119.494 101.794 267.401 91.7006 277.495C54.731 314.465 45.3004 335.6 42.5156 369.62C42.5064 369.731 42.5247 370.29 42.5156 370.4C40.6671 392.997 35.8084 403.353 7.38339 432.077C2.54873 436.962 0.340392 443.66 0.356953 450.033C0.373514 456.407 2.5233 462.349 7.38339 467.209L32.3663 492.192C37.1861 497.012 43.215 499.946 49.542 499.999C55.869 500.053 62.598 497.711 67.4985 492.973C93.9324 467.42 104.784 462.196 126.833 459.402C127.24 459.35 127.201 459.453 127.614 459.402C162.552 454.989 184.27 444.503 222.08 407.875C233.016 396.943 384.715 250.657 386.03 249.39C390.999 244.603 393.718 237.826 393.837 231.433C393.957 225.041 391.597 218.445 386.811 213.477C377.238 203.54 360.834 203.905 350.898 213.477C349.578 214.748 197.886 361.023 186.948 371.962C157.321 400.658 145.743 406.357 121.368 409.436C120.951 409.489 121.01 409.382 120.587 409.436C104.911 411.422 91.4988 414.569 78.4285 421.147C86.4124 406.276 90.2507 392.038 91.7006 374.304C91.7097 374.193 92.4718 374.415 92.4813 374.304C94.3019 352.057 99.0417 341.2 127.614 312.627C137.419 302.822 289.475 155.402 290.783 154.142C300.717 144.566 301.14 128.945 291.564 119.01C286.776 114.043 280.781 111.32 274.388 111.203Z" fill="#ffffff" fill-rule="evenodd" opacity="1" stroke="none"/>
<path d="M250.186 75.29C243.792 75.29 237.107 77.4383 232.229 82.3165C227.351 87.1947 225.203 93.8792 225.203 100.273C225.203 106.667 227.351 112.57 232.229 117.449L382.127 267.346C387.005 272.224 393.69 275.153 400.083 275.153C406.477 275.153 412.381 272.224 417.259 267.346C422.137 262.468 425.066 256.564 425.066 250.17C425.066 243.777 422.137 237.092 417.259 232.214L267.362 82.3165C262.483 77.4383 256.579 75.2901 250.186 75.29Z" fill="#ffffff" fill-rule="evenodd" opacity="1" stroke="none"/>
<path d="M371.356 256.874C371.356 256.874 470.213 158.017 472.961 155.269C508.537 119.693 508.537 62.2324 472.961 26.6817C437.386-8.89391 379.925-8.89391 344.375 26.6817C341.626 29.4298 242.769 128.287 242.769 128.287L371.356 256.874Z" fill="#ffffff" fill-rule="evenodd" opacity="1" stroke="none"/>
</g>
</g>
</svg>
