<?xml version="1.0" encoding="UTF-8" standalone="no"?>
<!DOCTYPE svg PUBLIC "-//W3C//DTD SVG 1.1//EN" "http://www.w3.org/Graphics/SVG/1.1/DTD/svg11.dtd">
<!-- Created with Vectornator (http://vectornator.io/) -->
<svg stroke-miterlimit="10" style="fill-rule:nonzero;clip-rule:evenodd;stroke-linecap:round;stroke-linejoin:round;" version="1.1" viewBox="0 0 500 500" xml:space="preserve" xmlns="http://www.w3.org/2000/svg" xmlns:xlink="http://www.w3.org/1999/xlink">
<defs/>
<clipPath id="ArtboardFrame">
<rect height="500" width="500" x="0" y="0"/>
</clipPath>
<g clip-path="url(#ArtboardFrame)" id="Layer-1">
<path d="M314.199 174.924L74.87 174.924L74.87 65.9921L314.199 174.924M475.11 205.411C475.11 198.414 471.461 191.392 463.415 187.943L54.3282 1.74278C40.3838-4.25482 24.89 5.96609 24.89 21.11L24.89 199.914C24.89 213.708 36.0855 224.904 49.88 224.904L455.818 224.904C468.013 224.904 475.11 215.157 475.11 205.411L475.11 205.411ZM24.89 300.074L24.89 478.877C24.89 494.021 40.3838 504.242 54.3032 498.269L463.39 312.069C482.657 303.822 476.759 275.084 455.793 275.084L49.88 275.084C36.0855 275.084 24.89 286.279 24.89 300.074Z" fill="#ffffff" fill-rule="evenodd" opacity="1" stroke="none"/>
</g>
</svg>
