<?xml version="1.0" encoding="UTF-8" standalone="no"?>
<!DOCTYPE svg PUBLIC "-//W3C//DTD SVG 1.1//EN" "http://www.w3.org/Graphics/SVG/1.1/DTD/svg11.dtd">
<!-- Created with Vectornator (http://vectornator.io/) -->
<svg stroke-miterlimit="10" style="fill-rule:nonzero;clip-rule:evenodd;stroke-linecap:round;stroke-linejoin:round;" version="1.1" viewBox="0 0 500 500" xml:space="preserve" xmlns="http://www.w3.org/2000/svg" xmlns:xlink="http://www.w3.org/1999/xlink">
<defs/>
<clipPath id="ArtboardFrame">
<rect height="500" width="500" x="0" y="0"/>
</clipPath>
<g clip-path="url(#ArtboardFrame)" id="Layer-1">
<path d="M174.924 185.801L174.924 425.13L65.9921 425.13L174.924 185.801M205.411 24.89C198.414 24.89 191.392 28.5385 187.943 36.5853L1.74278 445.672C-4.25482 459.616 5.96609 475.11 21.11 475.11L199.914 475.11C213.708 475.11 224.904 463.914 224.904 450.12L224.904 44.1823C224.904 31.9871 215.157 24.89 205.411 24.89L205.411 24.89ZM300.074 475.11L478.877 475.11C494.021 475.11 504.242 459.616 498.269 445.697L312.069 36.6103C303.822 17.343 275.084 23.2406 275.084 44.2072L275.084 450.12C275.084 463.915 286.279 475.11 300.074 475.11Z" fill="#ffffff" fill-rule="evenodd" opacity="1" stroke="none"/>
</g>
</svg>
