<?xml version="1.0" encoding="UTF-8" standalone="no"?>
<!DOCTYPE svg PUBLIC "-//W3C//DTD SVG 1.1//EN" "http://www.w3.org/Graphics/SVG/1.1/DTD/svg11.dtd">
<!-- Created with Vectornator (http://vectornator.io/) -->
<svg stroke-miterlimit="10" style="fill-rule:nonzero;clip-rule:evenodd;stroke-linecap:round;stroke-linejoin:round;" version="1.1" viewBox="0 0 500 500" xml:space="preserve" xmlns="http://www.w3.org/2000/svg" xmlns:xlink="http://www.w3.org/1999/xlink">
<defs/>
<g id="Layer-1">
<g opacity="1">
<path d="M401.135 134.615C401.135 115.212 423.077 91.1154 423.077 76.9231C423.077 55.6923 405.846 38.4615 384.615 38.4615C370.423 38.4615 363 60.4038 336.538 60.4038C310.077 60.4038 300.077 38.4615 278.846 38.4615C257.615 38.4615 237.865 60.4038 211.538 60.4038C185.212 60.4038 165.462 38.4615 144.231 38.4615C123 38.4615 104.558 60.4038 86.5385 60.4038C68.5192 60.4038 52.6538 38.4615 38.4615 38.4615C17.2308 38.4615 4.26326e-14 55.6923 4.26326e-14 76.9231C4.26326e-14 91.1154 21.9423 116.481 21.9423 134.615C21.9423 152.75 4.26326e-14 171.558 4.26326e-14 211.538C4.26326e-14 251.519 21.9423 269.058 21.9423 288.462C21.9423 307.865 4.26326e-14 331.962 4.26326e-14 346.154C4.26326e-14 367.385 17.2308 384.615 38.4615 384.615C52.6538 384.615 60.0769 362.981 86.5385 362.981C113 362.981 123 384.615 144.231 384.615C165.462 384.615 185.212 362.981 211.538 362.981C237.865 362.981 257.615 384.615 278.846 384.615C300.077 384.615 318.519 362.981 336.538 362.981C354.558 362.981 370.423 384.615 384.615 384.615C405.846 384.615 423.077 367.385 423.077 346.154C423.077 331.962 401.135 306.596 401.135 288.462C401.135 270.327 423.077 249.038 423.077 211.538C423.077 174.038 401.135 154.019 401.135 134.615ZM365.385 307.692C365.385 318.288 356.75 326.923 346.154 326.923L76.9231 326.923C66.3269 326.923 57.6923 318.288 57.6923 307.692L57.6923 115.385C57.6923 104.788 66.3269 96.1538 76.9231 96.1538L346.154 96.1538C356.75 96.1538 365.385 104.788 365.385 115.385L365.385 307.692Z" fill="#ffffff" fill-rule="evenodd" opacity="1" stroke="none"/>
<path d="M478.058 211.538C478.058 192.135 500 168.038 500 153.846C500 132.615 482.769 115.385 461.538 115.385C450.885 115.385 444.058 127.712 430.135 133.885C430.115 134.038 429.981 134.327 429.981 134.462C430.192 136.769 433.308 143.442 435.577 148.327C442.481 163.096 451.923 183.327 451.923 211.538C451.923 231.019 447.385 246.615 442.308 259.5L442.308 314.346C447.481 324.481 451.923 334.962 451.923 346.154C451.923 358.654 448.288 370.231 442.308 380.25L442.308 384.615C442.308 395.212 433.673 403.846 423.077 403.846L418.712 403.846C408.692 409.827 397.115 413.462 384.615 413.462C373.038 413.462 363.385 408.904 355.212 403.846L313.962 403.846C304.038 408.923 292.481 413.462 278.846 413.462C265.077 413.462 253.404 408.846 242.904 403.846L180.173 403.846C169.673 408.846 158 413.462 144.231 413.462C125.731 413.462 112.673 405.077 103.135 398.962C96.9039 394.942 93.4423 392.942 89.9423 392.173C83.8654 403.885 76.9231 415.077 76.9231 423.077C76.9231 444.308 94.1538 461.538 115.385 461.538C129.577 461.538 137 439.904 163.462 439.904C189.923 439.904 199.923 461.538 221.154 461.538C242.385 461.538 262.135 439.904 288.462 439.904C314.788 439.904 334.538 461.538 355.769 461.538C377 461.538 395.442 439.904 413.462 439.904C431.481 439.904 447.346 461.538 461.538 461.538C482.769 461.538 500 444.308 500 423.077C500 408.885 478.058 383.519 478.058 365.385C478.058 347.25 500 325.962 500 288.462C500 250.962 478.058 230.942 478.058 211.538Z" fill="#ffffff" fill-rule="evenodd" opacity="1" stroke="none"/>
</g>
</g>
</svg>
