<?xml version="1.0" encoding="UTF-8" standalone="no"?>
<!DOCTYPE svg PUBLIC "-//W3C//DTD SVG 1.1//EN" "http://www.w3.org/Graphics/SVG/1.1/DTD/svg11.dtd">
<!-- Created with Vectornator (http://vectornator.io/) -->
<svg stroke-miterlimit="10" style="fill-rule:nonzero;clip-rule:evenodd;stroke-linecap:round;stroke-linejoin:round;" version="1.1" viewBox="0 0 500 500" xml:space="preserve" xmlns="http://www.w3.org/2000/svg" xmlns:xlink="http://www.w3.org/1999/xlink">
<defs/>
<g id="Layer-1">
<g opacity="1">
<path d="M82.8559 34.7222C56.2628 34.7222 34.7222 56.2628 34.7222 82.8559L34.7222 102.821L34.7222 291.884C42.4313 293.601 50.0374 296.157 57.2483 299.87C132.933 224.176 223.892 133.192 299.609 57.4653C295.727 50.1246 293.015 42.4842 291.363 34.7222L100.608 34.7222L82.8559 34.7222ZM442.839 200.174C367.13 275.873 276.127 366.895 200.391 442.622C204.249 449.932 206.901 457.55 208.55 465.278L398.177 465.278L417.144 465.278C443.737 465.278 465.278 443.737 465.278 417.144L465.278 398.394L465.278 208.073C457.604 206.363 450.021 203.863 442.839 200.174Z" fill="#ffffff" fill-opacity="0.7" fill-rule="evenodd" opacity="1" stroke="none"/>
<path d="M380.122 0C366.214 0 359.26 16.8103 369.097 26.6493L402.735 60.2861L402.604 60.3736L402.692 60.4597L60.3736 402.821L26.6493 369.097C22.9597 365.408 18.2851 364.068 13.8889 364.583C6.56167 365.442 0 371.429 0 380.122L0 484.375C0 493.006 6.97611 500 15.5817 500L119.878 500C133.786 500 140.74 483.19 130.903 473.35L97.2653 439.714L97.3958 439.626L97.3528 439.583L439.714 97.2653L473.35 130.903C477.04 134.592 481.715 135.932 486.111 135.417C493.439 134.558 500 128.571 500 119.878L500 15.625C500 6.99445 493.024 0 484.418 0L473.394 0L380.122 0Z" fill="#ffffff" fill-rule="evenodd" opacity="1" stroke="none"/>
</g>
</g>
</svg>
