<?xml version="1.0" encoding="UTF-8" standalone="no"?>
<!DOCTYPE svg PUBLIC "-//W3C//DTD SVG 1.1//EN" "http://www.w3.org/Graphics/SVG/1.1/DTD/svg11.dtd">
<!-- Created with Vectornator (http://vectornator.io/) -->
<svg stroke-miterlimit="10" style="fill-rule:nonzero;clip-rule:evenodd;stroke-linecap:round;stroke-linejoin:round;" version="1.1" viewBox="0 0 500 500" xml:space="preserve" xmlns="http://www.w3.org/2000/svg" xmlns:xlink="http://www.w3.org/1999/xlink">
<defs/>
<g id="Layer-1">
<path d="M82.8438 34.7188C56.2507 34.7188 34.7188 56.2507 34.7188 82.8438L34.7188 102.812L34.7188 132.438C36.254 130.902 38.7734 128.383 40.125 127.031C53.1347 114.021 70.7372 107.085 87.4688 106.656C104.081 106.23 119.811 111.585 132.594 121.688C146.786 132.902 156.752 150.46 158.562 169.969C176.56 169.969 194.44 169.969 206.594 169.969C206.804 169.966 207.008 169.938 207.219 169.938C240.758 169.938 294.161 169.938 341.375 169.938C344.458 134.702 372.93 110.626 402.625 107.125C422.036 104.836 444.007 111.164 459.875 127.031C461.227 128.383 463.726 130.883 465.281 132.438L465.281 100.594L465.281 82.8438C465.281 56.2507 443.749 34.7188 417.156 34.7188L397.188 34.7188L291.375 34.7188L100.594 34.7188L82.8438 34.7188ZM158.469 330.125C155.07 368.843 121.755 394.309 87.25 393.531C70.7046 393.158 53.9251 386.769 40.125 372.969C38.7734 371.617 36.2539 369.098 34.7188 367.562L34.7188 398.188L34.7188 417.156C34.7188 443.749 56.2507 465.281 82.8438 465.281L101.594 465.281L291.938 465.281L398.188 465.281L417.156 465.281C443.749 465.281 465.281 443.749 465.281 417.156L465.281 398.406L465.281 367.562C463.746 369.098 461.227 371.617 459.875 372.969C432.483 400.361 392.25 397.947 367.406 378.312C353.243 367.121 343.312 349.61 341.469 330.156C294.219 330.156 240.781 330.156 207.219 330.156C207.008 330.156 206.804 330.127 206.594 330.125C194.416 330.125 176.503 330.125 158.469 330.125Z" fill="#ffffff" fill-opacity="0.7" fill-rule="evenodd" opacity="1" stroke="none"/>
<path d="M88.8438 160.625C85.1335 160.72 81.386 162.145 78.3125 165.219L4.59375 238.938C-1.50896 245.04-1.52255 254.946 4.5625 261.031L78.3125 334.781C88.1472 344.616 104.936 337.633 104.938 323.719L104.938 276.156L105.094 276.188L105.094 276.125L207.219 276.125L207.219 276.156L395.062 276.156L395.062 323.719C395.063 328.937 397.402 333.193 400.875 335.938C406.663 340.512 415.541 340.928 421.688 334.781L495.406 261.062C501.509 254.96 501.523 245.054 495.438 238.969L487.656 231.188L421.688 165.219C418 161.531 413.332 160.232 408.938 160.75C401.613 161.614 395.063 167.585 395.062 176.281L395.062 223.844L394.906 223.812L394.906 223.938L207.219 223.938L207.219 223.969L104.938 223.969L104.938 176.281C104.937 171.064 102.598 166.807 99.125 164.062C96.231 161.775 92.554 160.53 88.8438 160.625Z" fill="#ffffff" fill-rule="evenodd" opacity="1" stroke="none"/>
</g>
</svg>
