<?xml version="1.0" encoding="UTF-8" standalone="no"?>
<!DOCTYPE svg PUBLIC "-//W3C//DTD SVG 1.1//EN" "http://www.w3.org/Graphics/SVG/1.1/DTD/svg11.dtd">
<!-- Created with Vectornator (http://vectornator.io/) -->
<svg stroke-miterlimit="10" style="fill-rule:nonzero;clip-rule:evenodd;stroke-linecap:round;stroke-linejoin:round;" version="1.1" viewBox="0 0 500 500" xml:space="preserve" xmlns="http://www.w3.org/2000/svg" xmlns:xlink="http://www.w3.org/1999/xlink">
<defs/>
<g id="Layer-1">
<path d="M465.281 82.8438C465.281 56.2507 443.749 34.7188 417.156 34.7188L397.187 34.7188L367.562 34.7188C369.098 36.254 371.617 38.7734 372.969 40.125C385.979 53.1347 392.915 70.7372 393.344 87.4688C393.77 104.081 388.415 119.811 378.312 132.594C367.098 146.786 349.54 156.752 330.031 158.563C330.031 176.56 330.031 194.44 330.031 206.594C330.034 206.804 330.062 207.008 330.062 207.219C330.062 240.758 330.062 294.161 330.062 341.375C365.298 344.458 389.374 372.93 392.875 402.625C395.164 422.036 388.836 444.007 372.969 459.875C371.617 461.227 369.117 463.726 367.562 465.281L399.406 465.281L417.156 465.281C443.749 465.281 465.281 443.749 465.281 417.156L465.281 397.188L465.281 291.375L465.281 100.594L465.281 82.8438ZM169.875 158.469C131.157 155.07 105.691 121.755 106.469 87.25C106.842 70.7046 113.231 53.9251 127.031 40.125C128.383 38.7734 130.902 36.2539 132.437 34.7188L101.812 34.7188L82.8437 34.7188C56.2507 34.7188 34.7186 56.2507 34.7187 82.8438L34.7187 101.594L34.7187 291.938L34.7187 398.188L34.7187 417.156C34.7187 443.749 56.2507 465.281 82.8437 465.281L101.594 465.281L132.437 465.281C130.902 463.746 128.383 461.227 127.031 459.875C99.6392 432.483 102.053 392.251 121.687 367.406C132.879 353.243 150.39 343.312 169.844 341.469C169.844 294.219 169.844 240.781 169.844 207.219C169.844 207.008 169.873 206.804 169.875 206.594C169.875 194.416 169.875 176.503 169.875 158.469Z" fill="#ffffff" fill-opacity="0.7" fill-rule="evenodd" opacity="1" stroke="none"/>
<path d="M339.375 88.8438C339.28 85.1335 337.855 81.386 334.781 78.3125L261.062 4.59376C254.96-1.50896 245.054-1.52254 238.969 4.56251L165.219 78.3125C155.384 88.1472 162.367 104.936 176.281 104.938L223.844 104.938L223.812 105.094L223.875 105.094L223.875 207.219L223.844 207.219L223.844 395.063L176.281 395.063C171.063 395.063 166.807 397.402 164.062 400.875C159.488 406.663 159.072 415.541 165.219 421.688L238.937 495.406C245.04 501.509 254.946 501.523 261.031 495.438L268.812 487.656L334.781 421.688C338.469 418 339.768 413.332 339.25 408.938C338.386 401.613 332.415 395.063 323.719 395.063L276.156 395.063L276.187 394.906L276.062 394.906L276.062 207.219L276.031 207.219L276.031 104.938L323.719 104.938C328.936 104.937 333.193 102.598 335.937 99.125C338.225 96.231 339.47 92.554 339.375 88.8438Z" fill="#ffffff" fill-rule="evenodd" opacity="1" stroke="none"/>
</g>
</svg>
