<?xml version="1.0" encoding="UTF-8" standalone="no"?>
<!DOCTYPE svg PUBLIC "-//W3C//DTD SVG 1.1//EN" "http://www.w3.org/Graphics/SVG/1.1/DTD/svg11.dtd">
<!-- Created with Vectornator (http://vectornator.io/) -->
<svg stroke-miterlimit="10" style="fill-rule:nonzero;clip-rule:evenodd;stroke-linecap:round;stroke-linejoin:round;" version="1.1" viewBox="0 0 500 500" xml:space="preserve" xmlns="http://www.w3.org/2000/svg" xmlns:xlink="http://www.w3.org/1999/xlink">
<defs/>
<g id="Layer-1">
<path d="M129.656 95C110.509 95 95 110.509 95 129.656L95 144.031L95 298.594C101.65 300.638 108.001 304.132 113.406 309.156C171.398 251.157 251.23 171.339 309.188 113.375C303.966 107.792 300.463 101.519 298.469 95L142.438 95L129.656 95ZM386.656 190.875C328.653 248.871 248.813 328.726 190.844 386.688C196.034 392.253 199.51 398.507 201.5 405L356.688 405L370.344 405C389.491 405 405 389.491 405 370.344L405 356.844L405 201.406C398.383 199.363 392.043 195.868 386.656 190.875Z" fill="#ffffff" fill-opacity="0.7" fill-rule="evenodd" opacity="1" stroke="none"/>
<path d="M343.688 70C333.674 70 328.667 82.1034 335.75 89.1875L359.969 113.406L359.875 113.469L359.938 113.531L113.469 360.031L89.1875 335.75C86.531 333.094 83.1653 332.129 80 332.5C74.7244 333.118 70 337.429 70 343.688L70 418.75C70 424.964 75.0228 430 81.2188 430L156.312 430C166.326 430 171.333 417.897 164.25 410.812L140.031 386.594L140.125 386.531L140.094 386.5L386.594 140.031L410.812 164.25C413.469 166.906 416.835 167.871 420 167.5C425.276 166.882 430 162.571 430 156.312L430 81.25C430 75.036 424.977 70 418.781 70L410.844 70L343.688 70Z" fill="#ffffff" fill-rule="evenodd" opacity="1" stroke="none"/>
</g>
</svg>
