<?xml version="1.0" encoding="UTF-8" standalone="no"?>
<!DOCTYPE svg PUBLIC "-//W3C//DTD SVG 1.1//EN" "http://www.w3.org/Graphics/SVG/1.1/DTD/svg11.dtd">
<!-- Created with Vectornator (http://vectornator.io/) -->
<svg stroke-miterlimit="10" style="fill-rule:nonzero;clip-rule:evenodd;stroke-linecap:round;stroke-linejoin:round;" version="1.1" viewBox="0 0 500 500" xml:space="preserve" xmlns="http://www.w3.org/2000/svg" xmlns:xlink="http://www.w3.org/1999/xlink">
<defs/>
<g id="Layer-1">
<path d="M96 348C76.1177 348 60 364.118 60 384C60 403.882 76.1177 420 96 420C115.882 420 132 403.882 132 384C132 364.118 115.882 348 96 348ZM204 258C184.118 258 168 274.118 168 294C168 313.882 184.118 330 204 330C223.882 330 240 313.882 240 294C240 274.118 223.882 258 204 258ZM348 276C328.118 276 312 292.118 312 312C312 331.882 328.118 348 348 348C367.882 348 384 331.882 384 312C384 292.118 367.882 276 348 276ZM258 96C238.118 96 222 112.118 222 132C222 151.882 238.118 168 258 168C277.882 168 294 151.882 294 132C294 112.118 277.882 96 258 96ZM384 60C364.118 60 348 76.1177 348 96C348 115.882 364.118 132 384 132C403.882 132 420 115.882 420 96C420 76.1177 403.882 60 384 60Z" fill="#ffffff" fill-rule="evenodd" opacity="1" stroke="none"/>
<path d="M96 400.2C90.6 400.2 87 398.4 83.4 394.8C78 387.6 78 376.8 85.2 371.4L193.2 281.4C196.8 277.8 200.4 277.8 205.8 277.8L319.2 292.2L243.6 139.2C241.8 135.6 241.8 130.2 243.6 124.8C245.4 121.2 249 117.6 254.4 115.8L380.4 79.8C389.4 78 398.4 81.6 400.2 90.6C402 99.6 398.4 108.6 389.4 110.4L281.4 141L362.4 303C364.2 308.4 364.2 315.6 360.6 319.2C357 324.6 351.6 326.4 346.2 326.4L209.4 308.4L106.8 393C103.2 398.4 99.6 400.2 96 400.2Z" fill="#ffffff" fill-rule="evenodd" opacity="1" stroke="none"/>
</g>
</svg>
