<?xml version="1.0" encoding="UTF-8" standalone="no"?>
<!DOCTYPE svg PUBLIC "-//W3C//DTD SVG 1.1//EN" "http://www.w3.org/Graphics/SVG/1.1/DTD/svg11.dtd">
<!-- Created with Vectornator (http://vectornator.io/) -->
<svg stroke-miterlimit="10" style="fill-rule:nonzero;clip-rule:evenodd;stroke-linecap:round;stroke-linejoin:round;" version="1.1" viewBox="0 0 500 500" xml:space="preserve" xmlns="http://www.w3.org/2000/svg" xmlns:xlink="http://www.w3.org/1999/xlink">
<defs/>
<clipPath id="ArtboardFrame">
<rect height="500" width="500" x="0" y="0"/>
</clipPath>
<g clip-path="url(#ArtboardFrame)" id="Layer-1">
<g opacity="1">
<path d="M50 400C22.3857 400-7.10543e-15 422.386-7.10543e-15 450C-7.10543e-15 477.614 22.3857 500 50 500C77.6139 500 100 477.614 100 450C100 422.386 77.6139 400 50 400ZM200 275C172.386 275 150 297.386 150 325C150 352.614 172.386 375 200 375C227.614 375 250 352.614 250 325C250 297.386 227.614 275 200 275ZM400 300C372.386 300 350 322.386 350 350C350 377.614 372.386 400 400 400C427.614 400 450 377.614 450 350C450 322.386 427.614 300 400 300ZM275 50C247.386 50 225 72.3861 225 100C225 127.614 247.386 150 275 150C302.614 150 325 127.614 325 100C325 72.3861 302.614 50 275 50ZM450-7.10543e-15C422.386-7.10543e-15 400 22.3857 400 50C400 77.6139 422.386 100 450 100C477.614 100 500 77.6139 500 50C500 22.3857 477.614-7.10543e-15 450-7.10543e-15Z" fill="#ffffff" fill-rule="evenodd" opacity="1" stroke="none"/>
<path d="M50 472.5C42.5 472.5 37.5 470 32.5 465C25 455 25 440 35 432.5L185 307.5C190 302.5 195 302.5 202.5 302.5L360 322.5L255 110C252.5 105 252.5 97.5 255 90C257.5 85 262.5 80 270 77.5L445 27.5C457.5 25 470 30 472.5 42.5C475 55 470 67.5 457.5 70L307.5 112.5L420 337.5C422.5 345 422.5 355 417.5 360C412.5 367.5 405 370 397.5 370L207.5 345L65 462.5C60 470 55 472.5 50 472.5Z" fill="#ffffff" fill-rule="evenodd" opacity="1" stroke="none"/>
</g>
</g>
</svg>
