<?xml version="1.0" encoding="UTF-8" standalone="no"?>
<!DOCTYPE svg PUBLIC "-//W3C//DTD SVG 1.1//EN" "http://www.w3.org/Graphics/SVG/1.1/DTD/svg11.dtd">
<!-- Created with Vectornator (http://vectornator.io/) -->
<svg stroke-miterlimit="10" style="fill-rule:nonzero;clip-rule:evenodd;stroke-linecap:round;stroke-linejoin:round;" version="1.1" viewBox="0 0 500 500" xml:space="preserve" xmlns="http://www.w3.org/2000/svg" xmlns:xlink="http://www.w3.org/1999/xlink">
<defs/>
<g id="Layer-1">
<path d="M51.2808 0.00631558C22.8199 0.00631558 0 23.0827 0 51.2871L0 410.252C0 438.585 22.9481 461.533 51.2808 461.533L286.571 461.533C286.222 458.373 286.011 455.172 286.011 451.918C286.011 435.643 286.011 410.688 286.011 386.816C272.038 401.247 252.495 410.252 230.763 410.252C188.2 410.252 153.842 375.894 153.842 333.331C153.842 290.768 188.2 256.41 230.763 256.41C235.93 256.41 240.989 256.927 245.867 257.892C267.348 233.089 298.695 196.93 316.298 176.604C331.524 159.023 353.214 148.76 375.752 148.76C398.294 148.76 420.002 159.002 435.245 176.604C441.813 184.189 452.072 196.015 461.527 206.932L461.527 123.801C461.527 110.211 456.118 97.159 446.503 87.5439L373.989 15.03C364.374 5.41476 351.322 0.00631558 337.732 0.00631558L51.2808 0.00631558ZM76.9211 51.2871L282.044 51.2871C296.198 51.2871 307.685 62.774 307.685 76.9274L307.685 128.208C307.685 142.362 296.198 153.849 282.044 153.849L76.9211 153.849C62.7676 153.849 51.2808 142.362 51.2808 128.208L51.2808 76.9274C51.2808 62.774 62.7676 51.2871 76.9211 51.2871Z" fill="#ffffff" fill-rule="evenodd" opacity="0.7" stroke="none"/>
<path d="M375.752 187.221C364.75 187.221 353.778 192.071 345.384 201.764L264.816 294.791C240.246 323.162 250.763 346.151 288.294 346.151L324.471 346.151L324.471 451.918C324.471 478.461 346.004 499.994 372.547 499.994L378.997 499.994C405.54 499.994 427.033 478.461 427.033 451.918L427.033 346.151L463.25 346.151C500.781 346.151 511.296 323.162 486.726 294.791L406.159 201.764C397.766 192.071 386.754 187.221 375.752 187.221Z" fill="#ffffff" fill-rule="evenodd" opacity="1" stroke="none"/>
</g>
</svg>
