<?xml version="1.0" encoding="UTF-8" standalone="no"?>
<!DOCTYPE svg PUBLIC "-//W3C//DTD SVG 1.1//EN" "http://www.w3.org/Graphics/SVG/1.1/DTD/svg11.dtd">
<!-- Created with Vectornator (http://vectornator.io/) -->
<svg stroke-miterlimit="10" style="fill-rule:nonzero;clip-rule:evenodd;stroke-linecap:round;stroke-linejoin:round;" version="1.1" viewBox="0 0 500 500" xml:space="preserve" xmlns="http://www.w3.org/2000/svg" xmlns:xlink="http://www.w3.org/1999/xlink">
<defs/>
<g id="Layer-1">
<path d="M314.154 416.3C304.354 416.3 293.954 415.25 282.954 413.15C271.954 411.05 261.554 407.2 251.754 401.6C247.154 399.2 244.104 396.05 242.604 392.15C241.104 388.25 240.704 384.3 241.404 380.3C242.104 376.3 243.704 372.8 246.204 369.8C248.704 366.8 251.754 364.85 255.354 363.95C258.954 363.05 262.854 363.8 267.054 366.2C274.854 370.6 282.804 373.6 290.904 375.2C299.004 376.8 306.754 377.6 314.154 377.6C320.954 377.6 326.904 376.45 332.004 374.15C337.104 371.85 341.204 368.5 344.304 364.1C347.404 359.7 348.954 354.4 348.954 348.2C348.954 341 346.504 335.35 341.604 331.25C336.704 327.15 329.254 325.1 319.254 325.1L305.454 325.1C298.854 325.1 293.804 323.7 290.304 320.9C286.804 318.1 285.054 314 285.054 308.6C285.054 302.2 287.104 297.1 291.204 293.3C295.304 289.5 300.854 287.6 307.854 287.6L321.954 287.6C328.954 287.6 335.254 286.5 340.854 284.3C346.454 282.1 350.804 278.9 353.904 274.7C357.004 270.5 358.554 265.4 358.554 259.4C358.554 252.2 355.904 246.65 350.604 242.75C345.304 238.85 338.354 236.9 329.754 236.9C323.554 236.9 316.904 237.75 309.804 239.45C302.704 241.15 295.654 243.9 288.654 247.7C284.054 250.1 279.854 250.95 276.054 250.25C272.254 249.55 269.054 247.8 266.454 245C263.854 242.2 262.254 238.9 261.654 235.1C261.054 231.3 261.704 227.55 263.604 223.85C265.504 220.15 268.854 217 273.654 214.4C283.654 208.6 294.104 204.45 305.004 201.95C315.904 199.45 326.354 198.2 336.354 198.2C351.554 198.2 364.104 200.75 374.004 205.85C383.904 210.95 391.254 217.6 396.054 225.8C400.854 234 403.254 242.8 403.254 252.2C403.454 261.6 401.454 270.05 397.254 277.55C393.054 285.05 387.204 291.3 379.704 296.3C374.521 299.755 368.789 302.447 362.507 304.374C359.699 305.235 360.535 304.226 363.587 305.377C371.864 308.497 378.487 313.271 383.454 319.7C390.254 328.5 393.654 339.1 393.654 351.5C393.654 362.9 390.504 373.55 384.204 383.45C377.904 393.35 368.854 401.3 357.054 407.3C345.254 413.3 330.954 416.3 314.154 416.3Z" fill="#ffffff" fill-rule="evenodd" opacity="1" stroke="none"/>
<path d="M350.219 49.7812C345.1 49.7812 339.968 51.7198 336.062 55.625L85.8438 305.844C81.9385 309.749 80 314.882 80 320C80 325.118 81.9385 330.251 85.8438 334.156C89.749 338.061 94.8816 340 100 340C105.118 340 110.251 338.061 114.156 334.156L364.375 83.9375C368.28 80.0323 370.219 74.8997 370.219 69.7812C370.219 64.6628 368.28 59.5302 364.375 55.625C360.47 51.7198 355.337 49.7812 350.219 49.7812Z" fill="#ffffff" fill-rule="evenodd" opacity="1" stroke="none"/>
</g>
</svg>
