<?xml version="1.0" encoding="UTF-8" standalone="no"?>
<!DOCTYPE svg PUBLIC "-//W3C//DTD SVG 1.1//EN" "http://www.w3.org/Graphics/SVG/1.1/DTD/svg11.dtd">
<!-- Created with Vectornator (http://vectornator.io/) -->
<svg stroke-miterlimit="10" style="fill-rule:nonzero;clip-rule:evenodd;stroke-linecap:round;stroke-linejoin:round;" version="1.1" viewBox="0 0 500 500" xml:space="preserve" xmlns="http://www.w3.org/2000/svg" xmlns:xlink="http://www.w3.org/1999/xlink">
<defs/>
<g id="Layer-1">
<g opacity="1">
<path d="M348.931 500C335.562 500 321.375 498.568 306.368 495.703C291.362 492.838 277.175 487.586 263.806 479.946C257.531 476.672 253.37 472.375 251.324 467.055C249.277 461.735 248.732 456.346 249.686 450.889C250.641 445.433 252.824 440.658 256.235 436.565C259.645 432.473 263.806 429.813 268.717 428.585C273.628 427.357 278.948 428.38 284.678 431.654C295.319 437.657 306.164 441.749 317.214 443.932C328.264 446.115 338.836 447.206 348.931 447.206C358.208 447.206 366.324 445.637 373.282 442.5C380.239 439.362 385.832 434.792 390.061 428.789C394.29 422.787 396.405 415.557 396.405 407.099C396.405 397.277 393.062 389.569 386.378 383.976C379.693 378.383 369.53 375.586 355.888 375.586L337.063 375.586C328.059 375.586 321.17 373.676 316.395 369.857C311.621 366.037 309.233 360.444 309.233 353.077C309.233 344.346 312.03 337.389 317.623 332.205C323.216 327.021 330.787 324.429 340.337 324.429L359.572 324.429C369.121 324.429 377.715 322.929 385.355 319.927C392.994 316.926 398.928 312.561 403.157 306.831C407.386 301.102 409.501 294.144 409.501 285.959C409.501 276.137 405.886 268.566 398.656 263.245C391.425 257.925 381.944 255.265 370.212 255.265C361.754 255.265 352.683 256.425 342.997 258.744C333.311 261.063 323.694 264.814 314.144 269.998C307.869 273.272 302.139 274.432 296.956 273.477C291.772 272.522 287.406 270.135 283.859 266.315C280.312 262.495 278.13 257.993 277.311 252.809C276.493 247.626 277.379 242.51 279.971 237.462C282.563 232.415 287.133 228.118 293.681 224.571C307.323 216.658 321.579 210.997 336.449 207.587C351.318 204.176 365.574 202.471 379.216 202.471C399.952 202.471 417.072 205.95 430.578 212.907C444.083 219.864 454.11 228.936 460.658 240.122C467.206 251.309 470.48 263.314 470.48 276.137C470.753 288.96 468.025 300.488 462.295 310.719C456.565 320.951 448.585 329.477 438.353 336.298C431.283 341.011 423.463 344.683 414.894 347.312C411.063 348.487 412.203 347.11 416.367 348.68C427.658 352.937 436.693 359.449 443.469 368.22C452.746 380.224 457.384 394.685 457.384 411.601C457.384 427.152 453.087 441.681 444.492 455.187C435.898 468.692 423.552 479.537 407.455 487.722C391.357 495.907 371.849 500 348.931 500Z" fill="#ffffff" fill-rule="evenodd" opacity="1" stroke="none"/>
<path d="M398.13 0C391.147 0 384.146 2.64461 378.818 7.97203L37.4734 349.317C32.1458 354.645 29.5013 361.647 29.5013 368.629C29.5013 375.611 32.1458 382.613 37.4734 387.94C42.8008 393.267 49.8026 395.913 56.7851 395.913C63.767 395.913 70.7693 393.267 76.0965 387.94L417.442 46.5956C422.769 41.2681 425.414 34.2663 425.414 27.2837C425.414 20.3013 422.769 13.2995 417.442 7.97203C412.115 2.64461 405.112 0 398.13 0Z" fill="#ffffff" fill-rule="evenodd" opacity="1" stroke="none"/>
</g>
</g>
</svg>
