<?xml version="1.0" encoding="UTF-8" standalone="no"?>
<!DOCTYPE svg PUBLIC "-//W3C//DTD SVG 1.1//EN" "http://www.w3.org/Graphics/SVG/1.1/DTD/svg11.dtd">
<!-- Created with Vectornator (http://vectornator.io/) -->
<svg stroke-miterlimit="10" style="fill-rule:nonzero;clip-rule:evenodd;stroke-linecap:round;stroke-linejoin:round;" version="1.1" viewBox="0 0 500 500" xml:space="preserve" xmlns="http://www.w3.org/2000/svg" xmlns:xlink="http://www.w3.org/1999/xlink">
<defs/>
<g id="Layer-1">
<path d="M111.267 332.632L100 400L167.368 388.733L111.267 332.632ZM415.061 128.492L371.508 84.9389C364.923 78.3537 354.262 78.3537 347.694 84.9389L318.944 113.688L386.312 181.056L415.061 152.306C421.646 145.721 421.646 135.06 415.061 128.492ZM293.682 138.951L133.684 298.949C133.684 298.949 150.61 299.033 158.947 307.37C167.283 315.706 167.098 332.363 167.098 332.363C167.098 332.363 184.277 332.7 192.63 341.053C200.984 349.407 201.051 366.316 201.051 366.316L361.049 206.318L293.682 138.951Z" fill="#ffffff" fill-rule="evenodd" opacity="1" stroke="none"/>
</g>
</svg>
