<?xml version="1.0" encoding="UTF-8" standalone="no"?>
<!DOCTYPE svg PUBLIC "-//W3C//DTD SVG 1.1//EN" "http://www.w3.org/Graphics/SVG/1.1/DTD/svg11.dtd">
<!-- Created with Vectornator (http://vectornator.io/) -->
<svg stroke-miterlimit="10" style="fill-rule:nonzero;clip-rule:evenodd;stroke-linecap:round;stroke-linejoin:round;" version="1.1" viewBox="0 0 500 500" xml:space="preserve" xmlns="http://www.w3.org/2000/svg" xmlns:xlink="http://www.w3.org/1999/xlink">
<defs/>
<g id="Layer-1">
<path d="M0 70C0 31.3401 31.3401 0 70 0C108.66 0 140 31.3401 140 70C140 108.66 108.66 140 70 140C31.3401 140 0 108.66 0 70Z" fill="#ffffff" fill-rule="evenodd" opacity="1" stroke="none"/>
<path d="M0 430C0 391.34 31.3401 360 70 360C108.66 360 140 391.34 140 430C140 468.66 108.66 500 70 500C31.3401 500 0 468.66 0 430Z" fill="#ffffff" fill-rule="evenodd" opacity="1" stroke="none"/>
<path d="M360 430C360 391.34 391.34 360 430 360C468.66 360 500 391.34 500 430C500 468.66 468.66 500 430 500C391.34 500 360 468.66 360 430Z" fill="#ffffff" fill-rule="evenodd" opacity="1" stroke="none"/>
<path d="M360 70C360 31.3401 391.34 0 430 0C468.66 0 500 31.3401 500 70C500 108.66 468.66 140 430 140C391.34 140 360 108.66 360 70Z" fill="#ffffff" fill-rule="evenodd" opacity="1" stroke="none"/>
<path d="M220 70C220 53.4315 233.431 40 250 40C266.569 40 280 53.4315 280 70C280 86.5685 266.569 100 250 100C233.431 100 220 86.5685 220 70Z" fill="#ffffff" fill-rule="evenodd" opacity="1" stroke="none"/>
<path d="M220 430C220 413.431 233.431 400 250 400C266.569 400 280 413.431 280 430C280 446.569 266.569 460 250 460C233.431 460 220 446.569 220 430Z" fill="#ffffff" fill-rule="evenodd" opacity="1" stroke="none"/>
<path d="M40 250C40 233.431 53.4315 220 70 220C86.5685 220 100 233.431 100 250C100 266.569 86.5685 280 70 280C53.4315 280 40 266.569 40 250Z" fill="#ffffff" fill-rule="evenodd" opacity="1" stroke="none"/>
<path d="M400 250C400 233.431 413.431 220 430 220C446.569 220 460 233.431 460 250C460 266.569 446.569 280 430 280C413.431 280 400 266.569 400 250Z" fill="#ffffff" fill-rule="evenodd" opacity="1" stroke="none"/>
<path d="M220 250C220 233.431 233.431 220 250 220C266.569 220 280 233.431 280 250C280 266.569 266.569 280 250 280C233.431 280 220 266.569 220 250Z" fill="#ffffff" fill-rule="evenodd" opacity="1" stroke="none"/>
</g>
</svg>
