<?xml version="1.0" encoding="UTF-8" standalone="no"?>
<!DOCTYPE svg PUBLIC "-//W3C//DTD SVG 1.1//EN" "http://www.w3.org/Graphics/SVG/1.1/DTD/svg11.dtd">
<!-- Created with Vectornator (http://vectornator.io/) -->
<svg stroke-miterlimit="10" style="fill-rule:nonzero;clip-rule:evenodd;stroke-linecap:round;stroke-linejoin:round;" version="1.1" viewBox="0 0 500 500" xml:space="preserve" xmlns="http://www.w3.org/2000/svg" xmlns:xlink="http://www.w3.org/1999/xlink">
<defs/>
<g id="Layer-1">
<path d="M329.828 69.5781C307.792 69.5781 302.559 82.215 318.141 97.7969L346.234 125.891L249.984 222.141L153.734 125.891L181.828 97.7969C197.41 82.2149 192.208 69.5979 170.172 69.6094L90.0156 69.6406C78.9589 69.6463 69.9844 78.6151 69.9844 89.6719L69.9844 169.766C69.9844 191.802 82.6212 197.035 98.2031 181.453L125.453 154.172L221.703 250.422L125.453 346.672L97.3594 318.578C81.7775 302.996 69.1604 308.198 69.1719 330.234L69.2031 410.391C69.2089 421.447 78.1776 430.422 89.2344 430.422L169.328 430.422C191.364 430.422 196.598 417.785 181.016 402.203L153.734 374.953L249.984 278.703L346.234 374.953L318.953 402.234C303.371 417.816 308.604 430.433 330.641 430.422L410.797 430.391C421.854 430.385 430.828 421.416 430.828 410.359L430.828 330.266C430.828 308.229 418.191 302.996 402.609 318.578L374.516 346.672L278.266 250.422L374.516 154.172L401.797 181.453C417.379 197.035 429.996 191.802 429.984 169.766L429.953 89.6094C429.947 78.5526 420.979 69.5781 409.922 69.5781L329.828 69.5781Z" fill="#ffffff" fill-rule="evenodd" opacity="1" stroke="none"/>
</g>
</svg>
