<?xml version="1.0" encoding="UTF-8" standalone="no"?>
<!DOCTYPE svg PUBLIC "-//W3C//DTD SVG 1.1//EN" "http://www.w3.org/Graphics/SVG/1.1/DTD/svg11.dtd">
<!-- Created with Vectornator (http://vectornator.io/) -->
<svg stroke-miterlimit="10" style="fill-rule:nonzero;clip-rule:evenodd;stroke-linecap:round;stroke-linejoin:round;" version="1.1" viewBox="0 0 500 500" xml:space="preserve" xmlns="http://www.w3.org/2000/svg" xmlns:xlink="http://www.w3.org/1999/xlink">
<defs/>
<g id="Layer-1">
<path d="M360.365 0.561452C329.899 0.561452 322.664 18.0323 344.207 39.5748L383.046 78.4157L249.978 211.484L116.91 78.4157L155.75 39.5748C177.293 18.0322 170.101 0.588824 139.636 0.60472L28.817 0.64786C13.5308 0.65574 1.12332 13.0554 1.12332 28.3417L1.12332 139.074C1.12332 169.54 18.5941 176.774 40.1365 155.232L77.8103 117.515L210.879 250.583L77.8103 383.652L38.97 344.811C17.4276 323.268-0.0158848 330.46 1.08552e-05 360.926L0.0431516 471.745C0.051168 487.03 12.4506 499.439 27.737 499.439L138.469 499.439C168.934 499.439 176.17 481.968 154.628 460.425L116.91 422.751L249.978 289.683L383.046 422.751L345.33 460.468C323.787 482.01 331.022 499.454 361.489 499.439L472.307 499.396C487.593 499.387 500 486.987 500 471.701L500 360.97C500 330.503 482.529 323.268 460.986 344.811L422.147 383.652L289.079 250.583L422.147 117.515L459.864 155.232C481.406 176.774 498.85 169.54 498.833 139.074L498.79 28.2553C498.782 12.969 486.383 0.561452 471.097 0.561452L360.365 0.561452Z" fill="#ffffff" fill-rule="evenodd" opacity="1" stroke="none"/>
</g>
</svg>
