<?xml version="1.0" encoding="UTF-8" standalone="no"?>
<!DOCTYPE svg PUBLIC "-//W3C//DTD SVG 1.1//EN" "http://www.w3.org/Graphics/SVG/1.1/DTD/svg11.dtd">
<!-- Created with Vectornator (http://vectornator.io/) -->
<svg stroke-miterlimit="10" style="fill-rule:nonzero;clip-rule:evenodd;stroke-linecap:round;stroke-linejoin:round;" version="1.1" viewBox="0 0 500 500" xml:space="preserve" xmlns="http://www.w3.org/2000/svg" xmlns:xlink="http://www.w3.org/1999/xlink">
<defs/>
<g id="Layer-2">
<g opacity="1">
<path d="M46.3817 68.5805C35.1809 68.5805 26.1008 77.6602 26.101 88.8611C26.101 99.0015 26.101 403.213 26.101 413.353C26.101 424.554 35.1809 433.634 46.3817 433.634L451.997 433.634C463.198 433.634 472.277 424.554 472.277 413.353L472.277 88.8611C472.277 77.6602 463.198 68.5804 451.997 68.5805L46.3817 68.5805ZM66.6627 109.142L431.716 109.142L431.716 393.072L66.6627 393.072C66.6627 354.046 66.6627 148.169 66.6627 109.142Z" fill="#ffffff" fill-rule="evenodd" opacity="1" stroke="none"/>
<path d="M452.281 40.369C425.925 40.369 404.561 61.7337 404.561 88.0884C404.561 114.444 425.925 135.808 452.281 135.808C478.636 135.808 500 114.444 500 88.0884C500 61.7337 478.636 40.369 452.281 40.369Z" fill="#ffffff" fill-rule="evenodd" opacity="1" stroke="none"/>
<path d="M452.281 364.192C425.925 364.192 404.561 385.557 404.561 411.912C404.561 438.267 425.925 459.631 452.281 459.631C478.636 459.631 500 438.267 500 411.912C500 385.557 478.636 364.192 452.281 364.192Z" fill="#ffffff" fill-rule="evenodd" opacity="1" stroke="none"/>
<path d="M47.7194 40.369C21.3642 40.369 0 61.7337 0 88.0884C0 114.444 21.3642 135.808 47.7194 135.808C74.0745 135.808 95.4387 114.444 95.4387 88.0884C95.4387 61.7337 74.0745 40.369 47.7194 40.369Z" fill="#ffffff" fill-rule="evenodd" opacity="1" stroke="none"/>
<path d="M47.7194 364.192C21.3642 364.192 1.42109e-14 385.557 1.42109e-14 411.912C1.42109e-14 438.267 21.3642 459.631 47.7194 459.631C74.0745 459.631 95.4387 438.267 95.4387 411.912C95.4387 385.557 74.0745 364.192 47.7194 364.192Z" fill="#ffffff" fill-rule="evenodd" opacity="1" stroke="none"/>
</g>
</g>
</svg>
