<?xml version="1.0" encoding="UTF-8" standalone="no"?>
<!DOCTYPE svg PUBLIC "-//W3C//DTD SVG 1.1//EN" "http://www.w3.org/Graphics/SVG/1.1/DTD/svg11.dtd">
<!-- Created with Vectornator (http://vectornator.io/) -->
<svg stroke-miterlimit="10" style="fill-rule:nonzero;clip-rule:evenodd;stroke-linecap:round;stroke-linejoin:round;" version="1.1" viewBox="0 0 500 500" xml:space="preserve" xmlns="http://www.w3.org/2000/svg" xmlns:xlink="http://www.w3.org/1999/xlink">
<defs/>
<g id="Layer-2">
<path d="M86.1378 96.7631C76.7489 96.7631 69.1376 104.374 69.1378 113.763C69.1378 122.263 69.1378 377.263 69.1378 385.763C69.1378 395.152 76.7489 402.763 86.1378 402.763L426.138 402.763C435.527 402.763 443.138 395.152 443.138 385.763L443.138 113.763C443.138 104.374 435.527 96.763 426.138 96.7631L86.1378 96.7631ZM103.138 130.763L409.138 130.763L409.138 368.763L103.138 368.763C103.138 336.05 103.138 163.477 103.138 130.763Z" fill="#ffffff" fill-rule="evenodd" opacity="1" stroke="none"/>
<path d="M86 352C67.2223 352 52 367.222 52 386C52 404.778 67.2223 420 86 420C104.778 420 120 404.778 120 386C120 367.222 104.778 352 86 352ZM426 352C407.222 352 392 367.222 392 386C392 404.778 407.222 420 426 420C444.778 420 460 404.778 460 386C460 367.222 444.778 352 426 352ZM86 80C67.2223 80 52 95.2223 52 114C52 132.778 67.2223 148 86 148C104.778 148 120 132.778 120 114C120 95.2223 104.778 80 86 80ZM426 80C407.222 80 392 95.2223 392 114C392 132.778 407.222 148 426 148C444.778 148 460 132.778 460 114C460 95.2223 444.778 80 426 80Z" fill="#ffffff" fill-rule="evenodd" opacity="1" stroke="none"/>
</g>
</svg>
