<?xml version="1.0" encoding="UTF-8" standalone="no"?>
<!DOCTYPE svg PUBLIC "-//W3C//DTD SVG 1.1//EN" "http://www.w3.org/Graphics/SVG/1.1/DTD/svg11.dtd">
<!-- Created with Vectornator (http://vectornator.io/) -->
<svg stroke-miterlimit="10" style="fill-rule:nonzero;clip-rule:evenodd;stroke-linecap:round;stroke-linejoin:round;" version="1.1" viewBox="0 0 500 500" xml:space="preserve" xmlns="http://www.w3.org/2000/svg" xmlns:xlink="http://www.w3.org/1999/xlink">
<defs/>
<clipPath id="ArtboardFrame">
<rect height="500" width="500" x="0" y="0"/>
</clipPath>
<g clip-path="url(#ArtboardFrame)" id="Layer-1">
<path d="M487.499 150.232C490.692 150.232 493.896 151.471 496.328 153.904C498.773 156.322 500 159.496 500 162.689L500 324.81C500 338.586 488.817 349.768 475.042 349.768L312.921 349.768C309.729 349.768 306.537 348.56 304.092 346.14C299.228 341.277 299.228 333.346 304.092 328.481C305.641 326.933 339.577 292.995 369.788 262.785C334.679 231.657 288.718 212.562 238.09 212.562C159.543 212.562 91.7103 258.023 59.1845 324.023C52.3 337.992 36.3417 344.872 21.5501 339.933C3.86612 334.046-5.14563 313.835 3.06081 297.098C45.6141 210.17 134.749 150.232 238.09 150.232C305.956 150.232 367.525 176.233 413.935 218.638C443.536 189.038 477.143 155.429 478.67 153.904C481.101 151.471 484.306 150.232 487.499 150.232Z" fill="#ffffff" fill-rule="evenodd" opacity="1" stroke="none"/>
</g>
</svg>
