<?xml version="1.0" encoding="UTF-8" standalone="no"?>
<!DOCTYPE svg PUBLIC "-//W3C//DTD SVG 1.1//EN" "http://www.w3.org/Graphics/SVG/1.1/DTD/svg11.dtd">
<!-- Created with Vectornator (http://vectornator.io/) -->
<svg stroke-miterlimit="10" style="fill-rule:nonzero;clip-rule:evenodd;stroke-linecap:round;stroke-linejoin:round;" version="1.1" viewBox="0 0 500 500" xml:space="preserve" xmlns="http://www.w3.org/2000/svg" xmlns:xlink="http://www.w3.org/1999/xlink">
<defs/>
<g id="Layer-1">
<path d="M95.4033 312.974L95.4033 312.974C82.7597 308.765 76.322 294.303 82.1891 282.337C112.612 220.189 176.329 177.336 250.211 177.336C317.602 177.336 376.469 213.056 409.389 266.501L353.429 266.501C327.464 239.127 290.924 221.919 250.211 221.919C194.055 221.919 145.567 254.41 122.313 301.596C117.391 311.583 105.978 316.505 95.4033 312.974Z" fill="#ffffff" fill-rule="evenodd" opacity="1" stroke="none"/>
<path d="M419.625 320L303.71 320C301.428 320 299.145 319.126 297.397 317.396C293.92 313.919 293.92 308.266 297.397 304.788C300.34 301.846 419.286 182.9 422.228 179.958C425.706 176.48 431.359 176.48 434.836 179.958C436.584 181.687 437.458 183.97 437.458 186.253L437.458 186.253L437.458 302.167L419.625 320Z" fill="#ffffff" fill-rule="evenodd" opacity="1" stroke="none"/>
<path d="M419.625 284.334C429.474 284.334 437.458 292.318 437.458 302.167C437.458 312.016 429.474 320 419.625 320C409.776 320 401.792 312.016 401.792 302.167C401.792 292.318 409.776 284.334 419.625 284.334Z" fill="#ffffff" fill-rule="evenodd" opacity="1" stroke="none"/>
</g>
</svg>
