<?xml version="1.0" encoding="UTF-8" standalone="no"?>
<!DOCTYPE svg PUBLIC "-//W3C//DTD SVG 1.1//EN" "http://www.w3.org/Graphics/SVG/1.1/DTD/svg11.dtd">
<!-- Created with Vectornator (http://vectornator.io/) -->
<svg stroke-miterlimit="10" style="fill-rule:nonzero;clip-rule:evenodd;stroke-linecap:round;stroke-linejoin:round;" version="1.1" viewBox="0 0 500 500" xml:space="preserve" xmlns="http://www.w3.org/2000/svg" xmlns:xlink="http://www.w3.org/1999/xlink">
<defs/>
<clipPath id="ArtboardFrame">
<rect height="500" width="500" x="0" y="0"/>
</clipPath>
<g clip-path="url(#ArtboardFrame)" id="Layer-1">
<path d="M243.821 78.5821C235.169 71.785 235.376 59.4268 243.821 52.835L304.995 5.2561C319.001-5.45444 336.096 0.724804 336.096 19.0563L336.096 41.9192L353.192 41.9192C416.013 41.9192 465.446 88.8804 465.446 154.379L465.446 193.514C465.446 206.491 454.941 217.201 441.966 217.201C428.989 217.201 418.485 206.491 418.485 193.514L418.485 154.379C418.485 115.451 391.297 86.6151 354.428 86.6151L336.096 86.6151L336.096 112.568C336.096 129.87 318.794 136.255 304.995 125.75L243.821 78.5821ZM106.85 500C61.5358 500 34.5537 473.018 34.5537 427.499L34.5537 236.562C34.5537 191.042 61.5358 164.266 106.85 164.266L297.991 164.266C343.511 164.266 370.287 191.042 370.287 236.562L370.287 427.499C370.287 473.018 343.511 500 297.991 500L106.85 500ZM117.56 432.441L287.281 432.441C297.579 432.441 302.935 428.321 302.935 416.994L302.935 247.273C302.935 235.944 297.579 231.619 287.281 231.619L117.56 231.619C107.262 231.619 101.906 235.944 101.906 247.273L101.906 416.994C101.906 428.321 107.262 432.441 117.56 432.441Z" fill="#ffffff" fill-rule="evenodd" opacity="1" stroke="none"/>
</g>
</svg>
