<?xml version="1.0" encoding="UTF-8" standalone="no"?>
<!DOCTYPE svg PUBLIC "-//W3C//DTD SVG 1.1//EN" "http://www.w3.org/Graphics/SVG/1.1/DTD/svg11.dtd">
<!-- Created with Vectornator (http://vectornator.io/) -->
<svg stroke-miterlimit="10" style="fill-rule:nonzero;clip-rule:evenodd;stroke-linecap:round;stroke-linejoin:round;" version="1.1" viewBox="0 0 500 500" xml:space="preserve" xmlns="http://www.w3.org/2000/svg" xmlns:xlink="http://www.w3.org/1999/xlink">
<defs/>
<clipPath id="ArtboardFrame">
<rect height="500" width="500" x="0" y="0"/>
</clipPath>
<g clip-path="url(#ArtboardFrame)" id="Layer-1">
<path d="M256.179 78.5821C264.83 71.785 264.624 59.4268 256.179 52.835L195.006 5.2561C180.999-5.45444 163.904 0.724804 163.904 19.0563L163.904 41.9192L146.809 41.9192C83.9869 41.9192 34.5537 88.8804 34.5537 154.379L34.5537 193.514C34.5537 206.491 45.0577 217.201 58.0346 217.201C71.0101 217.201 81.515 206.491 81.515 193.514L81.515 154.379C81.515 115.451 108.703 86.6151 145.573 86.6151L163.904 86.6151L163.904 112.568C163.904 129.87 181.206 136.255 195.006 125.75L256.179 78.5821ZM393.15 500C438.465 500 465.446 473.018 465.446 427.499L465.446 236.562C465.446 191.042 438.465 164.266 393.15 164.266L202.008 164.266C156.488 164.266 129.712 191.042 129.712 236.562L129.712 427.499C129.712 473.018 156.488 500 202.008 500L393.15 500ZM382.44 432.441L212.72 432.441C202.42 432.441 197.065 428.321 197.065 416.994L197.065 247.273C197.065 235.944 202.42 231.619 212.72 231.619L382.44 231.619C392.738 231.619 398.094 235.944 398.094 247.273L398.094 416.994C398.094 428.321 392.738 432.441 382.44 432.441Z" fill="#ffffff" fill-rule="evenodd" opacity="1" stroke="none"/>
</g>
</svg>
