<?xml version="1.0" encoding="UTF-8" standalone="no"?>
<!DOCTYPE svg PUBLIC "-//W3C//DTD SVG 1.1//EN" "http://www.w3.org/Graphics/SVG/1.1/DTD/svg11.dtd">
<!-- Created with Vectornator (http://vectornator.io/) -->
<svg stroke-miterlimit="10" style="fill-rule:nonzero;clip-rule:evenodd;stroke-linecap:round;stroke-linejoin:round;" version="1.1" viewBox="0 0 500 500" xml:space="preserve" xmlns="http://www.w3.org/2000/svg" xmlns:xlink="http://www.w3.org/1999/xlink">
<defs/>
<g id="Layer-1">
<path d="M242.383 120.293C236.23 115.459 236.377 106.67 242.383 101.982L285.889 68.1445C295.85 60.5273 308.008 64.9219 308.008 77.959L308.008 94.2188L320.166 94.2188C364.844 94.2188 400 127.617 400 174.199L400 202.031C400 211.26 392.529 218.877 383.301 218.877C374.072 218.877 366.602 211.26 366.602 202.031L366.602 174.199C366.602 146.514 347.266 126.006 321.045 126.006L308.008 126.006L308.008 144.463C308.008 156.768 295.703 161.309 285.889 153.838L242.383 120.293ZM144.971 420C112.744 420 93.5547 400.811 93.5547 368.438L93.5547 232.646C93.5547 200.273 112.744 181.23 144.971 181.23L280.908 181.23C313.281 181.23 332.324 200.273 332.324 232.646L332.324 368.438C332.324 400.811 313.281 420 280.908 420L144.971 420ZM152.588 371.953L273.291 371.953C280.615 371.953 284.424 369.023 284.424 360.967L284.424 240.264C284.424 232.207 280.615 229.131 273.291 229.131L152.588 229.131C145.264 229.131 141.455 232.207 141.455 240.264L141.455 360.967C141.455 369.023 145.264 371.953 152.588 371.953Z" fill="#ffffff" fill-rule="evenodd" opacity="1" stroke="none"/>
</g>
</svg>
