<?xml version="1.0" encoding="UTF-8" standalone="no"?>
<!DOCTYPE svg PUBLIC "-//W3C//DTD SVG 1.1//EN" "http://www.w3.org/Graphics/SVG/1.1/DTD/svg11.dtd">
<!-- Created with Vectornator (http://vectornator.io/) -->
<svg stroke-miterlimit="10" style="fill-rule:nonzero;clip-rule:evenodd;stroke-linecap:round;stroke-linejoin:round;" version="1.1" viewBox="0 0 500 500" xml:space="preserve" xmlns="http://www.w3.org/2000/svg" xmlns:xlink="http://www.w3.org/1999/xlink">
<defs/>
<g id="Layer-1">
<path d="M251.172 120.293C257.324 115.459 257.178 106.67 251.172 101.982L207.666 68.1445C197.705 60.5273 185.547 64.9219 185.547 77.959L185.547 94.2188L173.389 94.2188C128.711 94.2188 93.5547 127.617 93.5547 174.199L93.5547 202.031C93.5547 211.26 101.025 218.877 110.254 218.877C119.482 218.877 126.953 211.26 126.953 202.031L126.953 174.199C126.953 146.514 146.289 126.006 172.51 126.006L185.547 126.006L185.547 144.463C185.547 156.768 197.852 161.309 207.666 153.838L251.172 120.293ZM348.584 420C380.811 420 400 400.811 400 368.438L400 232.646C400 200.273 380.811 181.23 348.584 181.23L212.646 181.23C180.273 181.23 161.23 200.273 161.23 232.646L161.23 368.438C161.23 400.811 180.273 420 212.646 420L348.584 420ZM340.967 371.953L220.264 371.953C212.939 371.953 209.131 369.023 209.131 360.967L209.131 240.264C209.131 232.207 212.939 229.131 220.264 229.131L340.967 229.131C348.291 229.131 352.1 232.207 352.1 240.264L352.1 360.967C352.1 369.023 348.291 371.953 340.967 371.953Z" fill="#ffffff" fill-rule="evenodd" opacity="1" stroke="none"/>
</g>
</svg>
