<?xml version="1.0" encoding="UTF-8" standalone="no"?>
<!DOCTYPE svg PUBLIC "-//W3C//DTD SVG 1.1//EN" "http://www.w3.org/Graphics/SVG/1.1/DTD/svg11.dtd">
<!-- Created with Vectornator (http://vectornator.io/) -->
<svg stroke-miterlimit="10" style="fill-rule:nonzero;clip-rule:evenodd;stroke-linecap:round;stroke-linejoin:round;" version="1.1" viewBox="0 0 500 500" xml:space="preserve" xmlns="http://www.w3.org/2000/svg" xmlns:xlink="http://www.w3.org/1999/xlink">
<defs/>
<g id="Layer-1">
<path d="M203.344 155.844C177.11 155.844 155.844 177.11 155.844 203.344L155.844 296.656C155.844 322.89 177.11 344.156 203.344 344.156L296.656 344.156C322.89 344.156 344.156 322.89 344.156 296.656L344.156 203.344C344.156 177.11 322.89 155.844 296.656 155.844L203.344 155.844ZM203.344 190.844L296.656 190.844C303.56 190.844 309.156 196.44 309.156 203.344L309.156 296.656C309.156 303.56 303.56 309.156 296.656 309.156L203.344 309.156C196.44 309.156 190.844 303.56 190.844 296.656L190.844 203.344C190.844 196.44 196.44 190.844 203.344 190.844Z" fill="#ffffff" fill-rule="evenodd" opacity="1" stroke="none"/>
</g>
</svg>
