<?xml version="1.0" encoding="UTF-8" standalone="no"?>
<!DOCTYPE svg PUBLIC "-//W3C//DTD SVG 1.1//EN" "http://www.w3.org/Graphics/SVG/1.1/DTD/svg11.dtd">
<!-- Created with Vectornator (http://vectornator.io/) -->
<svg stroke-miterlimit="10" style="fill-rule:nonzero;clip-rule:evenodd;stroke-linecap:round;stroke-linejoin:round;" version="1.1" viewBox="0 0 500 500" xml:space="preserve" xmlns="http://www.w3.org/2000/svg" xmlns:xlink="http://www.w3.org/1999/xlink">
<defs/>
<g id="Layer-1">
<path d="M58.3438 2.5C27.5078 2.5 2.5 27.5078 2.5 58.3438L2.5 173.344C2.5 174.542 2.5 325.458 2.5 326.656C2.5 327.555 2.5 440.758 2.5 441.656C2.5 472.492 27.5078 497.5 58.3438 497.5L173.344 497.5L326.656 497.5L441.656 497.5C472.492 497.5 497.5 472.492 497.5 441.656L497.5 326.656L497.5 173.344L497.5 58.3438C497.5 27.5078 472.492 2.5 441.656 2.5L326.656 2.5L173.344 2.5L58.3438 2.5ZM58.3438 37.5L155.844 37.5L155.844 155.844L37.5 155.844L37.5 58.3438C37.5 46.8378 46.8378 37.5 58.3438 37.5ZM190.844 37.5L309.156 37.5L309.156 155.844L190.844 155.844L190.844 37.5ZM344.156 37.5L441.656 37.5C453.162 37.5 462.5 46.8378 462.5 58.3438L462.5 155.844L344.156 155.844C344.156 131.553 344.156 61.7909 344.156 37.5ZM37.5 190.844L155.844 190.844L155.844 309.156L37.5 309.156C37.5 284.863 37.5 215.137 37.5 190.844ZM190.844 190.844L309.156 190.844L309.156 309.156L190.844 309.156L190.844 190.844ZM344.156 190.844L462.5 190.844L462.5 309.156L344.156 309.156L344.156 190.844ZM37.5 344.156L155.844 344.156C155.844 368.449 155.844 438.208 155.844 462.5L58.3438 462.5C46.8378 462.5 37.5 453.162 37.5 441.656C37.5 440.895 37.5 369.487 37.5 344.156ZM190.844 344.156L309.156 344.156L309.156 462.5L190.844 462.5L190.844 344.156ZM344.156 344.156L462.5 344.156L462.5 441.656C462.5 453.162 453.162 462.5 441.656 462.5L344.156 462.5L344.156 344.156Z" fill="#ffffff" fill-rule="evenodd" opacity="1" stroke="none"/>
</g>
</svg>
