<?xml version="1.0" encoding="UTF-8" standalone="no"?>
<!DOCTYPE svg PUBLIC "-//W3C//DTD SVG 1.1//EN" "http://www.w3.org/Graphics/SVG/1.1/DTD/svg11.dtd">
<!-- Created with Vectornator (http://vectornator.io/) -->
<svg stroke-miterlimit="10" style="fill-rule:nonzero;clip-rule:evenodd;stroke-linecap:round;stroke-linejoin:round;" version="1.1" viewBox="0 0 500 500" xml:space="preserve" xmlns="http://www.w3.org/2000/svg" xmlns:vectornator="http://vectornator.io" xmlns:xlink="http://www.w3.org/1999/xlink">
<defs/>
<g id="Layer-1" vectornator:layerName="Layer 1">
<path d="M404.597 312.974L404.597 312.974C417.24 308.765 423.678 294.303 417.811 282.337C387.388 220.189 323.671 177.336 249.789 177.336C182.398 177.336 123.531 213.056 90.6114 266.501L146.571 266.501C172.536 239.127 209.076 221.919 249.789 221.919C305.945 221.919 354.433 254.41 377.687 301.596C382.609 311.583 394.022 316.505 404.597 312.974Z" fill="#ffffff" fill-rule="evenodd" opacity="1" stroke="none"/>
<path d="M80.3752 320L196.29 320C198.572 320 200.855 319.126 202.603 317.396C206.08 313.919 206.08 308.266 202.603 304.788C199.66 301.846 80.7141 182.9 77.7716 179.958C74.2942 176.48 68.6411 176.48 65.1637 179.958C63.4161 181.687 62.5423 183.97 62.5423 186.253L62.5423 186.253L62.5423 302.167L80.3752 320Z" fill="#ffffff" fill-rule="evenodd" opacity="1" stroke="none"/>
<path d="M80.3752 284.334C70.5264 284.334 62.5423 292.318 62.5423 302.167C62.5423 312.016 70.5264 320 80.3752 320C90.2241 320 98.2082 312.016 98.2082 302.167C98.2082 292.318 90.2241 284.334 80.3752 284.334Z" fill="#ffffff" fill-rule="evenodd" opacity="1" stroke="none"/>
</g>
</svg>
