<?xml version="1.0" encoding="UTF-8" standalone="no"?>
<!DOCTYPE svg PUBLIC "-//W3C//DTD SVG 1.1//EN" "http://www.w3.org/Graphics/SVG/1.1/DTD/svg11.dtd">
<!-- Created with Vectornator (http://vectornator.io/) -->
<svg stroke-miterlimit="10" style="fill-rule:nonzero;clip-rule:evenodd;stroke-linecap:round;stroke-linejoin:round;" version="1.1" viewBox="0 0 500 500" xml:space="preserve" xmlns="http://www.w3.org/2000/svg" xmlns:xlink="http://www.w3.org/1999/xlink">
<defs/>
<g id="Layer-1">
<path d="M12.5011 150.232C9.30831 150.232 6.10359 151.471 3.67164 153.904C1.22724 156.322-3.55713e-06 159.496 0 162.689L0 324.81C0 338.586 11.1827 349.768 24.9584 349.768L187.079 349.768C190.271 349.768 193.463 348.56 195.908 346.14C200.772 341.277 200.772 333.346 195.908 328.481C194.359 326.933 160.423 292.995 130.212 262.785C165.321 231.657 211.282 212.562 261.91 212.562C340.457 212.562 408.29 258.023 440.816 324.023C447.7 337.992 463.658 344.872 478.45 339.933C496.134 334.046 505.146 313.835 496.939 297.098C454.386 210.17 365.251 150.232 261.91 150.232C194.044 150.232 132.475 176.233 86.065 218.638C56.4645 189.038 22.8566 155.429 21.3305 153.904C18.8985 151.471 15.6938 150.232 12.5011 150.232Z" fill="#ffffff" fill-rule="evenodd" opacity="1" stroke="none"/>
</g>
</svg>
