<?xml version="1.0" encoding="UTF-8" standalone="no"?>
<!DOCTYPE svg PUBLIC "-//W3C//DTD SVG 1.1//EN" "http://www.w3.org/Graphics/SVG/1.1/DTD/svg11.dtd">
<!-- Created with Vectornator (http://vectornator.io/) -->
<svg stroke-miterlimit="10" style="fill-rule:nonzero;clip-rule:evenodd;stroke-linecap:round;stroke-linejoin:round;" version="1.1" viewBox="0 0 500 500" xml:space="preserve" xmlns="http://www.w3.org/2000/svg" xmlns:xlink="http://www.w3.org/1999/xlink">
<defs/>
<g id="Layer-1">
<g opacity="1">
<path d="M489.651 439.501L350.006 299.856L300.007 299.856L300.007 349.855L439.652 489.5C453.452 503.299 475.851 503.299 489.651 489.5L489.651 489.5C503.45 475.7 503.45 453.301 489.651 439.501Z" fill="#ffffff" fill-rule="evenodd" opacity="1" stroke="none"/>
<path d="M174.993 0.150675C78.3474 0.150675-0.00041301 78.4979 0 175.145C-0.00013767 271.791 78.3474 350.138 174.993 350.138C271.641 350.138 349.988 271.791 349.988 175.145C349.988 78.4979 271.641 0.150812 174.993 0.150675ZM174.993 50.1489C244.027 50.1489 299.989 106.112 299.989 175.145C299.989 244.177 244.028 300.141 174.993 300.141C105.961 300.141 49.9978 244.177 49.9978 175.145C49.9978 106.112 105.961 50.1489 174.993 50.1489Z" fill="#ffffff" fill-rule="evenodd" opacity="1" stroke="none"/>
<path d="M283.583 265.767L266.397 283.734L328.895 346.233L346.082 328.264L283.583 265.767Z" fill="#ffffff" fill-rule="evenodd" opacity="1" stroke="none"/>
<path d="M174.993 100.147C161.188 100.147 149.995 111.339 149.995 125.146L149.995 225.143C149.995 238.95 161.188 250.142 174.993 250.142C188.8 250.142 199.994 238.95 199.994 225.143L199.994 125.146C199.994 111.339 188.8 100.147 174.993 100.147ZM124.996 150.145C111.189 150.145 99.9969 161.338 99.9969 175.145C99.9969 188.951 111.189 200.144 124.996 200.144L224.992 200.144C238.799 200.144 249.991 188.951 249.991 175.145C249.991 161.338 238.799 150.145 224.992 150.145L124.996 150.145Z" fill="#ffffff" fill-rule="evenodd" opacity="1" stroke="none"/>
<path d="M175.153 100.004C161.346 100.004 150.168 111.182 150.168 124.989L150.168 150.017L125.14 150.017C111.333 150.017 100.154 161.195 100.155 175.002C100.155 188.809 111.333 199.987 125.14 199.987L150.168 199.987L150.168 225.015C150.168 238.822 161.346 250 175.153 250C188.96 250 200.138 238.822 200.138 225.015L200.138 199.987L225.166 199.987C238.973 199.987 250.151 188.809 250.151 175.002C250.151 161.195 238.973 150.017 225.166 150.017L200.138 150.017L200.138 124.989C200.138 111.182 188.96 100.003 175.153 100.004Z" fill="#ffffff" fill-rule="evenodd" opacity="1" stroke="none"/>
</g>
</g>
</svg>
