<?xml version="1.0" encoding="UTF-8" standalone="no"?>
<!DOCTYPE svg PUBLIC "-//W3C//DTD SVG 1.1//EN" "http://www.w3.org/Graphics/SVG/1.1/DTD/svg11.dtd">
<!-- Created with Vectornator (http://vectornator.io/) -->
<svg stroke-miterlimit="10" style="fill-rule:nonzero;clip-rule:evenodd;stroke-linecap:round;stroke-linejoin:round;" version="1.1" viewBox="0 0 500 500" xml:space="preserve" xmlns="http://www.w3.org/2000/svg" xmlns:xlink="http://www.w3.org/1999/xlink">
<defs/>
<g id="Layer-1">
<path d="M432.544 376.523L331.939 275.918L295.918 275.918L295.918 311.939L396.523 412.544C406.465 422.485 422.602 422.485 432.544 412.544L432.544 412.544C442.485 402.602 442.485 386.465 432.544 376.523Z" fill="#ffffff" fill-rule="evenodd" opacity="1" stroke="none"/>
<path d="M205.854 60C136.227 60 79.7826 116.444 79.7829 186.072C79.7828 255.699 136.227 312.143 205.854 312.143C275.482 312.143 331.926 255.699 331.926 186.072C331.926 116.444 275.482 60.0001 205.854 60ZM205.854 96.0204C255.588 96.0204 295.905 136.338 295.905 186.072C295.905 235.805 255.589 276.123 205.854 276.123C156.121 276.123 115.803 235.805 115.803 186.072C115.803 136.338 156.121 96.0204 205.854 96.0204Z" fill="#ffffff" fill-rule="evenodd" opacity="1" stroke="none"/>
<path d="M284.086 251.359L271.704 264.303L316.73 309.329L329.112 296.384L284.086 251.359Z" fill="#ffffff" fill-rule="evenodd" opacity="1" stroke="none"/>
<path d="M205.854 132.041C195.908 132.041 187.844 140.104 187.844 150.051L187.844 222.092C187.844 232.039 195.908 240.102 205.854 240.102C215.801 240.102 223.865 232.039 223.865 222.092L223.865 150.051C223.865 140.104 215.801 132.041 205.854 132.041ZM169.834 168.061C159.887 168.061 151.824 176.125 151.824 186.072C151.824 196.018 159.887 204.082 169.834 204.082L241.875 204.082C251.822 204.082 259.885 196.018 259.885 186.072C259.885 176.125 251.822 168.061 241.875 168.061L169.834 168.061Z" fill="#ffffff" fill-rule="evenodd" opacity="1" stroke="none"/>
<path d="M205.969 131.938C196.022 131.938 187.969 139.991 187.969 149.938L187.969 167.969L169.938 167.969C159.991 167.969 151.937 176.022 151.938 185.969C151.938 195.916 159.991 203.969 169.938 203.969L187.969 203.969L187.969 222C187.969 231.947 196.022 240 205.969 240C215.916 240 223.969 231.947 223.969 222L223.969 203.969L242 203.969C251.947 203.969 260 195.916 260 185.969C260 176.022 251.947 167.969 242 167.969L223.969 167.969L223.969 149.938C223.969 139.991 215.916 131.937 205.969 131.938Z" fill="#ffffff" fill-rule="evenodd" opacity="1" stroke="none"/>
</g>
</svg>
