{
    "asset" : {
        "generator" : "Khronos glTF Blender I/O v3.2.43",
        "version" : "2.0"
    },
    "scene" : 0,
    "scenes" : [
        {
            "name" : "Scene",
            "nodes" : [
                0
            ]
        }
    ],
    "nodes" : [
        {
            "mesh" : 0,
            "name" : "PetBed01"
        }
    ],
    "materials" : [
        {
            "doubleSided" : true,
            "name" : "Material",
            "pbrMetallicRoughness" : {
                "baseColorFactor" : [
                    0.800000011920929,
                    0.800000011920929,
                    0.800000011920929,
                    1
                ],
                "metallicFactor" : 0
            }
        }
    ],
    "meshes" : [
        {
            "extras" : {
                "targetNames" : [
                    "Roundness",
                    "WallHeight"
                ]
            },
            "name" : "Cube",
            "primitives" : [
                {
                    "attributes" : {
                        "POSITION" : 0,
                        "NORMAL" : 1,
                        "TEXCOORD_0" : 2
                    },
                    "indices" : 3,
                    "material" : 0,
                    "targets" : [
                        {
                            "POSITION" : 4,
                            "NORMAL" : 5
                        },
                        {
                            "POSITION" : 6,
                            "NORMAL" : 7
                        }
                    ]
                }
            ],
            "weights" : [
                0,
                1
            ]
        }
    ],
    "accessors" : [
        {
            "bufferView" : 0,
            "componentType" : 5126,
            "count" : 154,
            "max" : [
                2.0532748699188232,
                0.48960673809051514,
                1.5364044904708862
            ],
            "min" : [
                -2.0532748699188232,
                -0.3999999761581421,
                -1.5435078144073486
            ],
            "type" : "VEC3"
        },
        {
            "bufferView" : 1,
            "componentType" : 5126,
            "count" : 154,
            "type" : "VEC3"
        },
        {
            "bufferView" : 2,
            "componentType" : 5126,
            "count" : 154,
            "type" : "VEC2"
        },
        {
            "bufferView" : 3,
            "componentType" : 5123,
            "count" : 630,
            "type" : "SCALAR"
        },
        {
            "bufferView" : 4,
            "componentType" : 5126,
            "count" : 154,
            "max" : [
                0.29772496223449707,
                0.0010415315628051758,
                0.4201720952987671
            ],
            "min" : [
                -0.29772496223449707,
                -0.0015356838703155518,
                -0.22641527652740479
            ],
            "type" : "VEC3"
        },
        {
            "bufferView" : 5,
            "componentType" : 5126,
            "count" : 154,
            "type" : "VEC3"
        },
        {
            "bufferView" : 6,
            "componentType" : 5126,
            "count" : 154,
            "max" : [
                0.03223836421966553,
                0.45381250977516174,
                0.18179690837860107
            ],
            "min" : [
                -0.03223836421966553,
                0,
                -0.0019143223762512207
            ],
            "type" : "VEC3"
        },
        {
            "bufferView" : 7,
            "componentType" : 5126,
            "count" : 154,
            "type" : "VEC3"
        }
    ],
    "bufferViews" : [
        {
            "buffer" : 0,
            "byteLength" : 1848,
            "byteOffset" : 0
        },
        {
            "buffer" : 0,
            "byteLength" : 1848,
            "byteOffset" : 1848
        },
        {
            "buffer" : 0,
            "byteLength" : 1232,
            "byteOffset" : 3696
        },
        {
            "buffer" : 0,
            "byteLength" : 1260,
            "byteOffset" : 4928
        },
        {
            "buffer" : 0,
            "byteLength" : 1848,
            "byteOffset" : 6188
        },
        {
            "buffer" : 0,
            "byteLength" : 1848,
            "byteOffset" : 8036
        },
        {
            "buffer" : 0,
            "byteLength" : 1848,
            "byteOffset" : 9884
        },
        {
            "buffer" : 0,
            "byteLength" : 1848,
            "byteOffset" : 11732
        }
    ],
    "buffers" : [
        {
            "byteLength" : 13580,
            "uri" : "pet_bed_01.bin"
        }
    ]
}
