{
    "asset" : {
        "generator" : "Khronos glTF Blender I/O v3.2.43",
        "version" : "2.0"
    },
    "scene" : 0,
    "scenes" : [
        {
            "name" : "Scene",
            "nodes" : [
                0
            ]
        }
    ],
    "nodes" : [
        {
            "mesh" : 0,
            "name" : "PlantPot01",
            "translation" : [
                0,
                1,
                0
            ]
        }
    ],
    "materials" : [
        {
            "doubleSided" : true,
            "name" : "Material",
            "pbrMetallicRoughness" : {
                "baseColorFactor" : [
                    0.800000011920929,
                    0.800000011920929,
                    0.800000011920929,
                    1
                ],
                "metallicFactor" : 0,
                "roughnessFactor" : 0.4000000059604645
            }
        }
    ],
    "meshes" : [
        {
            "extras" : {
                "targetNames" : [
                    "Rim",
                    "Ring1",
                    "Ring2",
                    "Ring3",
                    "Bottom",
                    "Height"
                ]
            },
            "name" : "Cube",
            "primitives" : [
                {
                    "attributes" : {
                        "POSITION" : 0,
                        "NORMAL" : 1,
                        "TEXCOORD_0" : 2
                    },
                    "indices" : 3,
                    "material" : 0,
                    "targets" : [
                        {
                            "POSITION" : 4,
                            "NORMAL" : 5
                        },
                        {
                            "POSITION" : 6,
                            "NORMAL" : 7
                        },
                        {
                            "POSITION" : 8,
                            "NORMAL" : 9
                        },
                        {
                            "POSITION" : 10,
                            "NORMAL" : 11
                        },
                        {
                            "POSITION" : 12,
                            "NORMAL" : 13
                        },
                        {
                            "POSITION" : 14,
                            "NORMAL" : 15
                        }
                    ]
                }
            ],
            "weights" : [
                0,
                0,
                0,
                0,
                0,
                0
            ]
        }
    ],
    "accessors" : [
        {
            "bufferView" : 0,
            "componentType" : 5126,
            "count" : 222,
            "max" : [
                1,
                1,
                1
            ],
            "min" : [
                -1,
                -1,
                -1
            ],
            "type" : "VEC3"
        },
        {
            "bufferView" : 1,
            "componentType" : 5126,
            "count" : 222,
            "type" : "VEC3"
        },
        {
            "bufferView" : 2,
            "componentType" : 5126,
            "count" : 222,
            "type" : "VEC2"
        },
        {
            "bufferView" : 3,
            "componentType" : 5123,
            "count" : 1056,
            "type" : "SCALAR"
        },
        {
            "bufferView" : 4,
            "componentType" : 5126,
            "count" : 222,
            "max" : [
                0.5208597779273987,
                0,
                0.5208597779273987
            ],
            "min" : [
                -0.5208597779273987,
                0,
                -0.5208597779273987
            ],
            "type" : "VEC3"
        },
        {
            "bufferView" : 5,
            "componentType" : 5126,
            "count" : 222,
            "type" : "VEC3"
        },
        {
            "bufferView" : 6,
            "componentType" : 5126,
            "count" : 222,
            "max" : [
                0.5,
                0.012500107288360596,
                0.5
            ],
            "min" : [
                -0.5,
                -0.012499868869781494,
                -0.5
            ],
            "type" : "VEC3"
        },
        {
            "bufferView" : 7,
            "componentType" : 5126,
            "count" : 222,
            "type" : "VEC3"
        },
        {
            "bufferView" : 8,
            "componentType" : 5126,
            "count" : 222,
            "max" : [
                0.5,
                0.024999916553497314,
                0.5
            ],
            "min" : [
                -0.5,
                -0.02500009536743164,
                -0.5
            ],
            "type" : "VEC3"
        },
        {
            "bufferView" : 9,
            "componentType" : 5126,
            "count" : 222,
            "type" : "VEC3"
        },
        {
            "bufferView" : 10,
            "componentType" : 5126,
            "count" : 222,
            "max" : [
                0.5,
                0.03750002384185791,
                0.5
            ],
            "min" : [
                -0.5,
                -0.03750002384185791,
                -0.5
            ],
            "type" : "VEC3"
        },
        {
            "bufferView" : 11,
            "componentType" : 5126,
            "count" : 222,
            "type" : "VEC3"
        },
        {
            "bufferView" : 12,
            "componentType" : 5126,
            "count" : 222,
            "max" : [
                0.5,
                0.050000011920928955,
                0.5
            ],
            "min" : [
                -0.5,
                -0.04999995231628418,
                -0.5
            ],
            "type" : "VEC3"
        },
        {
            "bufferView" : 13,
            "componentType" : 5126,
            "count" : 222,
            "type" : "VEC3"
        },
        {
            "bufferView" : 14,
            "componentType" : 5126,
            "count" : 222,
            "max" : [
                0,
                1,
                0
            ],
            "min" : [
                0,
                0,
                0
            ],
            "type" : "VEC3"
        },
        {
            "bufferView" : 15,
            "componentType" : 5126,
            "count" : 222,
            "type" : "VEC3"
        }
    ],
    "bufferViews" : [
        {
            "buffer" : 0,
            "byteLength" : 2664,
            "byteOffset" : 0
        },
        {
            "buffer" : 0,
            "byteLength" : 2664,
            "byteOffset" : 2664
        },
        {
            "buffer" : 0,
            "byteLength" : 1776,
            "byteOffset" : 5328
        },
        {
            "buffer" : 0,
            "byteLength" : 2112,
            "byteOffset" : 7104
        },
        {
            "buffer" : 0,
            "byteLength" : 2664,
            "byteOffset" : 9216
        },
        {
            "buffer" : 0,
            "byteLength" : 2664,
            "byteOffset" : 11880
        },
        {
            "buffer" : 0,
            "byteLength" : 2664,
            "byteOffset" : 14544
        },
        {
            "buffer" : 0,
            "byteLength" : 2664,
            "byteOffset" : 17208
        },
        {
            "buffer" : 0,
            "byteLength" : 2664,
            "byteOffset" : 19872
        },
        {
            "buffer" : 0,
            "byteLength" : 2664,
            "byteOffset" : 22536
        },
        {
            "buffer" : 0,
            "byteLength" : 2664,
            "byteOffset" : 25200
        },
        {
            "buffer" : 0,
            "byteLength" : 2664,
            "byteOffset" : 27864
        },
        {
            "buffer" : 0,
            "byteLength" : 2664,
            "byteOffset" : 30528
        },
        {
            "buffer" : 0,
            "byteLength" : 2664,
            "byteOffset" : 33192
        },
        {
            "buffer" : 0,
            "byteLength" : 2664,
            "byteOffset" : 35856
        },
        {
            "buffer" : 0,
            "byteLength" : 2664,
            "byteOffset" : 38520
        }
    ],
    "buffers" : [
        {
            "byteLength" : 41184,
            "uri" : "data:application/octet-stream;base64,"
        }
    ]
}
