<?xml version="1.0" encoding="UTF-8" standalone="no"?>
<!DOCTYPE svg PUBLIC "-//W3C//DTD SVG 1.1//EN" "http://www.w3.org/Graphics/SVG/1.1/DTD/svg11.dtd">
<!-- Created with Vectornator (http://vectornator.io/) -->
<svg stroke-miterlimit="10" style="fill-rule:nonzero;clip-rule:evenodd;stroke-linecap:round;stroke-linejoin:round;" version="1.1" viewBox="0 0 500 500" xml:space="preserve" xmlns="http://www.w3.org/2000/svg" xmlns:xlink="http://www.w3.org/1999/xlink">
<defs/>
<g id="Layer-1">
<g opacity="1">
<path d="M397.706 5.68434e-14L102.294 5.68434e-14C85.972 5.68434e-14 72.7523 13.2197 72.7523 29.5413L72.7523 118.165C72.7523 134.487 85.972 147.706 102.294 147.706L397.706 147.706C414.028 147.706 427.248 134.487 427.248 118.165L427.248 29.5413C427.248 13.2197 414.028 5.68434e-14 397.706 5.68434e-14ZM176.147 96.0092C163.917 96.0092 153.991 86.0833 153.991 73.8532C153.991 61.6231 163.917 51.6972 176.147 51.6972C188.377 51.6972 198.303 61.6231 198.303 73.8532C198.303 86.0833 188.377 96.0092 176.147 96.0092ZM250 96.0092C237.77 96.0092 227.844 86.0833 227.844 73.8532C227.844 61.6231 237.77 51.6972 250 51.6972C262.23 51.6972 272.156 61.6231 272.156 73.8532C272.156 86.0833 262.23 96.0092 250 96.0092ZM323.853 96.0092C311.623 96.0092 301.697 86.0833 301.697 73.8532C301.697 61.6231 311.623 51.6972 323.853 51.6972C336.083 51.6972 346.009 61.6231 346.009 73.8532C346.009 86.0833 336.083 96.0092 323.853 96.0092Z" fill="#8eef97" fill-rule="evenodd" opacity="1" stroke="none"/>
<path d="M397.706 176.147L102.294 176.147C85.972 176.147 72.7523 189.367 72.7523 205.688L72.7523 294.312C72.7523 310.633 85.972 323.853 102.294 323.853L397.706 323.853C414.028 323.853 427.248 310.633 427.248 294.312L427.248 205.688C427.248 189.367 414.028 176.147 397.706 176.147ZM176.147 272.156C163.917 272.156 153.991 262.23 153.991 250C153.991 237.77 163.917 227.844 176.147 227.844C188.377 227.844 198.303 237.77 198.303 250C198.303 262.23 188.377 272.156 176.147 272.156ZM250 272.156C237.77 272.156 227.844 262.23 227.844 250C227.844 237.77 237.77 227.844 250 227.844C262.23 227.844 272.156 237.77 272.156 250C272.156 262.23 262.23 272.156 250 272.156ZM323.853 272.156C311.623 272.156 301.697 262.23 301.697 250C301.697 237.77 311.623 227.844 323.853 227.844C336.083 227.844 346.009 237.77 346.009 250C346.009 262.23 336.083 272.156 323.853 272.156Z" fill="#8eef97" fill-rule="evenodd" opacity="1" stroke="none"/>
<path d="M397.706 352.294L102.294 352.294C85.972 352.294 72.7523 365.513 72.7523 381.835L72.7523 470.459C72.7523 486.78 85.972 500 102.294 500L397.706 500C414.028 500 427.248 486.78 427.248 470.459L427.248 381.835C427.248 365.513 414.028 352.294 397.706 352.294ZM176.147 448.303C163.917 448.303 153.991 438.377 153.991 426.147C153.991 413.917 163.917 403.991 176.147 403.991C188.377 403.991 198.303 413.917 198.303 426.147C198.303 438.377 188.377 448.303 176.147 448.303ZM250 448.303C237.77 448.303 227.844 438.377 227.844 426.147C227.844 413.917 237.77 403.991 250 403.991C262.23 403.991 272.156 413.917 272.156 426.147C272.156 438.377 262.23 448.303 250 448.303ZM323.853 448.303C311.623 448.303 301.697 438.377 301.697 426.147C301.697 413.917 311.623 403.991 323.853 403.991C336.083 403.991 346.009 413.917 346.009 426.147C346.009 438.377 336.083 448.303 323.853 448.303Z" fill="#8eef97" fill-rule="evenodd" opacity="1" stroke="none"/>
</g>
</g>
</svg>
