# Blender v3.2.1 OBJ File: 'chopped_sphere.blend'
# www.blender.org
mtllib chopped_sphere_slice_04.mtl
o fully_chopped.004_Cube.008
v -0.565364 0.000000 1.167459
v -0.403876 0.370287 1.144083
v -0.236921 0.000000 1.302252
v 0.000000 0.000000 1.167459
v -0.403876 -0.370287 1.144083
v 0.000000 -0.590839 1.167459
v -0.180983 -0.164191 1.283182
v 0.000000 -0.235574 1.320594
v 0.000000 0.000000 1.320594
v 0.180983 -0.164191 1.283182
v 0.236921 0.000000 1.302252
v 0.403876 -0.370287 1.144083
v 0.565364 0.000000 1.167459
v 0.403876 0.370287 1.144083
v 0.000000 0.590839 1.167459
v 0.180983 0.164191 1.283182
v 0.000000 0.235574 1.320594
v -0.180983 0.164191 1.283182
vt 0.750000 0.750000
vt 0.000000 0.000000
vt 0.500000 0.000000
vt 0.875000 0.750000
vt 0.625000 0.000000
vt 0.500000 0.000000
vt 0.625000 0.000000
vt 0.625000 0.000000
vt 0.625000 0.000000
vt 0.750000 0.750000
vt 0.875000 0.750000
vt 0.750000 0.750000
vt 0.875000 0.750000
vt 0.000000 0.000000
vt 0.875000 0.750000
vt 0.875000 0.750000
vt 0.500000 0.000000
vt 0.625000 0.000000
vt 0.500000 0.000000
vt 0.625000 0.000000
vt 0.875000 0.750000
vt 0.625000 0.000000
vt 0.625000 0.000000
vt 0.750000 0.750000
vt 0.875000 0.750000
vt 0.875000 0.750000
vn 0.0000 0.9899 -0.1419
vn 0.0000 0.0000 -1.0000
vn -0.9894 -0.0000 -0.1449
vn -0.7225 0.6527 -0.2277
vn -0.2820 0.0000 0.9594
vn -0.2593 0.2137 0.9419
vn -0.7225 -0.6527 -0.2277
vn -0.2593 -0.2137 0.9419
vn 0.0000 -0.9899 -0.1419
vn -0.0000 -0.2520 0.9677
vn 0.0000 0.0000 1.0000
vn 0.7225 -0.6527 -0.2277
vn 0.2593 -0.2137 0.9419
vn 0.2820 0.0000 0.9594
vn 0.9894 0.0000 -0.1449
vn 0.7225 0.6527 -0.2277
vn 0.2593 0.2137 0.9419
vn 0.0000 0.2520 0.9677
usemtl None
s 1
f 15/1/1 4/2/2 1/3/3 2/4/4
f 2/5/4 1/3/3 3/6/5 18/7/6
f 5/8/7 7/9/8 3/6/5 1/3/3
f 6/10/9 5/11/7 1/3/3 4/2/2
f 6/10/9 8/12/10 7/13/8 5/11/7
f 9/14/11 3/6/5 7/13/8 8/12/10
f 6/10/9 12/15/12 10/16/13 8/12/10
f 9/14/11 8/12/10 10/16/13 11/17/14
f 12/18/12 13/19/15 11/17/14 10/20/13
f 6/10/9 4/2/2 13/19/15 12/15/12
f 15/1/1 14/21/16 13/19/15 4/2/2
f 14/22/16 16/23/17 11/17/14 13/19/15
f 15/1/1 17/24/18 16/25/17 14/21/16
f 9/14/11 11/17/14 16/25/17 17/24/18
f 9/14/11 17/24/18 18/26/6 3/6/5
f 15/1/1 2/4/4 18/26/6 17/24/18
