# Blender v3.2.1 OBJ File: 'chopped_sphere.blend'
# www.blender.org
mtllib chopped_sphere_slice_01.mtl
o fully_chopped.001_Cube.005
v -0.737873 0.716152 0.100000
v -0.706867 0.682513 0.426786
v -0.941501 0.000000 0.100000
v 0.000000 1.000000 0.100000
v 0.000000 0.951308 0.408055
v 0.000000 0.000000 0.100000
v 0.737873 0.716152 0.100000
v 0.706867 0.682513 0.426786
v 0.941501 0.000000 0.100000
v 0.899446 0.000000 0.408055
v 0.737873 -0.716152 0.100000
v 0.706867 -0.682513 0.426786
v 0.000000 -1.000000 0.100000
v -0.737873 -0.716152 0.100000
v 0.000000 -0.951308 0.408055
v -0.706867 -0.682513 0.426786
v 0.000000 0.000000 0.408055
v -0.899446 0.000000 0.408055
vt 0.500000 0.000000
vt 0.625000 0.000000
vt 0.625000 0.125000
vt 0.500000 0.125000
vt 0.750000 0.750000
vt 0.750000 0.625000
vt 0.875000 0.625000
vt 0.875000 0.750000
vt 0.000000 0.000000
vt 0.875000 0.750000
vt 0.875000 0.625000
vt 0.500000 0.125000
vt 0.625000 0.125000
vt 0.500000 0.000000
vt 0.625000 0.000000
vt 0.625000 0.000000
vt 0.625000 0.125000
vt 0.750000 0.625000
vt 0.750000 0.750000
vt 0.875000 0.625000
vt 0.875000 0.750000
vt 0.625000 0.125000
vt 0.875000 0.750000
vt 0.875000 0.625000
vt 0.000000 0.000000
vt 0.625000 0.000000
vn -0.7173 0.0000 0.6968
vn -0.5404 0.4905 0.6837
vn -0.6082 0.5597 -0.5630
vn -0.7988 0.0000 -0.6016
vn 0.0000 0.7257 0.6880
vn -0.0000 0.8154 -0.5789
vn 0.0000 0.0000 -1.0000
vn 0.5404 0.4905 0.6837
vn 0.6082 0.5597 -0.5630
vn 0.7988 -0.0000 -0.6016
vn 0.7173 -0.0000 0.6968
vn 0.5404 -0.4905 0.6837
vn 0.6082 -0.5597 -0.5630
vn 0.0000 -0.8154 -0.5789
vn 0.0000 -0.7257 0.6880
vn -0.6082 -0.5597 -0.5630
vn -0.5404 -0.4905 0.6837
vn 0.0000 0.0000 1.0000
usemtl None
s 1
f 18/1/1 2/2/2 1/3/3 3/4/4
f 5/5/5 4/6/6 1/7/3 2/8/2
f 3/4/4 1/3/3 4/6/6 6/9/7
f 5/5/5 8/10/8 7/11/9 4/6/6
f 9/12/10 6/9/7 4/6/6 7/13/9
f 10/14/11 9/12/10 7/13/9 8/15/8
f 10/14/11 12/16/12 11/17/13 9/12/10
f 9/12/10 11/17/13 13/18/14 6/9/7
f 15/19/15 13/18/14 11/20/13 12/21/12
f 3/4/4 6/9/7 13/18/14 14/22/16
f 15/19/15 16/23/17 14/24/16 13/18/14
f 17/25/18 18/1/1 16/23/17 15/19/15
f 17/25/18 15/19/15 12/21/12 10/14/11
f 17/25/18 10/14/11 8/10/8 5/5/5
f 17/25/18 5/5/5 2/8/2 18/1/1
f 18/1/1 3/4/4 14/22/16 16/26/17
