# Blender v3.2.1 OBJ File: 'chopped_sphere.blend'
# www.blender.org
mtllib chopped_sphere_slice_03.mtl
o fully_chopped.003_Cube.006
v -0.403876 0.370287 1.044083
v -0.561228 0.548964 0.861058
v -0.565364 0.000000 1.067459
v 0.000000 0.590839 1.067459
v 0.000000 0.817192 0.865966
v 0.000000 0.000000 1.067459
v 0.403876 0.370287 1.044083
v 0.561228 0.548964 0.861058
v 0.565364 0.000000 1.067459
v 0.752158 0.000000 0.865966
v 0.403876 -0.370287 1.044083
v 0.561228 -0.548964 0.861058
v 0.000000 -0.590839 1.067459
v 0.000000 -0.817192 0.865966
v -0.403876 -0.370287 1.044083
v -0.561228 -0.548964 0.861058
v -0.752158 0.000000 0.865966
v 0.000000 0.000000 0.865966
vt 0.625000 0.000000
vt 0.500000 0.000000
vt 0.500000 0.000000
vt 0.625000 0.000000
vt 0.750000 0.750000
vt 0.875000 0.750000
vt 0.875000 0.750000
vt 0.750000 0.750000
vt 0.000000 0.000000
vt 0.875000 0.750000
vt 0.875000 0.750000
vt 0.500000 0.000000
vt 0.625000 0.000000
vt 0.625000 0.000000
vt 0.500000 0.000000
vt 0.625000 0.000000
vt 0.625000 0.000000
vt 0.750000 0.750000
vt 0.875000 0.750000
vt 0.750000 0.750000
vt 0.875000 0.750000
vt 0.875000 0.750000
vt 0.875000 0.750000
vt 0.625000 0.000000
vt 0.625000 0.000000
vt 0.000000 0.000000
vn -0.6966 0.6482 -0.3077
vn -0.9531 0.0000 -0.3027
vn -0.4445 0.0000 0.8958
vn -0.3318 0.2850 0.8992
vn 0.0000 0.9662 -0.2576
vn -0.0000 0.4174 0.9087
vn 0.0000 0.0000 1.0000
vn 0.3318 0.2850 0.8992
vn 0.6966 0.6482 -0.3077
vn 0.4445 0.0000 0.8958
vn 0.9531 -0.0000 -0.3027
vn 0.6966 -0.6482 -0.3077
vn 0.3318 -0.2850 0.8992
vn 0.0000 -0.4174 0.9087
vn 0.0000 -0.9662 -0.2576
vn -0.3318 -0.2850 0.8992
vn -0.6966 -0.6482 -0.3077
vn 0.0000 0.0000 -1.0000
usemtl None
s 1
f 2/1/1 17/2/2 3/3/3 1/4/4
f 5/5/5 2/6/1 1/7/4 4/8/6
f 6/9/7 4/8/6 1/7/4 3/3/3
f 5/5/5 4/8/6 7/10/8 8/11/9
f 6/9/7 9/12/10 7/10/8 4/8/6
f 8/13/9 7/14/8 9/12/10 10/15/11
f 12/16/12 10/15/11 9/12/10 11/17/13
f 6/9/7 13/18/14 11/19/13 9/12/10
f 14/20/15 12/21/12 11/19/13 13/18/14
f 14/20/15 13/18/14 15/22/16 16/23/17
f 6/9/7 3/3/3 15/22/16 13/18/14
f 16/24/17 15/25/16 3/3/3 17/2/2
f 18/26/18 14/20/15 16/23/17 17/2/2
f 18/26/18 17/2/2 2/6/1 5/5/5
f 18/26/18 5/5/5 8/11/9 10/15/11
f 18/26/18 10/15/11 12/21/12 14/20/15
