# Blender v3.2.1 OBJ File: 'chopped_sphere.blend'
# www.blender.org
mtllib chopped_sphere_slice_05.mtl
o fully_chopped.005_Cube.007
v -0.180983 0.164191 1.383182
v 0.000000 0.000000 1.453232
v -0.236921 0.000000 1.402252
v 0.000000 0.235574 1.420594
v 0.000000 0.000000 1.420594
v 0.180983 0.164191 1.383182
v 0.236921 0.000000 1.402252
v 0.180983 -0.164191 1.383182
v 0.000000 -0.235574 1.420594
v -0.180983 -0.164191 1.383182
vt 0.500000 1.000000
vt 0.500000 0.875000
vt 0.625000 1.000000
vt 0.625000 0.875000
vt 0.000000 0.000000
vt 0.625000 1.000000
vt 0.500000 1.000000
vt 0.625000 1.000000
vt 0.625000 0.875000
vt 0.625000 1.000000
vn -0.9903 0.0000 -0.1392
vn 0.0000 0.0000 1.0000
vn -0.6674 0.7155 -0.2064
vn 0.0000 0.9987 -0.0514
vn 0.0000 0.0000 -1.0000
vn 0.6674 0.7155 -0.2064
vn 0.9903 0.0000 -0.1392
vn 0.6674 -0.7155 -0.2064
vn 0.0000 -0.9987 -0.0514
vn -0.6674 -0.7155 -0.2064
usemtl None
s 1
f 3/1/1 2/2/2 1/3/3
f 2/2/2 4/4/4 1/3/3
f 5/5/5 3/1/1 1/3/3 4/4/4
f 2/2/2 6/6/6 4/4/4
f 5/5/5 4/4/4 6/6/6 7/7/7
f 7/7/7 6/6/6 2/2/2
f 7/7/7 2/2/2 8/8/8
f 5/5/5 7/7/7 8/8/8 9/9/9
f 2/2/2 9/9/9 8/8/8
f 2/2/2 10/10/10 9/9/9
f 5/5/5 9/9/9 10/10/10 3/1/1
f 3/1/1 10/10/10 2/2/2
