# Blender v3.0.1 OBJ File: 'building_01_tile_set.blend'
# www.blender.org
mtllib building_01_center_tile.mtl
o center_Cube.015
v 1.000000 0.000000 1.009073
v -1.000000 -0.000009 0.999973
v 1.000000 0.103320 0.999973
v -1.000000 0.103320 0.999973
v -1.000000 0.103320 -1.000027
v 1.000000 0.103320 -1.000027
v 1.000000 -0.000009 -1.000027
v -1.000000 -0.000009 -1.000027
vt 1.000000 1.000000
vt 1.000000 0.001337
vt 0.934667 0.001337
vt 0.933333 1.000000
vt 0.000000 1.000000
vt -0.000000 0.000000
vt 1.000000 1.000000
vt 1.000000 0.001337
vt 0.064667 0.000000
vt 0.064667 1.000000
vt 1.000000 0.935829
vt 0.000000 0.935829
vt -0.000000 0.059492
vt 1.000000 0.059492
vt 1.000000 0.000000
vn 1.0000 0.0000 0.0000
vn 0.0000 1.0000 0.0000
vn 0.0000 -1.0000 0.0000
vn -1.0000 0.0000 0.0000
vn 0.0000 0.0000 -1.0000
vn -0.0023 0.0440 0.9990
usemtl Floor
s off
f 6/1/1 3/2/1 1/3/1 7/4/1
f 5/5/2 4/6/2 3/2/2 6/1/2
f 7/7/3 1/8/3 2/9/3 8/10/3
f 8/10/4 2/9/4 4/6/4 5/5/4
f 5/5/5 6/1/5 7/11/5 8/12/5
f 4/6/6 2/13/6 1/14/6 3/15/6
