# Blender v3.0.1 OBJ File: 'building_01_tile_set.blend'
# www.blender.org
mtllib building_01_corner_tile.mtl
o corner_Cube.005
v 1.000000 4.000000 0.967495
v -0.967495 4.000000 -1.000000
v 1.000000 0.000000 -1.000000
v 1.000000 4.000000 0.851544
v -0.851544 4.000000 -1.000000
v -0.967495 4.000000 0.870154
v -0.870154 4.000000 0.967495
v -0.967815 1.933413 -1.000000
v -0.919707 2.065080 -1.000000
v 1.000000 2.065080 0.919707
v 1.000000 1.933413 0.967815
v -0.854920 1.933413 0.967815
v -0.816340 2.065079 0.919707
v -0.919706 2.065079 0.816340
v -0.967815 1.933413 0.854920
v -0.861212 2.082863 0.768686
v -0.861213 2.082864 -1.000000
v 1.000000 2.082864 0.861213
v -0.768686 2.082863 0.861213
v 1.000000 0.103320 0.675619
v -0.675619 0.103320 -1.000000
v 1.000000 0.103320 -1.000000
v -0.775375 4.000000 0.851544
v -0.851544 4.000000 0.775375
v -0.675619 0.103320 0.599450
v -0.599450 0.103320 0.675619
v 1.000000 0.114735 0.809959
v 1.000000 0.000000 0.684719
v -0.684719 0.000000 -1.000000
v -0.809959 0.114735 -1.000000
v -0.654909 0.000000 0.684719
v -0.711695 0.114730 0.809958
v -0.809958 0.114730 0.711695
v -0.684719 -0.000000 0.654909
vt 0.998667 1.001337
vt 0.500667 1.001337
vt 0.500667 -0.001337
vt 0.998667 -0.001337
vt 0.514000 -0.001337
vt 0.514000 1.001337
vt 0.486667 1.001337
vt 0.486667 -0.001337
vt 0.500667 1.001337
vt 0.001333 1.001337
vt 0.001333 -0.001337
vt 0.500667 -0.001337
vt 0.162000 1.000000
vt 0.164000 0.207888
vt 0.192667 0.162433
vt 1.000000 0.162433
vt 0.999333 1.000000
vt 0.162667 0.999332
vt 0.999333 1.000000
vt 0.999333 0.161765
vt 0.176000 0.161096
vt 0.162000 0.169118
vt 0.999333 0.937166
vt 0.162000 0.937166
vt 0.925333 0.162433
vt 0.999333 0.162433
vt 0.924000 1.000000
vt 0.486667 1.001337
vt 0.514000 1.001337
vt 0.514000 0.962567
vt 0.486667 0.962567
vt 0.998667 0.961898
vt 0.499333 0.961230
vt 0.499333 1.001337
vt 0.998667 1.001337
vt 0.998667 0.000000
vt 0.998667 1.001337
vt 0.946000 1.001337
vt 0.945333 0.000000
vt 0.001953 -0.000000
vt 0.001953 1.000000
vt 0.998047 1.000000
vt 0.998047 -0.000000
vt 0.001953 -0.000000
vt 0.001953 1.000000
vt 0.998047 1.000000
vt 0.998047 -0.000000
vt 0.001333 0.958556
vt 0.001333 1.001337
vt 0.500667 1.001337
vt 0.500667 0.961898
vt 0.042667 1.001337
vt 0.000000 1.001337
vt 0.000000 0.000000
vt 0.040000 0.000000
vt 0.994667 0.539438
vt 0.960000 0.539438
vt 0.960000 0.997326
vt 0.001465 -0.001465
vt 0.001465 1.001465
vt 0.998535 1.001465
vt 0.998535 -0.001465
vt 0.001465 -0.001465
vt 0.001465 1.001465
vt 0.998535 1.001465
vt 0.998535 -0.001465
vt 0.094727 -0.001465
vt 0.094727 1.001465
vt 0.093333 1.000000
vt 0.000000 1.000000
vt -0.000000 0.844920
vt 0.093333 0.844920
vt 0.000000 0.905749
vt 1.000000 0.905749
vt 1.000000 1.000000
vt 0.000000 1.000000
vt 0.000000 0.905749
vt 1.000000 0.905749
vt 1.000000 1.000000
vt 0.000000 1.000000
vt -0.000000 0.844920
vt 0.000000 0.905749
vt 1.000000 0.905749
vt 1.000000 0.845588
vt -0.000000 0.845588
vt 1.000000 0.844920
vt 0.093333 0.905749
vt 0.001465 0.112305
vt 0.094727 0.112305
vt 0.998535 0.108398
vt 0.998535 0.112305
vt 0.001465 0.108398
vt 0.998535 1.001465
vt 0.893555 1.001465
vt 0.998535 0.914551
vt 0.998535 -0.001465
vt 0.890625 1.001465
vt 0.998535 1.001465
vt 0.893555 0.065430
vt 0.893555 -0.001465
vt 0.904785 -0.001465
vt 0.903320 -0.001465
vt 0.998535 1.001465
vn 0.9990 0.0451 0.0000
vn 0.7057 0.0637 -0.7057
vn 0.0000 0.0451 -0.9990
vn 0.0000 1.0000 0.0000
vn 0.0000 -1.0000 0.0000
vn 0.0000 0.0000 -1.0000
vn 1.0000 0.0000 0.0000
vn -0.7050 -0.0764 0.7050
vn 0.0000 -0.0554 0.9985
vn -0.9985 -0.0554 0.0000
vn -0.0000 -0.0865 0.9963
vn -0.9963 -0.0865 0.0000
vn -0.7023 -0.1163 0.7023
vn -0.6410 0.4221 0.6410
vn -0.9393 0.3432 0.0000
vn -0.0000 0.3432 0.9393
vn -0.2909 0.9568 0.0000
vn -0.0000 0.9568 0.2909
vn -0.1630 0.9731 0.1630
vn -0.4705 -0.7465 0.4705
vn -0.6755 -0.7374 -0.0000
vn 0.0000 -0.7374 0.6755
usemtl InnerWall
s off
f 5/1/1 24/2/1 25/3/1 21/4/1
f 25/5/2 24/6/2 23/7/2 26/8/2
f 23/9/3 4/10/3 20/11/3 26/12/3
usemtl Floor
f 21/13/4 25/14/4 26/15/4 20/16/4 22/17/4
f 29/18/5 3/19/5 28/20/5 31/21/5 34/22/5
f 22/17/6 3/23/6 29/24/6 21/13/6
f 20/25/7 28/26/7 3/19/7 22/27/7
usemtl OuterWall
f 6/28/4 7/29/4 23/30/4 24/31/4
f 4/32/4 23/33/4 7/34/4 1/35/4
f 19/36/8 7/37/8 6/38/8 16/39/8
f 18/40/9 1/41/9 7/42/9 19/43/9
f 16/44/10 6/45/10 2/46/10 17/47/10
f 5/48/4 2/49/4 6/50/4 24/51/4
f 2/52/6 5/53/6 21/54/6 17/55/6
f 1/35/7 18/56/7 20/57/7 4/58/7
usemtl OuterWallBase
f 27/59/11 11/60/11 12/61/11 32/62/11
f 33/63/12 15/64/12 8/65/12 30/66/12
f 32/67/13 12/68/13 15/64/13 33/63/13
f 13/69/14 14/70/14 15/71/14 12/72/14
f 14/73/15 9/74/15 8/75/15 15/76/15
f 10/77/16 13/78/16 12/79/16 11/80/16
f 14/81/17 16/82/17 17/83/17 9/84/17
f 10/77/18 18/85/18 19/86/18 13/78/18
f 13/69/19 19/87/19 16/82/19 14/70/19
f 34/88/20 31/89/20 32/67/20 33/63/20
f 29/90/21 34/88/21 33/63/21 30/66/21
f 31/91/22 28/92/22 27/59/22 32/62/22
f 8/65/6 9/93/6 17/94/6 30/66/6
f 11/95/7 27/96/7 18/97/7 10/98/7
f 30/66/6 17/94/6 21/99/6 29/100/6
f 27/96/7 28/101/7 20/102/7 18/103/7
