<?xml version="1.0" encoding="UTF-8" standalone="no"?>
<!DOCTYPE svg PUBLIC "-//W3C//DTD SVG 1.1//EN" "http://www.w3.org/Graphics/SVG/1.1/DTD/svg11.dtd">
<!-- Created with Vectornator (http://vectornator.io/) -->
<svg stroke-miterlimit="10" style="fill-rule:nonzero;clip-rule:evenodd;stroke-linecap:round;stroke-linejoin:round;" version="1.1" viewBox="0 0 512 512" xml:space="preserve" xmlns="http://www.w3.org/2000/svg" xmlns:xlink="http://www.w3.org/1999/xlink">
<defs/>
<clipPath id="ArtboardFrame">
<rect height="512" width="512" x="0" y="0"/>
</clipPath>
<g clip-path="url(#ArtboardFrame)" id="Layer-1">
<g opacity="1">
<path d="M464.549 133.487C459.059 129.931 452.12 129.37 446.166 132.038L272.195 209.358C265.198 212.451 260.713 219.371 260.713 227.006L260.713 478.297C260.713 485.14 264.328 491.481 270.243 494.96C273.258 496.738 276.641 497.628 280.043 497.628C283.271 497.628 286.519 496.816 289.418 495.192L463.389 398.541C469.536 395.139 473.344 388.664 473.344 381.647L473.344 149.686C473.344 143.152 470.039 137.044 464.549 133.487Z" fill="#ec8684" fill-rule="nonzero" opacity="1" stroke="none"/>
<path d="M508.757 177.618L373.446 22.9771C368.498 15.5544 359.161 12.5002 350.753 15.5351L157.452 73.5253C151.633 75.6323 147.207 80.4068 145.486 86.3412C143.766 92.2755 145.022 98.6738 148.811 103.564L284.122 277.535C287.852 282.348 293.535 284.997 299.373 284.997C301.789 284.997 304.225 284.552 306.545 283.624L499.846 206.304C505.258 204.139 509.395 199.654 511.134 194.087C512.855 188.52 511.985 182.47 508.757 177.618Z" fill="#ec8684" fill-rule="nonzero" opacity="1" stroke="none"/>
<path d="M168.113 72.8984C163.271 71.8834 158.084 72.3949 153.616 75.3147L8.6399 170.153C-0.297449 175.992-2.63677 187.794 3.20331 196.732C9.04238 205.669 20.8458 208.611 29.7822 202.772L174.758 107.934C183.695 102.095 186.033 90.2925 180.194 81.3553C177.275 76.8867 172.955 73.9135 168.113 72.8984Z" fill="#ec8684" fill-rule="nonzero" opacity="1" stroke="none"/>
<path d="M168.113 72.8984C163.262 71.9284 158.057 72.3536 153.616 75.3147L37.635 152.635C32.2574 156.22 28.5747 162.481 28.5741 168.945L28.5741 400.906C28.5741 409.226 33.9701 416.398 41.8635 419.028L273.825 496.348C283.952 499.724 295.215 494.395 298.591 484.267C301.967 474.139 296.034 463.48 285.906 460.104L67.2342 387.012L67.2342 179.818L174.758 107.934C183.641 102.012 186.117 89.6337 180.194 80.7513C177.234 76.3099 172.964 73.8685 168.113 72.8984Z" fill="#ec8684" fill-rule="nonzero" opacity="1" stroke="none"/>
<path d="M142.413 271.272L154.707 240.537L175.467 288.979L210.261 275.66L189.83 227.973C183.953 214.229 170.731 204.545 155.538 205.647C140.596 205.82 127.335 214.906 121.768 228.785L110.924 255.885L142.413 271.272ZM223.251 305.989C211.731 309.449 198.257 313.47 187.336 316.717L204.888 357.678L179.759 347.626L179.759 385.571L190.893 390.017C195.358 391.795 199.997 392.665 204.598 392.665C214.301 392.665 223.812 388.818 230.887 381.57C241.325 370.88 244.282 355.087 238.406 341.305L223.251 305.989ZM155.557 337.942L121.227 324.217L131.279 299.088C120.609 295.261 107.947 290.66 98.3982 287.2L89.3518 309.816C81.8324 328.663 91.0528 350.12 109.88 357.658L155.538 375.925L155.538 337.942L155.557 337.942Z" fill="#ec8684" fill-rule="nonzero" opacity="1" stroke="none"/>
</g>
</g>
</svg>
