# Blender v3.2.1 OBJ File: 'mushroom_01.blend'
# www.blender.org
o slice_08_Cube.018
v -0.511447 0.958068 -0.229948
v -0.395222 0.916946 -0.171937
v 0.137276 0.972131 -0.349173
v 0.195571 1.034042 -0.466457
v 0.432641 0.977631 0.243800
v 0.315747 0.965068 0.185104
v -0.216373 0.916487 0.363483
v -0.274432 0.954811 0.479697
v 0.122029 0.960783 0.491807
v 0.082636 0.940763 0.371986
v -0.201513 1.041516 -0.478161
v -0.161347 0.947803 -0.358442
v -0.403276 0.907605 0.128334
v -0.521666 0.950111 0.167879
v 0.323503 0.974434 -0.114441
v 0.443172 0.993179 -0.154414
v 0.361250 0.982804 0.207750
v 0.335507 0.970785 0.037361
v 0.370067 0.994773 -0.129990
v 0.458784 0.983391 0.047365
v -0.440094 0.943029 -0.194301
v -0.415196 0.910813 -0.023865
v -0.448974 0.931557 0.143599
v -0.537387 0.950221 -0.033685
v -0.176813 1.002769 -0.404813
v -0.289466 0.931777 -0.276789
v -0.371182 0.999358 -0.369198
v 0.098118 0.960814 0.418341
v 0.210401 0.953514 0.290077
v 0.292000 0.969199 0.382987
v -0.321330 0.910800 0.257142
v -0.238797 0.939552 0.408325
v -0.413090 0.952071 0.338426
v -0.068831 0.928026 0.383725
v -0.078860 0.957308 0.506691
v 0.241860 0.974546 -0.242971
v 0.160044 1.024389 -0.394633
v 0.334449 1.011879 -0.325113
v -0.010005 0.961013 -0.369758
v -0.000360 1.046493 -0.493270
v -0.354829 0.777842 -0.152226
v -0.147545 0.806580 -0.317803
v -0.361732 0.767415 0.114457
v 0.116934 0.836466 -0.309203
v 0.282325 0.845055 -0.100879
v 0.275684 0.834799 0.165512
v 0.069071 0.806306 0.331284
v -0.195935 0.777825 0.323453
v -0.718463 1.056659 0.233609
v -0.703726 1.032192 -0.325828
v -0.268285 1.087165 -0.674031
v 0.289008 1.054765 -0.657434
v 0.636924 0.993025 -0.219167
v 0.621204 0.973845 0.340267
v 0.184189 0.978649 0.688471
v -0.370713 1.045449 0.671877
v -0.372399 0.771152 -0.020725
v 0.182310 0.821258 0.258653
v 0.293117 0.841471 0.034213
v -0.013456 0.822876 -0.327530
v -0.065166 0.791358 0.341556
v 0.209634 0.842856 -0.214932
v -0.289012 0.771152 0.228911
v 0.484441 1.023087 -0.459201
v -0.565915 1.055252 0.473643
v -0.506895 1.059722 -0.521520
v 0.423438 0.972814 0.535959
v -0.740790 1.042116 -0.049929
v -0.097057 1.011696 0.709984
v 0.658835 0.980969 0.064370
v 0.014081 1.076093 -0.695543
v -0.261184 0.791591 -0.245291
v 0.383541 0.988297 0.041164
v -0.462431 0.934520 -0.027642
v -0.321049 0.972358 -0.312570
v 0.242286 0.972337 0.326044
v -0.356812 0.934430 0.288549
v -0.072586 0.949637 0.431304
v 0.277976 1.010719 -0.274884
v -0.006125 1.017390 -0.417686
v 0.416896 1.054997 -0.296723
v 0.112600 1.083743 -0.264541
v -0.213662 1.057491 -0.236436
v -0.509419 1.053722 -0.128414
v 0.427544 1.015328 0.141753
v 0.131894 1.006261 0.248836
v -0.193945 1.038118 0.276890
v -0.498058 1.056706 0.309949
v -0.139080 0.787791 0.216941
v 0.020238 0.806113 0.185044
v 0.166440 0.824855 0.114792
v -0.208549 0.785692 0.063210
v -0.039336 0.805768 0.006609
v 0.129533 0.826791 -0.049713
v -0.245436 0.788085 -0.101307
v -0.098888 0.806570 -0.171632
v 0.060142 0.826195 -0.203100
vt 0.797064 0.535902
vt 0.779706 0.559974
vt 0.752237 0.541382
vt 0.774935 0.516359
vt 0.723589 0.518090
vt 0.752192 0.494366
vt 0.681596 0.245112
vt 0.645907 0.238237
vt 0.660549 0.202108
vt 0.694523 0.213119
vt 0.676697 0.165787
vt 0.710157 0.181535
vt 0.674392 0.313939
vt 0.639527 0.314953
vt 0.641935 0.276566
vt 0.676481 0.279341
vt 0.713378 0.440403
vt 0.680365 0.455956
vt 0.664659 0.422498
vt 0.697846 0.410688
vt 0.649681 0.389120
vt 0.684500 0.380624
vt 0.699040 0.132729
vt 0.730198 0.152580
vt 0.722504 0.100685
vt 0.751507 0.125949
vt 0.643802 0.352763
vt 0.678034 0.348034
vt 0.752758 0.077245
vt 0.775603 0.103765
vt 0.781734 0.058682
vt 0.799042 0.084175
vt 0.773436 0.627283
vt 0.832304 0.627486
vt 0.822057 0.668312
vt 0.779954 0.668160
vt 0.717020 0.639208
vt 0.739697 0.676502
vt 0.819038 0.915645
vt 0.760629 0.914876
vt 0.772244 0.869358
vt 0.812563 0.869717
vt 0.875070 0.903447
vt 0.851618 0.862113
vt 0.653253 0.793065
vt 0.651992 0.734416
vt 0.694596 0.744666
vt 0.696390 0.786773
vt 0.666769 0.848797
vt 0.705907 0.825860
vt 0.939754 0.748474
vt 0.939635 0.807166
vt 0.898326 0.795809
vt 0.898534 0.754258
vt 0.927727 0.692323
vt 0.890009 0.714333
vt 0.709601 0.886443
vt 0.736778 0.850026
vt 0.912110 0.859202
vt 0.878051 0.831967
vt 0.883982 0.655138
vt 0.858817 0.687936
vt 0.679715 0.682813
vt 0.713691 0.707660
vt 0.701354 0.487055
vt 0.732194 0.468316
vt 0.630165 0.275127
vt 0.632860 0.235262
vt 0.626643 0.315306
vt 0.609483 0.315320
vt 0.613820 0.272851
vt 0.615341 0.230850
vt 0.744793 0.550419
vt 0.713232 0.527220
vt 0.775714 0.570408
vt 0.770416 0.585981
vt 0.734802 0.563388
vt 0.700121 0.539770
vt 0.689256 0.494884
vt 0.665058 0.463498
vt 0.675397 0.505057
vt 0.648524 0.472285
vt 0.648964 0.198211
vt 0.664869 0.159718
vt 0.633100 0.192260
vt 0.649179 0.151021
vt 0.745282 0.067695
vt 0.777859 0.047731
vt 0.712276 0.091168
vt 0.698739 0.078023
vt 0.735106 0.053900
vt 0.772750 0.031410
vt 0.688850 0.125355
vt 0.675106 0.114823
vt 0.630232 0.355185
vt 0.632936 0.393653
vt 0.615250 0.398451
vt 0.614169 0.357675
vt 0.648641 0.428388
vt 0.632261 0.434573
vt 0.804126 0.615265
vt 0.818471 0.713471
vt 0.881813 0.712898
vt 0.842969 0.664081
vt 0.822580 0.786027
vt 0.881770 0.775101
vt 0.833365 0.876042
vt 0.881728 0.837305
vt 0.741729 0.615655
vt 0.758845 0.722538
vt 0.766403 0.804221
vt 0.785001 0.914780
vt 0.679332 0.616045
vt 0.697600 0.726938
vt 0.705218 0.808640
vt 0.722691 0.915266
vt 0.630285 0.655093
vt 0.641116 0.745292
vt 0.645506 0.817842
vt 0.660380 0.915752
vt 0.581239 0.694141
vt 0.581660 0.756373
vt 0.582081 0.818605
vt 0.621231 0.867178
vt 0.672884 0.426076
vt 0.708540 0.327803
vt 0.809225 0.340051
vt 0.780884 0.453064
vt 0.658030 0.529615
vt 0.752569 0.566206
vt 0.655252 0.619427
vt 0.729361 0.658934
vt 0.614719 0.327458
vt 0.667969 0.264630
vt 0.748423 0.247316
vt 0.575105 0.401647
vt 0.575095 0.485751
vt 0.592463 0.566256
vt 0.832514 0.247420
vt 0.853068 0.578382
vt 0.813281 0.658843
vt 0.888679 0.480101
vt 0.903566 0.376791
vt 0.906462 0.287184
vt 0.946718 0.578630
vt 0.893606 0.641397
vt 0.986227 0.504444
vt 0.986227 0.420581
vt 0.968984 0.340348
vn -0.9179 -0.2521 0.3063
vn -0.6955 -0.6800 0.2322
vn -0.7547 -0.6547 -0.0428
vn -0.9684 -0.2469 -0.0354
vn -0.6346 -0.6644 -0.3948
vn -0.8560 -0.2601 -0.4468
vn 0.8707 -0.2729 0.4092
vn 0.6096 -0.7515 0.2522
vn 0.4898 -0.6981 0.5223
vn 0.6261 -0.2536 0.7374
vn 0.2783 -0.7104 0.6464
vn 0.3325 -0.2558 0.9077
vn 0.9117 -0.2709 -0.3090
vn 0.6706 -0.6949 -0.2596
vn 0.7090 -0.7052 -0.0062
vn 0.9655 -0.2600 0.0153
vn -0.2709 -0.2542 -0.9284
vn -0.2084 -0.5187 -0.8292
vn 0.0668 -0.4922 -0.8679
vn 0.0674 -0.2628 -0.9625
vn 0.3792 -0.5565 -0.7393
vn 0.4477 -0.2894 -0.8461
vn 0.0301 -0.6732 0.7389
vn -0.0040 -0.2474 0.9689
vn -0.2804 -0.7078 0.6484
vn -0.4165 -0.2612 0.8708
vn 0.6166 -0.5944 -0.5162
vn 0.7529 -0.2723 -0.5992
vn -0.5763 -0.6597 0.4823
vn -0.7528 -0.2470 0.6101
vn -0.0965 -0.9935 -0.0597
vn -0.0585 -0.9968 -0.0550
vn -0.0316 -0.9960 -0.0834
vn -0.0184 -0.9890 -0.1464
vn -0.0961 -0.9944 -0.0440
vn -0.0085 -0.9846 -0.1748
vn -0.3577 -0.8969 0.2601
vn -0.4120 -0.8969 0.1608
vn -0.3294 -0.9364 0.1214
vn -0.2667 -0.9393 0.2158
vn -0.2456 -0.9270 0.2834
vn -0.1533 -0.9563 0.2490
vn -0.1065 -0.9550 -0.2768
vn -0.0551 -0.9785 -0.1988
vn -0.0137 -0.9483 -0.3171
vn -0.0724 -0.9376 -0.3400
vn -0.2775 -0.9477 -0.1578
vn -0.2090 -0.9583 -0.1949
vn -0.0047 -0.9999 0.0117
vn -0.0518 -0.9928 0.1077
vn 0.0129 -0.9978 0.0657
vn 0.0186 -0.9996 -0.0218
vn -0.0237 -0.9994 -0.0236
vn -0.0114 -0.9992 -0.0370
vn -0.4080 -0.9126 0.0283
vn -0.3144 -0.9492 -0.0098
vn -0.1272 -0.9638 0.2343
vn -0.0277 -0.9831 0.1811
vn -0.0326 -0.9989 -0.0342
vn -0.0301 -0.9988 -0.0377
vn -0.0619 -0.9933 -0.0974
vn 0.0116 -0.9647 -0.2630
vn -0.4564 -0.5545 -0.6959
vn -0.5848 -0.2438 -0.7737
vn 0.1418 -0.9894 -0.0316
vn 0.1106 -0.9938 0.0066
vn 0.1573 -0.9779 -0.1377
vn -0.3253 -0.9449 -0.0361
vn -0.2426 -0.9377 -0.2489
vn -0.3007 -0.9482 0.1026
vn -0.3293 -0.9364 0.1214
vn -0.3145 -0.9492 -0.0098
vn -0.1858 -0.8581 -0.4787
vn -0.0706 -0.8198 -0.5683
vn 0.1407 -0.9867 0.0809
vn 0.1020 -0.9839 0.1468
vn -0.2449 -0.9443 0.2197
vn -0.0955 -0.9625 0.2540
vn 0.0387 -0.9671 0.2513
vn 0.2399 -0.9207 -0.3078
vn 0.1785 -0.8719 -0.4560
vn 0.0621 -0.8062 -0.5884
vn 0.1692 0.9856 0.0055
vn 0.1063 0.9903 0.0890
vn 0.0380 0.9980 0.0512
vn 0.0542 0.9951 0.0825
vn -0.0061 0.9988 0.0478
vn 0.0607 0.9972 0.0426
vn -0.0335 0.9994 0.0054
vn 0.0259 0.9996 0.0093
vn 0.1068 -0.9936 -0.0364
vn 0.1078 -0.9935 -0.0371
vn 0.1104 -0.9931 -0.0397
vn 0.1087 -0.9933 -0.0382
vn 0.1073 -0.9936 -0.0350
vn 0.1086 -0.9935 -0.0353
vn 0.1087 -0.9934 -0.0360
vn 0.1086 -0.9933 -0.0402
vn 0.1101 -0.9931 -0.0417
s 1
f 43/1/1 13/2/2 22/3/3 57/4/4
f 57/4/4 22/3/3 2/5/5 41/6/6
f 46/7/7 6/8/8 29/9/9 58/10/10
f 58/10/10 29/9/9 10/11/11 47/12/12
f 45/13/13 15/14/14 18/15/15 59/16/16
f 59/16/16 18/15/15 6/8/8 46/7/7
f 42/17/17 12/18/18 39/19/19 60/20/20
f 60/20/20 39/19/19 3/21/21 44/22/22
f 47/12/12 10/11/11 34/23/23 61/24/24
f 61/24/24 34/23/23 7/25/25 48/26/26
f 44/22/22 3/21/21 36/27/27 62/28/28
f 62/28/28 36/27/27 15/14/14 45/13/13
f 48/26/26 7/25/25 31/29/29 63/30/30
f 63/30/30 31/29/29 13/31/2 43/32/1
f 64/33/31 53/34/32 16/35/33 38/36/34
f 52/37/35 64/33/31 38/36/34 4/38/36
f 65/39/37 49/40/38 14/41/39 33/42/40
f 56/43/41 65/39/37 33/42/40 8/44/42
f 66/45/43 51/46/44 11/47/45 27/48/46
f 50/49/47 66/45/43 27/48/46 1/50/48
f 67/51/49 55/52/50 9/53/51 30/54/52
f 54/55/53 67/51/49 30/54/52 5/56/54
f 68/57/55 50/49/47 1/50/48 24/58/56
f 49/40/38 68/57/55 24/58/56 14/41/39
f 69/59/57 56/43/41 8/44/42 35/60/58
f 55/52/50 69/59/57 35/60/58 9/53/51
f 70/61/59 54/55/53 5/56/54 20/62/60
f 53/34/32 70/61/59 20/62/60 16/35/33
f 71/63/61 52/37/35 4/38/36 40/64/62
f 51/46/44 71/63/61 40/64/62 11/47/45
f 41/6/6 2/5/5 26/65/63 72/66/64
f 72/66/64 26/65/63 12/18/18 42/17/17
f 6/8/8 18/15/15 73/67/65 17/68/66
f 18/15/15 15/14/14 19/69/67 73/67/65
f 73/67/65 19/69/67 16/70/33 20/71/60
f 17/68/66 73/67/65 20/71/60 5/72/54
f 2/5/5 22/3/3 74/73/68 21/74/69
f 22/3/3 13/2/2 23/75/70 74/73/68
f 74/73/68 23/75/70 14/76/71 24/77/72
f 21/74/69 74/73/68 24/77/72 1/78/48
f 12/18/18 26/65/63 75/79/73 25/80/74
f 26/65/63 2/5/5 21/74/69 75/79/73
f 75/79/73 21/74/69 1/78/48 27/81/46
f 25/80/74 75/79/73 27/81/46 11/82/45
f 10/11/11 29/9/9 76/83/75 28/84/76
f 29/9/9 6/8/8 17/68/66 76/83/75
f 76/83/75 17/68/66 5/72/54 30/85/52
f 28/84/76 76/83/75 30/85/52 9/86/51
f 13/31/2 31/29/29 77/87/77 23/88/70
f 31/29/29 7/25/25 32/89/78 77/87/77
f 77/87/77 32/89/78 8/90/42 33/91/40
f 23/88/70 77/87/77 33/91/40 14/92/71
f 7/25/25 34/23/23 78/93/79 32/89/78
f 34/23/23 10/11/11 28/84/76 78/93/79
f 78/93/79 28/84/76 9/86/51 35/94/58
f 32/89/78 78/93/79 35/94/58 8/90/42
f 15/14/14 36/27/27 79/95/80 19/69/67
f 36/27/27 3/21/21 37/96/81 79/95/80
f 79/95/80 37/96/81 4/97/36 38/98/34
f 19/69/67 79/95/80 38/98/34 16/70/33
f 3/21/21 39/19/19 80/99/82 37/96/81
f 39/19/19 12/18/18 25/80/74 80/99/82
f 80/99/82 25/80/74 11/82/45 40/100/62
f 37/96/81 80/99/82 40/100/62 4/97/36
f 52/101/35 81/102/83 53/103/32 64/104/31
f 81/102/83 85/105/84 70/106/59 53/103/32
f 85/105/84 67/107/49 54/108/53 70/106/59
f 71/109/61 82/110/85 81/102/83 52/101/35
f 82/110/85 86/111/86 85/105/84 81/102/83
f 86/111/86 55/112/50 67/107/49 85/105/84
f 51/113/44 83/114/87 82/110/85 71/109/61
f 83/114/87 87/115/88 86/111/86 82/110/85
f 87/115/88 69/116/57 55/112/50 86/111/86
f 66/117/43 84/118/89 83/114/87 51/113/44
f 84/118/89 88/119/90 87/115/88 83/114/87
f 88/119/90 56/120/41 69/116/57 87/115/88
f 50/121/47 68/122/55 84/118/89 66/117/43
f 68/122/55 49/123/38 88/119/90 84/118/89
f 49/123/38 65/124/37 56/120/41 88/119/90
f 92/125/91 95/126/92 96/127/93 93/128/94
f 89/129/95 92/125/91 93/128/94 90/130/96
f 61/131/24 89/129/95 90/130/96 47/132/12
f 57/133/4 41/134/6 72/135/64 95/126/92
f 43/136/1 57/133/4 95/126/92 92/125/91
f 63/137/30 43/136/1 92/125/91 89/129/95
f 48/138/26 63/137/30 89/129/95 61/131/24
f 95/126/92 72/135/64 42/139/17 96/127/93
f 47/132/12 90/130/96 91/140/97 58/141/10
f 90/130/96 93/128/94 94/142/98 91/140/97
f 93/128/94 96/127/93 97/143/99 94/142/98
f 96/127/93 42/139/17 60/144/20 97/143/99
f 58/141/10 91/140/97 59/145/16 46/146/7
f 91/140/97 94/142/98 45/147/13 59/145/16
f 94/142/98 97/143/99 62/148/28 45/147/13
f 97/143/99 60/144/20 44/149/22 62/148/28
