<?xml version="1.0" encoding="UTF-8" standalone="no"?>
<!DOCTYPE svg PUBLIC "-//W3C//DTD SVG 1.1//EN" "http://www.w3.org/Graphics/SVG/1.1/DTD/svg11.dtd">
<!-- Created with Vectornator (http://vectornator.io/) -->
<svg stroke-miterlimit="10" style="fill-rule:nonzero;clip-rule:evenodd;stroke-linecap:round;stroke-linejoin:round;" version="1.1" viewBox="0 0 500 500" xml:space="preserve" xmlns="http://www.w3.org/2000/svg" xmlns:xlink="http://www.w3.org/1999/xlink">
<defs/>
<clipPath id="ArtboardFrame">
<rect height="500" width="500" x="0" y="0"/>
</clipPath>
<g clip-path="url(#ArtboardFrame)" id="Layer-1">
<path d="M55.55 0C24.8754 0-0.000433265 24.8753 2.84217e-14 55.55L2.84217e-14 444.45C2.84217e-14 475.125 24.8753 500 55.55 500L472.225 500C487.566 500 500 487.566 500 472.225C500 456.884 487.566 444.45 472.225 444.45L389.151 444.45L389.151 55.55L472.225 55.55C487.566 55.55 500 43.1163 500 27.775C500 12.4337 487.566-0.000232982 472.225 0L55.55 0ZM97.4887 110.799L125.264 110.799C132.93 110.799 139.176 117.045 139.176 124.711L139.176 152.486C139.176 160.153 132.93 166.349 125.264 166.349L97.4887 166.349C89.822 166.349 83.6263 160.153 83.6263 152.486L83.6263 124.711C83.6263 117.045 89.822 110.799 97.4887 110.799ZM222.501 110.799L305.826 110.799C321.16 110.799 333.601 123.24 333.601 138.574C333.601 153.907 321.16 166.349 305.826 166.349L222.501 166.349C207.168 166.349 194.726 153.907 194.726 138.574C194.726 123.24 207.168 110.799 222.501 110.799ZM97.4887 221.899L125.264 221.899C132.93 221.899 139.176 228.145 139.176 235.811L139.176 263.586C139.176 271.253 132.93 277.448 125.264 277.449L97.4887 277.449C89.822 277.449 83.6263 271.253 83.6263 263.586L83.6263 235.811C83.6263 228.144 89.822 221.899 97.4887 221.899ZM222.501 221.899L305.826 221.899C321.16 221.899 333.601 234.34 333.601 249.674C333.601 265.007 321.16 277.449 305.826 277.449L222.501 277.449C207.168 277.449 194.726 265.007 194.726 249.674C194.726 234.34 207.168 221.898 222.501 221.899ZM97.4887 332.998L125.264 332.998C132.93 332.998 139.176 339.244 139.176 346.911L139.176 374.686C139.176 382.353 132.93 388.599 125.264 388.599L97.4887 388.599C89.822 388.599 83.6263 382.353 83.6263 374.686L83.6263 346.911C83.6263 339.244 89.822 332.999 97.4887 332.998ZM222.501 332.998L305.826 332.998C321.16 332.998 333.601 345.49 333.601 360.824C333.601 376.157 321.16 388.599 305.826 388.599L222.501 388.599C207.168 388.599 194.726 376.157 194.726 360.824C194.726 345.49 207.168 332.998 222.501 332.998Z" fill="#8eef97" fill-rule="evenodd" opacity="1" stroke="none"/>
</g>
</svg>
