<?xml version="1.0" encoding="UTF-8" standalone="no"?>
<!DOCTYPE svg PUBLIC "-//W3C//DTD SVG 1.1//EN" "http://www.w3.org/Graphics/SVG/1.1/DTD/svg11.dtd">
<!-- Created with Vectornator (http://vectornator.io/) -->
<svg stroke-miterlimit="10" style="fill-rule:nonzero;clip-rule:evenodd;stroke-linecap:round;stroke-linejoin:round;" version="1.1" viewBox="0 0 500 500" xml:space="preserve" xmlns="http://www.w3.org/2000/svg" xmlns:xlink="http://www.w3.org/1999/xlink">
<defs/>
<g id="Layer-1">
<g opacity="1">
<path d="M249.994 113.647C237.442 113.647 227.267 123.822 227.267 136.374L227.267 431.831C227.267 444.383 237.442 454.558 249.994 454.558C262.546 454.558 272.722 444.383 272.722 431.831L272.722 136.374C272.722 123.822 262.546 113.647 249.994 113.647Z" fill="#ffffff" fill-rule="nonzero" opacity="1" stroke="none"/>
<path d="M113.948 250.011L113.948 250.011C106.153 250.011 98.9253 253.989 94.7434 260.58L5.33379 401.785L5.31107 401.808C-1.37079 412.376-1.77988 425.762 4.26561 436.694C10.3566 447.717 21.9703 454.558 34.584 454.558L159.085 454.558C171.63 454.558 181.812 444.376 181.812 431.831L181.812 340.921C181.812 328.375 171.63 318.194 159.085 318.194L112.062 318.194L133.153 284.898C142.721 269.761 131.857 250.011 113.948 250.011ZM279.267 61.533C265.676 40.0783 234.381 40.0783 220.79 61.533L152.312 169.67C142.721 184.806 153.607 204.557 171.517 204.557L328.518 204.557C346.427 204.557 357.29 184.806 347.722 169.67L279.267 61.533ZM494.678 401.785L405.291 260.58C401.109 254.011 393.859 250.011 386.086 250.011L386.086 250.011C368.177 250.011 357.313 269.761 366.881 284.898L387.95 318.194L340.904 318.194C328.358 318.194 318.177 328.375 318.177 340.921L318.177 431.831C318.177 444.376 328.358 454.558 340.904 454.558L465.427 454.558C478.064 454.558 489.655 447.717 495.746 436.694C501.768 425.74 501.382 412.376 494.678 401.785Z" fill="#ffffff" fill-rule="nonzero" opacity="1" stroke="none"/>
</g>
</g>
</svg>
