<?xml version="1.0" encoding="UTF-8" standalone="no"?>
<!DOCTYPE svg PUBLIC "-//W3C//DTD SVG 1.1//EN" "http://www.w3.org/Graphics/SVG/1.1/DTD/svg11.dtd">
<!-- Created with Vectornator (http://vectornator.io/) -->
<svg stroke-miterlimit="10" style="fill-rule:nonzero;clip-rule:evenodd;stroke-linecap:round;stroke-linejoin:round;" version="1.1" viewBox="0 0 500 500" xml:space="preserve" xmlns="http://www.w3.org/2000/svg" xmlns:xlink="http://www.w3.org/1999/xlink">
<defs/>
<g id="Layer-1">
<g opacity="1">
<path d="M134.615 355.769C208.962 355.769 269.231 295.5 269.231 221.154C269.231 146.808 208.962 86.5385 134.615 86.5385C60.2692 86.5385 0 146.808 0 221.154C0 295.5 60.2692 355.769 134.615 355.769Z" fill="#ffffff" fill-rule="nonzero" opacity="1" stroke="none"/>
<path d="M192.308 240.385C256.038 240.385 307.692 188.731 307.692 125C307.692 61.2692 256.038 9.61538 192.308 9.61538C128.577 9.61538 76.9231 61.2692 76.9231 125C76.9231 188.731 128.577 240.385 192.308 240.385Z" fill="#ffffff" fill-rule="nonzero" opacity="1" stroke="none"/>
<path d="M307.692 259.615C371.423 259.615 423.077 207.962 423.077 144.231C423.077 80.5 371.423 28.8462 307.692 28.8462C243.962 28.8462 192.308 80.5 192.308 144.231C192.308 207.962 243.962 259.615 307.692 259.615Z" fill="#ffffff" fill-rule="nonzero" opacity="1" stroke="none"/>
<path d="M403.846 317.308C456.942 317.308 500 274.25 500 221.154C500 168.058 456.942 125 403.846 125C350.75 125 307.692 168.058 307.692 221.154C307.692 274.25 350.75 317.308 403.846 317.308Z" fill="#ffffff" fill-rule="nonzero" opacity="1" stroke="none"/>
<path d="M269.231 375C332.962 375 384.615 323.346 384.615 259.615C384.615 195.885 332.962 144.231 269.231 144.231C205.5 144.231 153.846 195.885 153.846 259.615C153.846 323.346 205.5 375 269.231 375ZM192.308 471.154C213.558 471.154 230.769 453.942 230.769 432.692C230.769 411.442 213.558 394.231 192.308 394.231C171.058 394.231 153.846 411.442 153.846 432.692C153.846 453.942 171.058 471.154 192.308 471.154ZM96.1538 490.385C106.769 490.385 115.385 481.769 115.385 471.154C115.385 460.538 106.769 451.923 96.1538 451.923C85.5385 451.923 76.9231 460.538 76.9231 471.154C76.9231 481.769 85.5385 490.385 96.1538 490.385Z" fill="#ffffff" fill-rule="nonzero" opacity="1" stroke="none"/>
</g>
</g>
</svg>
