<?xml version="1.0" encoding="UTF-8" standalone="no"?>
<!DOCTYPE svg PUBLIC "-//W3C//DTD SVG 1.1//EN" "http://www.w3.org/Graphics/SVG/1.1/DTD/svg11.dtd">
<!-- Created with Vectornator (http://vectornator.io/) -->
<svg stroke-miterlimit="10" style="fill-rule:nonzero;clip-rule:evenodd;stroke-linecap:round;stroke-linejoin:round;" version="1.1" viewBox="0 0 500 500" xml:space="preserve" xmlns="http://www.w3.org/2000/svg" xmlns:xlink="http://www.w3.org/1999/xlink">
<defs/>
<clipPath id="ArtboardFrame">
<rect height="500" width="500" x="0" y="0"/>
</clipPath>
<g clip-path="url(#ArtboardFrame)" id="Layer-1">
<g opacity="1">
<g opacity="1">
<path d="M81.3979 66.4519C54.8001 66.4519 33.2255 88.026 33.2259 114.624L33.2259 451.828C33.2259 478.426 54.8 500 81.3979 500L418.602 500C445.2 500 466.774 478.426 466.774 451.828L466.774 114.624C466.774 88.0261 445.2 66.4515 418.602 66.4519L81.3979 66.4519ZM81.3979 114.624L418.602 114.624L418.602 451.828L81.3979 451.828L81.3979 114.624Z" fill="#8eef97" fill-rule="evenodd" opacity="1" stroke="none"/>
<path d="M56.9538 90.8109L442.33 90.8109L442.33 163.069L56.9538 163.069L56.9538 90.8109ZM165.341 235.327L141.255 235.327C134.607 235.327 129.212 240.722 129.212 247.37L129.212 271.456C129.212 278.104 134.607 283.499 141.255 283.499L165.341 283.499C171.989 283.499 177.384 278.104 177.384 271.456L177.384 247.37C177.384 240.722 171.989 235.327 165.341 235.327ZM225.556 247.37L225.556 271.456C225.556 278.104 230.951 283.499 237.599 283.499L358.029 283.499C364.677 283.499 370.072 278.104 370.072 271.456L370.072 247.37C370.072 240.722 364.677 235.327 358.029 235.327L237.599 235.327C230.951 235.327 225.556 240.722 225.556 247.37ZM165.341 331.671L141.255 331.671C134.607 331.671 129.212 337.066 129.212 343.714L129.212 367.8C129.212 374.448 134.607 379.843 141.255 379.843L165.341 379.843C171.989 379.843 177.384 374.448 177.384 367.8L177.384 343.714C177.384 337.066 171.989 331.671 165.341 331.671ZM225.556 343.714L225.556 367.8C225.556 374.448 230.951 379.843 237.599 379.843L358.029 379.843C364.677 379.843 370.072 374.448 370.072 367.8L370.072 343.714C370.072 337.066 364.677 331.671 358.029 331.671L237.599 331.671C230.951 331.671 225.556 337.066 225.556 343.714Z" fill="#8eef97" fill-rule="evenodd" opacity="1" stroke="none"/>
</g>
<path d="M321.517 66.4519L178.483 66.4519L226.155 11.4047C239.324-3.80158 260.676-3.80158 273.845 11.4047L321.517 66.4519Z" fill="#8eef97" fill-rule="evenodd" opacity="1" stroke="none"/>
</g>
</g>
</svg>
