<?xml version="1.0" encoding="UTF-8" standalone="no"?>
<!DOCTYPE svg PUBLIC "-//W3C//DTD SVG 1.1//EN" "http://www.w3.org/Graphics/SVG/1.1/DTD/svg11.dtd">
<!-- Created with Vectornator (http://vectornator.io/) -->
<svg stroke-miterlimit="10" style="fill-rule:nonzero;clip-rule:evenodd;stroke-linecap:round;stroke-linejoin:round;" version="1.1" viewBox="0 0 500 500" xml:space="preserve" xmlns="http://www.w3.org/2000/svg" xmlns:xlink="http://www.w3.org/1999/xlink">
<defs/>
<g id="Layer-1">
<g opacity="1">
<path d="M350.06 224.907L350.06 474.992L400.076 474.992L400.076 224.907L350.06 224.907ZM375.068 293.68L359.438 305.403C356.753 307.5 352.574 311.417 346.933 316.344C337.58 324.51 328.382 332.83 319.581 342.134C306.695 355.756 295.982 369.56 288.32 382.773C279.912 397.271 275.033 411.047 275.034 424.975C275.034 479.622 312.808 500 375.068 500C437.329 500 475.101 479.621 475.102 424.975C475.102 411.047 470.225 397.272 461.816 382.773C454.153 369.561 443.44 355.757 430.555 342.134C421.754 332.83 412.556 324.509 403.202 316.344C397.561 311.419 393.383 307.5 390.698 305.403L375.068 293.68ZM375.068 358.546C381.634 364.478 388.516 370.083 394.606 376.521C405.048 387.56 413.386 398.391 418.833 407.781C423.203 415.316 425.084 421.195 425.085 424.975C425.085 443.664 413.371 449.983 375.068 449.983C336.765 449.983 325.051 443.664 325.051 424.975C325.051 421.195 326.934 415.317 331.303 407.781C336.749 398.391 345.088 387.56 355.53 376.521C361.62 370.083 368.502 364.479 375.068 358.546Z" fill="#fc7f7e" fill-rule="nonzero" opacity="1" stroke="none"/>
<path d="M415.03 25.0084C405.026 10.0034 390.021 0 372.515 0L149.94 0C134.935 0 119.93 7.50253 109.927 20.0067L41.604 104.385C30.8003 117.765 24.8983 134.42 24.8983 151.601L24.8983 200.067C24.8983 227.577 47.4059 250.084 74.9152 250.084L425.033 250.084C452.542 250.084 475.05 227.577 475.05 200.067L475.05 145.824C475.05 132.22 471.349 118.89 464.346 107.236L415.03 25.0084ZM324.999 100.034L224.966 100.034C211.161 100.034 199.957 88.8299 199.957 75.0253L199.957 75.0253C199.957 61.2206 211.161 50.0169 224.966 50.0169L324.999 50.0169C338.804 50.0169 350.008 61.2206 350.008 75.0253L350.008 75.0253C350.008 88.8299 338.804 100.034 324.999 100.034Z" fill="#fc7f7e" fill-rule="nonzero" opacity="1" stroke="none"/>
</g>
</g>
</svg>
