# Blender v3.2.1 OBJ File: 'apple.blend'
# www.blender.org
o Apple.Slices.001_Sphere.002
v 0.624166 1.270537 0.624166
v 0.675468 0.902912 0.675468
v 0.624160 0.538966 0.624097
v 0.267525 1.548750 0.645949
v 0.260539 0.276419 0.640128
v 0.000009 1.551602 0.699160
v -0.000000 0.283558 0.691182
v -0.267587 1.548713 0.645927
v -0.260540 0.276419 0.640128
v -0.624166 1.270537 0.624166
v -0.675468 0.902912 0.675468
v -0.624160 0.538966 0.624096
v 0.562496 1.420865 0.562497
v 0.660839 1.092214 0.660840
v 0.660839 0.714043 0.660840
v 0.562225 0.396553 0.561232
v 0.233158 1.613266 0.564310
v 0.304421 1.427305 0.734937
v 0.303356 0.396553 0.734202
v 0.382519 0.275280 0.572480
v 0.489147 0.538966 0.732061
v 0.489181 1.271428 0.732112
v 0.387435 1.542302 0.579860
v 0.000058 1.616453 0.610634
v 0.131653 0.280558 0.677146
v 0.136041 1.551234 0.683990
v -0.234183 1.612645 0.563956
v -0.304421 1.427305 0.734937
v -0.303356 0.396553 0.734202
v -0.131653 0.280558 0.677146
v -0.136064 1.551216 0.683979
v -0.562496 1.420865 0.562496
v -0.660840 1.092214 0.660839
v -0.660840 0.714043 0.660839
v -0.562211 0.396581 0.561299
v -0.382505 0.275308 0.572547
v -0.489148 0.538966 0.732061
v -0.489181 1.271428 0.732111
v -0.387464 1.542285 0.579855
v -0.000000 0.202989 0.586640
v 0.517922 0.714043 0.775126
v 0.440838 1.423472 0.659760
v 0.440162 0.396439 0.658749
v 0.517922 1.092370 0.775125
v 0.105142 0.194635 0.576353
v -0.105142 0.194635 0.576353
v -0.517922 0.714043 0.775125
v -0.440838 1.423472 0.659760
v -0.440162 0.396439 0.658749
v -0.517922 1.092370 0.775125
v -0.119042 1.615740 0.597278
v 0.118596 1.616107 0.597497
v 0.770964 0.902921 0.556056
v 0.744631 0.714043 0.556056
v 0.678568 0.538986 0.556056
v 0.567646 1.421003 0.556056
v 0.556056 1.431939 0.556056
v 0.678633 1.270986 0.556056
v 0.566359 0.396580 0.556056
v 0.562597 0.393226 0.556056
v 0.557393 0.388323 0.556056
v 0.744631 1.092328 0.556056
v 0.386465 0.266146 0.556056
v 0.403175 0.275495 0.556056
v 0.371544 0.257372 0.556056
v 0.294085 0.223724 0.556056
v 0.217898 0.192669 0.556056
v 0.548161 0.902922 0.777278
v 0.519360 0.737728 0.777278
v 0.514015 0.714043 0.777278
v 0.407075 0.538966 0.777278
v 0.417221 1.541096 0.556056
v 0.407197 1.272092 0.777278
v 0.321959 1.346038 0.777278
v 0.321575 0.472029 0.777278
v 0.519360 1.068613 0.777278
v 0.514015 1.092375 0.777278
v 0.154270 0.397198 0.777278
v 0.154200 0.397176 0.777278
v 0.154174 0.397168 0.777278
v 0.019168 0.380670 0.777278
v -0.000000 0.378845 0.777278
v 0.115302 0.183153 0.556056
v 0.176070 0.186464 0.556056
v 0.100245 0.183886 0.556056
v 0.206165 0.190067 0.556056
v 0.022363 0.185988 0.556056
v -0.000000 0.188265 0.556056
v 0.158127 1.428699 0.777278
v 0.154610 1.429982 0.777278
v 0.000002 1.452124 0.777278
v -0.154134 0.397164 0.777278
v -0.154175 0.397168 0.777278
v -0.154270 0.397198 0.777278
v -0.321576 0.472029 0.777278
v -0.082246 0.185604 0.556056
v -0.100246 0.183886 0.556056
v -0.176119 0.186464 0.556056
v -0.217884 0.192657 0.556056
v -0.154610 1.429981 0.777278
v -0.158127 1.428699 0.777278
v -0.321959 1.346038 0.777278
v -0.371424 0.257278 0.556056
v -0.403399 0.275587 0.556056
v -0.514015 0.714043 0.777278
v -0.407075 0.538966 0.777278
v -0.519361 0.737732 0.777278
v -0.548161 0.902922 0.777278
v -0.363091 1.309677 0.777278
v -0.407197 1.272092 0.777278
v -0.417240 1.541084 0.556056
v -0.474419 1.495279 0.556056
v -0.556055 1.431941 0.556056
v -0.557257 0.388183 0.556056
v -0.514015 1.092375 0.777278
v -0.519361 1.068609 0.777278
v -0.744631 0.714043 0.556056
v -0.678575 0.538990 0.556056
v -0.770964 0.902921 0.556056
v -0.567646 1.421003 0.556056
v -0.678633 1.270986 0.556056
v -0.563136 1.425333 0.556056
v -0.566409 0.396616 0.556056
v -0.744631 1.092328 0.556056
v -0.248551 1.611637 0.556056
v -0.313442 1.585186 0.556056
v -0.371666 1.562723 0.556056
v -0.231170 1.614730 0.556056
v -0.000033 1.631528 0.556056
v -0.046787 1.628872 0.556056
v -0.111452 1.626618 0.556056
v -0.143506 1.622884 0.556056
v 0.229467 1.615785 0.556056
v 0.109694 1.628105 0.556056
v 0.371440 1.562875 0.556056
v 0.248167 1.612178 0.556056
vt 0.363615 0.388701
vt 0.349436 0.362785
vt 0.368821 0.356350
vt 0.380089 0.383356
vt 0.335256 0.336868
vt 0.351755 0.331316
vt 0.387064 0.431164
vt 0.387633 0.430984
vt 0.387647 0.432158
vt 0.380897 0.420644
vt 0.387453 0.418386
vt 0.308281 0.294357
vt 0.310185 0.293204
vt 0.308707 0.292395
vt 0.306433 0.291445
vt 0.372256 0.404673
vt 0.384406 0.400635
vt 0.243982 0.277824
vt 0.251066 0.278694
vt 0.244009 0.284959
vt 0.237363 0.277213
vt 0.206713 0.318072
vt 0.171710 0.283453
vt 0.205465 0.279166
vt 0.328972 0.380817
vt 0.310100 0.358898
vt 0.331338 0.383565
vt 0.349870 0.400932
vt 0.328473 0.381256
vt 0.296464 0.370840
vt 0.378912 0.438938
vt 0.370799 0.429838
vt 0.387024 0.448038
vt 0.388752 0.446268
vt 0.380818 0.454393
vt 0.370759 0.446712
vt 0.365330 0.434817
vt 0.365474 0.442676
vt 0.277055 0.321928
vt 0.266559 0.366157
vt 0.245828 0.349500
vt 0.359321 0.416286
vt 0.357882 0.414587
vt 0.359006 0.416569
vt 0.213465 0.389664
vt 0.156740 0.368611
vt 0.213500 0.389645
vt 0.213475 0.389658
vt 0.106766 0.419150
vt 0.174908 0.422791
vt 0.168832 0.428070
vt 0.123508 0.300449
vt 0.152335 0.290931
vt 0.123164 0.313810
vt 0.116375 0.302730
vt 0.166241 0.285561
vt 0.078970 0.348471
vt 0.070755 0.327584
vt 0.080935 0.321888
vt 0.366279 0.456636
vt 0.377319 0.462284
vt 0.366291 0.456917
vt 0.373820 0.470175
vt 0.363907 0.467609
vt 0.144697 0.477611
vt 0.201570 0.475407
vt 0.201579 0.475419
vt 0.222054 0.520999
vt 0.201605 0.475446
vt 0.242949 0.513010
vt 0.182628 0.536073
vt 0.070223 0.486004
vt 0.106672 0.525115
vt 0.098984 0.534720
vt 0.091992 0.529271
vt 0.059424 0.505760
vt 0.147482 0.561119
vt 0.130749 0.550951
vt 0.373621 0.478683
vt 0.361445 0.478056
vt 0.373422 0.487191
vt 0.361043 0.489088
vt 0.361314 0.478295
vt 0.354539 0.490084
vt 0.205658 0.567640
vt 0.199289 0.572734
vt 0.210071 0.573689
vt 0.297405 0.522486
vt 0.297642 0.523026
vt 0.273754 0.531962
vt 0.267101 0.517849
vt 0.300638 0.521906
vt 0.322451 0.516445
vt 0.328702 0.532411
vt 0.307364 0.545204
vt 0.286027 0.557997
vt 0.364555 0.499488
vt 0.353304 0.503446
vt 0.350792 0.496697
vt 0.352657 0.493227
vt 0.375805 0.495530
vt 0.369024 0.509319
vt 0.368066 0.509888
vt 0.376469 0.497852
vt 0.373251 0.502445
vt 0.357943 0.515908
vt 0.239706 0.549801
vt 0.257357 0.578602
vt 0.255348 0.580046
vt 0.337417 0.508769
vt 0.335424 0.509436
vt 0.337273 0.508394
vt 0.343323 0.524160
vt 0.318480 0.558063
vt 0.294944 0.568392
vt 0.339032 0.544234
vt 0.368461 0.510307
vt 0.362347 0.520817
vt 0.368681 0.509916
vt 0.258213 0.579610
vt 0.351154 0.533028
vt 0.377435 0.494937
vt 0.378648 0.486402
vt 0.378948 0.487405
vt 0.378158 0.491384
vt 0.379071 0.486339
vt 0.379135 0.471429
vt 0.378892 0.478916
vt 0.380996 0.479009
vt 0.381903 0.472083
vt 0.381512 0.474994
vt 0.380470 0.480985
vt 0.385198 0.457614
vt 0.382167 0.464522
vt 0.385575 0.457891
vt 0.384138 0.465432
vt 0.388208 0.449358
vt 0.385980 0.456827
vt 0.000000 0.000000
vt 0.000000 0.000000
vt 0.000000 0.000000
vt 0.000000 0.000000
vt 0.000000 0.000000
vt 0.000000 0.000000
vt 0.000000 0.000000
vt 0.000000 0.000000
vt 0.000000 0.000000
vt 0.000000 0.000000
vt 0.000000 0.000000
vt 0.000000 0.000000
vt 0.000000 0.000000
vt 0.000000 0.000000
vt 0.000000 0.000000
vt 0.000000 0.000000
vt 0.000000 0.000000
vt 0.000000 0.000000
vt 0.000000 0.000000
vt 0.000000 0.000000
vt 0.000000 0.000000
vt 0.000000 0.000000
vt 0.000000 0.000000
vt 0.000000 0.000000
vt 0.000000 0.000000
vt 0.000000 0.000000
vt 0.000000 0.000000
vt 0.000000 0.000000
vt 0.000000 0.000000
vt 0.000000 0.000000
vt 0.000000 0.000000
vt 0.000000 0.000000
vt 0.000000 0.000000
vt 0.000000 0.000000
vt 0.000000 0.000000
vt 0.000000 0.000000
vt 0.000000 0.000000
vt 0.000000 0.000000
vt 0.000000 0.000000
vt 0.000000 0.000000
vt 0.000000 0.000000
vt 0.000000 0.000000
vt 0.000000 0.000000
vt 0.000000 0.000000
vt 0.000000 0.000000
vt 0.000000 0.000000
vt 0.000000 0.000000
vt 0.000000 0.000000
vt 0.000000 0.000000
vt 0.000000 0.000000
vt 0.000000 0.000000
vt 0.000000 0.000000
vt 0.000000 0.000000
vt 0.000000 0.000000
vt 0.000000 0.000000
vt 0.000000 0.000000
vt 0.000000 0.000000
vt 0.000000 0.000000
vt 0.000000 0.000000
vt 0.000000 0.000000
vt 0.000000 0.000000
vt 0.000000 0.000000
vt 0.000000 0.000000
vt 0.000000 0.000000
vt 0.000000 0.000000
vt 0.000000 0.000000
vt 0.000000 0.000000
vt 0.000000 0.000000
vt 0.000000 0.000000
vt 0.000000 0.000000
vt 0.000000 0.000000
vt 0.000000 0.000000
vt 0.000000 0.000000
vt 0.000000 0.000000
vt 0.000000 0.000000
vt 0.000000 0.000000
vt 0.000000 0.000000
vt 0.000000 0.000000
vt 0.000000 0.000000
vt 0.000000 0.000000
vt 0.000000 0.000000
vt 0.000000 0.000000
vt 0.000000 0.000000
vt 0.000000 0.000000
vn 0.7071 -0.0001 0.7071
vn 0.6934 -0.1962 0.6934
vn 0.8833 -0.2156 -0.4163
vn 0.9143 -0.0001 -0.4051
vn 0.6463 -0.4057 0.6463
vn 0.7993 -0.4222 -0.4277
vn 0.5839 0.5653 0.5826
vn 0.6744 0.5719 -0.4669
vn 0.5653 0.6931 -0.4472
vn 0.6517 0.3892 0.6510
vn 0.8056 0.4102 -0.4275
vn 0.5734 -0.5894 0.5691
vn 0.6582 -0.5836 -0.4756
vn 0.5793 -0.6290 -0.5184
vn 0.5438 -0.7090 -0.4491
vn 0.6938 0.1933 0.6938
vn 0.8838 0.2129 -0.4167
vn 0.4328 -0.7554 -0.4921
vn 0.5056 -0.7374 -0.4479
vn 0.3979 -0.6979 0.5955
vn 0.3751 -0.8111 -0.4487
vn 0.2569 -0.7024 0.6638
vn 0.2244 -0.8822 -0.4139
vn 0.3478 -0.8213 -0.4522
vn 0.5448 -0.1960 0.8153
vn 0.5078 -0.4058 0.7599
vn 0.3293 -0.0582 0.9424
vn 0.3625 -0.0001 0.9320
vn 0.2680 -0.1213 0.9558
vn 0.2509 -0.2625 0.9318
vn 0.4694 0.5613 0.6816
vn 0.5154 0.3875 0.7643
vn 0.4055 0.7206 0.5624
vn 0.5106 0.7369 -0.4430
vn 0.2861 0.7182 0.6343
vn 0.3272 0.5575 0.7630
vn 0.2546 0.2448 0.9355
vn 0.2128 0.2793 0.9363
vn 0.4490 -0.5885 0.6724
vn 0.2036 -0.2987 0.9324
vn 0.3060 -0.5899 0.7473
vn 0.5457 0.1929 0.8155
vn 0.3293 0.0580 0.9424
vn 0.2680 0.1186 0.9561
vn 0.0824 -0.3684 0.9260
vn 0.1100 -0.7133 0.6922
vn 0.1130 -0.3498 0.9300
vn 0.1070 -0.3515 0.9301
vn 0.0000 -0.7208 0.6931
vn 0.0387 -0.3553 0.9340
vn -0.0002 -0.3764 0.9265
vn 0.0295 -0.8665 -0.4984
vn 0.1424 -0.8949 -0.4230
vn 0.0417 -0.8219 0.5682
vn -0.0053 -0.8653 -0.5013
vn 0.1570 -0.8930 -0.4217
vn 0.0001 -0.8352 0.5500
vn -0.0000 -0.8772 -0.4801
vn -0.0314 -0.8560 -0.5161
vn 0.1265 0.3281 0.9361
vn 0.1431 0.7156 0.6837
vn 0.0962 0.3477 0.9326
vn -0.0004 0.7146 0.6995
vn -0.0000 0.3529 0.9357
vn -0.1100 -0.7132 0.6922
vn -0.0386 -0.3547 0.9342
vn -0.0834 -0.3731 0.9241
vn -0.3060 -0.5899 0.7473
vn -0.1133 -0.3508 0.9296
vn -0.2036 -0.2987 0.9324
vn -0.2573 -0.7034 0.6626
vn -0.0418 -0.8327 0.5521
vn 0.0053 -0.8601 -0.5101
vn 0.0311 -0.8471 -0.5305
vn -0.2261 -0.8857 -0.4055
vn -0.1426 -0.8964 -0.4197
vn -0.1434 0.7165 0.6827
vn -0.0962 0.3478 0.9326
vn -0.2857 0.7197 0.6328
vn -0.3271 0.5575 0.7631
vn -0.1265 0.3282 0.9361
vn -0.2132 0.2798 0.9361
vn -0.3974 -0.6976 0.5962
vn -0.3747 -0.8108 -0.4497
vn -0.5057 -0.7374 -0.4478
vn -0.2679 -0.1213 0.9558
vn -0.5448 -0.1960 0.8153
vn -0.5078 -0.4058 0.7599
vn -0.2509 -0.2625 0.9318
vn -0.3293 -0.0582 0.9424
vn -0.3625 -0.0001 0.9320
vn -0.7071 -0.0001 0.7071
vn -0.6934 -0.1962 0.6934
vn -0.6463 -0.4057 0.6463
vn -0.4696 0.5616 0.6812
vn -0.5153 0.3873 0.7645
vn -0.2550 0.2453 0.9353
vn -0.2275 0.2624 0.9378
vn -0.4055 0.7219 0.5607
vn -0.5652 0.6928 -0.4478
vn -0.5836 0.5650 0.5833
vn -0.5105 0.7371 -0.4429
vn -0.5532 0.7018 -0.4489
vn -0.6517 0.3892 0.6510
vn -0.4490 -0.5884 0.6725
vn -0.5723 -0.5880 0.5716
vn -0.5437 -0.7089 -0.4494
vn -0.5457 0.1929 0.8155
vn -0.3293 0.0580 0.9424
vn -0.2680 0.1186 0.9561
vn -0.6938 0.1933 0.6938
vn -0.8833 -0.2156 -0.4163
vn -0.7993 -0.4222 -0.4277
vn -0.9143 -0.0001 -0.4051
vn -0.6744 0.5719 -0.4670
vn -0.8056 0.4102 -0.4275
vn -0.5938 0.6292 -0.5015
vn -0.6583 -0.5834 -0.4757
vn -0.8838 0.2129 -0.4167
vn -0.3331 0.7982 -0.5019
vn -0.1987 0.9017 0.3841
vn -0.2883 0.8157 -0.5016
vn -0.3176 0.8032 -0.5040
vn -0.1000 0.7799 -0.6179
vn -0.0021 0.8965 0.4431
vn -0.0989 0.9009 0.4225
vn -0.0520 0.7935 -0.6063
vn -0.0030 0.8020 -0.5973
vn -0.0316 0.7909 -0.6111
vn -0.0765 0.7787 -0.6227
vn 0.2029 0.8949 0.3974
vn 0.0977 0.8955 0.4343
vn 0.1063 0.7883 -0.6060
vn 0.0500 0.7997 -0.5984
vn 0.3345 0.7979 -0.5015
vn 0.2920 0.8148 -0.5009
vn 0.0000 0.0000 1.0000
vn 0.0000 0.0000 -1.0000
s 1
f 2/1/1 15/2/2 54/3/3 53/4/4
f 15/2/2 3/5/5 55/6/6 54/3/3
f 13/7/7 56/8/8 57/9/9
f 13/7/7 1/10/10 58/11/11 56/8/8
f 3/5/5 16/12/12 59/13/13 55/6/6
f 60/14/14 59/13/13 16/12/12 61/15/15
f 1/10/10 14/16/16 62/17/17 58/11/11
f 14/16/16 2/1/1 53/4/4 62/17/17
f 63/18/18 64/19/19 20/20/20 65/21/21
f 20/20/20 5/22/22 67/23/23 66/24/24 65/21/21
f 3/5/5 15/2/2 41/25/25 21/26/26
f 69/27/27 41/25/25 15/2/2 2/1/1 68/28/28
f 41/25/25 69/27/27 70/29/29
f 21/26/26 41/25/25 70/29/29 71/30/30
f 1/10/10 13/7/7 42/31/31 22/32/32
f 23/33/33 42/31/31 13/7/7 57/9/9 72/34/34
f 42/31/31 23/33/33 4/35/35 18/36/36
f 73/37/37 22/32/32 42/31/31 18/36/36 74/38/38
f 16/12/12 43/39/39 20/20/20 64/19/19 61/15/15
f 16/12/12 3/5/5 21/26/26 43/39/39
f 75/40/40 19/41/41 43/39/39 21/26/26 71/30/30
f 20/20/20 43/39/39 19/41/41 5/22/22
f 68/28/28 2/1/1 14/16/16 44/42/42 76/43/43
f 14/16/16 1/10/10 22/32/32 44/42/42
f 77/44/44 44/42/42 22/32/32 73/37/37
f 76/43/43 44/42/42 77/44/44
f 80/45/45 25/46/46 5/22/22 19/41/41 78/47/47 79/48/48
f 19/41/41 75/40/40 78/47/47
f 7/49/49 25/46/46 80/45/45 81/50/50 82/51/51
f 83/52/52 84/53/53 45/54/54 85/55/55
f 5/22/22 25/46/46 45/54/54 84/53/53 86/56/56 67/23/23
f 45/54/54 25/46/46 7/49/49 40/57/57
f 45/54/54 40/57/57 88/58/58 87/59/59 85/55/55
f 74/38/38 18/36/36 89/60/60
f 89/60/60 18/36/36 4/35/35 26/61/61 90/62/62
f 90/62/62 26/61/61 6/63/63 91/64/64
f 30/65/65 7/49/49 82/51/51 92/66/66 93/67/67
f 29/68/68 94/69/69 95/70/70
f 94/69/69 29/68/68 9/71/71 30/65/65 93/67/67
f 40/72/57 46/73/72 97/74/73 96/75/74 88/76/58
f 40/72/57 7/49/49 30/65/65 46/73/72
f 9/71/71 99/77/75 98/78/76 46/73/72 30/65/65
f 46/73/72 98/78/76 97/74/73
f 91/64/64 6/63/63 31/79/77 100/80/78
f 100/80/78 31/79/77 8/81/79 28/82/80 101/83/81
f 28/82/80 102/84/82 101/83/81
f 9/71/71 36/85/83 103/86/84 99/77/75
f 36/85/83 104/87/85 103/86/84
f 105/88/86 47/89/87 37/90/88 106/91/89
f 47/89/87 105/88/86 107/92/90
f 108/93/91 11/94/92 34/95/93 47/89/87 107/92/90
f 37/90/88 47/89/87 34/95/93 12/96/94
f 102/84/82 28/82/80 48/97/95 38/98/96 110/99/97 109/100/98
f 28/82/80 8/81/79 39/101/99 48/97/95
f 113/102/100 32/103/101 48/97/95 39/101/99 111/104/102 112/105/103
f 38/98/96 48/97/95 32/103/101 10/106/104
f 9/71/71 29/68/68 49/107/105 36/85/83
f 37/90/88 49/107/105 29/68/68 95/70/70 106/91/89
f 49/107/105 37/90/88 12/96/94 35/108/106
f 35/108/106 114/109/107 104/87/85 36/85/83 49/107/105
f 50/110/108 116/111/109 115/112/110
f 38/98/96 50/110/108 115/112/110 110/99/97
f 50/110/108 38/98/96 10/106/104 33/113/111
f 116/111/109 50/110/108 33/113/111 11/94/92 108/93/91
f 12/96/94 34/95/93 117/114/112 118/115/113
f 34/95/93 11/94/92 119/116/114 117/114/112
f 10/106/104 32/103/101 120/117/115 121/118/116
f 32/103/101 113/102/100 122/119/117 120/117/115
f 35/108/106 123/120/118 114/109/107
f 35/108/106 12/96/94 118/115/113 123/120/118
f 11/94/92 33/113/111 124/121/119 119/116/114
f 33/113/111 10/106/104 121/118/116 124/121/119
f 127/122/120 39/101/99 8/81/79 27/123/121 125/124/122 126/125/123
f 27/123/121 128/126/124 125/124/122
f 39/101/99 127/122/120 111/104/102
f 6/63/63 24/127/125 51/128/126 31/79/77
f 131/129/127 51/128/126 24/127/125 129/130/128 130/131/129
f 128/126/124 27/123/121 51/128/126 131/129/127 132/132/130
f 31/79/77 51/128/126 27/123/121 8/81/79
f 4/35/35 17/133/131 52/134/132 26/61/61
f 52/134/132 17/133/131 133/135/133 134/136/134
f 24/127/125 52/134/132 134/136/134 129/130/128
f 26/61/61 52/134/132 24/127/125 6/63/63
f 23/33/33 72/34/34 135/137/135
f 17/133/131 136/138/136 133/135/133
f 136/138/136 17/133/131 4/35/35 23/33/33 135/137/135
s off
f 80/139/137 79/140/137 78/141/137 75/142/137 71/143/137 70/144/137 69/145/137 68/146/137 76/147/137 77/148/137 73/149/137 74/150/137 89/151/137 90/152/137 91/153/137 100/154/137 101/155/137 102/156/137 109/157/137 110/158/137 115/159/137 116/160/137 108/161/137 107/162/137 105/163/137 106/164/137 95/165/137 94/166/137 93/167/137 92/168/137 82/169/137 81/170/137
f 84/171/138 83/172/138 85/173/138 87/174/138 88/175/138 96/176/138 97/177/138 98/178/138 99/179/138 103/180/138 104/181/138 114/182/138 123/183/138 118/184/138 117/185/138 119/186/138 124/187/138 121/188/138 120/189/138 122/190/138 113/191/138 112/192/138 111/193/138 127/194/138 126/195/138 125/196/138 128/197/138 132/198/138 131/199/138 130/200/138 129/201/138 134/202/138 133/203/138 136/204/138 135/205/138 72/206/138 57/207/138 56/208/138 58/209/138 62/210/138 53/211/138 54/212/138 55/213/138 59/214/138 60/215/138 61/216/138 64/217/138 63/218/138 65/219/138 66/220/138 67/221/138 86/222/138
