# Blender v3.2.1 OBJ File: 'apple.blend'
# www.blender.org
o Apple.Slices.001_Sphere.002
v 0.815512 1.272654 0.337796
v 0.882542 0.902934 0.365561
v 0.815455 0.539042 0.337773
v 0.494391 1.537971 0.494382
v 0.491697 0.276419 0.485674
v -0.494386 1.537974 0.494394
v -0.491534 0.276761 0.486489
v -0.815512 1.272654 0.337796
v -0.882542 0.902934 0.365560
v -0.815446 0.539061 0.337817
v 0.167845 0.123775 0.451086
v -0.000000 0.153165 0.483144
v -0.167837 0.123795 0.451133
v 0.358151 1.627553 0.358674
v 0.190266 1.642538 0.468385
v -0.000116 1.645408 0.505807
v -0.196876 1.638469 0.466130
v -0.359341 1.627938 0.358536
v 0.863428 1.092559 0.357644
v 0.863428 0.714043 0.357644
v 0.431899 1.600431 0.431875
v 0.579858 1.542284 0.387467
v 0.575220 0.280558 0.380764
v 0.732080 0.539004 0.489135
v 0.792289 0.902923 0.529391
v 0.732111 1.271428 0.489181
v 0.133676 0.126210 0.355070
v -0.000001 0.146946 0.380437
v -0.133682 0.126232 0.355122
v -0.431958 1.600483 0.431959
v -0.863428 1.092559 0.357644
v -0.863428 0.714043 0.357644
v -0.732075 0.539014 0.489157
v -0.792289 0.902923 0.529390
v -0.732112 1.271428 0.489181
v -0.579874 1.542306 0.387441
v -0.574567 0.281906 0.383913
v -0.001343 1.643227 0.355964
v 0.422714 0.182256 0.405207
v 0.212597 0.182256 0.545603
v -0.212592 0.182266 0.545626
v -0.422061 0.183623 0.408447
v -0.264428 0.118099 0.396745
v -0.080925 0.141470 0.475965
v 0.080924 0.141470 0.475964
v 0.264582 0.117776 0.395974
v -0.282909 1.631566 0.419595
v -0.100031 1.642988 0.494021
v 0.096708 1.645608 0.495597
v 0.278715 1.633977 0.420362
v 0.775125 0.714043 0.517922
v 0.659760 1.423472 0.440838
v 0.659133 0.397198 0.439905
v 0.775125 1.092370 0.517922
v 0.323047 0.178231 0.483473
v 0.063445 1.645185 0.350920
v -0.074747 1.636664 0.345405
v -0.322956 0.178421 0.483926
v -0.775125 0.714043 0.517922
v -0.659760 1.423472 0.440838
v -0.659043 0.397388 0.440358
v -0.775125 1.092370 0.517922
v -0.065018 0.138597 0.374632
v 0.065010 0.138590 0.374613
v -0.506840 1.605735 0.338294
v -0.338747 1.605313 0.506461
v 0.338177 1.605655 0.506556
v 0.506513 1.605288 0.338802
v 0.816596 0.539042 0.333833
v 0.805945 0.522569 0.333833
v 0.816659 1.272662 0.333833
v 0.870323 1.092564 0.333833
v 0.891729 0.902934 0.333833
v 0.870323 0.714043 0.333833
v 0.805944 1.291017 0.333833
v 0.378524 1.628811 0.333833
v 0.332713 1.626211 0.333833
v 0.600792 0.281769 0.333833
v 0.565239 0.257262 0.333833
v 0.513472 0.216617 0.333833
v 0.492192 0.202490 0.333833
v 0.479425 0.192353 0.333833
v 0.416001 0.162626 0.333833
v 0.358079 0.128408 0.333833
v 0.771764 0.902921 0.555056
v 0.745431 0.714043 0.555056
v 0.679368 0.538986 0.555056
v 0.718728 1.426478 0.333833
v 0.609423 1.545160 0.333833
v 0.568445 1.421025 0.555056
v 0.555056 1.433658 0.555056
v 0.679433 1.270993 0.555056
v 0.717460 0.397613 0.333833
v 0.646697 0.328475 0.333833
v 0.567158 0.396586 0.555056
v 0.562669 0.392583 0.555056
v 0.556460 0.386733 0.555056
v 0.745431 1.092329 0.555056
v 0.351357 0.125922 0.333833
v 0.344611 0.123236 0.333833
v 0.404433 0.275509 0.555056
v 0.386705 0.265590 0.555056
v 0.370876 0.256282 0.555056
v 0.294484 0.223098 0.555056
v 0.217391 0.191673 0.555056
v 0.418472 1.541045 0.555056
v 0.289892 1.629002 0.333833
v 0.217236 1.631927 0.333833
v 0.128467 1.641400 0.333833
v 0.126676 1.641532 0.333833
v 0.121215 1.641802 0.333833
v 0.059511 1.643582 0.333833
v 0.055209 1.643080 0.333833
v -0.001469 1.640905 0.333833
v 0.179565 0.186062 0.555056
v 0.115802 0.182588 0.555056
v 0.100004 0.183356 0.555056
v 0.206780 0.189320 0.555056
v 0.023094 0.185432 0.555056
v -0.000000 0.187784 0.555056
v -0.008536 1.639660 0.333833
v -0.072762 1.635198 0.333833
v -0.076600 1.634617 0.333833
v -0.116100 1.632261 0.333833
v -0.144359 1.629710 0.333833
v -0.149782 1.629575 0.333833
v -0.081118 0.185159 0.555056
v -0.100004 0.183356 0.555056
v -0.217377 0.191661 0.555056
v -0.179617 0.186062 0.555056
v -0.370752 0.256185 0.555056
v -0.404666 0.275604 0.555056
v -0.349934 0.125742 0.333833
v -0.352586 0.126765 0.333833
v -0.418491 1.541034 0.555056
v -0.474743 1.495971 0.555056
v -0.555055 1.433660 0.555056
v -0.351148 1.628702 0.333833
v -0.335431 1.626839 0.333833
v -0.379069 1.630010 0.333833
v -0.556313 0.386581 0.555056
v -0.745431 0.714043 0.555056
v -0.679374 0.538991 0.555056
v -0.771764 0.902921 0.555056
v -0.568445 1.421025 0.555056
v -0.679432 1.270993 0.555056
v -0.563235 1.426027 0.555056
v -0.651248 1.500826 0.333833
v -0.609425 1.545189 0.333833
v -0.718728 1.426478 0.333833
v -0.805945 1.291015 0.333833
v -0.567210 0.396623 0.555056
v -0.717647 0.397887 0.333833
v -0.805639 0.522138 0.333833
v -0.601770 0.283390 0.333833
v -0.745431 1.092329 0.555056
v -0.484782 0.197726 0.333833
v -0.499617 0.208260 0.333833
v -0.816599 0.539060 0.333833
v -0.870323 1.092564 0.333833
v -0.891729 0.902934 0.333833
v -0.816659 1.272662 0.333833
v -0.870323 0.714043 0.333833
v -0.126729 0.130629 0.333833
v -0.171501 0.124291 0.333833
v -0.222595 0.121313 0.333833
v -0.038650 0.144861 0.333833
v -0.000006 0.150053 0.333833
v -0.059402 0.143423 0.333833
v -0.113090 0.132382 0.333833
v 0.077186 0.141404 0.333833
v 0.126737 0.130577 0.333833
v 0.059385 0.143390 0.333833
v 0.021091 0.148651 0.333833
v 0.223064 0.121056 0.333833
v 0.171092 0.124205 0.333833
v 0.136593 0.129435 0.333833
v -0.425831 1.622422 0.333833
v -0.500433 1.607923 0.333833
v -0.505775 1.606873 0.333833
v -0.509301 1.606059 0.333833
v -0.574624 1.567019 0.333833
v -0.313953 1.585592 0.555056
v -0.250370 1.611510 0.555056
v -0.371003 1.563582 0.555056
v -0.230789 1.614995 0.555056
v -0.000034 1.631805 0.555056
v -0.047646 1.629100 0.555056
v -0.111268 1.626882 0.555056
v -0.144100 1.623058 0.555056
v 0.229020 1.616090 0.555056
v 0.109480 1.628394 0.555056
v 0.370768 1.563739 0.555056
v 0.249986 1.612046 0.555056
v 0.509253 1.605638 0.333833
v 0.498767 1.607623 0.333833
v -0.299350 1.626196 0.333833
v -0.229873 1.625986 0.333833
vt 0.400710 0.314843
vt 0.400340 0.306157
vt 0.401451 0.315009
vt 0.406880 0.411695
vt 0.405400 0.393659
vt 0.407697 0.393881
vt 0.407204 0.411718
vt 0.403919 0.375623
vt 0.407511 0.376032
vt 0.402315 0.345233
vt 0.405805 0.345862
vt 0.407078 0.413199
vt 0.399056 0.451505
vt 0.401137 0.450860
vt 0.400482 0.453781
vt 0.337828 0.208832
vt 0.301168 0.178415
vt 0.336437 0.186029
vt 0.360645 0.191469
vt 0.281306 0.251846
vt 0.248621 0.206813
vt 0.281201 0.175122
vt 0.288692 0.176425
vt 0.218525 0.165347
vt 0.247007 0.169587
vt 0.375875 0.354009
vt 0.367983 0.325856
vt 0.383767 0.382162
vt 0.380227 0.383311
vt 0.369006 0.356289
vt 0.351998 0.331234
vt 0.397804 0.427765
vt 0.393889 0.416170
vt 0.406229 0.425099
vt 0.401720 0.439360
vt 0.405519 0.438321
vt 0.393231 0.441683
vt 0.387738 0.432313
vt 0.387721 0.430956
vt 0.387549 0.418353
vt 0.352906 0.267344
vt 0.373221 0.211290
vt 0.387730 0.246264
vt 0.310553 0.292982
vt 0.308790 0.292014
vt 0.306076 0.290882
vt 0.388828 0.399166
vt 0.384522 0.400597
vt 0.207989 0.242981
vt 0.171970 0.201003
vt 0.211982 0.165307
vt 0.215346 0.165268
vt 0.251496 0.278312
vt 0.243982 0.277387
vt 0.236958 0.276741
vt 0.167358 0.279149
vt 0.205477 0.278684
vt 0.171294 0.283041
vt 0.128003 0.240227
vt 0.388825 0.446194
vt 0.394317 0.456170
vt 0.400073 0.456882
vt 0.399291 0.462137
vt 0.389579 0.460835
vt 0.397663 0.468060
vt 0.397630 0.468180
vt 0.396268 0.471576
vt 0.387015 0.466760
vt 0.397604 0.468512
vt 0.397444 0.472188
vt 0.394821 0.474895
vt 0.397375 0.472402
vt 0.396447 0.475241
vt 0.384450 0.472684
vt 0.089588 0.259009
vt 0.153773 0.289804
vt 0.123527 0.299798
vt 0.116041 0.302184
vt 0.166347 0.284944
vt 0.081007 0.321032
vt 0.070487 0.326902
vt 0.051173 0.277792
vt 0.394807 0.474956
vt 0.394878 0.479982
vt 0.384163 0.479149
vt 0.395758 0.480051
vt 0.396431 0.475313
vt 0.396371 0.475791
vt 0.395691 0.480305
vt 0.394920 0.482869
vt 0.394276 0.485045
vt 0.383875 0.485613
vt 0.394385 0.484699
vt 0.091259 0.529490
vt 0.098605 0.535193
vt 0.068647 0.572619
vt 0.033680 0.552857
vt 0.059071 0.506406
vt 0.131936 0.552224
vt 0.147064 0.561417
vt 0.143122 0.564227
vt 0.103615 0.592381
vt 0.171435 0.595015
vt 0.137212 0.622391
vt 0.198903 0.573043
vt 0.228688 0.599207
vt 0.199749 0.625804
vt 0.210339 0.574056
vt 0.171251 0.651995
vt 0.170202 0.651859
vt 0.378189 0.503868
vt 0.369172 0.509230
vt 0.373332 0.502470
vt 0.376497 0.497949
vt 0.387836 0.498135
vt 0.390005 0.496758
vt 0.389741 0.497798
vt 0.389268 0.499604
vt 0.254965 0.580322
vt 0.322525 0.562743
vt 0.303711 0.578611
vt 0.295075 0.568544
vt 0.318586 0.558186
vt 0.341339 0.546874
vt 0.339118 0.544333
vt 0.353976 0.561337
vt 0.337686 0.580281
vt 0.321396 0.599225
vt 0.375525 0.517810
vt 0.366671 0.525637
vt 0.362412 0.520889
vt 0.368522 0.510373
vt 0.384379 0.509983
vt 0.368776 0.509920
vt 0.387146 0.512717
vt 0.384940 0.516935
vt 0.381375 0.524024
vt 0.376298 0.534222
vt 0.375398 0.535366
vt 0.250492 0.625084
vt 0.258377 0.579802
vt 0.277101 0.601848
vt 0.318450 0.602329
vt 0.292596 0.620090
vt 0.259907 0.636259
vt 0.354005 0.536256
vt 0.351229 0.533113
vt 0.364687 0.548352
vt 0.217543 0.645578
vt 0.222593 0.644765
vt 0.321966 0.599608
vt 0.366647 0.549397
vt 0.356998 0.563012
vt 0.375680 0.535508
vt 0.340454 0.582003
vt 0.084645 0.636542
vt 0.098272 0.648235
vt 0.080620 0.645911
vt 0.118045 0.650409
vt 0.021878 0.607447
vt 0.053261 0.621995
vt 0.047312 0.641087
vt 0.036706 0.637646
vt 0.016708 0.631361
vt 0.074045 0.644868
vt 0.103238 0.190179
vt 0.069638 0.205696
vt 0.061936 0.185112
vt 0.071511 0.183567
vt 0.098004 0.179601
vt 0.036038 0.221212
vt 0.029408 0.196426
vt 0.040936 0.192386
vt 0.145942 0.171400
vt 0.120051 0.175746
vt 0.102907 0.178741
vt 0.383012 0.501002
vt 0.388398 0.506409
vt 0.388703 0.506137
vt 0.389063 0.502142
vt 0.388658 0.506439
vt 0.388626 0.506638
vt 0.387668 0.510599
vt 0.380830 0.493702
vt 0.377503 0.494912
vt 0.378212 0.491430
vt 0.378986 0.487532
vt 0.379124 0.486331
vt 0.385855 0.491874
vt 0.381953 0.472095
vt 0.381047 0.479011
vt 0.381555 0.475060
vt 0.380508 0.481035
vt 0.384186 0.465454
vt 0.385621 0.457925
vt 0.396143 0.446594
vt 0.390671 0.452104
vt 0.388258 0.449414
vt 0.386075 0.456731
vt 0.403898 0.444353
vt 0.403546 0.444455
vt 0.403709 0.444911
vt 0.392858 0.489648
vt 0.390946 0.494260
vt 0.000000 0.000000
vt 0.000000 0.000000
vt 0.000000 0.000000
vt 0.000000 0.000000
vt 0.000000 0.000000
vt 0.000000 0.000000
vt 0.000000 0.000000
vt 0.000000 0.000000
vt 0.000000 0.000000
vt 0.000000 0.000000
vt 0.000000 0.000000
vt 0.000000 0.000000
vt 0.000000 0.000000
vt 0.000000 0.000000
vt 0.000000 0.000000
vt 0.000000 0.000000
vt 0.000000 0.000000
vt 0.000000 0.000000
vt 0.000000 0.000000
vt 0.000000 0.000000
vt 0.000000 0.000000
vt 0.000000 0.000000
vt 0.000000 0.000000
vt 0.000000 0.000000
vt 0.000000 0.000000
vt 0.000000 0.000000
vt 0.000000 0.000000
vt 0.000000 0.000000
vt 0.000000 0.000000
vt 0.000000 0.000000
vt 0.000000 0.000000
vt 0.000000 0.000000
vt 0.000000 0.000000
vt 0.000000 0.000000
vt 0.000000 0.000000
vt 0.000000 0.000000
vt 0.000000 0.000000
vt 0.000000 0.000000
vt 0.000000 0.000000
vt 0.000000 0.000000
vt 0.000000 0.000000
vt 0.000000 0.000000
vt 0.000000 0.000000
vt 0.000000 0.000000
vt 0.000000 0.000000
vt 0.000000 0.000000
vt 0.000000 0.000000
vt 0.000000 0.000000
vt 0.000000 0.000000
vt 0.000000 0.000000
vt 0.000000 0.000000
vt 0.000000 0.000000
vt 0.000000 0.000000
vt 0.000000 0.000000
vt 0.000000 0.000000
vt 0.000000 0.000000
vt 0.000000 0.000000
vt 0.000000 0.000000
vt 0.000000 0.000000
vt 0.000000 0.000000
vt 0.000000 0.000000
vt 0.000000 0.000000
vt 0.000000 0.000000
vt 0.000000 0.000000
vt 0.000000 0.000000
vt 0.000000 0.000000
vt 0.000000 0.000000
vt 0.000000 0.000000
vt 0.000000 0.000000
vt 0.000000 0.000000
vt 0.000000 0.000000
vt 0.000000 0.000000
vt 0.000000 0.000000
vt 0.000000 0.000000
vt 0.000000 0.000000
vt 0.000000 0.000000
vt 0.000000 0.000000
vt 0.000000 0.000000
vt 0.000000 0.000000
vt 0.000000 0.000000
vt 0.000000 0.000000
vt 0.000000 0.000000
vt 0.000000 0.000000
vt 0.000000 0.000000
vt 0.000000 0.000000
vt 0.000000 0.000000
vt 0.000000 0.000000
vt 0.000000 0.000000
vt 0.000000 0.000000
vt 0.000000 0.000000
vt 0.000000 0.000000
vt 0.000000 0.000000
vt 0.000000 0.000000
vt 0.000000 0.000000
vt 0.000000 0.000000
vt 0.000000 0.000000
vt 0.000000 0.000000
vt 0.000000 0.000000
vt 0.000000 0.000000
vt 0.000000 0.000000
vt 0.000000 0.000000
vt 0.000000 0.000000
vt 0.000000 0.000000
vt 0.000000 0.000000
vt 0.000000 0.000000
vt 0.000000 0.000000
vt 0.000000 0.000000
vt 0.000000 0.000000
vt 0.000000 0.000000
vt 0.000000 0.000000
vt 0.000000 0.000000
vt 0.000000 0.000000
vt 0.000000 0.000000
vt 0.000000 0.000000
vt 0.000000 0.000000
vt 0.000000 0.000000
vt 0.000000 0.000000
vt 0.000000 0.000000
vt 0.000000 0.000000
vt 0.000000 0.000000
vt 0.000000 0.000000
vt 0.000000 0.000000
vt 0.000000 0.000000
vt 0.000000 0.000000
vt 0.000000 0.000000
vt 0.000000 0.000000
vt 0.000000 0.000000
vt 0.000000 0.000000
vt 0.000000 0.000000
vt 0.000000 0.000000
vn 0.8439 -0.4071 0.3493
vn 0.6870 -0.4824 -0.5435
vn 0.7426 -0.3369 -0.5788
vn 0.8518 0.3850 0.3553
vn 0.9065 0.1924 0.3758
vn 0.7972 0.1599 -0.5821
vn 0.7490 0.3175 -0.5815
vn 0.9239 -0.0002 0.3827
vn 0.8183 -0.0002 -0.5747
vn 0.9059 -0.1962 0.3752
vn 0.7971 -0.1633 -0.5813
vn 0.7099 0.4575 -0.5354
vn 0.0963 0.9918 0.0845
vn 0.0838 0.7716 -0.6305
vn 0.0125 0.7042 -0.7099
vn 0.5998 -0.7119 0.3654
vn 0.4874 -0.6704 -0.5594
vn 0.4749 -0.6365 -0.6078
vn 0.5525 -0.6167 -0.5608
vn 0.5152 -0.7028 0.4906
vn 0.4473 -0.8146 0.3694
vn 0.4576 -0.6948 -0.5549
vn 0.4848 -0.6703 -0.5619
vn 0.3193 -0.7666 -0.5572
vn 0.3605 -0.6840 -0.6342
vn 0.8154 -0.1960 0.5448
vn 0.7600 -0.4065 0.5070
vn 0.8315 -0.0002 0.5556
vn 0.4632 -0.0001 0.8862
vn 0.4495 -0.1202 0.8852
vn 0.4283 -0.2613 0.8651
vn 0.6811 0.5621 0.4692
vn 0.7646 0.3870 0.5154
vn 0.6811 0.5144 -0.5211
vn 0.5589 0.7242 0.4039
vn 0.5543 0.6414 -0.5305
vn 0.4887 0.7242 0.4865
vn 0.3402 0.3708 0.8642
vn 0.3754 0.3482 0.8590
vn 0.4277 0.2464 0.8697
vn 0.6727 -0.5932 0.4423
vn 0.5813 -0.5811 -0.5696
vn 0.6565 -0.5347 -0.5322
vn 0.3766 -0.3673 0.8505
vn 0.3497 -0.3822 0.8554
vn 0.3432 -0.3904 0.8543
vn 0.8156 0.1926 0.5456
vn 0.4488 0.1179 0.8858
vn 0.3246 -0.8112 0.4863
vn 0.1355 -0.9700 0.2016
vn 0.2357 -0.7962 -0.5573
vn 0.2957 -0.7719 -0.5627
vn 0.2587 -0.4222 0.8688
vn 0.2447 -0.4269 0.8706
vn 0.2324 -0.4373 0.8688
vn 0.1646 -0.8172 0.5523
vn 0.1750 -0.4171 0.8919
vn 0.1435 -0.4373 0.8878
vn 0.0013 -0.9628 0.2701
vn 0.2562 0.4701 0.8446
vn 0.1328 0.9887 0.0694
vn 0.0290 0.6859 -0.7272
vn 0.0496 0.6904 -0.7217
vn 0.1068 0.9890 0.1023
vn 0.0580 0.6826 -0.7285
vn 0.0381 0.6967 -0.7164
vn 0.0037 0.9985 -0.0540
vn 0.0403 0.9903 0.1328
vn 0.0259 0.6998 -0.7139
vn -0.0075 0.6869 -0.7267
vn -0.0434 0.9969 -0.0658
vn -0.0272 0.6692 -0.7426
vn -0.0398 0.6784 -0.7336
vn -0.0197 0.9908 0.1339
vn -0.0889 -0.9553 0.2820
vn 0.0102 -0.5014 0.8651
vn 0.0031 -0.5028 0.8644
vn -0.0139 -0.5126 0.8585
vn 0.0624 -0.4206 0.9051
vn -0.0359 -0.5230 0.8516
vn 0.0002 -0.5269 0.8499
vn -0.0001 -0.9607 0.2777
vn -0.0602 0.9934 -0.0978
vn -0.0639 0.9923 0.1059
vn -0.0479 0.6607 -0.7491
vn -0.0500 0.6558 -0.7532
vn -0.0437 0.6453 -0.7627
vn -0.0367 0.6821 -0.7304
vn -0.0323 0.6819 -0.7308
vn -0.0962 0.9925 0.0758
vn -0.0357 0.6817 -0.7308
vn 0.0355 -0.5174 0.8550
vn 0.0142 -0.5237 0.8518
vn 0.0889 -0.9540 0.2863
vn -0.0103 -0.5029 0.8643
vn -0.1430 -0.4364 0.8883
vn -0.1630 -0.8088 0.5651
vn -0.0016 -0.9627 0.2707
vn -0.3241 -0.8105 0.4879
vn -0.1394 -0.9704 0.1971
vn -0.2315 -0.4359 0.8697
vn -0.5153 -0.7029 0.4903
vn -0.4475 -0.8120 0.3747
vn -0.2576 -0.4207 0.8699
vn -0.3198 -0.7627 -0.5622
vn -0.2414 -0.7923 -0.5604
vn -0.4881 0.7231 0.4887
vn -0.3398 0.3704 0.8645
vn -0.2774 0.3528 0.8936
vn -0.2560 0.4702 0.8446
vn -0.0798 0.9917 0.1012
vn 0.0153 0.7067 -0.7073
vn 0.0526 0.7243 -0.6875
vn -0.0814 0.7775 -0.6236
vn -0.3423 -0.3890 0.8553
vn -0.8154 -0.1960 0.5448
vn -0.7601 -0.4064 0.5071
vn -0.4282 -0.2611 0.8651
vn -0.4495 -0.1202 0.8852
vn -0.8315 -0.0002 0.5556
vn -0.4632 -0.0001 0.8862
vn -0.9239 -0.0002 0.3827
vn -0.9059 -0.1962 0.3752
vn -0.8439 -0.4073 0.3492
vn -0.6808 0.5618 0.4700
vn -0.7646 0.3870 0.5154
vn -0.4277 0.2464 0.8697
vn -0.3747 0.3475 0.8596
vn -0.5587 0.7223 0.4075
vn -0.3451 0.3642 0.8650
vn -0.5546 0.6402 -0.5316
vn -0.6128 0.5686 -0.5488
vn -0.6809 0.5143 -0.5214
vn -0.7099 0.4575 -0.5354
vn -0.8518 0.3850 0.3553
vn -0.5971 -0.7114 0.3707
vn -0.3751 -0.3656 0.8518
vn -0.6725 -0.5930 0.4428
vn -0.6869 -0.4824 -0.5435
vn -0.6560 -0.5349 -0.5325
vn -0.5498 -0.6179 -0.5620
vn -0.8156 0.1926 0.5456
vn -0.4488 0.1179 0.8858
vn -0.9065 0.1924 0.3758
vn -0.4562 -0.6870 -0.5656
vn -0.4833 -0.6673 -0.5667
vn -0.7425 -0.3372 -0.5787
vn -0.7972 0.1599 -0.5821
vn -0.8183 -0.0002 -0.5747
vn -0.7490 0.3175 -0.5815
vn -0.7971 -0.1633 -0.5813
vn 0.1409 -0.9889 -0.0468
vn 0.0514 -0.7031 -0.7092
vn 0.1161 -0.6547 -0.7469
vn 0.0214 -0.7071 -0.7068
vn -0.0000 -0.9999 -0.0102
vn 0.1567 -0.9876 -0.0121
vn 0.1081 -0.6821 -0.7233
vn 0.0840 -0.6758 -0.7323
vn -0.0002 -0.6952 -0.7188
vn 0.1324 -0.6604 -0.7392
vn -0.1419 -0.9882 -0.0568
vn -0.1568 -0.9873 -0.0243
vn -0.1051 -0.6626 -0.7416
vn -0.1301 -0.6484 -0.7501
vn -0.1170 -0.6565 -0.7452
vn -0.0833 -0.6687 -0.7389
vn -0.0263 -0.7065 -0.7072
vn -0.0532 -0.7033 -0.7089
vn -0.0918 -0.6386 -0.7640
vn -0.3089 0.8979 0.3137
vn -0.3378 0.8965 0.2866
vn -0.1409 0.7629 -0.6310
vn -0.1365 0.7640 -0.6306
vn -0.1591 0.7569 -0.6338
vn -0.3380 0.7533 -0.5642
vn -0.4224 0.6956 -0.5811
vn -0.2759 0.9008 0.3353
vn -0.2196 0.4851 0.8464
vn -0.1860 0.4682 0.8638
vn -0.1336 0.6257 0.7685
vn -0.0961 0.6344 0.7670
vn -0.1050 0.9926 0.0614
vn -0.0063 0.6167 0.7872
vn -0.0506 0.6231 0.7805
vn -0.0301 0.6074 0.7939
vn -0.0653 0.6176 0.7838
vn 0.0448 0.6154 0.7869
vn 0.1026 0.6276 0.7718
vn 0.3112 0.8990 0.3083
vn 0.2831 0.8990 0.3342
vn 0.2202 0.4849 0.8464
vn 0.1411 0.6181 0.7733
vn 0.3310 0.7555 -0.5654
vn 0.3333 0.9024 0.2733
vn 0.1354 0.7588 -0.6372
vn -0.0173 0.6840 -0.7293
vn 0.0028 0.6854 -0.7282
vn -0.0000 0.0000 1.0000
vn -0.0000 0.0000 -1.0000
s 1
f 3/1/1 70/2/2 69/3/3
f 1/4/4 19/5/5 72/6/6 71/7/7
f 19/5/5 2/8/8 73/9/9 72/6/6
f 73/9/9 2/8/8 20/10/10 74/11/11
f 20/10/10 3/1/1 69/3/3 74/11/11
f 1/4/4 71/7/7 75/12/12
f 14/13/13 76/14/14 77/15/15
f 23/16/16 80/17/17 79/18/18 78/19/19
f 23/16/16 5/20/20 39/21/21 82/22/22 81/23/23 80/17/17
f 39/21/21 84/24/24 83/25/25 82/22/22
f 3/1/1 20/10/10 51/26/26 24/27/27
f 20/10/10 2/8/8 25/28/28 51/26/26
f 51/26/26 25/28/28 85/29/29 86/30/30
f 24/27/27 51/26/26 86/30/30 87/31/31
f 52/32/32 26/33/33 1/4/4 75/12/12 88/34/34
f 22/35/35 52/32/32 88/34/34 89/36/36
f 22/35/35 4/37/37 91/38/38 90/39/39 52/32/32
f 26/33/33 52/32/32 90/39/39 92/40/40
f 53/41/41 23/16/16 78/19/19 94/42/42 93/43/43
f 3/1/1 24/27/27 53/41/41 93/43/43 70/2/2
f 53/41/41 24/27/27 87/31/31 95/44/44
f 5/20/20 23/16/16 53/41/41 95/44/44 96/45/45 97/46/46
f 2/8/8 19/5/5 54/47/47 25/28/28
f 19/5/5 1/4/4 26/33/33 54/47/47
f 54/47/47 26/33/33 92/40/40 98/48/48
f 25/28/28 54/47/47 98/48/48 85/29/29
f 39/21/21 55/49/49 46/50/50 100/51/51 99/52/52 84/24/24
f 55/49/49 39/21/21 5/20/20 101/53/53 102/54/54 103/55/55
f 40/56/56 55/49/49 103/55/55 104/57/57 105/58/58
f 46/50/50 55/49/49 40/56/56 11/59/59
f 91/38/38 4/37/37 106/60/60
f 101/53/53 5/20/20 97/46/46
f 50/61/61 14/13/13 77/15/15 107/62/62 108/63/63
f 15/64/64 50/61/61 108/63/63 109/65/65 110/66/66
f 56/67/67 49/68/68 15/64/64 110/66/66 111/69/69
f 56/67/67 111/69/69 112/70/70
f 38/71/71 56/67/67 112/70/70 113/72/72 114/73/73
f 49/68/68 56/67/67 38/71/71 16/74/74
f 45/75/75 11/59/59 40/56/56 115/76/76 116/77/77 117/78/78
f 115/76/76 40/56/56 105/58/58 118/79/79
f 119/80/80 120/81/81 12/82/82 45/75/75 117/78/78
f 16/74/74 38/83/71 57/84/83 48/85/84
f 122/86/85 57/84/83 38/83/71 114/87/73 121/88/86
f 57/84/83 122/86/85 123/89/87 124/90/88
f 126/91/89 17/92/90 48/85/84 57/84/83 124/90/88 125/93/91
f 127/94/92 128/95/93 44/96/94 12/97/82 120/98/81
f 130/99/95 129/100/96 41/101/97
f 41/101/97 13/102/98 44/96/94 128/95/93 130/99/95
f 13/102/98 41/101/97 58/103/99 43/104/100
f 131/105/101 58/103/99 41/101/97 129/100/96
f 7/106/102 42/107/103 58/103/99 131/105/101 132/108/104
f 42/107/103 134/109/105 133/110/106 43/104/100 58/103/99
f 6/111/107 137/112/108 136/113/109 135/114/110
f 18/115/111 139/116/112 138/117/113 140/118/114
f 132/108/104 141/119/115 7/106/102
f 59/120/116 33/121/117 143/122/118 142/123/119
f 34/124/120 59/120/116 142/123/119 144/125/121
f 59/120/116 34/124/120 9/126/122 32/127/123
f 33/121/117 59/120/116 32/127/123 10/128/124
f 60/129/125 35/130/126 146/131/127 145/132/128
f 137/112/108 6/111/107 36/133/129 60/129/125 145/132/128 147/134/130
f 60/129/125 36/133/129 149/135/131 148/136/132 150/137/133
f 35/130/126 60/129/125 150/137/133 151/138/134 8/139/135
f 37/140/136 7/106/102 141/119/115 152/141/137 61/142/138
f 33/121/117 61/142/138 152/141/137 143/122/118
f 61/142/138 33/121/117 10/128/124 154/143/139 153/144/140
f 37/140/136 61/142/138 153/144/140 155/145/141
f 62/146/142 34/124/120 144/125/121 156/147/143
f 35/130/126 62/146/142 156/147/143 146/131/127
f 62/146/142 35/130/126 8/139/135 31/148/144
f 34/124/120 62/146/142 31/148/144 9/126/122
f 42/107/103 157/149/145 134/109/105
f 42/107/103 7/106/102 37/140/136 158/150/146 157/149/145
f 37/140/136 155/145/141 158/150/146
f 10/128/124 159/151/147 154/143/139
f 9/126/122 31/148/144 160/152/148 161/153/149
f 31/148/144 8/139/135 162/154/150 160/152/148
f 10/128/124 32/127/123 163/155/151 159/151/147
f 32/127/123 9/126/122 161/153/149 163/155/151
f 8/139/135 151/138/134 162/154/150
f 29/156/152 165/157/153 164/158/154
f 29/156/152 13/102/98 43/104/100 166/159/155 165/157/153
f 43/104/100 133/110/106 166/159/155
f 28/160/156 63/161/157 169/162/158 167/163/159 168/164/160
f 28/160/156 12/97/82 44/96/94 63/161/157
f 63/161/157 44/96/94 13/102/98 29/156/152
f 63/161/157 29/156/152 164/158/154 170/165/161 169/162/158
f 27/166/162 64/167/163 173/168/164 171/169/165 172/170/166
f 27/166/162 11/59/59 45/75/75 64/167/163
f 64/167/163 45/75/75 12/82/82 28/171/156
f 64/167/163 28/171/156 168/172/160 174/173/167 173/168/164
f 100/51/51 46/50/50 175/174/168
f 46/50/50 11/59/59 27/166/162 176/175/169 175/174/168
f 177/176/170 176/175/169 27/166/162 172/170/166
f 6/111/107 30/177/171 65/178/172 36/133/129
f 179/179/173 65/178/172 30/177/171 18/115/111 140/118/114 178/180/174
f 65/178/172 179/179/173 180/181/175 181/182/176
f 36/133/129 65/178/172 181/182/176 182/183/177 149/135/131
f 66/184/178 185/185/179 183/186/180 184/187/181
f 186/188/182 17/92/90 47/189/183 66/184/178 184/187/181
f 66/184/178 47/189/183 18/115/111 30/177/171
f 185/185/179 66/184/178 30/177/171 6/111/107 135/114/110
f 187/190/184 16/74/74 48/85/84 189/191/185 188/192/186
f 189/191/185 48/85/84 17/92/90 186/188/182 190/193/187
f 15/64/64 49/68/68 192/194/188 191/195/189
f 192/194/188 49/68/68 16/74/74 187/190/184
f 106/60/60 4/37/37 21/196/190 67/197/191 193/198/192
f 21/196/190 14/13/13 50/61/61 67/197/191
f 50/61/61 15/64/64 191/195/189 194/199/193 67/197/191
f 193/198/192 67/197/191 194/199/193
f 195/200/194 68/201/195 22/35/35 89/36/36
f 68/201/195 195/200/194 196/202/196
f 76/14/14 14/13/13 21/196/190 68/201/195 196/202/196
f 22/35/35 68/201/195 21/196/190 4/37/37
f 139/116/112 18/115/111 47/189/183 198/203/197 197/204/198
f 198/203/197 47/189/183 17/92/90 126/91/89
s off
f 152/205/199 141/206/199 132/207/199 131/208/199 129/209/199 130/210/199 128/211/199 127/212/199 120/213/199 119/214/199 117/215/199 116/216/199 115/217/199 118/218/199 105/219/199 104/220/199 103/221/199 102/222/199 101/223/199 97/224/199 96/225/199 95/226/199 87/227/199 86/228/199 85/229/199 98/230/199 92/231/199 90/232/199 91/233/199 106/234/199 193/235/199 194/236/199 191/237/199 192/238/199 187/239/199 188/240/199 189/241/199 190/242/199 186/243/199 184/244/199 183/245/199 185/246/199 135/247/199 136/248/199 137/249/199 147/250/199 145/251/199 146/252/199 156/253/199 144/254/199 142/255/199 143/256/199
f 110/257/200 109/258/200 108/259/200 107/260/200 77/261/200 76/262/200 196/263/200 195/264/200 89/265/200 88/266/200 75/267/200 71/268/200 72/269/200 73/270/200 74/271/200 69/272/200 70/273/200 93/274/200 94/275/200 78/276/200 79/277/200 80/278/200 81/279/200 82/280/200 83/281/200 84/282/200 99/283/200 100/284/200 175/285/200 176/286/200 177/287/200 172/288/200 171/289/200 173/290/200 174/291/200 168/292/200 167/293/200 169/294/200 170/295/200 164/296/200 165/297/200 166/298/200 133/299/200 134/300/200 157/301/200 158/302/200 155/303/200 153/304/200 154/305/200 159/306/200 163/307/200 161/308/200 160/309/200 162/310/200 151/311/200 150/312/200 148/313/200 149/314/200 182/315/200 181/316/200 180/317/200 179/318/200 178/319/200 140/320/200 138/321/200 139/322/200 197/323/200 198/324/200 126/325/200 125/326/200 124/327/200 123/328/200 122/329/200 121/330/200 114/331/200 113/332/200 112/333/200 111/334/200
