# Blender v3.2.1 OBJ File: 'apple.blend'
# www.blender.org
o Apple.Slices.001_Sphere.002
v 0.000009 1.551602 -0.699165
v 0.267604 1.548712 -0.645925
v 0.274300 0.276419 -0.637258
v 0.624166 1.270537 -0.624166
v 0.675468 0.902912 -0.675468
v 0.624122 0.539042 -0.624122
v -0.624165 1.270537 -0.624166
v -0.675468 0.902912 -0.675468
v -0.624121 0.539042 -0.624122
v -0.267512 1.548751 -0.645959
v -0.274299 0.276419 -0.637258
v 0.000000 0.275052 -0.691387
v 0.234509 1.612638 -0.563913
v 0.304421 1.427305 -0.734937
v 0.305492 0.396553 -0.733720
v 0.136081 1.551216 -0.683981
v 0.562496 1.420865 -0.562496
v 0.660840 1.092214 -0.660839
v 0.660840 0.714043 -0.660839
v 0.561752 0.397730 -0.561688
v 0.489181 1.271428 -0.732111
v 0.387475 1.542283 -0.579847
v 0.389075 0.280558 -0.572130
v 0.489193 0.539004 -0.732058
v -0.562496 1.420865 -0.562496
v -0.660839 1.092214 -0.660840
v -0.660839 0.714043 -0.660840
v -0.561765 0.397730 -0.561620
v -0.232921 1.613302 -0.564526
v -0.304420 1.427305 -0.734937
v -0.305492 0.396553 -0.733720
v -0.489181 1.271428 -0.732111
v -0.387429 1.542305 -0.579874
v -0.389088 0.280558 -0.572062
v -0.489192 0.539004 -0.732058
v -0.140756 0.275166 -0.675712
v 0.000289 1.616468 -0.610730
v 0.140757 0.275166 -0.675712
v -0.136026 1.551235 -0.683998
v 0.000000 0.176788 -0.586231
v 0.155471 0.396439 -0.777107
v 0.133919 0.177472 -0.571653
v 0.517922 1.092370 -0.775125
v 0.517922 0.714043 -0.775125
v 0.440838 1.423472 -0.659760
v 0.441068 0.397198 -0.658688
v -0.440837 1.423472 -0.659760
v -0.441067 0.397198 -0.658688
v -0.517922 1.092370 -0.775125
v -0.517922 0.714043 -0.775125
v -0.155470 0.396439 -0.777107
v -0.133918 0.177472 -0.571653
v -0.118295 1.616132 -0.597653
v 0.119392 1.615745 -0.597309
v 0.153939 0.396439 -0.777278
v 0.000000 0.376214 -0.777278
v 0.155503 0.396721 -0.777278
v 0.322744 0.472453 -0.777278
v 0.000000 0.158982 -0.556056
v 0.132217 0.168200 -0.556056
v 0.258110 0.199831 -0.556056
v 0.188748 0.179632 -0.556056
v 0.000002 1.452125 -0.777278
v 0.154611 1.429981 -0.777278
v 0.158127 1.428699 -0.777278
v 0.321959 1.346038 -0.777278
v 0.514015 1.092375 -0.777278
v 0.519360 1.068610 -0.777278
v 0.407197 1.272092 -0.777278
v 0.548161 0.902922 -0.777278
v 0.326769 0.235066 -0.556056
v 0.381041 0.265127 -0.556056
v 0.408456 0.281137 -0.556056
v 0.514015 0.714043 -0.777278
v 0.407132 0.538984 -0.777278
v 0.519360 0.737732 -0.777278
v 0.363091 1.309677 -0.777278
v 0.474418 1.495271 -0.556056
v 0.417237 1.541083 -0.556056
v 0.556057 1.431938 -0.556056
v 0.556173 0.388908 -0.556056
v 0.744631 0.714043 -0.556056
v 0.678561 0.539023 -0.556056
v 0.770964 0.902921 -0.556056
v 0.567646 1.421003 -0.556056
v 0.678633 1.270986 -0.556056
v 0.563136 1.425333 -0.556056
v 0.566260 0.397705 -0.556056
v 0.744631 1.092328 -0.556056
v -0.770964 0.902921 -0.556056
v -0.744631 0.714043 -0.556056
v -0.678554 0.539023 -0.556056
v -0.556054 1.431942 -0.556056
v -0.567645 1.421003 -0.556056
v -0.678632 1.270986 -0.556056
v -0.566208 0.397706 -0.556056
v -0.556321 0.389103 -0.556056
v -0.744631 1.092328 -0.556056
v -0.417234 1.541098 -0.556056
v -0.407196 1.272092 -0.777278
v -0.321959 1.346038 -0.777278
v -0.470316 0.328877 -0.556056
v -0.408244 0.281129 -0.556056
v -0.407131 0.538984 -0.777278
v -0.322744 0.472454 -0.777278
v -0.548160 0.902922 -0.777278
v -0.519360 1.068611 -0.777278
v -0.514015 1.092375 -0.777278
v -0.392053 0.272810 -0.556056
v -0.381136 0.265258 -0.556056
v -0.311021 0.233596 -0.556056
v -0.258117 0.199848 -0.556056
v -0.519360 0.737731 -0.777278
v -0.514015 0.714043 -0.777278
v -0.155502 0.396721 -0.777278
v -0.153938 0.396439 -0.777278
v -0.188713 0.179631 -0.556056
v -0.145009 0.171128 -0.556056
v -0.132216 0.168200 -0.556056
v -0.239036 0.194779 -0.556056
v -0.158126 1.428699 -0.777278
v -0.154610 1.429982 -0.777278
v -0.228944 1.615946 -0.556056
v -0.108476 1.628361 -0.556056
v 0.001534 1.631707 -0.556056
v -0.371326 1.562981 -0.556056
v -0.248356 1.612187 -0.556056
v 0.313535 1.585125 -0.556056
v 0.248757 1.611635 -0.556056
v 0.371780 1.562665 -0.556056
v 0.231684 1.614701 -0.556056
v 0.237209 1.613648 -0.556056
v 0.048318 1.628931 -0.556056
v 0.112678 1.626663 -0.556056
v 0.144430 1.622852 -0.556056
vt 0.717326 0.541666
vt 0.659449 0.533267
vt 0.631852 0.486616
vt 0.631692 0.486169
vt 0.687222 0.483811
vt 0.631582 0.486173
vt 0.615507 0.440749
vt 0.593330 0.448632
vt 0.657119 0.425956
vt 0.787992 0.453138
vt 0.772114 0.473029
vt 0.725766 0.427774
vt 0.731626 0.419255
vt 0.675249 0.390641
vt 0.704671 0.407178
vt 0.469571 0.493677
vt 0.459604 0.491053
vt 0.459832 0.482520
vt 0.472092 0.483185
vt 0.460059 0.473987
vt 0.472543 0.472094
vt 0.472226 0.482945
vt 0.479103 0.471099
vt 0.496616 0.452627
vt 0.496471 0.452247
vt 0.498492 0.451573
vt 0.482886 0.464434
vt 0.480358 0.457620
vt 0.475691 0.445038
vt 0.490533 0.436655
vt 0.505375 0.428271
vt 0.511658 0.444483
vt 0.654916 0.387334
vt 0.634009 0.391825
vt 0.638628 0.385292
vt 0.629551 0.385241
vt 0.537109 0.437820
vt 0.561633 0.428766
vt 0.568282 0.443285
vt 0.537346 0.438373
vt 0.534033 0.438955
vt 0.527373 0.415131
vt 0.549371 0.401991
vt 0.469016 0.461611
vt 0.481003 0.467933
vt 0.457673 0.465602
vt 0.464524 0.451703
vt 0.465488 0.451128
vt 0.457008 0.463268
vt 0.460258 0.458639
vt 0.597821 0.410295
vt 0.580135 0.379842
vt 0.582512 0.378131
vt 0.515777 0.402077
vt 0.539955 0.391407
vt 0.494777 0.416314
vt 0.465088 0.450705
vt 0.471222 0.440094
vt 0.464868 0.451101
vt 0.579110 0.378741
vt 0.482534 0.427701
vt 0.469179 0.573046
vt 0.483037 0.599565
vt 0.463484 0.605464
vt 0.452611 0.578124
vt 0.496894 0.626085
vt 0.480217 0.631066
vt 0.445509 0.529147
vt 0.446086 0.530149
vt 0.445515 0.530324
vt 0.452185 0.540744
vt 0.445606 0.542937
vt 0.523573 0.671710
vt 0.521470 0.672723
vt 0.525589 0.675158
vt 0.460682 0.556895
vt 0.448472 0.560766
vt 0.454327 0.522402
vt 0.462408 0.531590
vt 0.444502 0.514981
vt 0.446247 0.513214
vt 0.452507 0.506875
vt 0.462569 0.514655
vt 0.467856 0.518744
vt 0.467944 0.526633
vt 0.556833 0.642734
vt 0.590846 0.681542
vt 0.583119 0.688356
vt 0.556130 0.684603
vt 0.522819 0.603927
vt 0.590093 0.613759
vt 0.536877 0.591911
vt 0.568056 0.596709
vt 0.631442 0.645749
vt 0.473822 0.545331
vt 0.475254 0.547054
vt 0.483173 0.560867
vt 0.474142 0.545049
vt 0.590590 0.689424
vt 0.595992 0.690464
vt 0.647397 0.690275
vt 0.624700 0.689666
vt 0.504028 0.581499
vt 0.501671 0.578686
vt 0.504539 0.581059
vt 0.618985 0.572674
vt 0.674384 0.593708
vt 0.618876 0.572632
vt 0.619270 0.572269
vt 0.704121 0.670136
vt 0.681302 0.677533
vt 0.706524 0.658350
vt 0.711411 0.668177
vt 0.656122 0.686525
vt 0.761979 0.616174
vt 0.774919 0.637766
vt 0.467128 0.504699
vt 0.456056 0.498964
vt 0.467118 0.504416
vt 0.448125 0.503621
vt 0.451197 0.496695
vt 0.449194 0.495760
vt 0.447733 0.503330
vt 0.451470 0.489096
vt 0.454269 0.489769
vt 0.445061 0.511879
vt 0.447316 0.504429
vt 0.456039 0.466197
vt 0.454809 0.474773
vt 0.454511 0.473773
vt 0.455310 0.469776
vt 0.454389 0.474836
vt 0.454428 0.474489
vt 0.454539 0.482271
vt 0.452421 0.482172
vt 0.451882 0.486177
vt 0.452959 0.480201
vt 0.000000 0.000000
vt 0.000000 0.000000
vt 0.000000 0.000000
vt 0.000000 0.000000
vt 0.000000 0.000000
vt 0.000000 0.000000
vt 0.000000 0.000000
vt 0.000000 0.000000
vt 0.000000 0.000000
vt 0.000000 0.000000
vt 0.000000 0.000000
vt 0.000000 0.000000
vt 0.000000 0.000000
vt 0.000000 0.000000
vt 0.000000 0.000000
vt 0.000000 0.000000
vt 0.000000 0.000000
vt 0.000000 0.000000
vt 0.000000 0.000000
vt 0.000000 0.000000
vt 0.000000 0.000000
vt 0.000000 0.000000
vt 0.000000 0.000000
vt 0.000000 0.000000
vt 0.000000 0.000000
vt 0.000000 0.000000
vt 0.000000 0.000000
vt 0.000000 0.000000
vt 0.000000 0.000000
vt 0.000000 0.000000
vt 0.000000 0.000000
vt 0.000000 0.000000
vt 0.000000 0.000000
vt 0.000000 0.000000
vt 0.000000 0.000000
vt 0.000000 0.000000
vt 0.000000 0.000000
vt 0.000000 0.000000
vt 0.000000 0.000000
vt 0.000000 0.000000
vt 0.000000 0.000000
vt 0.000000 0.000000
vt 0.000000 0.000000
vt 0.000000 0.000000
vt 0.000000 0.000000
vt 0.000000 0.000000
vt 0.000000 0.000000
vt 0.000000 0.000000
vt 0.000000 0.000000
vt 0.000000 0.000000
vt 0.000000 0.000000
vt 0.000000 0.000000
vt 0.000000 0.000000
vt 0.000000 0.000000
vt 0.000000 0.000000
vt 0.000000 0.000000
vt 0.000000 0.000000
vt 0.000000 0.000000
vt 0.000000 0.000000
vt 0.000000 0.000000
vt 0.000000 0.000000
vt 0.000000 0.000000
vt 0.000000 0.000000
vt 0.000000 0.000000
vt 0.000000 0.000000
vt 0.000000 0.000000
vt 0.000000 0.000000
vt 0.000000 0.000000
vt 0.000000 0.000000
vt 0.000000 0.000000
vt 0.000000 0.000000
vt 0.000000 0.000000
vt 0.000000 0.000000
vt 0.000000 0.000000
vt 0.000000 0.000000
vt 0.000000 0.000000
vt 0.000000 0.000000
vt 0.000000 0.000000
vt 0.000000 0.000000
vt 0.000000 0.000000
vt 0.000000 0.000000
vn -0.0000 -0.6884 -0.7253
vn -0.0000 -0.3696 -0.9292
vn 0.0462 -0.3438 -0.9379
vn 0.1584 -0.5851 -0.7954
vn 0.1449 -0.6869 -0.7121
vn 0.1014 -0.2938 -0.9505
vn 0.3135 -0.5857 -0.7474
vn 0.2046 -0.2982 -0.9323
vn 0.2923 -0.6846 -0.6677
vn -0.0000 -0.8771 0.4804
vn -0.0000 -0.7977 -0.6031
vn 0.1305 -0.7962 -0.5908
vn 0.1116 -0.8672 0.4853
vn 0.3152 -0.8572 0.4073
vn 0.2392 -0.8780 0.4146
vn 0.0000 0.3529 -0.9357
vn 0.0004 0.7144 -0.6997
vn 0.1435 0.7163 -0.6829
vn 0.0962 0.3478 -0.9326
vn 0.2859 0.7196 -0.6328
vn 0.3271 0.5574 -0.7631
vn 0.1265 0.3281 -0.9361
vn 0.2132 0.2798 -0.9361
vn 0.2680 0.1186 -0.9561
vn 0.5457 0.1929 -0.8155
vn 0.3293 0.0580 -0.9424
vn 0.2550 0.2453 -0.9353
vn 0.5153 0.3873 -0.7645
vn 0.6517 0.3892 -0.6510
vn 0.6938 0.1933 -0.6938
vn 0.7071 -0.0001 -0.7071
vn 0.3625 -0.0001 -0.9320
vn 0.4093 -0.7932 0.4509
vn 0.4183 -0.6909 -0.5897
vn 0.4188 -0.7810 0.4633
vn 0.5049 -0.7331 0.4556
vn 0.5448 -0.1960 -0.8153
vn 0.5085 -0.4059 -0.7594
vn 0.2515 -0.2619 -0.9317
vn 0.2680 -0.1212 -0.9558
vn 0.3293 -0.0582 -0.9424
vn 0.6934 -0.1962 -0.6934
vn 0.6462 -0.4068 -0.6457
vn 0.4696 0.5616 -0.6812
vn 0.2275 0.2624 -0.9378
vn 0.4056 0.7219 -0.5606
vn 0.5651 0.6928 0.4479
vn 0.5836 0.5650 -0.5833
vn 0.5105 0.7371 0.4429
vn 0.5532 0.7018 0.4489
vn 0.4545 -0.5883 -0.6689
vn 0.5695 -0.5946 -0.5675
vn 0.5378 -0.7089 0.4564
vn 0.8833 -0.2156 0.4163
vn 0.7986 -0.4237 0.4274
vn 0.9143 -0.0001 0.4051
vn 0.6744 0.5719 0.4670
vn 0.8056 0.4102 0.4275
vn 0.5937 0.6292 0.5015
vn 0.6514 -0.5922 0.4743
vn 0.8838 0.2129 0.4167
vn -0.7071 -0.0001 -0.7071
vn -0.6934 -0.1962 -0.6933
vn -0.8833 -0.2157 0.4163
vn -0.9143 -0.0001 0.4051
vn -0.6462 -0.4069 -0.6456
vn -0.7986 -0.4238 0.4274
vn -0.5654 0.6931 0.4472
vn -0.5840 0.5653 -0.5826
vn -0.6745 0.5719 0.4669
vn -0.6517 0.3892 -0.6510
vn -0.8056 0.4102 0.4275
vn -0.5704 -0.5962 -0.5650
vn -0.6510 -0.5926 0.4745
vn -0.5370 -0.7081 0.4585
vn -0.6938 0.1933 -0.6938
vn -0.8838 0.2129 0.4167
vn -0.4694 0.5613 -0.6816
vn -0.5154 0.3875 -0.7643
vn -0.5108 0.7368 0.4430
vn -0.4057 0.7203 -0.5627
vn -0.2861 0.7179 -0.6346
vn -0.3272 0.5575 -0.7630
vn -0.2128 0.2793 -0.9363
vn -0.2546 0.2448 -0.9355
vn -0.4555 -0.5898 -0.6668
vn -0.4256 -0.7032 -0.5696
vn -0.5053 -0.7332 0.4551
vn -0.5247 -0.7162 0.4602
vn -0.5085 -0.4059 -0.7593
vn -0.3136 -0.5857 -0.7474
vn -0.2515 -0.2619 -0.9317
vn -0.2046 -0.2982 -0.9323
vn -0.2950 -0.6900 -0.6609
vn -0.5457 0.1929 -0.8155
vn -0.3293 0.0580 -0.9424
vn -0.3625 -0.0001 -0.9320
vn -0.2680 0.1186 -0.9561
vn -0.4310 -0.7361 0.5219
vn -0.4194 -0.7816 0.4618
vn -0.3160 -0.8608 0.3989
vn -0.4052 -0.7847 0.4690
vn -0.5448 -0.1960 -0.8153
vn -0.3293 -0.0582 -0.9424
vn -0.2680 -0.1212 -0.9558
vn -0.1584 -0.5851 -0.7954
vn -0.1450 -0.6870 -0.7120
vn -0.1014 -0.2938 -0.9505
vn -0.0462 -0.3438 -0.9379
vn -0.1703 -0.8417 0.5124
vn -0.2394 -0.8784 0.4136
vn -0.1310 -0.7985 -0.5875
vn -0.1116 -0.8672 0.4853
vn -0.2470 -0.8758 0.4146
vn -0.1265 0.3281 -0.9361
vn -0.1431 0.7154 -0.6839
vn -0.0962 0.3477 -0.9327
vn -0.2033 0.8943 -0.3986
vn -0.0977 0.8948 -0.4356
vn -0.0496 0.8005 0.5973
vn -0.1063 0.7892 0.6049
vn 0.0038 0.8028 0.5963
vn 0.0023 0.8958 -0.4444
vn -0.3349 0.7980 0.5011
vn -0.2924 0.8149 0.5005
vn 0.3335 0.7981 0.5019
vn 0.1995 0.9019 -0.3832
vn 0.2889 0.8156 0.5013
vn 0.3180 0.8030 0.5041
vn 0.1014 0.7803 0.6171
vn 0.1360 0.7573 0.6387
vn 0.0994 0.9005 -0.4234
vn 0.0531 0.7941 0.6055
vn 0.0323 0.7915 0.6104
vn 0.0774 0.7789 0.6223
vn -0.0000 0.0000 1.0000
vn -0.0000 0.0000 -1.0000
s 1
f 12/1/1 56/2/2 55/3/3 41/4/4 38/5/5
f 41/4/4 55/3/3 57/6/6
f 15/7/7 41/4/4 57/6/6 58/8/8
f 38/5/5 41/4/4 15/7/7 3/9/9
f 59/10/10 40/11/11 42/12/12 60/13/13
f 40/11/11 12/1/1 38/5/5 42/12/12
f 38/5/5 3/9/9 61/14/14 62/15/15 42/12/12
f 42/12/12 62/15/15 60/13/13
f 63/16/16 1/17/17 16/18/18 64/19/19
f 16/18/18 2/20/20 14/21/21 65/22/22 64/19/19
f 65/22/22 14/21/21 66/23/23
f 67/24/24 43/25/25 68/26/26
f 69/27/27 21/28/28 43/25/25 67/24/24
f 43/25/25 21/28/28 4/29/29 18/30/30
f 43/25/25 18/30/30 5/31/31 70/32/32 68/26/26
f 71/33/33 61/14/14 3/9/9 23/34/34 72/35/35
f 73/36/36 72/35/35 23/34/34
f 44/37/37 24/38/38 75/39/39 74/40/40
f 44/37/37 74/40/40 76/41/41
f 5/31/31 19/42/42 44/37/37 76/41/41 70/32/32
f 24/38/38 44/37/37 19/42/42 6/43/43
f 14/21/21 45/44/44 21/28/28 69/27/27 77/45/45 66/23/23
f 14/21/21 2/20/20 22/46/46 45/44/44
f 80/47/47 17/48/48 45/44/44 22/46/46 79/49/49 78/50/50
f 21/28/28 45/44/44 17/48/48 4/29/29
f 3/9/9 15/7/7 46/51/51 23/34/34
f 15/7/7 58/8/8 75/39/39 24/38/38 46/51/51
f 46/51/51 24/38/38 6/43/43 20/52/52
f 46/51/51 20/52/52 81/53/53 73/36/36 23/34/34
f 6/43/43 19/42/42 82/54/54 83/55/55
f 19/42/42 5/31/31 84/56/56 82/54/54
f 4/29/29 17/48/48 85/57/57 86/58/58
f 17/48/48 80/47/47 87/59/59 85/57/57
f 88/60/60 81/53/53 20/52/52
f 20/52/52 6/43/43 83/55/55 88/60/60
f 5/31/31 18/30/30 89/61/61 84/56/56
f 18/30/30 4/29/29 86/58/58 89/61/61
f 8/62/62 27/63/63 91/64/64 90/65/65
f 27/63/63 9/66/66 92/67/67 91/64/64
f 93/68/68 25/69/69 94/70/70
f 25/69/69 7/71/71 95/72/72 94/70/70
f 9/66/66 28/73/73 96/74/74 92/67/67
f 96/74/74 28/73/73 97/75/75
f 7/71/71 26/76/76 98/77/77 95/72/72
f 26/76/76 8/62/62 90/65/65 98/77/77
f 7/71/71 25/69/69 47/78/78 32/79/79
f 47/78/78 25/69/69 93/68/68 99/80/80 33/81/81
f 47/78/78 33/81/81 10/82/82 30/83/83
f 32/79/79 47/78/78 30/83/83 101/84/84 100/85/85
f 28/73/73 48/86/86 34/87/87 103/88/88 102/89/89 97/75/75
f 28/73/73 9/66/66 35/90/90 48/86/86
f 31/91/91 48/86/86 35/90/90 104/92/92 105/93/93
f 34/87/87 48/86/86 31/91/91 11/94/94
f 8/62/62 26/76/76 49/95/95 107/96/96 106/97/97
f 26/76/76 7/71/71 32/79/79 49/95/95
f 49/95/95 32/79/79 100/85/85 108/98/98
f 108/98/98 107/96/96 49/95/95
f 109/99/99 103/88/88 34/87/87 110/100/100
f 34/87/87 11/94/94 112/101/101 111/102/102 110/100/100
f 9/66/66 27/63/63 50/103/103 35/90/90
f 50/103/103 27/63/63 8/62/62 106/97/97 113/104/104
f 114/105/105 50/103/103 113/104/104
f 104/92/92 35/90/90 50/103/103 114/105/105
f 11/94/94 31/91/91 51/106/106 36/107/107
f 51/106/106 31/91/91 105/93/93 115/108/108
f 116/109/109 51/106/106 115/108/108
f 12/1/1 36/107/107 51/106/106 116/109/109 56/2/2
f 118/110/110 117/111/111 52/112/112 119/113/113
f 11/94/94 36/107/107 52/112/112 117/111/111 120/114/114 112/101/101
f 52/112/112 36/107/107 12/1/1 40/115/11
f 52/112/112 40/115/11 59/116/10 119/113/113
f 121/117/115 101/84/84 30/83/83
f 30/83/83 10/82/82 39/118/116 122/119/117 121/117/115
f 122/119/117 39/118/116 1/17/17 63/16/16
f 10/82/82 29/120/118 53/121/119 39/118/116
f 124/122/120 53/121/119 29/120/118 123/123/121
f 125/124/122 37/125/123 53/121/119 124/122/120
f 39/118/116 53/121/119 37/125/123 1/17/17
f 126/126/124 33/81/81 99/80/80
f 123/123/121 29/120/118 127/127/125
f 127/127/125 29/120/118 10/82/82 33/81/81 126/126/124
f 130/128/126 22/46/46 2/20/20 13/129/127 129/130/128 128/131/129
f 13/129/127 131/132/130 132/133/131 129/130/128
f 22/46/46 130/128/126 79/49/49
f 1/17/17 37/125/123 54/134/132 16/18/18
f 134/135/133 54/134/132 37/125/123 125/124/122 133/136/134
f 131/132/130 13/129/127 54/134/132 134/135/133 135/137/135
f 16/18/18 54/134/132 13/129/127 2/20/20
s off
f 135/138/136 134/139/136 133/140/136 125/141/136 124/142/136 123/143/136 127/144/136 126/145/136 99/146/136 93/147/136 94/148/136 95/149/136 98/150/136 90/151/136 91/152/136 92/153/136 96/154/136 97/155/136 102/156/136 103/157/136 109/158/136 110/159/136 111/160/136 112/161/136 120/162/136 117/163/136 118/164/136 119/165/136 59/166/136 60/167/136 62/168/136 61/169/136 71/170/136 72/171/136 73/172/136 81/173/136 88/174/136 83/175/136 82/176/136 84/177/136 89/178/136 86/179/136 85/180/136 87/181/136 80/182/136 78/183/136 79/184/136 130/185/136 128/186/136 129/187/136 132/188/136 131/189/136
f 55/190/137 56/191/137 116/192/137 115/193/137 105/194/137 104/195/137 114/196/137 113/197/137 106/198/137 107/199/137 108/200/137 100/201/137 101/202/137 121/203/137 122/204/137 63/205/137 64/206/137 65/207/137 66/208/137 77/209/137 69/210/137 67/211/137 68/212/137 70/213/137 76/214/137 74/215/137 75/216/137 58/217/137 57/218/137
